<svg width="78" height="78" viewBox="0 0 78 78" fill="none" xmlns="http://www.w3.org/2000/svg">
<g filter="url(#filter0_d)">
<circle cx="39" cy="35" r="35" fill="white"/>
</g>
<path d="M69.3326 49.8742L66.6324 39.9843L60.0791 47.4633L69.3326 49.8742Z" fill="#C4C4C4" stroke="black" stroke-width="0.5"/>
<path d="M35.25 40.5C35.25 43.2772 37.1274 45.8342 40.2543 47.7102C43.3761 49.5834 47.705 50.75 52.5 50.75C57.295 50.75 61.6239 49.5834 64.7457 47.7102C67.8726 45.8342 69.75 43.2772 69.75 40.5C69.75 37.7228 67.8726 35.1658 64.7457 33.2898C61.6239 31.4166 57.295 30.25 52.5 30.25C47.705 30.25 43.3761 31.4166 40.2543 33.2898C37.1274 35.1658 35.25 37.7228 35.25 40.5Z" fill="#C4C4C4" stroke="black" stroke-width="0.5"/>
<path d="M8.66743 33.8742L11.3676 23.9843L17.9209 31.4633L8.66743 33.8742Z" fill="#C4C4C4" stroke="black" stroke-width="0.5"/>
<path d="M42.75 24.5C42.75 27.2772 40.8726 29.8342 37.7457 31.7102C34.6239 33.5834 30.295 34.75 25.5 34.75C20.705 34.75 16.3761 33.5834 13.2543 31.7102C10.1274 29.8342 8.25 27.2772 8.25 24.5C8.25 21.7228 10.1274 19.1658 13.2543 17.2898C16.3761 15.4166 20.705 14.25 25.5 14.25C30.295 14.25 34.6239 15.4166 37.7457 17.2898C40.8726 19.1658 42.75 21.7228 42.75 24.5Z" fill="#C4C4C4" stroke="black" stroke-width="0.5"/>
<path d="M19.0078 26.1953C18.7995 26.1953 18.6074 26.1562 18.4316 26.0781C18.2559 26 18.1029 25.8958 17.9727 25.7656C17.849 25.6289 17.748 25.4727 17.6699 25.2969C17.5983 25.1211 17.5625 24.9388 17.5625 24.75C17.5625 24.5547 17.5983 24.3691 17.6699 24.1934C17.748 24.0111 17.849 23.8516 17.9727 23.7148C18.1029 23.5781 18.2559 23.4707 18.4316 23.3926C18.6074 23.3079 18.7995 23.2656 19.0078 23.2656C19.2096 23.2656 19.3984 23.3079 19.5742 23.3926C19.7565 23.4707 19.9095 23.5781 20.0332 23.7148C20.1634 23.8516 20.2643 24.0111 20.3359 24.1934C20.4141 24.3691 20.4531 24.5547 20.4531 24.75C20.4531 24.9388 20.4141 25.1211 20.3359 25.2969C20.2643 25.4727 20.1634 25.6289 20.0332 25.7656C19.9095 25.8958 19.7565 26 19.5742 26.0781C19.3984 26.1562 19.2096 26.1953 19.0078 26.1953ZM25.0234 26.1953C24.8151 26.1953 24.623 26.1562 24.4473 26.0781C24.2715 26 24.1185 25.8958 23.9883 25.7656C23.8646 25.6289 23.7637 25.4727 23.6855 25.2969C23.6139 25.1211 23.5781 24.9388 23.5781 24.75C23.5781 24.5547 23.6139 24.3691 23.6855 24.1934C23.7637 24.0111 23.8646 23.8516 23.9883 23.7148C24.1185 23.5781 24.2715 23.4707 24.4473 23.3926C24.623 23.3079 24.8151 23.2656 25.0234 23.2656C25.2253 23.2656 25.4141 23.3079 25.5898 23.3926C25.7721 23.4707 25.9251 23.5781 26.0488 23.7148C26.179 23.8516 26.2799 24.0111 26.3516 24.1934C26.4297 24.3691 26.4688 24.5547 26.4688 24.75C26.4688 24.9388 26.4297 25.1211 26.3516 25.2969C26.2799 25.4727 26.179 25.6289 26.0488 25.7656C25.9251 25.8958 25.7721 26 25.5898 26.0781C25.4141 26.1562 25.2253 26.1953 25.0234 26.1953ZM31.0391 26.1953C30.8307 26.1953 30.6387 26.1562 30.4629 26.0781C30.2871 26 30.1341 25.8958 30.0039 25.7656C29.8802 25.6289 29.7793 25.4727 29.7012 25.2969C29.6296 25.1211 29.5938 24.9388 29.5938 24.75C29.5938 24.5547 29.6296 24.3691 29.7012 24.1934C29.7793 24.0111 29.8802 23.8516 30.0039 23.7148C30.1341 23.5781 30.2871 23.4707 30.4629 23.3926C30.6387 23.3079 30.8307 23.2656 31.0391 23.2656C31.2409 23.2656 31.4297 23.3079 31.6055 23.3926C31.7878 23.4707 31.9408 23.5781 32.0645 23.7148C32.1947 23.8516 32.2956 24.0111 32.3672 24.1934C32.4453 24.3691 32.4844 24.5547 32.4844 24.75C32.4844 24.9388 32.4453 25.1211 32.3672 25.2969C32.2956 25.4727 32.1947 25.6289 32.0645 25.7656C31.9408 25.8958 31.7878 26 31.6055 26.0781C31.4297 26.1562 31.2409 26.1953 31.0391 26.1953Z" fill="black"/>
<path d="M46.0078 42.1953C45.7995 42.1953 45.6074 42.1562 45.4316 42.0781C45.2559 42 45.1029 41.8958 44.9727 41.7656C44.849 41.6289 44.748 41.4727 44.6699 41.2969C44.5983 41.1211 44.5625 40.9388 44.5625 40.75C44.5625 40.5547 44.5983 40.3691 44.6699 40.1934C44.748 40.0111 44.849 39.8516 44.9727 39.7148C45.1029 39.5781 45.2559 39.4707 45.4316 39.3926C45.6074 39.3079 45.7995 39.2656 46.0078 39.2656C46.2096 39.2656 46.3984 39.3079 46.5742 39.3926C46.7565 39.4707 46.9095 39.5781 47.0332 39.7148C47.1634 39.8516 47.2643 40.0111 47.3359 40.1934C47.4141 40.3691 47.4531 40.5547 47.4531 40.75C47.4531 40.9388 47.4141 41.1211 47.3359 41.2969C47.2643 41.4727 47.1634 41.6289 47.0332 41.7656C46.9095 41.8958 46.7565 42 46.5742 42.0781C46.3984 42.1562 46.2096 42.1953 46.0078 42.1953ZM52.0234 42.1953C51.8151 42.1953 51.623 42.1562 51.4473 42.0781C51.2715 42 51.1185 41.8958 50.9883 41.7656C50.8646 41.6289 50.7637 41.4727 50.6855 41.2969C50.6139 41.1211 50.5781 40.9388 50.5781 40.75C50.5781 40.5547 50.6139 40.3691 50.6855 40.1934C50.7637 40.0111 50.8646 39.8516 50.9883 39.7148C51.1185 39.5781 51.2715 39.4707 51.4473 39.3926C51.623 39.3079 51.8151 39.2656 52.0234 39.2656C52.2253 39.2656 52.4141 39.3079 52.5898 39.3926C52.7721 39.4707 52.9251 39.5781 53.0488 39.7148C53.179 39.8516 53.2799 40.0111 53.3516 40.1934C53.4297 40.3691 53.4688 40.5547 53.4688 40.75C53.4688 40.9388 53.4297 41.1211 53.3516 41.2969C53.2799 41.4727 53.179 41.6289 53.0488 41.7656C52.9251 41.8958 52.7721 42 52.5898 42.0781C52.4141 42.1562 52.2253 42.1953 52.0234 42.1953ZM58.0391 42.1953C57.8307 42.1953 57.6387 42.1562 57.4629 42.0781C57.2871 42 57.1341 41.8958 57.0039 41.7656C56.8802 41.6289 56.7793 41.4727 56.7012 41.2969C56.6296 41.1211 56.5938 40.9388 56.5938 40.75C56.5938 40.5547 56.6296 40.3691 56.7012 40.1934C56.7793 40.0111 56.8802 39.8516 57.0039 39.7148C57.1341 39.5781 57.2871 39.4707 57.4629 39.3926C57.6387 39.3079 57.8307 39.2656 58.0391 39.2656C58.2409 39.2656 58.4297 39.3079 58.6055 39.3926C58.7878 39.4707 58.9408 39.5781 59.0645 39.7148C59.1947 39.8516 59.2956 40.0111 59.3672 40.1934C59.4453 40.3691 59.4844 40.5547 59.4844 40.75C59.4844 40.9388 59.4453 41.1211 59.3672 41.2969C59.2956 41.4727 59.1947 41.6289 59.0645 41.7656C58.9408 41.8958 58.7878 42 58.6055 42.0781C58.4297 42.1562 58.2409 42.1953 58.0391 42.1953Z" fill="black"/>
<defs>
<filter id="filter0_d" x="0" y="0" width="78" height="78" filterUnits="userSpaceOnUse" color-interpolation-filters="sRGB">
<feFlood flood-opacity="0" result="BackgroundImageFix"/>
<feColorMatrix in="SourceAlpha" type="matrix" values="0 0 0 0 0 0 0 0 0 0 0 0 0 0 0 0 0 0 127 0"/>
<feOffset dy="4"/>
<feGaussianBlur stdDeviation="2"/>
<feColorMatrix type="matrix" values="0 0 0 0 0 0 0 0 0 0 0 0 0 0 0 0 0 0 0.25 0"/>
<feBlend mode="normal" in2="BackgroundImageFix" result="effect1_dropShadow"/>
<feBlend mode="normal" in="SourceGraphic" in2="effect1_dropShadow" result="shape"/>
</filter>
</defs>
</svg>
