<svg width="78" height="78" viewBox="0 0 78 78" fill="none" xmlns="http://www.w3.org/2000/svg">
<g filter="url(#filter0_d)">
<circle cx="39" cy="35" r="35" fill="white"/>
</g>
<path d="M59.5736 30.4401C61.2858 36.3497 61.3159 41.1975 56.6911 42.5375C52.0662 43.8775 46.929 40.1731 45.2169 34.2635C43.5047 28.354 45.8659 22.4771 50.4908 21.1371C55.1156 19.7972 57.8614 24.5306 59.5736 30.4401Z" fill="#FF0000"/>
<path d="M28.7364 33.6414C28.7364 33.6414 48.9396 21.5685 49.1396 21.6787C49.3396 21.7888 56.4457 42.2544 56.3805 42.6095C56.3153 42.9646 31.9312 44.6683 31.9312 44.6683L12.7945 46.5148L11.7611 42.9481L28.7364 33.6414Z" fill="#FF0000"/>
<path d="M23.959 47.717L34.752 47.0613L36.0006 48.8682L24.0785 49.6831L22.1655 49.8509L23.959 47.717Z" fill="#C4C4C4"/>
<path d="M22.1658 49.8509L21.4628 45.6842L23.7352 45.4489L24.0834 49.6323L22.1658 49.8509Z" fill="#C4C4C4"/>
<path d="M36.0009 48.8682L35.9373 44.3727L33.6587 44.5386L34.0477 48.7183L36.0009 48.8682Z" fill="#C4C4C4"/>
<ellipse cx="12.4553" cy="44.7641" rx="1.13017" ry="2.42179" transform="rotate(-16.1578 12.4553 44.7641)" fill="#C4C4C4"/>
<line x1="57.7886" y1="24.9243" x2="61.3712" y2="22.2054" stroke="black"/>
<line x1="60.1237" y1="29.9289" x2="64.5007" y2="28.8943" stroke="black"/>
<line x1="61.1722" y1="35.3684" x2="65.6636" y2="35.6038" stroke="black"/>
<defs>
<filter id="filter0_d" x="0" y="0" width="78" height="78" filterUnits="userSpaceOnUse" color-interpolation-filters="sRGB">
<feFlood flood-opacity="0" result="BackgroundImageFix"/>
<feColorMatrix in="SourceAlpha" type="matrix" values="0 0 0 0 0 0 0 0 0 0 0 0 0 0 0 0 0 0 127 0"/>
<feOffset dy="4"/>
<feGaussianBlur stdDeviation="2"/>
<feColorMatrix type="matrix" values="0 0 0 0 0 0 0 0 0 0 0 0 0 0 0 0 0 0 0.25 0"/>
<feBlend mode="normal" in2="BackgroundImageFix" result="effect1_dropShadow"/>
<feBlend mode="normal" in="SourceGraphic" in2="effect1_dropShadow" result="shape"/>
</filter>
</defs>
</svg>
