<svg width="78" height="78" viewBox="0 0 78 78" fill="none" xmlns="http://www.w3.org/2000/svg">
<g filter="url(#filter0_d)">
<circle cx="39" cy="35" r="35" fill="white"/>
</g>
<rect x="35.25" y="14.25" width="23.1364" height="39.5" rx="2.75" fill="#C4C4C4" stroke="black" stroke-width="0.5"/>
<line x1="35" y1="18.9546" x2="58.6364" y2="18.9546" stroke="black"/>
<line x1="35" y1="48.9546" x2="58.6364" y2="48.9546" stroke="black"/>
<line x1="45" y1="15.3182" x2="48.6364" y2="15.3182" stroke="black"/>
<circle cx="46.3636" cy="51.7273" r="1.36364" fill="black"/>
<rect x="17.25" y="12.25" width="25.5" height="43.5" rx="2.75" fill="#C4C4C4" stroke="black" stroke-width="0.5"/>
<line x1="17" y1="17.5" x2="43" y2="17.5" stroke="black"/>
<line x1="17" y1="50.5" x2="43" y2="50.5" stroke="black"/>
<line x1="28" y1="13.5" x2="32" y2="13.5" stroke="black"/>
<circle cx="29.5" cy="53.5" r="1.5" fill="black"/>
<path d="M50.3536 30.3536C50.5488 30.1583 50.5488 29.8417 50.3536 29.6464L47.1716 26.4645C46.9763 26.2692 46.6597 26.2692 46.4645 26.4645C46.2692 26.6597 46.2692 26.9763 46.4645 27.1716L49.2929 30L46.4645 32.8284C46.2692 33.0237 46.2692 33.3403 46.4645 33.5355C46.6597 33.7308 46.9763 33.7308 47.1716 33.5355L50.3536 30.3536ZM28 30.5H50V29.5H28V30.5Z" fill="black"/>
<path d="M27.6464 38.3536C27.4512 38.1583 27.4512 37.8417 27.6464 37.6464L30.8284 34.4645C31.0237 34.2692 31.3403 34.2692 31.5355 34.4645C31.7308 34.6597 31.7308 34.9763 31.5355 35.1716L28.7071 38L31.5355 40.8284C31.7308 41.0237 31.7308 41.3403 31.5355 41.5355C31.3403 41.7308 31.0237 41.7308 30.8284 41.5355L27.6464 38.3536ZM50 38.5H28V37.5H50V38.5Z" fill="black"/>
<defs>
<filter id="filter0_d" x="0" y="0" width="78" height="78" filterUnits="userSpaceOnUse" color-interpolation-filters="sRGB">
<feFlood flood-opacity="0" result="BackgroundImageFix"/>
<feColorMatrix in="SourceAlpha" type="matrix" values="0 0 0 0 0 0 0 0 0 0 0 0 0 0 0 0 0 0 127 0"/>
<feOffset dy="4"/>
<feGaussianBlur stdDeviation="2"/>
<feColorMatrix type="matrix" values="0 0 0 0 0 0 0 0 0 0 0 0 0 0 0 0 0 0 0.25 0"/>
<feBlend mode="normal" in2="BackgroundImageFix" result="effect1_dropShadow"/>
<feBlend mode="normal" in="SourceGraphic" in2="effect1_dropShadow" result="shape"/>
</filter>
</defs>
</svg>
