<svg width="78" height="78" viewBox="0 0 78 78" fill="none" xmlns="http://www.w3.org/2000/svg">
<g filter="url(#filter0_d)">
<circle cx="39" cy="35" r="35" fill="white"/>
</g>
<rect x="26.25" y="12.25" width="26.1364" height="44.5769" rx="2.75" fill="#C4C4C4" stroke="black" stroke-width="0.5"/>
<line x1="26" y1="17.6469" x2="52.6364" y2="17.6469" stroke="black"/>
<line x1="26" y1="51.4546" x2="52.6364" y2="51.4546" stroke="black"/>
<line x1="37.269" y1="13.5491" x2="41.3669" y2="13.5491" stroke="black"/>
<circle cx="38.8058" cy="54.5157" r="1.53671" fill="black"/>
<path d="M42.8886 38.8556L44.0939 34.4407L47.0193 37.7794L42.8886 38.8556Z" fill="#C4C4C4" stroke="black"/>
<path d="M61.5 34C61.5 35.4122 60.5434 36.7762 58.8138 37.8139C57.0942 38.8456 54.6864 39.5 52 39.5C49.3136 39.5 46.9058 38.8456 45.1862 37.8139C43.4566 36.7762 42.5 35.4122 42.5 34C42.5 32.5878 43.4566 31.2238 45.1862 30.1861C46.9058 29.1544 49.3136 28.5 52 28.5C54.6864 28.5 57.0942 29.1544 58.8138 30.1861C60.5434 31.2238 61.5 32.5878 61.5 34Z" fill="#C4C4C4" stroke="black"/>
<path d="M38.1114 43.8556L36.9061 39.4407L33.9807 42.7794L38.1114 43.8556Z" fill="#C4C4C4" stroke="black"/>
<path d="M19.5 39C19.5 40.4122 20.4566 41.7762 22.1862 42.8139C23.9058 43.8456 26.3136 44.5 29 44.5C31.6864 44.5 34.0942 43.8456 35.8138 42.8139C37.5434 41.7762 38.5 40.4122 38.5 39C38.5 37.5878 37.5434 36.2238 35.8138 35.1861C34.0942 34.1544 31.6864 33.5 29 33.5C26.3136 33.5 23.9058 34.1544 22.1862 35.1861C20.4566 36.2238 19.5 37.5878 19.5 39Z" fill="#C4C4C4" stroke="black"/>
<path d="M25.5039 40.0977C25.3997 40.0977 25.3037 40.0781 25.2158 40.0391C25.1279 40 25.0514 39.9479 24.9863 39.8828C24.9245 39.8145 24.874 39.7363 24.835 39.6484C24.7992 39.5605 24.7812 39.4694 24.7812 39.375C24.7812 39.2773 24.7992 39.1846 24.835 39.0967C24.874 39.0055 24.9245 38.9258 24.9863 38.8574C25.0514 38.7891 25.1279 38.7354 25.2158 38.6963C25.3037 38.654 25.3997 38.6328 25.5039 38.6328C25.6048 38.6328 25.6992 38.654 25.7871 38.6963C25.8783 38.7354 25.9548 38.7891 26.0166 38.8574C26.0817 38.9258 26.1322 39.0055 26.168 39.0967C26.207 39.1846 26.2266 39.2773 26.2266 39.375C26.2266 39.4694 26.207 39.5605 26.168 39.6484C26.1322 39.7363 26.0817 39.8145 26.0166 39.8828C25.9548 39.9479 25.8783 40 25.7871 40.0391C25.6992 40.0781 25.6048 40.0977 25.5039 40.0977ZM28.5117 40.0977C28.4076 40.0977 28.3115 40.0781 28.2236 40.0391C28.1357 40 28.0592 39.9479 27.9941 39.8828C27.9323 39.8145 27.8818 39.7363 27.8428 39.6484C27.807 39.5605 27.7891 39.4694 27.7891 39.375C27.7891 39.2773 27.807 39.1846 27.8428 39.0967C27.8818 39.0055 27.9323 38.9258 27.9941 38.8574C28.0592 38.7891 28.1357 38.7354 28.2236 38.6963C28.3115 38.654 28.4076 38.6328 28.5117 38.6328C28.6126 38.6328 28.707 38.654 28.7949 38.6963C28.8861 38.7354 28.9626 38.7891 29.0244 38.8574C29.0895 38.9258 29.14 39.0055 29.1758 39.0967C29.2148 39.1846 29.2344 39.2773 29.2344 39.375C29.2344 39.4694 29.2148 39.5605 29.1758 39.6484C29.14 39.7363 29.0895 39.8145 29.0244 39.8828C28.9626 39.9479 28.8861 40 28.7949 40.0391C28.707 40.0781 28.6126 40.0977 28.5117 40.0977ZM31.5195 40.0977C31.4154 40.0977 31.3193 40.0781 31.2314 40.0391C31.1436 40 31.0671 39.9479 31.002 39.8828C30.9401 39.8145 30.8896 39.7363 30.8506 39.6484C30.8148 39.5605 30.7969 39.4694 30.7969 39.375C30.7969 39.2773 30.8148 39.1846 30.8506 39.0967C30.8896 39.0055 30.9401 38.9258 31.002 38.8574C31.0671 38.7891 31.1436 38.7354 31.2314 38.6963C31.3193 38.654 31.4154 38.6328 31.5195 38.6328C31.6204 38.6328 31.7148 38.654 31.8027 38.6963C31.8939 38.7354 31.9704 38.7891 32.0322 38.8574C32.0973 38.9258 32.1478 39.0055 32.1836 39.0967C32.2227 39.1846 32.2422 39.2773 32.2422 39.375C32.2422 39.4694 32.2227 39.5605 32.1836 39.6484C32.1478 39.7363 32.0973 39.8145 32.0322 39.8828C31.9704 39.9479 31.8939 40 31.8027 40.0391C31.7148 40.0781 31.6204 40.0977 31.5195 40.0977Z" fill="black"/>
<defs>
<filter id="filter0_d" x="0" y="0" width="78" height="78" filterUnits="userSpaceOnUse" color-interpolation-filters="sRGB">
<feFlood flood-opacity="0" result="BackgroundImageFix"/>
<feColorMatrix in="SourceAlpha" type="matrix" values="0 0 0 0 0 0 0 0 0 0 0 0 0 0 0 0 0 0 127 0"/>
<feOffset dy="4"/>
<feGaussianBlur stdDeviation="2"/>
<feColorMatrix type="matrix" values="0 0 0 0 0 0 0 0 0 0 0 0 0 0 0 0 0 0 0.25 0"/>
<feBlend mode="normal" in2="BackgroundImageFix" result="effect1_dropShadow"/>
<feBlend mode="normal" in="SourceGraphic" in2="effect1_dropShadow" result="shape"/>
</filter>
</defs>
</svg>
