<svg width="78" height="78" viewBox="0 0 78 78" fill="none" xmlns="http://www.w3.org/2000/svg">
<g filter="url(#filter0_d)">
<circle cx="39" cy="35" r="35" fill="white"/>
</g>
<path d="M41.1144 32.7692V32.3291C41.1144 31.9538 41.1144 31.449 41.1273 30.8796C42.3961 31.1384 43.6009 31.3455 44.6134 32.0185C44.6903 33.1445 42.473 35.0082 41.1529 35.4094C41.1273 34.5034 41.1144 33.5328 41.1144 32.7692ZM37.9871 34.1928C37.9871 33.9081 38 33.6363 38.0128 33.3516C38.0256 32.7433 38.0384 32.122 38.0512 31.449C38.0512 31.0737 38.0769 30.5042 38.1025 29.87C37.1412 29.3394 36.2056 28.537 35.3597 27.2298C35.2187 27.2427 35.4622 31.2937 36.1672 31.8632C33.796 31.6949 32.8092 32.795 31.6813 33.9728C33.5653 33.3127 35.7057 33.468 37.9871 34.1928ZM46.3181 36.5742C45.9079 35.7589 45.7669 34.3222 45.8054 34.1152C45.8567 33.9081 45.8951 32.6915 45.1389 32.3679C44.2546 35.72 37.9359 36.9625 33.8473 38.0238C33.9883 39.5121 32.1299 42.6313 34.1677 43.8867C34.9624 43.0454 40.7171 41.5571 42.127 41.0523C43.242 40.6381 46.9461 37.8426 46.3181 36.5742ZM32.7835 26.1038C32.7066 25.9356 32.8092 25.7026 32.8092 25.5085C32.8092 25.3143 32.8476 25.1202 32.9245 24.9519C33.0014 24.7837 33.1039 24.6284 33.2321 24.4989C33.3603 24.3695 33.5141 24.266 33.6807 24.1883C33.8473 24.1107 34.0396 24.0718 34.2318 24.0718C34.2703 24.0718 34.4625 24.0977 34.7445 24.1236C35.0265 24.1624 35.2572 24.253 35.6545 24.3048C36.0518 24.3566 36.4748 24.4083 36.8721 24.4601C37.2694 24.5119 37.7052 24.3695 37.9871 24.4083C38.0128 24.3436 38.0512 24.2919 38.0769 24.2401C38.1153 24.1883 38.1538 24.1366 38.1922 24.0977C38.2307 24.046 38.2691 24.0071 38.3204 23.9683C38.3588 23.9295 38.4101 23.8906 38.4614 23.8648C38.4614 23.5671 38.4614 23.2694 38.4485 22.9847C38.4485 22.6999 38.4357 22.4152 38.4357 22.1305C38.4357 21.8587 38.3716 21.5481 38.3588 21.2763C38.3588 21.0174 38.346 20.7586 38.346 20.4997C37.8462 20.3574 37.3848 20.1373 36.9618 19.8526C36.5388 19.5679 36.1672 19.2184 35.8596 18.8172C35.5519 18.416 35.3084 17.963 35.1418 17.4712C34.9752 16.9794 34.8855 16.4617 34.8855 15.9052C34.8855 15.2451 35.0136 14.6239 35.2572 14.0544C35.5007 13.4849 35.8339 12.8249 36.2569 12.3978C36.6798 11.9707 37.1925 11.6212 37.7564 11.3753C38.3204 11.1294 38.9356 11 39.5892 11C40.2429 11 40.8709 11.2847 41.4349 11.5177C41.9988 11.7636 42.5115 12.113 42.9344 12.5401C43.3574 12.9672 43.7803 13.4073 44.0239 13.9768C44.2674 14.5462 44.3186 15.2451 44.3186 15.9052C44.3186 16.4488 44.2289 16.9794 44.0495 17.4712C43.8829 17.963 43.6265 18.416 43.3189 18.8172C43.0113 19.2184 42.6396 19.5679 42.2167 19.8526C41.7937 20.1373 41.3323 20.3574 40.8197 20.4868C40.8197 20.7456 40.8068 21.0045 40.8068 21.2633C40.8068 21.5351 40.8581 21.8328 40.8581 22.1175C40.8581 22.3893 40.8453 22.6741 40.8453 22.9588C40.8453 23.2435 40.8453 23.5412 40.8325 23.8259C40.8837 23.8518 40.9222 23.8906 40.9735 23.9295C41.0247 23.9683 41.0632 24.0071 41.1016 24.0589C41.1401 24.1107 41.1785 24.1624 41.217 24.2142C41.2554 24.266 41.2811 24.3307 41.3195 24.3825C41.6015 24.3436 42.0501 24.3177 42.4474 24.266C42.8447 24.2142 43.2677 24.1624 43.665 24.1107C44.0623 24.0589 44.6263 23.9295 44.9082 23.9036C45.1902 23.8648 45.3824 23.8518 45.4209 23.8518C45.6131 23.8518 45.9336 23.8518 46.113 23.9165C46.2796 23.9942 46.4334 24.0977 46.5616 24.2272C46.6898 24.3566 46.7923 24.5119 46.8692 24.6801C46.9461 24.8484 46.9845 25.0425 46.9845 25.2367C46.9845 25.4308 46.9461 25.6249 46.8692 25.7932C46.7923 25.9614 46.6898 26.1167 46.5616 26.2462C46.4334 26.3756 46.2796 26.4791 46.113 26.5568C45.9464 26.6344 45.626 26.7121 45.4209 26.7121C45.3824 26.7121 45.1902 26.6862 44.9082 26.6603C44.6263 26.6215 44.0623 26.6603 43.665 26.6086C43.2677 26.5568 42.8447 26.505 42.4474 26.4532C42.0501 26.4015 41.6015 26.3238 41.3195 26.285C41.2939 26.3497 41.2554 26.4015 41.217 26.4662C41.1785 26.518 41.1401 26.5697 41.1016 26.6215C41.0632 26.6733 41.0119 26.7121 40.9735 26.7509C40.9222 26.7898 40.8837 26.8286 40.8325 26.8545C40.8325 28.1487 40.7171 31.0219 40.7428 32.3291C40.7556 33.1574 40.7684 34.4387 40.794 35.5777C40.0378 35.8883 39.2176 36.1601 38.3973 36.406C38.4101 35.5388 38.4229 34.7364 38.4229 34.3222C38.4485 33.3774 38.4742 32.4715 38.487 31.449C38.4998 30.4266 38.628 27.851 38.628 26.8156C38.5767 26.7898 38.5383 26.7509 38.487 26.7121C38.4485 26.6733 38.3973 26.6344 38.3588 26.5827C38.3204 26.5309 38.2819 26.4921 38.2435 26.4274C38.205 26.3756 38.1794 26.3109 38.1409 26.2591C37.859 26.2979 37.295 26.5568 36.8977 26.6086C36.5004 26.6603 36.0774 26.7121 35.6801 26.7639C35.2828 26.8156 34.9111 26.8674 34.642 26.8933C34.36 26.9321 34.1677 26.9451 34.1293 26.9451C33.937 26.9451 33.7448 26.9062 33.5782 26.8286C33.4115 26.7509 33.2577 26.6474 33.1296 26.518C32.963 26.4274 32.8604 26.2721 32.7835 26.1038ZM39.0894 18.3384H39.3329H39.5764H39.8199H40.0635C40.3454 18.2866 40.6018 18.1701 40.8325 18.0277C41.0632 17.8854 41.2682 17.7042 41.4477 17.4842C41.6271 17.2771 41.7553 17.0312 41.8578 16.7723C41.9475 16.5135 41.9604 16.177 41.9604 15.8793C41.9604 15.5428 41.9475 15.271 41.8194 14.9733C41.6912 14.6756 41.5118 14.4168 41.2939 14.1968C41.076 13.9768 40.8068 13.7956 40.5249 13.6661C40.2301 13.5367 39.9353 13.5755 39.6021 13.5755C39.2688 13.5755 38.9484 13.6403 38.6536 13.7697C38.3588 13.8991 38.0897 13.9768 37.859 14.1968C37.6411 14.4168 37.4617 14.6886 37.3335 14.9733C37.2053 15.271 37.1412 15.5946 37.1412 15.9311C37.1412 16.2287 37.1925 16.5135 37.295 16.7723C37.3848 17.0312 37.5257 17.2771 37.7052 17.4842C37.8846 17.6912 38.0897 17.8724 38.3204 18.0277C38.5511 18.183 38.8074 18.2866 39.0894 18.3384ZM55.6615 43.8867C55.4693 42.696 55.0848 41.5312 54.6746 40.4311C54.2517 39.331 53.8031 38.2826 53.1751 37.5837C53.2135 38.1144 53.111 38.7744 52.8803 39.4863C52.6496 40.1981 52.3035 40.9488 51.8678 41.6994C51.432 42.4501 50.9193 43.1878 50.3554 43.8479C49.7914 44.5079 49.189 45.1033 48.561 45.5433C48.7533 45.6598 48.9968 45.7504 49.2916 45.8151C49.5735 45.8798 49.894 45.9316 50.2272 45.9575C50.5604 45.9834 50.9065 45.9704 51.2269 45.9445C51.5473 45.9057 51.9318 45.7245 52.201 45.6339C52.1113 45.7633 51.9575 46.0222 51.8678 46.1516C51.778 46.281 51.6883 46.4105 51.5986 46.5399C51.5089 46.6693 51.4192 46.7987 51.3294 46.9282C51.2397 47.0576 51.15 47.187 51.0603 47.3164C50.7911 47.6659 50.4195 48.0153 50.1375 48.3389C49.8555 48.6624 49.6761 48.9472 49.3813 49.2319C49.0865 49.5296 48.7917 49.8143 48.4713 50.0861C48.1509 50.3708 47.7792 50.7073 47.4331 50.9791C47.0871 51.225 46.7538 51.4451 46.3693 51.7039C45.9848 51.9628 45.5747 52.2087 45.1646 52.3899C44.7544 52.5711 44.6775 52.4546 44.2546 52.4805C43.8316 52.5063 43.3958 52.4157 42.9729 52.1957C42.6525 51.7945 42.2808 51.3933 42.0885 50.9403C41.8963 50.4873 41.7553 50.0084 41.6528 49.5166C41.5502 49.0248 41.4733 47.0058 41.422 46.5011C41.3708 45.9963 41.3195 45.4916 41.2682 44.9868C41.1529 44.1326 41.0504 43.1231 40.9735 42.0359C40.9735 41.9842 40.9606 41.9194 40.9606 41.8677C40.7299 41.9324 40.4736 42.01 40.2173 42.0877C39.6277 42.2559 38.8971 42.4889 38.1281 42.7219C38.1153 42.8901 38.1025 43.0584 38.1025 43.2266C38.0897 43.5114 38.064 43.7961 38.0384 44.0808C38.0128 44.3656 37.9743 44.6632 37.9231 44.9609C37.8205 45.4657 37.8333 45.8669 37.7564 46.3846C37.6795 46.9023 37.5257 49.0507 37.4104 49.5425C37.295 50.0473 37.1541 50.5261 36.949 50.9921C36.7439 51.458 36.4876 51.898 36.1415 52.2993C35.9621 52.3769 35.8211 52.4934 35.6417 52.5322C35.4622 52.5711 35.2956 52.584 35.1162 52.584C34.9367 52.584 34.7701 52.5711 34.5907 52.5322C34.4113 52.4934 34.2446 52.4416 34.0652 52.364C33.6422 52.1828 33.2193 51.9239 32.8476 51.7169C32.4759 51.5098 32.0401 51.3415 31.6941 51.0956C31.348 50.8497 31.0789 50.5132 30.7456 50.2155C30.4124 49.9308 30.1945 49.7496 29.8741 49.426C29.5921 49.1413 29.2076 48.7142 28.9257 48.4036C28.6437 48.1059 28.3745 47.7953 28.1182 47.4847C27.8619 47.1741 27.6055 46.8505 27.362 46.514C27.1185 46.1904 26.9006 45.8539 26.6955 45.5045C26.9647 45.608 27.2723 45.6727 27.6055 45.7116C27.9388 45.7504 28.272 45.8928 28.6181 45.8669C28.9641 45.8539 29.3102 45.6727 29.6049 45.608C29.8997 45.5433 30.1561 45.4398 30.3611 45.3362C29.7459 44.8833 29.1307 44.3008 28.5668 43.6408C28.0028 42.9807 27.503 42.4889 27.0672 41.7382C26.6314 40.9876 26.2726 39.9781 26.0419 39.2662C25.8112 38.5544 25.6958 37.9073 25.7471 37.3637C25.1191 38.0626 24.4526 39.2145 24.0425 40.3146C23.6195 41.4147 23.4529 42.476 23.2606 43.6667C23.0684 44.8574 22.9787 46.0092 23.0043 46.967C23.0299 47.9247 23.1837 48.6754 23.4529 49.0895C23.5939 48.6883 23.7605 48.3259 23.9143 47.9765C24.0809 47.627 24.1834 47.2905 24.3501 47.0058C24.5167 46.7081 24.7602 46.4622 24.914 46.2293C25.0678 45.9963 25.2216 45.7892 25.3498 45.608C25.4267 46.061 25.5677 46.4881 25.7343 46.9152C25.9009 47.3423 26.0803 47.8212 26.311 48.2224C26.5417 48.6236 26.7981 49.0248 27.08 49.4131C27.362 49.8014 27.6568 50.1767 27.9644 50.5391C28.5796 51.238 29.2076 51.8333 29.8741 52.4416C30.5406 53.0499 31.2839 53.6064 31.9889 54.163C32.7066 54.7195 33.4372 55.2501 34.1934 55.7808C34.9496 56.3114 35.6417 56.9456 36.4363 57.4892C36.7055 57.6833 36.9874 57.8774 37.2694 58.0457C37.5514 58.2269 37.8205 58.3951 38.0897 58.5893C38.3588 58.7834 38.6152 58.9776 38.8459 59.2105C39.0766 59.4435 39.3073 59.7023 39.4995 60H39.5123H39.5252H39.538H39.5508C39.6149 59.8965 39.8584 59.7412 39.9353 59.6376C40.0122 59.5341 40.0763 59.4435 40.166 59.3529C40.2429 59.2623 40.3326 59.1717 40.4095 59.0811C40.4992 58.9905 40.6659 58.8222 40.7684 58.7446C41.2426 58.3951 41.704 58.0586 42.1526 57.7351C42.6012 57.4115 43.0498 57.1009 43.5112 56.8032C43.9598 56.4926 44.0623 56.4279 44.5365 56.1173C44.9979 55.8067 45.3055 55.5478 45.8054 55.2243C46.1258 55.0042 46.4334 54.7713 46.7282 54.5512C47.023 54.3183 47.305 54.0853 47.5869 53.8523C47.8689 53.6194 48.1381 53.3735 48.42 53.1146C48.702 52.8558 48.984 52.5969 49.2788 52.3251C49.7017 51.9498 50.0478 51.4709 50.4451 51.0568C50.8424 50.6426 51.2782 50.2802 51.6242 49.8143C51.9703 49.3484 52.3292 48.6883 52.5983 48.1706C52.8675 47.6529 53.0597 47.2776 53.2263 46.7081C53.252 46.6305 53.2648 46.5528 53.2904 46.4752C53.316 46.3975 53.3417 46.3199 53.3545 46.2293C53.3801 46.1516 53.4058 46.074 53.4186 45.9834C53.4442 45.9057 53.457 45.8151 53.4827 45.7375C53.6108 45.9186 53.7646 46.1257 53.9313 46.3587C54.0979 46.5917 54.3542 46.967 54.5336 47.2647C54.7131 47.5623 54.8797 47.8859 55.0591 48.2483C55.2258 48.5977 55.3924 48.986 55.5462 49.4002C55.8153 48.9989 55.9563 48.2353 55.9948 47.2776C56.0332 46.3199 55.8538 45.0774 55.6615 43.8867ZM41.4349 42.683C41.499 43.5243 41.5887 44.262 41.6784 44.8962V44.9091V44.9221C41.6912 45.0903 41.704 45.2456 41.7297 45.4139C41.7553 45.7504 41.7937 46.0869 41.8322 46.4234C41.8578 46.6305 41.8835 47.0317 41.9091 47.4976C41.9347 47.8471 41.9475 48.2612 41.986 48.6236C42.8063 49.2837 43.4343 50.0602 43.6137 50.9533C43.9854 50.8627 44.7929 48.3001 43.8188 46.7987C44.9467 46.9282 48.7533 45.5951 47.9971 43.2784C46.9845 45.1939 43.1908 44.7668 41.4349 42.683ZM36.5901 46.1646C36.7824 46.2034 37.0387 46.2681 37.3463 46.3587C37.3463 46.3328 37.3591 46.3069 37.3591 46.294C37.3848 46.0869 37.4104 45.8928 37.4232 45.6986C37.4488 45.4398 37.4745 45.168 37.5257 44.8574C37.5642 44.5985 37.6026 44.3138 37.6411 44.0032C37.6667 43.7573 37.6924 43.4984 37.7052 43.1619C37.7052 43.1231 37.7052 43.0843 37.718 43.0454C36.2569 43.5631 34.7701 44.1585 34.4113 44.5079C34.4241 44.9609 35.1034 45.8539 36.5901 46.1646Z" fill="#000080"/>
<defs>
<filter id="filter0_d" x="0" y="0" width="78" height="78" filterUnits="userSpaceOnUse" color-interpolation-filters="sRGB">
<feFlood flood-opacity="0" result="BackgroundImageFix"/>
<feColorMatrix in="SourceAlpha" type="matrix" values="0 0 0 0 0 0 0 0 0 0 0 0 0 0 0 0 0 0 127 0"/>
<feOffset dy="4"/>
<feGaussianBlur stdDeviation="2"/>
<feColorMatrix type="matrix" values="0 0 0 0 0 0 0 0 0 0 0 0 0 0 0 0 0 0 0.25 0"/>
<feBlend mode="normal" in2="BackgroundImageFix" result="effect1_dropShadow"/>
<feBlend mode="normal" in="SourceGraphic" in2="effect1_dropShadow" result="shape"/>
</filter>
</defs>
</svg>
