<svg width="78" height="78" viewBox="0 0 78 78" fill="none" xmlns="http://www.w3.org/2000/svg">
<g filter="url(#filter0_d)">
<circle cx="39" cy="35" r="35" fill="white"/>
</g>
<path d="M37.2327 14.1325C37.4673 14.1965 37.9154 14.5378 38.534 15.1138C39.1314 15.6898 39.9207 16.8205 40.774 17.7805C41.6274 18.7405 42.5447 19.5298 43.5047 20.7885C44.4647 22.0258 45.4673 23.6898 46.406 25.1192C47.3447 26.5485 48.198 27.7218 48.9874 29.2152C49.7554 30.7085 50.3313 32.2872 50.822 33.7378C51.3127 35.1885 51.9953 36.6605 52.0593 37.9405C52.1233 39.2418 51.6967 40.2658 51.2274 41.3112C50.6514 41.5458 49.99 41.7592 49.35 41.9512C48.71 42.1432 48.0914 42.3352 47.43 42.4845C46.7687 42.6338 46.022 42.6765 45.382 42.8045C44.7207 42.9325 44.1447 43.1245 43.5047 43.2098C42.8647 43.2952 42.2674 43.3592 41.6914 43.4232C41.1154 43.4872 40.582 43.3378 40.0914 43.3592C39.6007 43.4018 39.1314 43.6365 38.7474 43.6578C38.3634 43.6792 38.022 43.7005 37.766 43.7218C37.9367 43.3378 38.086 42.6552 38.214 41.7165C38.342 40.7778 38.406 39.6045 38.4487 38.2818C38.5127 36.9592 38.6407 35.6152 38.6407 34.0578C38.6407 32.5005 38.598 30.9218 38.5553 29.2792C38.5127 27.6365 38.5127 25.8872 38.4274 24.3085C38.342 22.7298 38.1074 21.1725 38.0007 19.8285C37.894 18.4845 37.7873 17.2685 37.6593 16.3085C37.4887 15.3272 37.3607 14.5805 37.2327 14.1325ZM34.9713 20.7458C34.502 21.5352 33.9047 22.3032 33.2647 23.3485C32.6033 24.3938 31.9847 25.7378 31.2167 26.9325C30.4487 28.1272 29.51 29.1512 28.678 30.4098C27.846 31.6685 26.9713 33.0338 26.1607 34.2285C25.35 35.4445 24.6033 36.4685 23.8567 37.5352C23.1313 38.6018 22.6407 39.5192 22.0647 40.3512C21.4887 41.1832 20.7847 41.9298 20.4007 42.4205C20.678 42.4632 21.126 42.5058 21.6807 42.5698C22.2353 42.6125 22.8327 42.5485 23.5793 42.5912C24.326 42.6552 25.2007 42.8258 26.054 42.8685C26.9073 42.9112 27.782 42.9538 28.6567 42.9965C29.5314 43.0392 30.15 42.8898 30.9607 42.9112C31.7714 42.9325 32.7527 43.0818 33.3927 43.0818C34.054 43.0605 34.63 43.0392 35.0567 42.9965C35.4834 42.9538 35.782 42.8898 35.91 42.7832C36.0167 42.4418 36.0807 41.7805 36.1234 41.0338C36.1874 40.2872 36.23 39.4552 36.2514 38.3885C36.2727 37.3432 36.1873 36.0205 36.166 34.7832C36.1447 33.5458 36.2087 32.3938 36.1874 31.0712C36.166 29.7698 36.038 28.5538 35.9953 27.2738C35.974 26.0152 36.038 24.6925 36.0167 23.5832C35.9954 22.4738 35.974 21.4712 35.974 20.6605C35.974 19.8285 35.974 19.1672 36.0167 18.7405C35.8247 19.1458 35.462 19.9565 34.9713 20.7458ZM22.1073 51.1672C22.2567 51.2738 22.6833 51.4232 23.366 51.5512C24.0487 51.6792 24.966 51.8285 26.0967 51.9565C27.206 52.0845 28.5074 52.2125 29.9367 52.2978C31.366 52.4045 32.6887 52.3832 34.3313 52.4472C35.9527 52.4898 37.894 52.6178 39.6007 52.5752C41.3287 52.5538 43.0567 52.4898 44.742 52.3618C46.4273 52.2338 48.0274 52.2338 49.5847 51.9992C51.142 51.7645 52.6567 51.2952 53.9793 50.9112C54.406 50.6765 54.8114 50.3565 55.1954 49.9725C55.5793 49.5885 55.9633 49.1405 56.326 48.6712C56.6887 48.1805 57.03 47.6685 57.3714 47.1138C57.7127 46.5592 58.2034 46.1112 58.502 45.5138C58.8007 44.9378 58.9074 44.2125 59.1634 43.6365C59.4194 43.0605 59.6754 42.4845 59.91 41.9298C60.1447 41.3752 60.358 40.8632 60.55 40.3938C60.742 39.9245 60.9127 39.4978 61.062 39.1352C60.742 39.1992 60.4007 39.2845 60.0167 39.4125C59.6327 39.5405 59.206 39.6898 58.7794 39.8818C58.3313 40.0525 57.67 40.6072 57.1793 40.8205C56.6887 41.0338 56.3687 40.9272 55.8354 41.1618C55.302 41.3965 54.7687 41.6312 54.1927 41.8872C53.638 42.1218 53.062 42.3778 52.5074 42.6125C51.9314 42.8472 51.4407 43.0818 50.8647 43.2952C50.2887 43.5085 49.6274 43.6792 49.0514 43.8285C48.4754 43.9992 47.686 44.1698 46.7047 44.3405C45.7447 44.5112 44.4647 44.8738 43.206 45.0445C41.9687 45.2152 40.7527 45.1938 39.366 45.3645C37.9793 45.5138 36.5073 45.8125 35.0993 45.9618C33.6913 46.1112 32.3473 46.0685 31.046 46.1752C29.7447 46.2818 28.23 46.5592 27.1633 46.6232C26.0967 46.6872 25.4567 46.5378 24.7527 46.5378C24.0487 46.5592 23.5367 46.5378 23.3233 46.4952C23.0887 46.4525 22.8753 46.3885 22.6193 46.3458C22.3847 46.2818 22.2353 46.3885 22.0007 46.3245C21.766 46.2605 21.446 46.0258 21.2327 45.9618C20.998 45.8978 20.7847 45.8338 20.5713 45.7698C20.358 45.7058 20.166 45.6632 19.9953 45.6205C19.8247 45.5778 19.654 45.5565 19.526 45.5352C19.398 45.5138 19.27 45.5138 19.1847 45.5352C19.0993 45.5565 19.0353 45.5992 19.014 45.6418C18.9927 45.7058 18.9927 45.8125 19.0353 45.9832C19.078 46.1325 19.142 46.3458 19.2273 46.5592C19.3127 46.7725 19.4193 47.0498 19.5687 47.3272C19.6967 47.6045 19.846 47.9032 20.0167 48.2018C20.1873 48.5005 20.358 48.7992 20.5287 49.0978C20.6993 49.3965 20.8913 49.6738 21.0833 49.9512C21.2753 50.2072 21.4673 50.4632 21.638 50.6765C21.766 50.8472 21.9367 51.0392 22.1073 51.1672ZM36.1447 14.6872C36.0807 14.6232 35.9953 14.5378 35.846 14.4312C35.718 14.3245 35.5473 14.2178 35.3553 14.1112C35.1633 14.0045 34.9287 13.8765 34.6727 13.7698C34.4167 13.6632 34.0113 13.5992 33.7127 13.5138C33.414 13.4072 33.2007 13.2578 32.8593 13.1725C32.518 13.1085 32.134 13.0445 31.75 13.0018C31.366 12.9805 30.8754 13.1512 30.47 13.1725C30.0647 13.1938 29.7233 13.0872 29.2753 13.1725C28.8487 13.2792 28.4433 13.3645 28.102 13.4285C27.7607 13.4925 27.4833 13.6205 27.206 13.6632C26.95 13.7058 26.694 13.6418 26.4807 13.6632C26.2673 13.6845 26.0967 13.6845 25.9473 13.6845C25.798 13.6845 25.6487 13.6845 25.5207 13.6845C25.3927 13.6845 25.286 13.6845 25.158 13.6845C25.0513 13.6845 24.9447 13.6845 24.8167 13.7058C24.71 13.7058 24.582 13.7272 24.454 13.7698C24.774 13.9192 25.0727 14.0472 25.35 14.1538C25.6273 14.2605 25.8833 14.3458 26.118 14.4098C26.3527 14.4738 26.566 14.5165 26.758 14.5592C26.95 14.6018 27.1207 14.6232 27.27 14.6445C27.4193 14.6658 27.5473 14.6872 27.654 14.6872C27.7607 14.7085 27.846 14.7298 27.91 14.7512C27.974 14.7725 28.0167 14.8152 28.0593 14.8578C28.0807 14.9005 28.102 14.9645 28.0807 15.0285C27.9527 15.0498 27.8033 15.0925 27.6753 15.1138C27.5473 15.1565 27.398 15.1992 27.27 15.2632C27.142 15.3272 27.014 15.3912 26.886 15.4552C26.758 15.5192 26.6513 15.6045 26.5447 15.6898C26.438 15.7752 26.3313 15.8818 26.246 15.9672C26.1607 16.0738 26.0753 16.1805 26.0327 16.3085C25.9687 16.4365 25.926 16.5645 25.9047 16.6925C25.8833 16.8205 25.862 16.9698 25.862 17.1405C26.3953 17.0125 26.7793 16.7352 27.27 16.6285C27.7393 16.5218 28.294 16.5645 28.742 16.4792C29.19 16.3938 29.574 16.1805 30.0007 16.1378C30.406 16.0952 30.854 16.2445 31.238 16.2445C31.6433 16.2445 32.07 16.4152 32.4753 16.4578C32.8807 16.5005 33.2433 16.3938 33.6487 16.4792C34.054 16.5645 34.4807 16.6712 34.9074 16.8205C35.334 16.9485 35.782 17.1192 36.2727 17.3112C36.294 17.2685 36.3153 17.2045 36.3153 17.1192C36.3153 17.0338 36.3153 16.9485 36.3153 16.8632C36.3153 16.7565 36.294 16.6498 36.2727 16.5432C36.2513 16.4365 36.23 16.3085 36.2087 16.1805C36.1873 16.0525 36.166 15.9245 36.1447 15.7965C36.1234 15.6685 36.102 15.5405 36.102 15.4125C36.102 15.2845 36.0807 15.1565 36.0807 15.0498C36.102 14.9005 36.102 14.7938 36.1447 14.6872Z" fill="#0094FF"/>
<defs>
<filter id="filter0_d" x="0" y="0" width="78" height="78" filterUnits="userSpaceOnUse" color-interpolation-filters="sRGB">
<feFlood flood-opacity="0" result="BackgroundImageFix"/>
<feColorMatrix in="SourceAlpha" type="matrix" values="0 0 0 0 0 0 0 0 0 0 0 0 0 0 0 0 0 0 127 0"/>
<feOffset dy="4"/>
<feGaussianBlur stdDeviation="2"/>
<feColorMatrix type="matrix" values="0 0 0 0 0 0 0 0 0 0 0 0 0 0 0 0 0 0 0.25 0"/>
<feBlend mode="normal" in2="BackgroundImageFix" result="effect1_dropShadow"/>
<feBlend mode="normal" in="SourceGraphic" in2="effect1_dropShadow" result="shape"/>
</filter>
</defs>
</svg>
