<svg width="78" height="78" viewBox="0 0 78 78" fill="none" xmlns="http://www.w3.org/2000/svg">
<g filter="url(#filter0_d)">
<circle cx="39" cy="35" r="35" fill="#C4C4C4"/>
</g>
<path d="M61.6433 21.9938C61.6393 23.4598 61.3833 24.8898 60.8813 26.2538C60.3393 27.7248 59.4593 28.9868 58.2073 29.9708C57.2573 30.7178 56.2173 31.2818 55.0623 31.6388C54.6203 31.7748 54.1913 31.9538 53.7473 32.0828C52.8703 32.3378 52.0853 32.7808 51.3053 33.2368C50.4833 33.7168 49.6503 34.1778 48.7293 34.4408C48.2343 34.5818 47.7183 34.6478 47.2203 34.7808C46.6513 34.9328 46.2523 35.2888 46.0613 35.8608C45.9903 36.0728 46.0203 36.2778 46.1153 36.4658C46.3773 36.9848 46.6303 37.5098 46.9283 38.0078C47.2023 38.4658 47.2783 38.9618 47.3103 39.4718C47.3513 40.1518 47.2913 40.8248 47.1243 41.4878C46.9083 42.3428 46.5293 43.1008 45.8373 43.6768C45.6593 43.8248 45.4643 43.9608 45.3153 44.1348C45.0583 44.4348 44.8123 44.7488 44.5983 45.0808C44.4423 45.3228 44.3113 45.5918 44.2303 45.8678C44.1493 46.1428 44.0983 46.4418 44.1153 46.7258C44.1533 47.3698 43.9113 47.9238 43.6353 48.4708C43.4943 48.7518 43.3233 49.0178 43.1693 49.2918C42.8323 49.8938 42.6463 50.5428 42.5133 51.2188C42.4053 51.7648 42.3873 52.3118 42.3483 52.8618C42.2933 53.6248 42.3263 54.3968 42.1393 55.1468C42.0533 55.4918 41.9413 55.8308 41.8403 56.1718C41.6053 56.9638 41.4773 57.7678 41.5603 58.5968C41.6123 59.1148 41.2123 59.7538 40.6843 59.9958C40.3553 60.1468 40.0213 60.2858 39.6973 60.4458C39.3353 60.6248 38.9523 60.5528 38.5763 60.5728C38.2733 60.5888 38.0083 60.4828 37.7453 60.3508C37.5123 60.2338 37.2743 60.1258 37.0313 60.0298C36.4193 59.7868 36.0273 59.1408 36.0883 58.4878C36.1433 57.8968 36.0733 57.3108 35.9383 56.7378C35.8203 56.2358 35.6423 55.7488 35.5273 55.2468C35.4393 54.8608 35.3863 54.4638 35.3573 54.0698C35.3003 53.3008 35.3133 52.5238 35.2173 51.7598C35.0983 50.8098 34.8613 49.8838 34.3333 49.0578C34.0383 48.5968 33.7793 48.1138 33.6323 47.5828C33.5793 47.3908 33.5463 47.1908 33.5283 46.9918C33.5043 46.7258 33.5073 46.4578 33.4933 46.1908C33.4893 46.1148 33.4793 46.0328 33.4463 45.9648C33.2733 45.6018 33.0953 45.2408 32.9133 44.8818C32.6243 44.3138 32.1083 43.9518 31.6543 43.5398C30.9663 42.9158 30.6623 42.1128 30.4593 41.2408C30.3153 40.6248 30.2913 40.0028 30.3293 39.3798C30.3583 38.9088 30.4413 38.4458 30.6983 38.0198C30.9983 37.5228 31.2483 36.9958 31.5133 36.4788C31.6853 36.1428 31.6143 35.8198 31.4223 35.5158C31.0913 34.9928 30.5863 34.7568 29.9963 34.6798C28.9423 34.5428 27.9803 34.1488 27.0583 33.6438C26.4853 33.3298 25.9313 32.9788 25.3453 32.6898C24.8523 32.4468 24.3313 32.2568 23.8153 32.0658C23.0693 31.7898 22.2943 31.5838 21.5703 31.2618C19.7513 30.4538 18.2993 29.2278 17.3163 27.4578C16.7733 26.4798 16.4743 25.4398 16.2483 24.3608C16.0533 23.4298 15.9863 22.4918 16.0023 21.5438C16.0303 19.8998 16.2793 18.2908 16.8263 16.7378C16.9433 16.4048 17.0983 16.0728 17.2953 15.7808C17.8343 14.9838 18.4043 14.2078 18.9653 13.4258C19.0413 13.3198 19.1363 13.2278 19.2253 13.1318C19.3483 12.9988 19.4933 12.9668 19.6623 13.0348C19.8293 13.1018 19.9163 13.2388 19.8893 13.3998C19.8143 13.8368 19.7543 14.2818 19.6153 14.6998C19.2883 15.6818 19.0223 16.6778 18.8403 17.6948C18.7743 18.0608 18.7653 18.4398 18.7573 18.8138C18.7453 19.4138 18.7353 20.0148 18.7603 20.6138C18.8493 22.7468 19.5903 24.5848 21.2523 25.9918C22.1853 26.7828 23.2433 27.3448 24.4113 27.7018C24.8473 27.8358 25.2823 27.9968 25.7293 28.0698C26.3303 28.1668 26.9413 28.2068 27.5503 28.2418C28.5813 28.3028 29.6203 28.2868 30.6443 28.4058C31.4533 28.4998 32.2133 28.8248 32.8933 29.2978C33.1753 29.4938 33.4363 29.7108 33.6753 29.9658C34.0533 30.3698 34.5513 30.3548 35.0353 30.1878C35.3763 30.0698 35.7043 29.9118 36.0293 29.7538C36.5713 29.4908 37.1423 29.3418 37.7423 29.3188C38.3473 29.2958 38.9533 29.2658 39.5583 29.2818C40.3623 29.3018 41.1283 29.4898 41.8473 29.8708C42.1543 30.0328 42.4873 30.1648 42.8243 30.2448C43.3333 30.3648 43.7523 30.2178 44.1273 29.8038C44.4153 29.4868 44.8053 29.2438 45.1853 29.0328C46.0283 28.5648 46.9433 28.3298 47.9123 28.3098C48.6193 28.2958 49.3253 28.2528 50.0313 28.2468C52.2053 28.2288 54.1863 27.5908 55.9493 26.3348C57.4463 25.2678 58.3583 23.7918 58.7163 21.9908C58.8163 21.4868 58.8453 20.9658 58.8693 20.4508C58.8953 19.8998 58.8873 19.3458 58.8753 18.7938C58.8593 18.0618 58.7753 17.3378 58.5683 16.6308C58.3033 15.7258 58.0473 14.8188 57.7983 13.9098C57.7533 13.7458 57.7473 13.5698 57.7403 13.3988C57.7343 13.2318 57.8043 13.1008 57.9713 13.0348C58.1413 12.9678 58.2933 12.9958 58.4063 13.1348C58.7543 13.5638 59.1153 13.9848 59.4353 14.4338C59.8073 14.9558 60.1573 15.4958 60.4893 16.0438C60.8953 16.7138 61.0463 17.4808 61.2323 18.2278C61.4633 19.1578 61.5873 20.1048 61.5973 21.0658C61.6033 21.3768 61.6283 21.6858 61.6433 21.9938ZM44.4613 29.8848C44.4083 29.9478 44.3523 30.0078 44.3023 30.0728C44.0813 30.3578 43.7933 30.5458 43.4383 30.5908C43.0893 30.6358 42.7413 30.6208 42.4053 30.4798C41.8383 30.2418 41.2633 30.0218 40.6943 29.7858C40.2433 29.5988 39.7653 29.5928 39.2943 29.5798C38.8263 29.5668 38.3573 29.6148 37.8883 29.6408C37.1903 29.6798 36.5383 29.8698 35.9113 30.1838C35.4363 30.4218 34.9513 30.6478 34.3863 30.6098C33.9463 30.5808 33.6013 30.4048 33.3293 30.0678C33.2783 30.0048 33.2233 29.9438 33.1733 29.8858C33.0743 29.9688 32.9843 30.0368 32.9033 30.1138C32.6723 30.3368 32.4203 30.5428 32.2233 30.7938C31.7103 31.4478 31.3273 32.1728 31.0963 32.9778C30.9643 33.4398 30.9133 33.9088 30.8933 34.3838C30.8863 34.5398 30.9513 34.6448 31.0893 34.7468C31.3053 34.9078 31.5083 35.0998 31.6693 35.3148C31.9723 35.7188 32.0353 36.1708 31.8093 36.6408C31.6963 36.8758 31.5703 37.1048 31.4573 37.3408C31.1793 37.9188 30.7663 38.4298 30.6823 39.1028C30.6273 39.5418 30.6643 39.8928 31.0293 40.2008C31.2393 40.3788 31.3693 40.6508 31.5323 40.8828C31.6743 41.0848 31.8133 41.2888 31.9513 41.4938C32.0003 41.5668 32.0513 41.6418 32.0893 41.7208C32.2923 42.1448 32.5653 42.5108 32.9623 42.7728C33.2433 42.9578 33.5473 43.1128 33.8063 43.3238C34.0443 43.5178 34.2343 43.7688 34.4463 43.9938C34.7863 44.3518 35.2173 44.5468 35.6323 44.6788C35.7533 44.4898 35.8273 44.2848 35.9723 44.1678C36.1923 43.9908 36.3353 43.7818 36.4273 43.5258C36.6143 43.0058 36.8793 42.5308 37.2593 42.1268C37.3503 42.0298 37.4633 41.9348 37.5853 41.8888C37.8133 41.8018 38.0543 41.7508 38.3123 41.6788C38.3223 41.4858 38.3373 41.2618 38.3463 41.0368C38.3533 40.8588 38.3453 40.6798 38.3613 40.5018C38.4123 39.9168 38.4913 39.3328 38.5223 38.7468C38.5653 37.9278 38.5663 37.1058 38.5993 36.2858C38.6343 35.4078 38.6123 34.5248 38.7763 33.6548C38.7893 33.5858 38.8153 33.5198 38.8353 33.4528C38.8513 33.4548 38.8673 33.4568 38.8833 33.4578C38.8953 33.5008 38.9173 33.5428 38.9193 33.5858C38.9293 33.8888 38.9463 34.1918 38.9413 34.4948C38.9333 34.9998 38.9023 35.5048 38.8943 36.0098C38.8853 36.6328 38.9073 37.2568 38.8843 37.8788C38.8583 38.5838 38.7823 39.2868 38.7593 39.9918C38.7413 40.5238 38.7743 41.0578 38.7793 41.5918C38.7803 41.7318 38.8503 41.7588 38.9713 41.7518C39.1493 41.7408 39.3283 41.7328 39.5063 41.7388C39.8533 41.7508 40.1513 41.8798 40.3883 42.1398C40.7573 42.5458 41.0203 43.0138 41.2053 43.5278C41.2953 43.7768 41.4213 43.9958 41.6503 44.1558C41.7533 44.2278 41.8163 44.3648 41.8843 44.4798C41.9213 44.5428 41.9303 44.6218 41.9533 44.6958C42.4223 44.5418 42.8523 44.3488 43.1883 43.9928C43.3433 43.8288 43.4883 43.6528 43.6533 43.4998C43.8533 43.3158 44.0453 43.0978 44.2833 42.9868C44.8873 42.7068 45.3013 42.2688 45.5663 41.6708C45.5943 41.6068 45.6423 41.5508 45.6823 41.4928C45.8163 41.2998 45.9693 41.1168 46.0813 40.9108C46.2423 40.6158 46.4253 40.3458 46.6733 40.1148C46.7993 39.9978 46.9583 39.8358 46.9673 39.6868C46.9953 39.2188 46.9423 38.7518 46.7143 38.3228C46.4083 37.7468 46.0963 37.1728 45.8113 36.5858C45.7293 36.4178 45.6873 36.2048 45.7023 36.0188C45.7523 35.4358 46.0963 35.0258 46.5733 34.7238C46.6813 34.6558 46.7263 34.5868 46.7183 34.4708C46.7053 34.2808 46.6833 34.0918 46.6783 33.9018C46.6543 32.8968 46.2353 32.0328 45.7153 31.2068C45.3873 30.6888 44.9283 30.2928 44.4613 29.8848ZM45.6103 42.2418C45.5633 42.3098 45.5433 42.3388 45.5243 42.3658C45.2903 42.6948 45.0203 42.9938 44.6473 43.1578C44.3083 43.3078 44.0473 43.5368 43.8173 43.8138C43.3753 44.3448 42.8593 44.7738 42.1853 44.9728C41.9083 45.0548 41.7963 45.2548 41.7563 45.5068C41.7163 45.7648 41.6803 46.0268 41.6833 46.2868C41.6933 47.0998 41.5223 47.8918 41.4333 48.6928C41.3923 49.0568 41.3453 49.4108 41.5403 49.7488C41.5863 49.8288 41.6133 49.9268 41.6243 50.0198C41.6933 50.5968 41.7933 51.1738 41.8103 51.7518C41.8283 52.3918 41.7923 53.0368 41.7333 53.6748C41.6963 54.0728 41.5973 54.4688 41.4833 54.8528C41.3173 55.4098 41.1063 55.9528 40.9273 56.5058C40.7733 56.9808 40.3743 57.3708 39.8513 57.3208C39.8353 57.3878 39.8193 57.4558 39.8013 57.5238C39.7243 57.8108 39.5463 57.9168 39.2653 57.8168C38.9613 57.7088 38.6703 57.6998 38.3643 57.8188C38.0933 57.9238 37.9043 57.8028 37.8363 57.5148C37.8193 57.4428 37.8133 57.3688 37.8063 57.3228C37.6653 57.3108 37.5343 57.3268 37.4243 57.2858C37.1303 57.1768 36.8963 56.9858 36.7873 56.6788C36.6023 56.1588 36.4463 55.6278 36.2373 55.1178C35.9593 54.4388 35.8763 53.7298 35.8573 53.0098C35.8403 52.3808 35.8303 51.7498 35.8623 51.1218C35.8903 50.5668 35.9523 50.0088 36.2003 49.4938C36.2323 49.4278 36.2493 49.3438 36.2433 49.2708C36.2073 48.8638 36.1603 48.4568 36.1213 48.0498C36.0653 47.4658 36.0133 46.8808 35.9593 46.2968C35.9343 46.0308 35.9223 45.7628 35.8803 45.4998C35.8403 45.2478 35.7123 45.0708 35.4493 44.9638C35.1063 44.8248 34.7603 44.6608 34.4663 44.4408C34.1653 44.2148 33.9323 43.9018 33.6583 43.6388C33.5093 43.4958 33.3553 43.3408 33.1733 43.2558C32.7323 43.0518 32.3863 42.7508 32.1103 42.3598C32.0903 42.3318 32.0683 42.3058 32.0483 42.2798C32.0303 42.2828 32.0123 42.2848 31.9943 42.2878C32.0023 42.4288 32.0033 42.5708 32.0213 42.7108C32.0483 42.9258 32.1053 43.1378 32.1143 43.3528C32.1183 43.4548 32.1173 43.5308 32.2013 43.5988C32.3863 43.7478 32.5893 43.8838 32.7413 44.0618C32.9153 44.2668 33.1243 44.3618 33.3703 44.4318C33.5353 44.4788 33.7113 44.5568 33.8353 44.6708C34.2053 45.0118 34.5743 45.3568 34.7623 45.8488C34.8103 45.9748 34.9393 46.1208 35.0613 46.1568C35.4183 46.2618 35.5363 46.5288 35.6023 46.8398C35.6363 46.9978 35.6313 47.1648 35.6443 47.3268C35.6263 47.3278 35.6083 47.3298 35.5903 47.3308C35.5233 47.1798 35.4733 47.0178 35.3833 46.8828C35.2883 46.7408 35.1753 46.5768 35.0303 46.5098C34.7893 46.3978 34.5813 46.2568 34.4913 46.0188C34.3183 45.5608 33.9903 45.2308 33.6503 44.9078C33.5423 44.8058 33.3893 44.7508 33.2573 44.6748C33.2473 44.6908 33.2383 44.7068 33.2283 44.7228C33.2493 44.7588 33.2723 44.7928 33.2893 44.8308C33.4443 45.1568 33.6373 45.4718 33.7393 45.8148C33.8313 46.1218 33.8253 46.4578 33.8563 46.7828C33.8713 46.9418 33.8343 47.1148 33.8833 47.2598C34.0053 47.6238 34.1323 47.9928 34.3123 48.3308C34.6793 49.0218 35.1193 49.6768 35.2973 50.4558C35.3803 50.8198 35.4913 51.1808 35.5303 51.5498C35.5933 52.1448 35.6253 52.7448 35.6393 53.3438C35.6603 54.2408 35.7833 55.1168 36.0793 55.9668C36.3303 56.6858 36.4323 57.4298 36.4283 58.1888C36.4273 58.3788 36.3903 58.5718 36.4143 58.7578C36.4713 59.2048 36.7333 59.5148 37.1353 59.7058C37.3013 59.7848 37.4813 59.8358 37.6423 59.9218C37.9533 60.0878 38.2633 60.2398 38.6313 60.2238C38.9723 60.2088 39.3183 60.2558 39.6443 60.0998C39.9333 59.9608 40.2253 59.8298 40.5193 59.7028C40.9593 59.5128 41.2533 59.0168 41.2193 58.5478C41.1633 57.7518 41.2233 56.9548 41.4883 56.2078C41.8693 55.1318 41.9903 54.0258 42.0283 52.9018C42.0503 52.2438 42.0763 51.5888 42.2193 50.9398C42.3883 50.1728 42.6633 49.4548 43.0743 48.7838C43.4923 48.1008 43.8463 47.3958 43.7933 46.5518C43.7743 46.2478 43.7993 45.9308 43.9553 45.6498C44.1843 45.2358 44.3203 44.7708 44.6463 44.4108C44.6493 44.4068 44.6403 44.3918 44.6273 44.3568C44.5193 44.4258 44.4043 44.4778 44.3163 44.5608C44.1703 44.6988 44.0483 44.8628 43.9053 45.0048C43.6753 45.2348 43.4403 45.4578 43.2023 45.6798C42.9423 45.9218 42.6683 46.1488 42.4193 46.4018C42.3033 46.5188 42.2313 46.6798 42.1393 46.8208C42.1203 46.8188 42.1013 46.8168 42.0823 46.8148C42.0823 46.7398 42.0763 46.6638 42.0833 46.5888C42.1243 46.1828 42.3753 45.9108 42.6833 45.6848C43.1243 45.3598 43.5413 45.0178 43.8783 44.5738C44.1193 44.2568 44.4483 44.0348 44.8763 44.0208C44.9033 44.0198 44.9343 44.0038 44.9563 43.9868C45.1273 43.8488 45.3003 43.7128 45.4633 43.5658C45.5023 43.5308 45.5163 43.4568 45.5233 43.3988C45.5433 43.2428 45.5403 43.0838 45.5693 42.9298C45.6103 42.7178 45.6793 42.5098 45.6103 42.2418ZM39.1413 53.7218C39.1523 53.7258 39.1633 53.7298 39.1753 53.7328C39.2753 53.4118 39.3873 53.0938 39.4713 52.7698C39.5403 52.5048 39.6873 52.3048 39.8703 52.1098C40.0303 51.9398 40.1983 51.7538 40.2823 51.5428C40.5383 50.8988 40.7563 50.2388 40.9883 49.5848C41.0233 49.4858 41.0743 49.3868 41.0853 49.2848C41.1273 48.8958 41.1533 48.5048 41.1903 48.1158C41.2413 47.5728 41.3133 47.0308 41.3463 46.4868C41.3773 45.9588 41.3693 45.4308 41.6013 44.9358C41.6683 44.7938 41.5843 44.5058 41.4533 44.4218C41.1503 44.2268 40.9983 43.9328 40.8803 43.6088C40.7353 43.2098 40.5273 42.8448 40.2683 42.5078C40.0823 42.2658 39.8493 42.1018 39.5423 42.0738C39.3593 42.0568 39.1733 42.0798 38.9903 42.0638C38.8183 42.0488 38.7663 42.1178 38.7833 42.2758C38.8353 42.7478 38.8793 43.2208 38.9363 43.6918C39.0363 44.5098 39.1533 45.3268 39.2453 46.1458C39.2853 46.5048 39.2673 46.8698 39.2963 47.2308C39.3823 48.3108 39.3823 49.3918 39.3323 50.4728C39.2953 51.2848 39.2563 52.0968 39.2123 52.9088C39.1973 53.1788 39.1653 53.4498 39.1413 53.7218ZM38.5683 53.9478C38.5823 53.9428 38.5973 53.9378 38.6113 53.9318C38.6033 53.8838 38.5963 53.8348 38.5863 53.7868C38.4663 53.2558 38.3163 52.7288 38.2343 52.1918C38.1583 51.6948 38.1273 51.1868 38.1243 50.6828C38.1193 49.9348 38.1653 49.1858 38.1693 48.4378C38.1733 47.8018 38.1363 47.1668 38.1373 46.5308C38.1393 45.5808 38.1553 44.6308 38.1753 43.6808C38.1823 43.3488 38.2173 43.0178 38.2413 42.6868C38.2553 42.4828 38.2723 42.2798 38.2883 42.0668C37.9573 42.0548 37.7013 42.1438 37.4993 42.3608C37.1553 42.7318 36.9163 43.1658 36.7443 43.6398C36.6393 43.9268 36.5033 44.1958 36.2403 44.3768C36.0353 44.5178 35.9683 44.7618 36.0543 45.0008C36.1143 45.1668 36.1873 45.3348 36.2083 45.5078C36.2503 45.8428 36.2613 46.1818 36.2833 46.5188C36.2923 46.6608 36.2903 46.8038 36.3053 46.9458C36.3833 47.6708 36.4663 48.3958 36.5463 49.1218C36.5553 49.2038 36.5313 49.2938 36.5573 49.3688C36.7703 49.9908 36.9893 50.6118 37.2113 51.2308C37.3413 51.5908 37.5103 51.9198 37.8173 52.1778C37.9623 52.2998 38.0623 52.4988 38.1313 52.6818C38.2533 53.0028 38.3333 53.3388 38.4383 53.6668C38.4703 53.7648 38.5253 53.8548 38.5683 53.9478ZM39.7283 53.1618C39.6033 53.4848 39.4823 53.7978 39.3613 54.1118C39.3553 54.1268 39.3613 54.1458 39.3633 54.1638C39.3983 54.4508 39.4163 54.7418 39.4733 55.0248C39.5963 55.6338 39.7343 56.2398 39.8833 56.8438C39.9003 56.9108 40.0333 57.0068 40.0953 56.9958C40.3903 56.9448 40.6023 56.6228 40.5823 56.3168C40.5603 55.9908 40.5293 55.6638 40.5333 55.3378C40.5403 54.7328 40.4253 54.1578 40.1663 53.6118C40.0743 53.4158 39.9493 53.2458 39.7283 53.1618ZM36.9233 54.8418C36.9643 55.3438 36.9863 55.7998 37.0443 56.2518C37.0823 56.5508 37.1493 56.8548 37.4883 56.9848C37.6243 57.0368 37.6833 56.9938 37.6843 56.8478C37.6843 56.6648 37.6833 56.4798 37.7133 56.3008C37.7903 55.8398 37.8893 55.3818 37.9703 54.9218C38.0253 54.6098 37.9913 54.2788 38.1693 53.9918C38.1863 53.9648 38.1713 53.9108 38.1603 53.8738C38.1113 53.7158 38.0593 53.5578 38.0063 53.4008C37.9303 53.1738 37.8663 53.1518 37.6693 53.2868C37.6203 53.3198 37.5763 53.3598 37.5323 53.3998C37.0953 53.8008 36.9543 54.3228 36.9233 54.8418Z" fill="black"/>
<path d="M33.3851 37.3208C33.1931 37.3238 33.0831 37.2078 33.1451 37.0268C33.1971 36.8738 33.1461 36.7708 33.0781 36.6468C33.0321 36.5628 33.0351 36.4528 33.0161 36.3548C33.1211 36.3538 33.2481 36.3148 33.3271 36.3598C33.4871 36.4508 33.6501 36.5668 33.7561 36.7128C33.8131 36.7908 33.7831 36.9638 33.7411 37.0738C33.6841 37.2178 33.5671 37.3288 33.3851 37.3208Z" fill="black"/>
<path d="M44.2621 37.3208C44.0651 37.3318 43.9491 37.2108 43.8811 37.0528C43.8191 36.9068 43.7751 36.7428 43.9471 36.6238C44.1001 36.5188 44.2491 36.4058 44.4121 36.3198C44.4611 36.2938 44.5731 36.3218 44.6151 36.3658C44.6481 36.3998 44.6421 36.5108 44.6101 36.5598C44.5051 36.7238 44.4271 36.8738 44.4941 37.0858C44.5391 37.2278 44.4251 37.3198 44.2621 37.3208Z" fill="black"/>
<path d="M35.0352 40.9517C35.1092 40.8807 35.1712 40.7807 35.2592 40.7457C35.3742 40.6997 35.4602 40.7837 35.4982 40.8997C35.5372 41.0177 35.5772 41.1357 35.6092 41.2557C35.6412 41.3767 35.5632 41.4667 35.4522 41.4477C35.3152 41.4237 35.0702 41.1297 35.0352 40.9517Z" fill="black"/>
<path d="M42.2983 40.7358C42.4863 40.7378 42.6223 40.9048 42.5513 41.0388C42.4723 41.1888 42.3433 41.3208 42.2103 41.4288C42.1223 41.4998 41.9963 41.4028 42.0213 41.2878C42.0543 41.1388 42.1003 40.9898 42.1633 40.8498C42.1883 40.7928 42.2703 40.7588 42.2983 40.7358Z" fill="black"/>
<path d="M34.4063 40.2988C34.2563 40.2128 34.1153 40.1538 34.0043 40.0588C33.9613 40.0218 33.9873 39.9028 33.9823 39.8218C34.0613 39.8288 34.1463 39.8188 34.2163 39.8468C34.3003 39.8808 34.3733 39.9428 34.4453 39.9998C34.5023 40.0448 34.5513 40.1008 34.6043 40.1518C34.5473 40.1948 34.4893 40.2378 34.4063 40.2988Z" fill="black"/>
<path d="M43.2317 40.2948C43.1447 40.2368 43.0887 40.1988 43.0317 40.1618C43.0807 40.1078 43.1237 40.0478 43.1797 40.0028C43.2557 39.9418 43.3357 39.8798 43.4237 39.8418C43.4887 39.8138 43.5707 39.8228 43.6447 39.8158C43.6437 39.8968 43.6757 40.0178 43.6357 40.0518C43.5207 40.1488 43.3757 40.2118 43.2317 40.2948Z" fill="black"/>
<path d="M33.6443 38.7958C33.7123 38.8388 33.7723 38.8578 33.7753 38.8828C33.7833 38.9638 33.8003 39.0718 33.7583 39.1248C33.6833 39.2178 33.5683 39.2788 33.4673 39.3478C33.4593 39.3528 33.4033 39.3148 33.4043 39.2988C33.4093 39.2138 33.4053 39.1188 33.4423 39.0478C33.4883 38.9548 33.5723 38.8808 33.6443 38.7958Z" fill="black"/>
<path d="M44.2531 39.1577C44.2481 39.3277 44.1541 39.4027 44.0811 39.3397C43.9861 39.2567 43.9001 39.1537 43.8411 39.0437C43.8181 39.0007 43.8591 38.8927 43.9041 38.8547C43.9351 38.8287 44.0491 38.8527 44.0841 38.8927C44.1621 38.9817 44.2141 39.0947 44.2531 39.1577Z" fill="black"/>
<path d="M33.7822 38.1048C33.7362 38.1948 33.7132 38.2778 33.6612 38.3338C33.5722 38.4288 33.4642 38.3988 33.3752 38.3248C33.2802 38.2448 33.3342 38.1688 33.3972 38.0978C33.4202 38.0718 33.4352 38.0348 33.4632 38.0158C33.5192 37.9758 33.6012 37.9028 33.6362 37.9188C33.6972 37.9468 33.7302 38.0328 33.7822 38.1048Z" fill="black"/>
<path d="M43.8774 38.0688C43.9034 38.0348 43.9424 37.9498 44.0074 37.9138C44.0354 37.8978 44.1204 37.9798 44.1764 38.0208C44.1944 38.0338 44.2104 38.0558 44.2174 38.0778C44.2434 38.1488 44.3044 38.2428 44.2794 38.2858C44.2474 38.3408 44.1354 38.3908 44.0744 38.3758C44.0044 38.3588 43.9484 38.2708 43.8934 38.2078C43.8774 38.1908 43.8854 38.1518 43.8774 38.0688Z" fill="black"/>
<path d="M35.3725 42.2177C35.2925 42.1057 35.2145 42.0457 35.2105 41.9807C35.2015 41.8437 35.3135 41.8127 35.4295 41.8087C35.5325 41.8057 35.6285 41.8457 35.5965 41.9547C35.5735 42.0377 35.4775 42.0997 35.3725 42.2177Z" fill="black"/>
<path d="M42.3183 42.1457C42.1393 42.1297 42.0273 42.0857 42.0383 41.9457C42.0423 41.8967 42.1383 41.8267 42.2003 41.8157C42.3123 41.7957 42.4283 41.8397 42.4243 41.9767C42.4223 42.0407 42.3473 42.1027 42.3183 42.1457Z" fill="black"/>
<defs>
<filter id="filter0_d" x="0" y="0" width="78" height="78" filterUnits="userSpaceOnUse" color-interpolation-filters="sRGB">
<feFlood flood-opacity="0" result="BackgroundImageFix"/>
<feColorMatrix in="SourceAlpha" type="matrix" values="0 0 0 0 0 0 0 0 0 0 0 0 0 0 0 0 0 0 127 0"/>
<feOffset dy="4"/>
<feGaussianBlur stdDeviation="2"/>
<feColorMatrix type="matrix" values="0 0 0 0 0 0 0 0 0 0 0 0 0 0 0 0 0 0 0.25 0"/>
<feBlend mode="normal" in2="BackgroundImageFix" result="effect1_dropShadow"/>
<feBlend mode="normal" in="SourceGraphic" in2="effect1_dropShadow" result="shape"/>
</filter>
</defs>
</svg>
