<svg width="78" height="78" viewBox="0 0 78 78" fill="none" xmlns="http://www.w3.org/2000/svg">
<g filter="url(#filter0_d)">
<circle cx="39" cy="35" r="35" fill="#101010"/>
</g>
<path d="M48.4357 56.6433C48.425 56.6083 48.395 56.5814 48.3536 56.5697C48.3344 56.5643 48.3148 56.5604 48.2951 56.5564C48.2838 56.5542 48.2727 56.552 48.2615 56.5495L46.8242 56.2287C44.3216 55.6702 41.8191 55.1117 39.3165 54.5536C39.2575 54.5405 39.1983 54.5305 39.1354 54.5198C39.1075 54.5151 39.0791 54.5103 39.0502 54.5051C39.025 54.5097 38.9994 54.514 38.9736 54.5183C38.9145 54.5282 38.8533 54.5385 38.794 54.5522C36.8141 55.009 34.8345 55.4662 32.8547 55.9235L31.171 56.3124C30.8135 56.3948 30.456 56.4773 30.0985 56.5604C30.0394 56.5742 29.9985 56.5998 29.9832 56.6325C29.9712 56.6584 29.9743 56.6895 29.9924 56.7251C30.0064 56.7526 30.0373 56.7768 30.0673 56.8003C30.1859 56.8931 30.3012 56.9817 30.4165 57.0704L32.3358 58.5502L39.0076 63.6949C39.1736 63.823 39.2446 63.8239 39.4063 63.6991C42.3806 61.4048 45.3548 59.1105 48.3289 56.8161L48.3501 56.8002C48.3726 56.7835 48.3938 56.7679 48.4094 56.7493C48.4368 56.7166 48.4464 56.6779 48.4357 56.6433Z" fill="#31AE71"/>
<path d="M20.879 28.3253C22.7373 29.6421 24.726 31.0486 27.3273 32.8857C27.3903 32.9302 27.4538 32.9645 27.5159 32.9876C28.0206 33.1755 28.5724 33.3784 29.2031 33.6079C29.2548 33.6267 29.3105 33.6382 29.364 33.6409C29.4669 33.6462 29.4669 33.6461 29.5049 33.545C29.7055 33.0134 29.9129 32.4637 30.1135 31.9219C30.1815 31.738 30.164 31.6824 30.0033 31.5723L29.2646 31.0665C28.1306 30.2899 26.958 29.4868 25.8029 28.6997C25.7001 28.6297 25.6465 28.546 25.6234 28.42C25.4073 27.2406 25.1887 26.0616 24.97 24.8827L24.9147 24.5847C24.9077 24.5466 24.8983 24.509 24.8894 24.4735C24.8871 24.4639 24.8847 24.4545 24.8824 24.4452C24.7927 24.4211 24.7166 24.4344 24.6248 24.4893L24.4777 24.5774C24.1375 24.7813 23.7856 24.9921 23.4328 25.1877C23.3019 25.2602 23.2604 25.3399 23.285 25.4717C23.2874 25.4849 23.2891 25.4983 23.2907 25.5116L23.2941 25.5364L23.3586 25.963C23.4443 26.5297 23.5301 27.0964 23.615 27.6632C23.6191 27.6905 23.6183 27.7167 23.6174 27.753C23.6168 27.772 23.6162 27.7939 23.6162 27.8203V27.9165L21.871 25.8209L21.9666 25.7602C22.0046 25.7359 22.0372 25.715 22.0706 25.6953C22.3517 25.5295 22.6329 25.3639 22.9146 25.1992L24.1192 24.4953C24.8351 24.0769 25.5512 23.6585 26.2669 23.2397C26.2865 23.2283 26.3064 23.2171 26.3263 23.2059C26.3975 23.1658 26.4711 23.1243 26.529 23.071C26.6557 22.9541 26.8042 22.8717 26.9477 22.7921C27.0018 22.762 27.056 22.732 27.1089 22.7002C27.1364 22.6837 27.1641 22.6674 27.1917 22.6513C27.3439 22.5621 27.4875 22.4779 27.6015 22.3463C27.7217 22.2075 27.8483 22.0679 27.9777 21.9314C28.1565 21.7428 28.3364 21.5553 28.5164 21.3679C28.632 21.2474 28.7475 21.127 28.8629 21.0063C28.9855 20.8779 29.1078 20.7491 29.2301 20.6203C29.3538 20.4901 29.4776 20.3598 29.6017 20.2298C29.9002 19.9172 30.1993 19.6052 30.4987 19.2935C30.7383 19.044 30.9782 18.7949 31.2182 18.5458L31.5089 18.2439C31.5132 18.2395 31.5183 18.2351 31.5235 18.2308C31.5269 18.2279 31.5321 18.2236 31.5335 18.2217C31.5332 18.2161 31.5355 18.2043 31.5378 18.1923C31.5447 18.1569 31.5518 18.1202 31.5435 18.0945C31.5397 18.0829 31.5298 18.0523 31.4464 18.0718C31.4135 18.0794 31.381 18.0984 31.3564 18.114C31.2655 18.1719 31.1751 18.2307 31.0848 18.2895L30.5449 18.6396C30.2914 18.8037 30.0379 18.9678 29.7848 19.1323C29.66 19.2134 29.5355 19.295 29.411 19.3765C29.1985 19.5158 28.9787 19.6599 28.7608 19.799C28.5642 19.9245 28.3665 20.0482 28.1688 20.1719C27.9584 20.3034 27.7481 20.435 27.5393 20.5687C27.348 20.6911 27.1554 20.8186 26.9691 20.9419C26.8366 21.0296 26.7042 21.1172 26.571 21.2039L26.347 21.3503C26.072 21.53 25.7876 21.716 25.5032 21.8915C25.4446 21.9278 25.3859 21.9646 25.3273 22.0014C25.0737 22.1604 24.8115 22.3248 24.536 22.4505C23.8147 22.7797 23.0754 23.1008 22.3603 23.4113C22.1008 23.524 21.8414 23.6366 21.5822 23.7499C21.5574 23.7608 21.5321 23.7665 21.5053 23.7725C21.4934 23.7751 21.4812 23.7779 21.4686 23.7812L21.4422 23.7882L21.4023 23.7156C21.3832 23.6812 21.3654 23.6492 21.349 23.6165C21.2973 23.5136 21.246 23.4106 21.1946 23.3076C21.0861 23.0899 20.9775 22.8721 20.8663 22.6557C20.8177 22.5612 20.7953 22.4632 20.7956 22.3473C20.7971 21.8111 20.798 21.275 20.799 20.7388C20.8 20.0977 20.8011 19.4566 20.8032 18.8156C20.8035 18.7275 20.8157 18.6342 20.8395 18.5385C21.0076 17.8617 21.1601 17.2505 21.3241 16.6242C21.3593 16.4898 21.4137 16.3528 21.4857 16.2169C21.6545 15.8982 21.8303 15.5766 22.0004 15.2657C22.0765 15.1265 22.1526 14.9873 22.2284 14.8479C22.2726 14.7666 22.3182 14.6826 22.2877 14.5876C22.2678 14.5797 22.2496 14.576 22.2323 14.576C22.175 14.576 22.1291 14.6164 22.0728 14.6729L21.774 14.9718C21.4739 15.2719 21.1635 15.5822 20.8605 15.8895C20.8161 15.9346 20.7744 15.9963 20.7333 16.0782C20.5849 16.3729 20.4375 16.6681 20.2901 16.9632C20.1243 17.2951 19.9585 17.6271 19.7914 17.9583C19.7453 18.0497 19.7206 18.1478 19.7138 18.2672C19.6774 18.9065 19.6396 19.5457 19.6018 20.1848C19.5792 20.5659 19.5567 20.9469 19.5345 21.328C19.5261 21.4703 19.5165 21.6127 19.507 21.755C19.4835 22.1031 19.4592 22.4631 19.4552 22.8169C19.4473 23.4983 19.4484 24.1913 19.4495 24.8615C19.4501 25.2394 19.4508 25.6172 19.4498 25.9951C19.4496 26.0927 19.4739 26.175 19.5286 26.2621C19.7015 26.5371 19.8736 26.8126 20.0456 27.0882C20.2647 27.439 20.4837 27.7898 20.7045 28.1394C20.7505 28.2121 20.8125 28.2782 20.879 28.3253Z" fill="#31AE71"/>
<path d="M57.324 28.1057C57.6609 27.5621 58.0588 26.9219 58.4557 26.2947C58.5254 26.1845 58.5563 26.0792 58.5558 25.9533C58.5529 25.2096 58.5531 24.4535 58.5533 23.7222V22.8546C58.5533 22.7811 58.5511 22.7062 58.5468 22.6321L58.4764 21.4436C58.4137 20.3868 58.351 19.3299 58.2903 18.273C58.2832 18.1495 58.2546 18.0419 58.2005 17.9345C58.0651 17.6662 57.9308 17.3972 57.7966 17.1283C57.6249 16.7845 57.4532 16.4406 57.2792 16.0978C57.2335 16.0078 57.1718 15.9215 57.1007 15.8481C56.8814 15.6223 56.6548 15.3961 56.4356 15.1774L56.207 14.9489C56.1542 14.896 56.1012 14.8433 56.0482 14.7905L55.9 14.6428C55.8404 14.5832 55.7854 14.5672 55.7237 14.5924C55.6946 14.6881 55.732 14.7698 55.78 14.8586L55.9087 15.0964C56.1307 15.5067 56.3527 15.9169 56.5723 16.3284C56.6219 16.4214 56.656 16.5063 56.6766 16.5879C56.8255 17.1781 56.9852 17.8218 57.1789 18.6135C57.1978 18.691 57.2075 18.7685 57.2075 18.8437C57.2091 19.9562 57.2101 21.1541 57.2062 22.3758C57.206 22.4588 57.1832 22.5534 57.1438 22.6354C57.0121 22.9089 56.8732 23.1843 56.7388 23.4507L56.6352 23.6561C56.6221 23.6823 56.6062 23.7072 56.5893 23.7336C56.581 23.7466 56.5722 23.7604 56.563 23.7754L56.5476 23.8008L56.4635 23.7665C56.425 23.7509 56.3887 23.7362 56.3527 23.7205L55.2986 23.2589C54.4344 22.8804 53.5702 22.5019 52.705 22.1253C52.4641 22.0204 52.2335 21.8897 52.0198 21.737C51.9753 21.7053 51.9316 21.6725 51.8877 21.6398C51.8102 21.5819 51.73 21.522 51.6479 21.4692C51.5251 21.3901 51.4008 21.3133 51.2765 21.2366C51.1153 21.1371 50.9486 21.0343 50.7881 20.9276C50.6446 20.8323 50.5029 20.7299 50.3659 20.631C50.2501 20.5473 50.1304 20.4608 50.0105 20.3792C49.4257 19.9815 48.8292 19.5799 48.2523 19.1915L47.9595 18.9944C47.5532 18.7207 47.146 18.4484 46.7389 18.176L46.6544 18.1195C46.5662 18.0605 46.4881 18.0507 46.4552 18.0943C46.4327 18.1241 46.4181 18.1656 46.5293 18.2812C46.7051 18.464 46.8807 18.6471 47.0562 18.8302L47.7949 19.5993C47.9978 19.8102 48.2007 20.0211 48.403 20.2325C48.534 20.3694 48.6643 20.5069 48.7945 20.6444C48.9027 20.7586 49.0108 20.8728 49.1193 20.9865L49.2886 21.1641C49.5227 21.4096 49.7646 21.6635 50.0051 21.9107C50.1439 22.0536 50.288 22.1963 50.4274 22.3344C50.4946 22.4011 50.562 22.4677 50.629 22.5347C50.6558 22.5614 50.6821 22.5886 50.708 22.6163L50.8472 22.7655C50.9714 22.8988 51.0956 23.0321 51.221 23.1644C51.2345 23.1787 51.2567 23.1897 51.2783 23.2005L51.292 23.2074C51.4801 23.3038 51.6676 23.4015 51.855 23.4991C52.2781 23.7195 52.7156 23.9474 53.1528 24.1566C54.1083 24.6137 55.0321 25.1609 55.9255 25.6901L55.9996 25.734C56.0223 25.7474 56.041 25.7641 56.0627 25.7834C56.0728 25.7924 56.0836 25.802 56.0958 25.8121L56.1227 25.8344L54.4579 27.8343L54.3767 27.8107L54.3809 27.7494C54.3824 27.7237 54.384 27.6981 54.3878 27.6727C54.4191 27.4604 54.4506 27.248 54.4822 27.0356C54.5316 26.7029 54.5811 26.3701 54.6296 26.0372C54.6486 25.9068 54.6656 25.7762 54.6825 25.6455C54.6931 25.5642 54.7037 25.4828 54.7147 25.4015C54.7261 25.3181 54.6974 25.2663 54.6124 25.2169C54.3075 25.0394 53.9996 24.8553 53.702 24.6772L53.3506 24.4669C53.3347 24.4569 53.3198 24.4475 53.3045 24.4411C53.2657 24.4248 53.2326 24.4166 53.2056 24.4166C53.1881 24.4166 53.1732 24.42 53.1608 24.4268C53.1293 24.4442 53.1075 24.4877 53.0962 24.556C53.0936 24.571 53.0915 24.586 53.0893 24.6009L52.9613 25.4662C52.8151 26.4532 52.6639 27.4737 52.5196 28.4781C52.4991 28.6205 52.4395 28.7116 52.314 28.7925C51.1151 29.5641 49.8982 30.3517 48.7214 31.1133L47.9858 31.5894C47.8562 31.6732 47.8402 31.7109 47.8714 31.8588C47.8774 31.8869 47.8878 31.9145 47.8989 31.9437L47.9051 31.9604C48.0981 32.4767 48.2911 32.9929 48.4845 33.509C48.5383 33.6523 48.5715 33.67 48.7224 33.6348C48.752 33.628 48.781 33.6169 48.8117 33.6052L49.1948 33.4646C49.619 33.3091 50.0433 33.1537 50.4667 32.9959C50.5443 32.967 50.6197 32.9274 50.6847 32.8814C51.7191 32.1509 52.7531 31.4199 53.7871 30.6888C54.8898 29.9092 55.9925 29.1296 57.0956 28.3505C57.1886 28.2849 57.2612 28.2071 57.324 28.1057Z" fill="#31AE71"/>
<path d="M45.5418 45.1497C45.5192 45.099 45.4805 45.0368 45.4241 45.0289C45.3775 45.0225 45.3267 45.0525 45.2741 45.1153C45.2094 45.1926 45.1462 45.271 45.083 45.3495L44.4656 46.11C43.7701 46.966 43.0745 47.822 42.3775 48.6768C42.2968 48.7757 42.2659 48.8569 42.271 48.9572C42.2756 49.0466 42.2745 49.1373 42.2733 49.225C42.2723 49.311 42.2712 49.4001 42.2755 49.4868C42.2823 49.6229 42.2367 49.7112 42.123 49.7819C42.0051 49.8551 41.8883 49.9349 41.7753 50.0122C41.687 50.0725 41.5987 50.1328 41.509 50.1908C41.4351 50.2386 41.3904 50.2978 41.3638 50.3829C41.3338 50.4792 41.3014 50.5747 41.269 50.6701C41.2349 50.7706 41.1996 50.8745 41.1681 50.9773C41.1374 51.077 41.0795 51.1384 40.9805 51.1764L40.8334 51.2325C40.6065 51.3187 40.3718 51.408 40.1482 51.5102C39.7084 51.7113 39.3538 51.7786 38.9984 51.7286C38.9581 51.7286 38.9178 51.7289 38.8776 51.7293C38.7808 51.73 38.6807 51.7309 38.5821 51.727L38.5714 51.7266C38.4867 51.7233 38.399 51.72 38.3199 51.6895C38.0567 51.5881 37.7905 51.4816 37.533 51.3787C37.3576 51.3086 37.1822 51.2384 37.0063 51.1692C36.92 51.1353 36.869 51.0803 36.8408 50.9908C36.8116 50.8981 36.7804 50.8059 36.7492 50.7137C36.7124 50.605 36.6743 50.4926 36.6401 50.3807C36.615 50.2987 36.5697 50.2399 36.4933 50.19C36.3875 50.1209 36.2827 50.0501 36.1779 49.9792C36.0699 49.9062 35.9619 49.8332 35.8526 49.7621C35.7651 49.7051 35.7273 49.6347 35.7301 49.534C35.7326 49.4445 35.7319 49.3531 35.7313 49.2646C35.7305 49.1635 35.7297 49.059 35.7336 48.9559C35.7375 48.8572 35.7082 48.7773 35.6358 48.6888C35.1998 48.1562 34.766 47.6219 34.3322 47.0875L33.6954 46.3033C33.4221 45.9666 33.1394 45.6183 32.8589 45.2778C32.8196 45.23 32.7696 45.194 32.7285 45.1837C32.7067 45.1782 32.6899 45.1741 32.6755 45.1741C32.6377 45.1741 32.6165 45.2031 32.563 45.3145C31.8362 46.8293 31.1095 48.3443 30.383 49.8592L30.3718 49.882C30.359 49.9076 30.347 49.9319 30.3396 49.9566C30.2993 50.0925 30.3235 50.1466 30.452 50.2084C30.4713 50.2176 30.4904 50.2266 30.5097 50.2356L31.9132 50.8861C34.2224 51.9561 36.5315 53.0262 38.8399 54.0979C38.9825 54.1642 39.1105 54.1635 39.2548 54.0959C41.3972 53.0917 43.5402 52.089 45.6832 51.0863L47.5564 50.2098C47.6884 50.1481 47.7061 50.1126 47.6752 49.9727C47.6674 49.9378 47.6521 49.9039 47.6358 49.8679L47.6254 49.845C47.5054 49.5734 47.385 49.302 47.2646 49.0307L46.7922 47.9664C46.3755 47.0274 45.9589 46.0885 45.5418 45.1497Z" fill="#31AE71"/>
<path d="M42.9772 41.1082C42.9693 41.0545 42.9309 41.0033 42.8597 40.9516L42.0143 40.3383C41.4344 39.9178 40.8545 39.4972 40.2753 39.0756C40.2098 39.0279 40.1439 39.0065 40.0621 39.0065C40.0608 39.0065 40.0596 39.0065 40.0583 39.0065C39.8065 39.0086 39.5546 39.0083 39.3029 39.0079L39.0149 39.0077L38.7252 39.0079C38.4633 39.0082 38.2014 39.0084 37.9395 39.0066C37.9384 39.0066 37.9373 39.0066 37.9363 39.0066C37.8602 39.0066 37.7986 39.0266 37.7372 39.0712C37.1897 39.4692 36.6417 39.8663 36.0936 40.2635L35.1259 40.9649C35.0236 41.0391 35.0028 41.1292 35.0623 41.2405C35.0843 41.2815 35.1127 41.3214 35.1402 41.3599L35.148 41.3708C35.3815 41.699 35.5624 42.0194 35.7009 42.3505C35.8305 42.6606 35.9764 42.9704 36.1175 43.27C36.179 43.4008 36.2406 43.5315 36.3011 43.6626L36.4454 43.9757C36.6011 44.3134 36.7567 44.6511 36.9131 44.9884C36.9653 45.101 37.0086 45.1092 37.0799 45.085C37.1104 45.0747 37.145 45.0455 37.1826 44.9981L37.1926 44.9855C37.3527 44.7839 37.5183 44.5754 37.6728 44.3646C37.7492 44.2602 37.8392 44.2193 37.9702 44.2171C38.6559 44.2223 39.3468 44.2223 40.0238 44.2171C40.0253 44.2171 40.0269 44.2171 40.0284 44.2171C40.1664 44.2171 40.2584 44.2626 40.3355 44.3687C40.4806 44.5682 40.6378 44.7644 40.7899 44.9541L40.8272 45.0006C40.8629 45.0453 40.8993 45.0747 40.9297 45.0834C41.0116 45.1068 41.0454 45.0965 41.0969 44.9848C41.1831 44.7977 41.2685 44.6103 41.3539 44.4228C41.5229 44.0518 41.6977 43.6681 41.8767 43.294C41.9637 43.1123 42.0465 42.9244 42.1265 42.7426C42.3475 42.2408 42.576 41.7219 42.9205 41.2702C42.9659 41.2106 42.9845 41.1576 42.9772 41.1082Z" fill="#31AE71"/>
<path d="M48.6773 56.2285C48.6753 56.1657 48.6733 56.1008 48.6639 56.0386C48.4092 54.3553 48.1526 52.6724 47.896 50.9894L47.8941 50.9764C47.8761 50.8585 47.857 50.7407 47.8378 50.6226L47.8141 50.4765C47.7824 50.4686 47.7529 50.465 47.7245 50.465C47.6564 50.465 47.5951 50.4857 47.527 50.5175C45.4146 51.5066 43.3019 52.4947 41.1891 53.4829L39.8207 54.1228C39.7875 54.1384 39.754 54.1542 39.7217 54.1716C39.6803 54.1939 39.6804 54.2294 39.6842 54.2901C39.6864 54.3261 39.7028 54.3394 39.7543 54.3508C39.7882 54.3583 39.822 54.3661 39.8559 54.3738L39.9266 54.3899L46.4418 55.8519C47.1048 56.0006 47.7679 56.1491 48.4311 56.2968L48.4487 56.3007C48.5263 56.3183 48.6 56.335 48.6797 56.2953C48.6787 56.2732 48.678 56.2509 48.6773 56.2285Z" fill="#31AE71"/>
<path d="M30.0577 56.2757C32.5602 55.6983 35.0624 55.1202 37.5647 54.5421L37.6877 54.5137C37.902 54.4642 38.1163 54.4148 38.3301 54.3627C38.4066 54.3441 38.4109 54.3325 38.4096 54.2501C38.4086 54.1915 38.3769 54.1763 38.3165 54.1522C38.3043 54.1474 38.2921 54.1425 38.2804 54.1371C35.6798 52.9277 33.0788 51.7193 30.4776 50.511L30.4598 50.5026C30.4275 50.4873 30.397 50.4728 30.3658 50.4657C30.3008 50.4508 30.2624 50.4507 30.2414 50.4655C30.2201 50.4805 30.2071 50.5179 30.1992 50.5866C30.1939 50.6325 30.19 50.6785 30.1861 50.7246L29.8688 54.3836C29.8203 54.9407 29.7716 55.4977 29.7244 56.0549C29.7191 56.1174 29.7206 56.1821 29.7221 56.2446C29.7226 56.2656 29.7231 56.2864 29.7233 56.3072C29.8233 56.3341 29.9118 56.312 30.005 56.2886C30.0226 56.2841 30.0402 56.2797 30.0577 56.2757Z" fill="#31AE71"/>
<path d="M30.5458 31.7669C30.4786 31.7798 30.4424 31.8128 30.4167 31.8848C30.3709 32.0137 30.3224 32.1416 30.2739 32.2695L30.0866 32.7661C29.9783 33.0533 29.87 33.3404 29.7637 33.6283C29.7148 33.7607 29.7029 33.871 29.8037 33.9792C30.5112 34.739 31.2173 35.5 31.9233 36.261C32.2723 36.6371 32.6213 37.0132 32.9704 37.3892C33.0283 37.4515 33.0803 37.4823 33.1293 37.4833C33.182 37.4832 33.236 37.4538 33.3005 37.3899C33.9618 36.7348 34.6226 36.0793 35.2832 35.4237C35.4103 35.2974 35.4189 35.2023 35.3159 35.0604L35.1886 34.8851C34.6 34.0743 33.9913 33.2359 33.3892 32.4138C33.3454 32.3539 33.2798 32.2988 33.2093 32.2627C32.7399 32.0224 32.2784 31.7947 31.889 31.6037C31.8452 31.5822 31.7959 31.5697 31.7563 31.5597C31.7428 31.5563 31.7306 31.5532 31.72 31.5502C31.6954 31.5522 31.6743 31.5535 31.6555 31.5547C31.6196 31.5569 31.5936 31.5585 31.5691 31.5634C31.4394 31.589 31.3099 31.6151 31.1804 31.6412C30.969 31.6839 30.7577 31.7266 30.5458 31.7669Z" fill="#31AE71"/>
<path d="M44.6351 32.3852C44.062 33.1699 43.4439 34.0198 42.6901 35.0601C42.6036 35.1794 42.6123 35.2803 42.7183 35.3871C43.3819 36.0557 44.0458 36.7238 44.7105 37.3913C44.7731 37.4542 44.825 37.4837 44.8734 37.4837C44.8741 37.4837 44.8748 37.4836 44.8755 37.4836C44.9249 37.4828 44.9769 37.4511 45.0391 37.3841L45.939 36.4142C46.6911 35.6037 47.443 34.7931 48.1965 33.984C48.2603 33.9154 48.2835 33.8483 48.2716 33.7666C48.2632 33.7086 48.2494 33.6539 48.2307 33.6039C48.1604 33.4156 48.0896 33.2275 48.0187 33.0394C47.8804 32.6728 47.7375 32.2937 47.6017 31.919C47.5646 31.8168 47.5119 31.7736 47.4005 31.7537C47.1986 31.7178 46.9946 31.6763 46.7972 31.6361C46.6989 31.616 46.6005 31.596 46.502 31.5766C46.4646 31.5692 46.4266 31.5637 46.3814 31.5572C46.3598 31.5541 46.3366 31.5508 46.311 31.5469C46.2974 31.5502 46.2823 31.5532 46.2663 31.5564C46.2235 31.565 46.1749 31.5747 46.1331 31.5952C45.6926 31.8106 45.2462 32.033 44.7683 32.275C44.7151 32.302 44.6666 32.3421 44.6351 32.3852Z" fill="#31AE71"/>
<path d="M41.602 49.816C41.6782 49.7646 41.757 49.7114 41.838 49.664C41.927 49.6117 41.9599 49.5488 41.9592 49.4318C41.9558 48.8552 41.9562 48.2691 41.9565 47.7023L41.9568 47.0881C41.9568 47.0775 41.9572 47.0668 41.9576 47.0561C41.9586 47.0302 41.9596 47.0058 41.9541 46.9853C41.9427 46.9418 41.9272 46.9199 41.9175 46.9142L41.8638 46.8832C41.7226 46.8014 41.5766 46.7169 41.4267 46.6499C41.3281 46.6059 41.2704 46.6308 41.2135 46.7415C41.1984 46.771 41.1839 46.8008 41.1695 46.8306C41.1512 46.8683 41.1329 46.906 41.1134 46.9431C41.0437 47.0753 41.0441 47.205 41.1146 47.3395C41.157 47.4205 41.1969 47.5027 41.2371 47.5852C41.2552 47.6224 41.2733 47.6597 41.2917 47.6969L41.3034 47.7205L41.2838 47.7382C41.2727 47.7481 41.2632 47.7576 41.2544 47.7664C41.2356 47.785 41.2179 47.8026 41.1957 47.8148C41.1279 47.8522 41.1082 47.912 41.1297 48.0148C41.1383 48.0562 41.1822 48.1026 41.2057 48.1276C41.2895 48.2161 41.3755 48.3025 41.4615 48.3891L41.5795 48.5082L41.2112 49.2426L41.1818 49.2312C40.8999 49.1222 39.9738 48.6474 39.8687 48.5483L39.8397 48.5208L39.9098 48.4643C39.9382 48.4411 39.9664 48.4181 39.9954 48.3963C40.071 48.3397 40.1461 48.2825 40.2212 48.2253C40.4113 48.0803 40.608 47.9304 40.8091 47.7937C40.9181 47.7197 40.9438 47.6115 40.8858 47.4722C40.8537 47.3954 40.8217 47.3313 40.7878 47.2763C40.7335 47.1882 40.7335 47.101 40.7881 47.002C40.8519 46.8861 40.9134 46.7611 40.9709 46.6304C41.0057 46.5512 41.0343 46.4478 40.9722 46.4054L40.9447 46.3865C40.8085 46.2929 40.6677 46.1961 40.4883 46.1961C40.4873 46.1961 40.4863 46.1961 40.4854 46.1961C40.3245 46.1971 40.1637 46.1985 40.0028 46.1999C39.3871 46.2052 38.7505 46.2107 38.1248 46.1909C37.6597 46.1763 37.2927 46.2654 36.9713 46.4717C36.9592 46.4794 36.9469 46.4854 36.9348 46.4895C36.8687 46.5118 36.8437 46.5549 36.8562 46.6253C36.8647 46.6737 36.8757 46.7238 36.8983 46.7634C36.948 46.8502 37.0038 46.9343 37.0643 47.0134C37.1315 47.1014 37.1372 47.1837 37.0824 47.2724C37.048 47.3279 37.0051 47.4019 36.978 47.4803C36.9182 47.6536 36.9604 47.7252 37.0536 47.7902C37.2704 47.9417 37.4845 48.1041 37.6915 48.2612C37.7626 48.3151 37.8336 48.369 37.9048 48.4226C37.9274 48.4395 37.9468 48.4584 37.9715 48.4822C37.9839 48.4942 37.9976 48.5074 38.0136 48.5223L38.0503 48.5563L36.6613 49.2566L36.2812 48.4963L36.2998 48.4786C36.34 48.4404 36.3797 48.4029 36.419 48.3659C36.5066 48.2832 36.5921 48.2026 36.6757 48.12C36.7319 48.0645 36.7592 48.01 36.7568 47.958C36.7546 47.9069 36.7235 47.8563 36.6647 47.8078C36.6484 47.7943 36.6324 47.7804 36.6131 47.7636L36.5598 47.7177L36.6324 47.5752C36.6742 47.4933 36.7138 47.4157 36.7525 47.3377C36.8184 47.2047 36.8117 47.0883 36.7322 46.982C36.7148 46.9586 36.6988 46.9342 36.6829 46.9098C36.6751 46.8978 36.6674 46.8859 36.6595 46.8741C36.6001 46.7863 36.5529 46.7469 36.4873 46.7469C36.4501 46.7469 36.4069 46.7596 36.3522 46.7833C36.3224 46.7963 36.2934 46.811 36.2644 46.8258C36.227 46.8447 36.1884 46.8643 36.1481 46.8801C36.0745 46.9091 36.0472 46.9543 36.0475 47.047C36.0503 47.8762 36.0502 48.6917 36.0474 49.471C36.0471 49.5549 36.0751 49.6052 36.1475 49.6504C36.2895 49.7392 36.439 49.8377 36.6178 49.9604C36.6786 50.0022 36.7438 50.0217 36.8228 50.0217C36.823 50.0217 36.8231 50.0217 36.8232 50.0217C37.3361 50.0212 37.8489 50.021 38.3619 50.0209C39.3042 50.0206 40.2466 50.0203 41.189 50.018C41.2473 50.0178 41.3185 49.9961 41.3795 49.9599C41.4552 49.915 41.5298 49.8647 41.602 49.816Z" fill="#31AE71"/>
<path d="M35.9665 35.5779C36.175 35.9172 36.3838 36.2563 36.5926 36.5954C36.998 37.2538 37.4034 37.9122 37.8066 38.572C37.8592 38.6581 37.9152 38.6891 38.0195 38.6891C38.0207 38.6891 38.0218 38.689 38.023 38.689C38.3501 38.6869 38.6772 38.6858 39.0019 38.6858C39.3316 38.6858 39.6587 38.6869 39.9811 38.6891C40.0849 38.6884 40.1433 38.6577 40.1966 38.5706C40.6417 37.8433 41.0891 37.1174 41.5365 36.3915L42.0459 35.5647C42.0647 35.5345 42.0841 35.5033 42.0942 35.472C42.1328 35.3524 42.1068 35.3012 41.9872 35.2611L41.8656 35.2202C41.6914 35.1614 41.5112 35.1006 41.3323 35.0483C41.2247 35.0167 41.1224 35.0004 41.0284 34.9998C40.5211 34.9965 40.0053 34.9969 39.5064 34.9973L39.0067 34.9976L38.5416 34.9975C38.0172 34.9972 37.493 34.997 36.9688 34.999C36.8763 34.9994 36.795 35.0103 36.7272 35.0314C36.5296 35.093 36.3304 35.162 36.1378 35.2288L36.0135 35.2717C35.8984 35.3114 35.8876 35.3292 35.9085 35.445C35.9174 35.4941 35.9458 35.5444 35.9665 35.5779Z" fill="#31AE71"/>
<path d="M58.9967 22.116C59.1994 21.4134 59.409 20.6868 59.6115 19.9712C59.6445 19.8545 59.6659 19.7403 59.6751 19.6319C59.7504 18.7451 59.8382 17.6982 59.9185 16.656C59.9309 16.4943 59.9256 16.3302 59.9028 16.1682C59.7421 15.0282 59.5793 13.8884 59.4165 12.7487C59.3235 12.0979 59.2305 11.4472 59.1379 10.7964C59.1243 10.7011 59.0916 10.6236 59.0348 10.5524C58.8394 10.308 58.6462 10.0618 58.4531 9.81555L57.9609 9.18965C57.7325 8.89976 57.5043 8.60987 57.2769 8.31928C57.2076 8.2308 57.1573 8.19349 57.0698 8.22788C57.0458 8.32417 57.0815 8.40536 57.1192 8.49106L57.4215 9.1823C57.6982 9.8147 57.9748 10.4471 58.2496 11.0803C58.2893 11.172 58.3118 11.2585 58.3163 11.3373C58.3555 12.018 58.3935 12.6987 58.4315 13.3794C58.4764 14.1841 58.5212 14.9888 58.5682 15.7934C58.5838 16.0611 58.568 16.2817 58.5186 16.4877C58.4958 16.5826 58.4781 16.6811 58.461 16.7763C58.4389 16.8992 58.4161 17.0263 58.3818 17.1488C58.2989 17.4455 58.3312 17.6894 58.4834 17.9164C58.5753 18.0533 58.5955 18.2098 58.603 18.3449C58.6621 19.3989 58.7262 20.4703 58.7882 21.5065L58.8234 22.0951C58.8254 22.1287 58.8305 22.1627 58.8355 22.1956C58.8364 22.2018 58.8373 22.208 58.8382 22.2142C58.9635 22.2311 58.9654 22.2245 58.9967 22.116Z" fill="#31AE71"/>
<path d="M19.6574 17.3445C19.5808 16.9716 19.5084 16.6059 19.4423 16.2574C19.4263 16.1733 19.4204 16.0902 19.4248 16.0106C19.4519 15.5176 19.4797 15.0247 19.5075 14.5318C19.5614 13.577 19.6171 12.5897 19.6662 11.6184C19.6802 11.3429 19.7419 11.0868 19.8551 10.8355C20.1233 10.2397 20.3885 9.6303 20.645 9.041C20.7236 8.86023 20.8023 8.67942 20.8811 8.49876L20.8919 8.47434C20.9284 8.39213 20.9629 8.31422 20.943 8.22078C20.9209 8.21231 20.9011 8.20837 20.8831 8.20837C20.8211 8.20837 20.7788 8.25488 20.7251 8.32304C20.1363 9.07192 19.5475 9.82075 18.9569 10.5682C18.9078 10.6303 18.8796 10.699 18.8683 10.7841C18.8314 11.061 18.7917 11.3375 18.752 11.6139L18.5772 12.8317C18.415 13.9609 18.2528 15.09 18.0931 16.2195C18.0742 16.352 18.0699 16.4839 18.08 16.6116C18.165 17.6865 18.2558 18.7691 18.3343 19.6994C18.34 19.7673 18.3543 19.8401 18.3793 19.9285C18.5422 20.5045 18.7065 21.0802 18.8707 21.6558L18.9858 22.059C18.992 22.081 18.9988 22.1029 19.0056 22.1248C19.0114 22.1438 19.0173 22.1627 19.0229 22.1817C19.034 22.2196 19.0547 22.2405 19.1253 22.2337C19.1556 22.2309 19.174 22.219 19.178 22.1669C19.1799 22.1423 19.1811 22.1176 19.1824 22.0929L19.1844 22.0554C19.2029 21.7407 19.2217 21.426 19.2404 21.1114C19.2908 20.2652 19.343 19.3902 19.3877 18.5294C19.4002 18.29 19.4353 18.0103 19.6013 17.7512C19.6734 17.6385 19.6912 17.5092 19.6574 17.3445Z" fill="#31AE71"/>
<path d="M54.0349 33.3392C53.9277 33.3034 53.8668 33.3528 53.794 33.4256C53.0127 34.2072 52.3205 34.8965 51.6778 35.533C51.6023 35.6076 51.5127 35.6768 51.4186 35.7329C51.0373 35.9602 50.6481 36.1886 50.2717 36.4095L49.0533 37.1254C48.4163 37.4997 47.7793 37.8741 47.1424 38.2487C47.0216 38.3197 47.0146 38.3239 47.0436 38.4525C47.0567 38.4532 47.07 38.4541 47.0833 38.4549C47.1315 38.4578 47.181 38.4608 47.2302 38.4601C48.0811 38.447 48.9319 38.4334 49.7826 38.4173C49.8531 38.416 49.9197 38.4048 49.9754 38.3849C50.5287 38.1874 51.0817 37.9891 51.6348 37.7908C52.2505 37.5701 52.8662 37.3493 53.4823 37.1297C53.565 37.1002 53.5979 37.0603 53.608 36.9771C53.6855 36.3459 53.7643 35.715 53.8431 35.084C53.9069 34.5732 53.9707 34.0625 54.0338 33.5516C54.0399 33.5014 54.0383 33.4497 54.0364 33.3949C54.0358 33.3765 54.0353 33.3579 54.0349 33.3392Z" fill="#31AE71"/>
<path d="M24.5413 37.1367C25.1032 37.337 25.6647 37.5383 26.2262 37.7396C26.8133 37.95 27.4005 38.1605 27.988 38.3698C28.0697 38.3989 28.1575 38.4148 28.2421 38.4157C28.8658 38.4222 29.5 38.4258 30.1134 38.4292L30.6341 38.4322C30.6737 38.4323 30.7133 38.4324 30.7548 38.4323L30.7852 38.4323C30.8144 38.2926 30.8066 38.2879 30.6731 38.2073L29.8298 37.6983C28.7822 37.0659 27.7346 36.4334 26.6855 35.8034C26.4997 35.6917 26.3371 35.5644 26.1885 35.4141C25.8077 35.029 25.425 34.6458 25.0423 34.2625C24.7594 33.9792 24.4765 33.696 24.1944 33.4119C24.121 33.338 24.0581 33.3029 23.9629 33.3447C23.9635 33.364 23.964 33.3834 23.9645 33.4027C23.9659 33.4589 23.9673 33.5169 23.9742 33.5725C24.0212 33.9519 24.0686 34.3313 24.116 34.7106C24.2082 35.4498 24.3037 36.2141 24.3943 36.9662C24.4069 37.0705 24.4537 37.1055 24.5413 37.1367Z" fill="#31AE71"/>
<path d="M27.0016 35.687C28.3764 36.5167 29.7459 37.344 31.1152 38.1713L32.357 38.9219C32.3807 38.9368 32.403 38.9509 32.4261 38.9595C32.4869 38.9823 32.5329 38.9853 32.5667 38.9686C32.6003 38.952 32.6257 38.914 32.6445 38.8522C32.7316 38.5658 32.8177 38.2792 32.9024 37.9921C32.9131 37.9556 32.92 37.9181 32.9273 37.8784C32.9306 37.8606 32.9338 37.8429 32.9375 37.8252C32.9452 37.7481 32.9116 37.6944 32.8587 37.6376C32.1312 36.8562 31.4043 36.0742 30.6774 35.2922L29.6365 34.1724C29.5833 34.1152 29.5284 34.0873 29.4661 34.0873C29.4328 34.0873 29.3974 34.0953 29.359 34.111C29.339 34.1192 29.3199 34.1301 29.3009 34.141L29.2773 34.1541L27.009 35.3887C27.001 35.393 26.9925 35.3969 26.9839 35.4007C26.9703 35.4068 26.9561 35.413 26.9504 35.42C26.9263 35.4493 26.8965 35.4857 26.8878 35.521C26.8679 35.6019 26.9156 35.6352 27.0016 35.687Z" fill="#31AE71"/>
<path d="M48.6995 34.1397C48.6331 34.1039 48.5811 34.0853 48.5342 34.0853C48.4697 34.0853 48.4149 34.1207 48.3453 34.1952C48.2383 34.3099 48.1316 34.4248 48.0249 34.5398L47.6275 34.9678C46.8106 35.8469 45.9937 36.726 45.1766 37.6048L45.1563 37.6263C45.1038 37.6816 45.0585 37.7293 45.0709 37.7836L45.0717 37.7893C45.073 37.8103 45.0732 37.8282 45.0735 37.8439C45.0739 37.8693 45.0742 37.8877 45.0785 37.9025C45.1519 38.1561 45.2266 38.4093 45.3012 38.6625L45.354 38.8417C45.3636 38.8742 45.383 38.8863 45.4338 38.8919C45.5119 38.9006 45.5761 38.8627 45.6433 38.8227L45.6648 38.81L50.3439 36.0671C50.5705 35.9343 50.7972 35.8015 51.0232 35.6678C51.1127 35.6149 51.123 35.5797 51.1102 35.4939C51.1034 35.448 51.0749 35.4318 51.0251 35.4072C51.0154 35.4024 51.0056 35.3976 50.9962 35.3924C50.605 35.1783 50.2134 34.9648 49.8218 34.7513L49.2405 34.4341C49.0604 34.3355 48.8803 34.237 48.6995 34.1397Z" fill="#31AE71"/>
<path d="M36.6972 45.63C36.793 45.5104 36.8062 45.3931 36.7399 45.2497L36.2287 44.1428C35.9372 43.5113 35.6457 42.8799 35.3538 42.2487C35.3195 42.1744 35.3033 42.1517 35.2535 42.1517C35.2373 42.1517 35.2174 42.1542 35.1921 42.158C35.1527 42.1639 35.1088 42.1813 35.0578 42.2111C34.9453 42.2769 34.8334 42.3435 34.7215 42.4102C34.5603 42.5062 34.3938 42.6055 34.228 42.7002C34.1415 42.7496 34.1095 42.8035 34.1099 42.899C34.1142 44.0679 34.1137 45.2207 34.113 46.3013C34.1129 46.3777 34.1347 46.4386 34.1839 46.499C34.6119 47.0242 35.0674 47.584 35.5172 48.1453C35.5775 48.2207 35.6355 48.2386 35.7316 48.2086V48.0557C35.7316 47.9615 35.7319 47.8672 35.7322 47.773C35.7329 47.5344 35.7336 47.2877 35.7298 47.0453C35.7279 46.9222 35.7609 46.8248 35.8366 46.7294C35.9709 46.5605 36.1031 46.3899 36.2354 46.2193C36.3857 46.0254 36.5411 45.8248 36.6972 45.63Z" fill="#31AE71"/>
<path d="M42.2749 47.0633C42.2704 47.301 42.2714 47.543 42.2723 47.7769C42.2727 47.8704 42.273 47.9639 42.273 48.0574V48.2082C42.3786 48.2444 42.4324 48.2112 42.4875 48.1427C42.9256 47.5972 43.3731 47.0471 43.8313 46.4847C43.8774 46.428 43.898 46.3716 43.8978 46.3019C43.8952 45.2784 43.8928 44.072 43.894 42.8841C43.894 42.8005 43.8651 42.7515 43.7907 42.7096C43.6639 42.6381 43.5371 42.5622 43.4144 42.4889C43.3646 42.4591 43.3148 42.4293 43.2648 42.3997C43.226 42.3767 43.1874 42.3532 43.1489 42.3297C43.0658 42.2791 42.9799 42.2267 42.893 42.1808C42.8306 42.1479 42.7815 42.1383 42.7427 42.1515C42.7045 42.1644 42.6721 42.2006 42.6437 42.2623L42.1274 43.3829C41.843 44.0003 41.5586 44.6178 41.2734 45.2349C41.2014 45.3908 41.2153 45.5127 41.32 45.6426C41.4775 45.8381 41.6331 46.0402 41.7837 46.2357C41.908 46.3971 42.0323 46.5585 42.159 46.7181C42.2417 46.8223 42.2774 46.9288 42.2749 47.0633Z" fill="#31AE71"/>
<path d="M31.8952 27.7335C31.9048 28.1629 31.9025 28.5995 31.9003 29.0217C31.8994 29.2077 31.8984 29.3937 31.8984 29.5797L31.8986 29.976C31.8989 30.3789 31.8992 30.7818 31.8972 31.1847C31.8968 31.2777 31.922 31.323 31.9934 31.3576C32.2895 31.5012 32.5879 31.6523 32.8765 31.7985L32.9986 31.8603C33.0617 31.8922 33.1261 31.8972 33.2111 31.8762C33.2113 31.8562 33.2116 31.8362 33.2119 31.8163C33.2129 31.7541 33.2139 31.6953 33.2103 31.6359C33.1892 31.2875 33.1674 30.9391 33.1455 30.5907C33.1232 30.2344 33.1009 29.8781 33.0793 29.5217C33.0701 29.3695 33.0597 29.2172 33.0494 29.065C33.0225 28.6684 32.9946 28.2583 32.988 27.8542C32.982 27.4829 32.9969 27.1055 33.0114 26.7406C33.0177 26.5831 33.0239 26.4256 33.0286 26.2682C33.034 26.0843 33.0399 25.9005 33.0457 25.7167C33.0507 25.5591 33.0557 25.4016 33.0605 25.244L33.0752 24.742C33.081 24.5412 33.0869 24.3403 33.093 24.1395C33.0974 23.9965 33.1021 23.8535 33.1069 23.7105C33.113 23.5282 33.1191 23.3459 33.1245 23.1636C33.1304 22.9635 33.1356 22.7634 33.1409 22.5633C33.1462 22.3632 33.1514 22.163 33.1573 21.9629C33.1625 21.7853 33.1681 21.6077 33.1738 21.4301C33.1824 21.1596 33.1909 20.889 33.198 20.6184C33.1984 20.6006 33.1993 20.5827 33.2001 20.5647C33.2032 20.5006 33.2063 20.4348 33.1917 20.365C33.1584 20.398 33.1536 20.4388 33.1482 20.4845C33.1464 20.4999 33.1446 20.5149 33.1418 20.5292C33.0792 20.8495 33.0188 21.1702 32.9584 21.491C32.927 21.6576 32.8956 21.8242 32.864 21.9908C32.7882 22.3891 32.7121 22.7873 32.636 23.1855L32.4621 24.0968C32.4185 24.3252 32.3753 24.5538 32.3322 24.7823C32.2423 25.2584 32.1493 25.7508 32.0539 26.2342C31.9736 26.642 31.8828 27.181 31.8952 27.7335Z" fill="#31AE71"/>
<path d="M44.6981 20.1978C44.6969 20.1914 44.6959 20.1848 44.6949 20.1782C44.6907 20.149 44.6884 20.1335 44.6636 20.1278C44.6634 20.137 44.6633 20.1461 44.6632 20.1551C44.6626 20.199 44.6619 20.2405 44.6642 20.2816C44.6746 20.4696 44.6857 20.6575 44.6968 20.8454C44.7058 20.9981 44.7147 21.1508 44.7234 21.3035C44.7297 21.414 44.7354 21.5245 44.7411 21.635C44.7495 21.7962 44.7579 21.9573 44.7679 22.1184C44.7805 22.3203 44.794 22.5222 44.8075 22.7241C44.8225 22.9476 44.8375 23.1711 44.8511 23.3948C44.8597 23.5345 44.8664 23.6743 44.8731 23.8141C44.8802 23.9621 44.8874 24.1101 44.8966 24.2579C44.9083 24.4456 44.9215 24.6331 44.9348 24.8206C44.9504 25.0424 44.966 25.2642 44.9791 25.4862C44.9957 25.767 45.0136 26.0988 45.0205 26.4315C45.0223 26.5197 45.0245 26.608 45.0267 26.6962C45.0356 27.052 45.0447 27.4199 45.0286 27.7812C45.0024 28.3686 44.9631 28.965 44.925 29.5419C44.9088 29.7884 44.8925 30.0349 44.8772 30.2814L44.8598 30.5597C44.8372 30.9208 44.8146 31.2819 44.7934 31.6431C44.79 31.7027 44.7909 31.7631 44.7919 31.8214C44.7922 31.8395 44.7925 31.8573 44.7927 31.8749C44.8887 31.9039 44.9599 31.884 45.041 31.8425L45.1587 31.7824C45.4203 31.6488 45.6908 31.5105 45.9614 31.3836C46.0701 31.3326 46.1084 31.27 46.108 31.1441C46.1049 30.3374 46.1048 29.5173 46.1046 28.7242C46.1046 28.2573 46.1045 27.7903 46.1038 27.3234C46.1037 27.2366 46.0945 27.1481 46.0764 27.0602C45.9993 26.6856 45.9211 26.3112 45.8429 25.9368C45.7233 25.3637 45.5996 24.7711 45.4819 24.1873C45.3398 23.4821 45.2001 22.7641 45.0651 22.0699C45.0037 21.7546 44.9424 21.4394 44.8806 21.1242C44.82 20.8154 44.7593 20.5065 44.6981 20.1978Z" fill="#31AE71"/>
<path d="M32.6119 40.6469C32.7025 40.7226 32.7853 40.8093 32.8653 40.8931C32.9029 40.9324 32.9404 40.9717 32.9788 41.01C33.1008 41.1317 33.1832 41.1391 33.3312 41.0421L33.4005 40.9968C33.5449 40.9023 33.6941 40.8047 33.8379 40.7048C33.9113 40.6538 33.9808 40.6442 34.0632 40.6734C34.2323 40.7334 34.4039 40.7881 34.5495 40.8336C34.5884 40.8458 34.6288 40.8541 34.6755 40.8638C34.6956 40.868 34.7167 40.8723 34.7389 40.8773C34.7535 40.8718 34.769 40.8668 34.7849 40.8616C34.8252 40.8485 34.8669 40.835 34.8989 40.8119C35.2861 40.5331 35.6725 40.2533 36.0589 39.9734C36.4607 39.6824 36.8626 39.3914 37.2653 39.1015C37.3334 39.0524 37.356 38.9968 37.341 38.9156C37.3335 38.8752 37.311 38.8681 37.2531 38.8594C37.2397 38.8574 37.2266 38.8554 37.2143 38.8524C35.9711 38.5565 34.7274 38.2624 33.4836 37.9685C33.4283 37.9554 33.3862 37.9485 33.3473 37.9459C33.3185 37.9439 33.2957 37.9424 33.2773 37.9424C33.2075 37.9424 33.2009 37.9644 33.169 38.07C33.0818 38.3601 32.9948 38.6504 32.9078 38.9406L32.7774 39.376C32.6899 39.668 32.6023 39.9599 32.5145 40.2518C32.4617 40.4276 32.4907 40.5457 32.6119 40.6469Z" fill="#31AE71"/>
<path d="M45.5028 40.3222C45.4968 40.2841 45.4851 40.2449 45.4737 40.207C45.2611 39.4954 45.0497 38.7883 44.8377 38.0813C44.8279 38.0488 44.816 38.0168 44.8021 37.9794C44.7975 37.9671 44.7927 37.9542 44.7876 37.9406C44.7612 37.9431 44.735 37.9453 44.709 37.9474C44.636 37.9533 44.567 37.9589 44.5006 37.9745C43.3656 38.2408 42.2311 38.5099 41.0967 38.779L40.7999 38.8494C40.7655 38.8575 40.7318 38.8682 40.6998 38.8782C40.6909 38.8811 40.6822 38.8838 40.6736 38.8864C40.6413 38.986 40.6679 39.0493 40.7703 39.123C41.6926 39.7863 42.3933 40.2956 43.0422 40.7741C43.1705 40.8687 43.2946 40.8881 43.4445 40.8367C43.5066 40.8155 43.5691 40.795 43.6316 40.7745C43.73 40.7422 43.8317 40.7089 43.9304 40.673C43.9656 40.6601 43.9989 40.6537 44.0317 40.6537C44.0785 40.6537 44.124 40.6668 44.1721 40.6934C44.2472 40.7349 44.3253 40.7745 44.4008 40.8127C44.4768 40.8513 44.5528 40.8898 44.6273 40.9308C44.7899 41.0204 44.9171 41.0087 45.0401 40.8932C45.1641 40.7769 45.2794 40.6831 45.3927 40.6065C45.4907 40.5402 45.5236 40.4552 45.5028 40.3222Z" fill="#31AE71"/>
<path d="M50.1555 40.103L50.1452 40.0677C50.0325 39.6714 49.9195 39.2751 49.8065 38.8789C49.7628 38.7253 49.7631 38.7253 49.5989 38.7282C49.2231 38.735 48.8473 38.7427 48.4716 38.7505L47.9937 38.7603L47.5612 38.7689C47.1648 38.7769 46.7685 38.7849 46.3721 38.7904C46.2597 38.792 46.1688 38.8166 46.0862 38.8679C45.9868 38.9296 45.8836 38.9881 45.7838 39.0446C45.7361 39.0717 45.6883 39.0988 45.6408 39.1262C45.5044 39.2052 45.4975 39.2191 45.5178 39.3747C45.5225 39.4098 45.5322 39.4454 45.542 39.4787C45.5667 39.5624 45.5919 39.6459 45.6171 39.7294C45.6714 39.9095 45.7275 40.0956 45.7774 40.2804C45.8027 40.3745 45.8519 40.4319 45.9469 40.4785C46.3374 40.6699 46.7411 40.8679 47.138 41.0785C47.2927 41.1605 47.4419 41.1751 47.6216 41.1254C48.1891 40.9688 48.7574 40.8147 49.3255 40.6605L50.0227 40.4711C50.2068 40.4211 50.2174 40.4046 50.1851 40.2194C50.1784 40.1807 50.1673 40.143 50.1555 40.103Z" fill="#31AE71"/>
<path d="M30.4043 41.131C30.5645 41.1753 30.7039 41.1621 30.8429 41.0899C31.2427 40.8818 31.6483 40.6823 32.0632 40.4793C32.1456 40.439 32.1887 40.3879 32.2122 40.303C32.2558 40.1453 32.304 39.9863 32.3506 39.8325C32.3777 39.7431 32.4048 39.6537 32.4312 39.5641C32.4443 39.5196 32.4519 39.4707 32.4586 39.4276C32.474 39.3284 32.4425 39.2671 32.3502 39.2159C32.1343 39.0962 31.9291 38.9687 31.7023 38.8266C31.6231 38.7768 31.5406 38.7563 31.4494 38.7544C31.0733 38.7565 30.6972 38.7561 30.3212 38.7559L29.8903 38.7557V38.7268L29.4939 38.7267C29.35 38.7267 29.2062 38.7267 29.0625 38.7267C28.8366 38.7267 28.6108 38.7267 28.3849 38.7269C28.2458 38.727 28.2458 38.727 28.2087 38.8568C28.0866 39.2835 27.9645 39.7101 27.8448 40.1374C27.828 40.1974 27.818 40.2598 27.816 40.318C27.8124 40.4219 27.8124 40.4219 27.9128 40.4499C28.1282 40.51 28.3441 40.5687 28.5598 40.6274L29.2695 40.8207C29.6479 40.9237 30.0263 41.0267 30.4043 41.131Z" fill="#31AE71"/>
<path d="M22.2502 20.525C22.3589 21.089 22.4741 21.6615 22.5855 22.2152L22.6919 22.7448C22.7074 22.8223 22.7267 22.8645 22.7547 22.8816C22.7823 22.8985 22.828 22.8968 22.9023 22.8759C22.9298 22.8682 22.9566 22.8559 22.985 22.8429C22.9955 22.8381 23.006 22.8333 23.0165 22.8288C23.4976 22.6198 23.9786 22.4108 24.4595 22.2015C24.6492 22.1191 24.6492 22.1191 24.6291 21.9131C24.6273 21.8947 24.6245 21.8764 24.6217 21.8581L24.5675 21.4807C24.5209 21.1539 24.4742 20.8272 24.4246 20.5008C24.4053 20.3734 24.42 20.2636 24.4712 20.1553C24.5867 19.9105 24.6975 19.6581 24.8045 19.414L24.8518 19.3065C24.8907 19.2179 24.9162 19.1486 24.887 19.0778C24.8108 19.0544 24.7539 19.0755 24.6926 19.1482L24.6679 19.1776C24.53 19.3412 24.3875 19.5105 24.2416 19.6723C24.1694 19.7523 24.126 19.8413 24.1047 19.9522C24.0431 20.2748 23.9774 20.6021 23.9137 20.9185L23.8547 21.2123C23.8437 21.2672 23.832 21.322 23.8203 21.3767L23.801 21.4672L23.7175 21.4824L23.7059 21.459C23.7016 21.4503 23.6971 21.4417 23.6925 21.4332C23.6821 21.4133 23.6717 21.3933 23.6634 21.3725L23.5512 21.0895C23.3861 20.6735 23.2155 20.2433 23.0508 19.8189C23.0153 19.7274 22.9981 19.6302 22.9859 19.5472C22.938 19.2191 22.8917 18.8908 22.8454 18.5624L22.7638 17.9854C22.7457 17.8567 22.7269 17.7237 22.7037 17.594C22.6972 17.5576 22.6735 17.5276 22.6434 17.5174C22.6385 17.5158 22.6316 17.5142 22.6237 17.5142C22.6123 17.5142 22.5989 17.5176 22.5862 17.5293C22.5675 17.5465 22.5527 17.5865 22.5464 17.6363L22.5384 17.6994C22.4365 18.5035 22.3311 19.3349 22.2346 20.1534C22.2207 20.2714 22.2261 20.4 22.2502 20.525Z" fill="#31AE71"/>
<path d="M53.2732 19.5807C53.359 19.7745 53.4478 19.975 53.5383 20.1705C53.5868 20.2753 53.6015 20.3752 53.5846 20.4849C53.5466 20.73 53.5143 20.9766 53.4829 21.2151L53.4626 21.368C53.4359 21.5677 53.4083 21.7743 53.3896 21.9778C53.3764 22.1207 53.3764 22.1207 53.5151 22.1818C53.9431 22.3704 54.3693 22.5575 54.7956 22.7446L55.0348 22.8498C55.0572 22.86 55.0784 22.8695 55.0999 22.8755C55.1748 22.8966 55.2205 22.8983 55.2486 22.8811C55.2766 22.8639 55.296 22.8221 55.3114 22.7453C55.3557 22.5248 55.3995 22.3042 55.4434 22.0837C55.5399 21.5991 55.6396 21.098 55.7416 20.6059C55.7793 20.424 55.7849 20.2349 55.7586 20.0278C55.7084 19.6317 55.6589 19.2354 55.6094 18.8391L55.5351 18.2448C55.5079 18.0272 55.4806 17.8097 55.4525 17.5923C55.4446 17.5308 55.4367 17.5141 55.3959 17.5133C55.3235 17.5114 55.3041 17.5409 55.2991 17.5884C55.2972 17.6068 55.2942 17.6252 55.2914 17.6437L55.2873 17.6691L55.2171 18.151C55.1457 18.6413 55.0743 19.1317 55.0006 19.6217C54.9857 19.7211 54.9603 19.817 54.9252 19.9068C54.7607 20.3271 54.5901 20.753 54.4251 21.1648L54.3496 21.3532C54.3393 21.3789 54.3263 21.4032 54.3099 21.4341C54.3009 21.4509 54.2906 21.4702 54.2788 21.4933L54.2369 21.5752L54.2141 21.4861C54.2072 21.4593 54.2011 21.4365 54.1957 21.4163C54.1855 21.378 54.1777 21.3487 54.1717 21.319C54.1437 21.1793 54.1158 21.0395 54.0881 20.8996C54.0272 20.5937 53.9664 20.2877 53.9027 19.9824C53.8838 19.8916 53.863 19.8052 53.8169 19.7462C53.7022 19.5994 53.5775 19.4559 53.4568 19.3171C53.4043 19.2566 53.3517 19.1961 53.2997 19.1352C53.2481 19.0746 53.1927 19.0591 53.1214 19.0858C53.0987 19.1617 53.1187 19.2331 53.1582 19.3216C53.1967 19.4079 53.235 19.4943 53.2732 19.5807Z" fill="#31AE71"/>
<path d="M49.0792 34.0509C49.5318 34.297 49.9838 34.544 50.4358 34.791L50.8957 35.0423C50.9373 35.065 50.9788 35.0879 51.0203 35.1108C51.122 35.167 51.2271 35.2251 51.332 35.2788C51.4559 35.3423 51.5419 35.3293 51.6389 35.2325C51.8711 35.0006 52.1031 34.7685 52.3352 34.5364C52.7914 34.0804 53.2474 33.6243 53.7047 33.1695C53.772 33.1026 53.8074 33.0385 53.7751 32.9324C53.7625 32.9316 53.7498 32.9309 53.7372 32.9301C53.6949 32.9274 53.6529 32.9248 53.6109 32.9247L53.2668 32.9243C53.0542 32.924 52.8386 32.9237 52.6219 32.9237C52.2947 32.9237 51.9648 32.9244 51.6382 32.9268C51.5384 32.9275 51.4316 32.9464 51.3377 32.9798C50.7648 33.1837 50.1834 33.3948 49.6212 33.5988L49.1201 33.7806C49.1086 33.7848 49.0972 33.7892 49.0859 33.7936C49.067 33.8009 49.0481 33.8082 49.0289 33.8145C48.9888 33.8276 48.9736 33.8505 48.9686 33.9051C48.9614 33.9828 49.0038 34.0098 49.0792 34.0509Z" fill="#31AE71"/>
<path d="M28.9161 34.0555C28.9391 34.0438 28.9608 34.0326 28.9801 34.019C29.0189 33.9917 29.0397 33.9501 29.0358 33.9076C29.032 33.8656 29.0057 33.8304 28.9637 33.8112C28.9427 33.8015 28.9208 33.7939 28.8989 33.7862L28.8764 33.7782L28.3685 33.5939C27.8087 33.3906 27.2298 33.1804 26.6593 32.977C26.5702 32.9452 26.4691 32.9274 26.3745 32.9268C25.8744 32.9234 25.3658 32.9238 24.8739 32.9242L24.2295 32.9245C24.2004 33.0207 24.2155 33.0851 24.2801 33.1494C25.0461 33.9119 25.7325 34.5982 26.3785 35.2475C26.4476 35.3171 26.5227 35.3308 26.6379 35.295C26.6675 35.2858 26.6959 35.2692 26.726 35.2517C26.7373 35.2451 26.7485 35.2385 26.7599 35.2324L28.8855 34.0716C28.8956 34.0661 28.9059 34.0608 28.9161 34.0555Z" fill="#31AE71"/>
<path d="M41.8002 36.459C41.4217 37.0746 41.0433 37.6903 40.6635 38.3051C40.6075 38.3957 40.5784 38.4708 40.6066 38.5598C40.6956 38.5861 40.7807 38.5653 40.8707 38.5432L40.9038 38.5352C42.0485 38.2647 43.193 37.9934 44.3375 37.7218C44.3754 37.7128 44.4127 37.7012 44.4467 37.6907C44.4554 37.688 44.4639 37.6853 44.4722 37.6828C44.5056 37.5681 44.4647 37.4968 44.3883 37.4207C43.9467 36.9806 43.5003 36.5307 43.0687 36.0956L42.6231 35.6467C42.6159 35.6395 42.6088 35.632 42.6016 35.6245C42.5833 35.6051 42.5658 35.5867 42.5464 35.5726C42.5105 35.5463 42.4671 35.5363 42.4247 35.544C42.3818 35.552 42.3446 35.5772 42.3199 35.6151C42.2779 35.6799 42.2377 35.746 42.1976 35.8121L41.8002 36.459Z" fill="#31AE71"/>
<path d="M35.4195 35.6433C35.1557 35.9033 34.8926 36.164 34.6294 36.4246C34.2882 36.7628 33.9469 37.1009 33.604 37.4375C33.5278 37.5125 33.5077 37.5827 33.5351 37.6839L33.565 37.6925C33.6015 37.7031 33.6394 37.7142 33.6778 37.7234C33.7576 37.7425 33.8375 37.7608 33.9175 37.7792C33.9783 37.7931 34.0392 37.8071 34.0999 37.8214L37.1156 38.5307C37.2061 38.552 37.2994 38.5739 37.3932 38.5472C37.4138 38.465 37.4005 38.3941 37.3499 38.3133C37.1974 38.0698 37.047 37.8248 36.8966 37.5798L36.4897 36.9187C36.2358 36.5068 35.9733 36.0809 35.7179 35.6603C35.6671 35.5767 35.6183 35.55 35.5502 35.5675C35.5045 35.5793 35.4557 35.6077 35.4195 35.6433Z" fill="#31AE71"/>
<path d="M45.4551 44.4895C45.5242 44.4053 45.5535 44.325 45.5532 44.2206C45.5509 43.4772 45.551 42.7337 45.551 41.9902L45.551 41.0736C45.551 41.0387 45.5486 41.0037 45.5461 40.9674C45.5455 40.9582 45.5449 40.9489 45.5443 40.9395C45.447 40.916 45.3839 40.9291 45.3246 40.9834C45.2847 41.0198 45.242 41.0534 45.2007 41.0859C45.1551 41.1217 45.108 41.1587 45.0662 41.1986C44.9962 41.2654 44.9462 41.327 44.9135 41.3869C44.7917 41.6098 44.6723 41.8338 44.5529 42.0579C44.4584 42.2353 44.3639 42.4126 44.2683 42.5893C44.2276 42.6645 44.2087 42.7419 44.209 42.8331C44.2106 43.4382 44.2113 44.0432 44.2119 44.6483L44.2133 45.7071C44.2134 45.7413 44.2165 45.7761 44.2196 45.8098C44.2203 45.8175 44.221 45.8251 44.2217 45.8326C44.3209 45.8645 44.3762 45.8266 44.4359 45.7513C44.7586 45.3447 45.092 44.9319 45.4551 44.4895Z" fill="#31AE71"/>
<path d="M36.6628 46.0776C36.6151 46.1385 36.6025 46.1995 36.6237 46.2683C36.696 46.2895 36.768 46.2782 36.8601 46.2315L36.9687 46.1762C37.1257 46.0962 37.2879 46.0135 37.4511 45.9391C37.5378 45.8996 37.6296 45.8776 37.7097 45.8773C38.6385 45.8732 39.5565 45.8732 40.4385 45.8775C40.5342 45.878 40.631 45.9146 40.6952 45.9452C40.7934 45.9917 40.8891 46.0462 40.9816 46.0987C41.0229 46.1222 41.0642 46.1457 41.1057 46.1685C41.1814 46.21 41.247 46.2315 41.3184 46.2018C41.3387 46.1233 41.324 46.0578 41.2715 45.9909C40.8838 45.4962 40.5319 45.0448 40.1961 44.6109C40.1565 44.5599 40.1132 44.5391 40.0466 44.5391C40.0463 44.5391 40.0461 44.5391 40.0457 44.5391C39.3581 44.5407 38.656 44.5408 37.9592 44.5391C37.9589 44.5391 37.9586 44.5391 37.9584 44.5391C37.891 44.5391 37.8475 44.5596 37.8085 44.6099C37.428 45.1003 37.0455 45.589 36.6628 46.0776Z" fill="#31AE71"/>
<path d="M33.5777 45.7556C33.6415 45.8356 33.7004 45.8563 33.7897 45.8279C33.7903 45.8207 33.791 45.8134 33.7916 45.8062C33.7944 45.7752 33.7972 45.7442 33.7973 45.7132L33.7971 44.7338C33.7969 44.0972 33.7967 43.4605 33.7976 42.8239C33.7977 42.7417 33.7777 42.6706 33.7345 42.6001L33.6343 42.4373C33.4985 42.2171 33.3581 41.9893 33.2305 41.7589C33.0993 41.5219 32.9248 41.3019 32.6815 41.0664C32.6079 40.9954 32.5447 40.9795 32.461 41.0123C32.4605 41.0208 32.4598 41.0293 32.4591 41.0377C32.4567 41.0695 32.4543 41.1008 32.4543 41.1321L32.4541 42.0706C32.4542 42.7958 32.4542 43.521 32.4526 44.2462C32.4524 44.3325 32.4779 44.402 32.5352 44.4717C32.8681 44.8768 33.2247 45.3127 33.5777 45.7556Z" fill="#31AE71"/>
<path d="M41.0188 50.365C40.6594 50.3325 37.3425 50.3364 36.9771 50.3695C36.978 50.383 36.9788 50.3966 36.9797 50.4102C36.9831 50.4656 36.9866 50.5229 36.9977 50.5772C37.0059 50.6169 37.0202 50.6555 37.0353 50.6964C37.0481 50.7313 37.0615 50.7673 37.0709 50.8045C37.09 50.8805 37.1321 50.9248 37.2162 50.9574C37.379 51.0206 37.5412 51.0856 37.7033 51.1507C37.8837 51.223 38.0641 51.2953 38.2454 51.3651C38.3104 51.3901 38.389 51.4045 38.4669 51.4054C38.8551 51.4104 39.2013 51.4102 39.525 51.4051C39.6088 51.4038 39.6985 51.3867 39.7774 51.3571C39.9805 51.2807 40.1854 51.1979 40.3835 51.1178C40.4547 51.089 40.5257 51.0602 40.597 51.0317C40.9334 50.8968 40.9399 50.8942 41.0168 50.5419C41.0262 50.4989 41.0234 50.4503 41.0208 50.4034C41.0201 50.3905 41.0194 50.3777 41.0188 50.365Z" fill="#31AE71"/>
<path d="M27.8979 38.9205C27.9145 38.8614 27.9242 38.8058 27.9267 38.7554C27.9324 38.6387 27.9324 38.6387 27.8142 38.5945C27.783 38.5827 27.7515 38.5716 27.72 38.5605L25.3506 37.7159C25.2688 37.6867 25.1844 37.6566 25.101 37.687C25.0739 37.8062 25.0772 37.8096 25.1508 37.885C25.2737 38.0109 25.3983 38.1353 25.5229 38.2597L26.0843 38.8222C26.4982 39.2373 26.9121 39.6524 27.3271 40.0664C27.3903 40.1294 27.4463 40.1568 27.4897 40.1457C27.5434 40.1317 27.5745 40.0594 27.5913 40.0011C27.6943 39.6412 27.797 39.2811 27.8979 38.9205Z" fill="#31AE71"/>
<path d="M52.9077 37.6853C52.8814 37.6771 52.8562 37.6737 52.8314 37.6737C52.7713 37.6737 52.7146 37.6939 52.6558 37.7149L50.2232 38.583C50.0686 38.6382 50.0659 38.6424 50.0835 38.8029C50.0864 38.8299 50.0923 38.8588 50.1016 38.8911L50.1567 39.0848C50.2465 39.4008 50.3364 39.7168 50.4282 40.0322C50.443 40.0833 50.472 40.1181 50.5097 40.1301C50.5501 40.143 50.5973 40.13 50.6431 40.0936C50.662 40.0787 50.6792 40.0607 50.6974 40.0417C50.705 40.0337 50.7127 40.0257 50.7204 40.018L51.9458 38.7925C52.2405 38.4975 52.5353 38.2024 52.8313 37.9085C52.9047 37.8355 52.9412 37.7746 52.9077 37.6853Z" fill="#31AE71"/>
<path d="M30.8926 41.4695C30.9018 41.5209 30.9119 41.5703 30.9334 41.6101C31.2314 42.1605 31.5534 42.7515 31.9469 43.4701C31.999 43.5654 32.002 43.5709 32.1187 43.5439C32.1478 43.2729 32.1477 41.0601 32.1187 40.8152C32.0958 40.8096 32.073 40.8069 32.0502 40.8069C32.0021 40.8069 31.9541 40.8193 31.9052 40.8443L31.8115 40.8922C31.5423 41.0298 31.2639 41.1721 30.987 41.3059C30.9061 41.345 30.8787 41.3924 30.8926 41.4695Z" fill="#31AE71"/>
<path d="M46.0707 43.4393C46.4 42.8387 46.7287 42.2378 47.0573 41.6368L47.0653 41.6223C47.0805 41.5949 47.0948 41.569 47.1029 41.5424C47.1415 41.4149 47.118 41.3606 46.9978 41.3002C46.8588 41.2303 46.7196 41.1608 46.5805 41.0913C46.4228 41.0125 46.2651 40.9338 46.1078 40.8545C46.0193 40.8099 45.9492 40.8032 45.8779 40.8335V43.531C46.007 43.5553 46.011 43.5485 46.0707 43.4393Z" fill="#31AE71"/>
<path d="M34.9157 41.9877L34.9675 41.9562C35.0793 41.8884 35.1045 41.7949 35.0425 41.6785C35.0321 41.6589 35.0189 41.6402 35.005 41.6204C34.9699 41.5705 34.9408 41.5229 34.9126 41.4768C34.847 41.3694 34.7849 41.2679 34.6972 41.1999C34.6105 41.1327 34.4905 41.0994 34.3744 41.0672C34.3263 41.0539 34.2782 41.0405 34.2321 41.0249C34.1827 41.0082 34.1303 40.9952 34.0748 40.9813C34.0505 40.9753 34.0253 40.969 33.9989 40.962C33.9828 40.9678 33.9662 40.9734 33.9492 40.9789C33.9045 40.9936 33.8583 41.0088 33.8188 41.0321C33.7549 41.0698 33.6919 41.1122 33.6309 41.1532C33.5742 41.1913 33.5155 41.2308 33.4556 41.2668C33.3886 41.3072 33.3649 41.3513 33.3763 41.4143L33.3805 41.4383C33.3885 41.4847 33.3967 41.5328 33.4176 41.5687C33.4967 41.7049 33.5778 41.8398 33.6589 41.9748C33.7402 42.1101 33.8214 42.2454 33.9006 42.3818C33.9413 42.4517 33.9826 42.4752 34.044 42.4628C34.1026 42.4509 34.1637 42.4369 34.2117 42.409C34.448 42.2716 34.6858 42.1273 34.9157 41.9877Z" fill="#31AE71"/>
<path d="M44.1009 42.3512L44.1213 42.3134C44.2689 42.0388 44.4165 41.7642 44.5616 41.4882C44.5802 41.4529 44.5932 41.4143 44.607 41.3735C44.6126 41.3569 44.6182 41.3403 44.6242 41.3239C44.614 41.2261 44.6118 41.2249 44.5263 41.1782C44.4822 41.1541 44.4375 41.1311 44.3929 41.1082C44.3338 41.0778 44.2727 41.0464 44.2138 41.0127C44.1543 40.9786 44.0911 40.9615 44.0232 40.9615C43.9749 40.9615 43.924 40.9702 43.8702 40.9875C43.6844 41.0473 43.5305 41.1 43.3861 41.1533C43.3286 41.1745 43.2897 41.1985 43.2706 41.2246C43.1486 41.3911 43.0461 41.5422 42.9573 41.6869C42.8967 41.7854 42.9234 41.8866 43.027 41.951C43.1271 42.0131 43.2279 42.0742 43.3288 42.1353L43.4239 42.193C43.4628 42.2166 43.5015 42.2405 43.5403 42.2644C43.6318 42.3208 43.7263 42.3792 43.8212 42.4327C43.8864 42.4695 43.9394 42.4811 43.9829 42.4685C44.0267 42.4558 44.0653 42.4175 44.1009 42.3512Z" fill="#31AE71"/>
<path d="M55.0521 26.728C55.1505 26.6032 55.2543 26.4797 55.3547 26.3602C55.3967 26.3101 55.4388 26.26 55.4806 26.2098C55.4956 26.1917 55.5109 26.174 55.5264 26.1563C55.5605 26.117 55.5927 26.08 55.6208 26.0394C55.6536 25.992 55.6657 25.9424 55.6559 25.8962C55.6461 25.8494 55.6145 25.8085 55.5646 25.7778C55.5085 25.7435 55.4519 25.7101 55.3952 25.6767C55.3417 25.6452 55.2882 25.6136 55.2351 25.5813C55.1596 25.5352 55.0863 25.5277 54.9996 25.5578C54.981 25.699 54.9583 25.8416 54.9363 25.9797C54.8937 26.2465 54.8498 26.5222 54.8345 26.7965C54.9427 26.8323 54.9958 26.7996 55.0521 26.728Z" fill="#31AE71"/>
<path d="M22.9073 25.549C22.8493 25.549 22.793 25.567 22.7369 25.6032C22.6295 25.6726 22.5289 25.7314 22.4292 25.7828C22.3404 25.8286 22.3422 25.886 22.3513 25.9252C22.3666 25.9911 22.39 26.0448 22.4188 26.0807C22.5061 26.1889 22.5975 26.2972 22.6857 26.4019C22.7753 26.5081 22.8647 26.6143 22.952 26.7224C23.0129 26.7978 23.0699 26.8186 23.1506 26.7931C23.1611 26.595 23.0437 25.7445 22.9797 25.558C22.9552 25.552 22.9311 25.549 22.9073 25.549Z" fill="#31AE71"/>
<path d="M36.7555 48.3962C36.6518 48.498 36.6339 48.5954 36.6938 48.7323C36.7302 48.8158 36.7713 48.8449 36.8402 48.8388C36.8553 48.8344 36.8708 48.8305 36.8862 48.8266C36.9208 48.8179 36.9534 48.8097 36.9826 48.7959C37.1008 48.7403 37.227 48.6771 37.3686 48.6026C37.4227 48.5742 37.4548 48.5339 37.459 48.4892C37.4635 48.443 37.4383 48.3955 37.3882 48.3555C37.3327 48.3111 37.2725 48.267 37.2093 48.2245C37.1627 48.1931 37.1168 48.1775 37.0716 48.1775C37.0146 48.1775 36.9589 48.2024 36.9051 48.2523C36.8543 48.2994 36.8049 48.3477 36.7555 48.3962Z" fill="#31AE71"/>
<path d="M40.8286 48.1718C40.8132 48.1718 40.8005 48.1708 40.79 48.17C40.7847 48.1697 40.7784 48.1692 40.7746 48.1692C40.7736 48.1692 40.7728 48.1692 40.7723 48.1693C40.7484 48.1867 40.7186 48.2062 40.6888 48.2257C40.5974 48.2855 40.5029 48.3473 40.4201 48.4184C40.4089 48.428 40.4039 48.4539 40.4073 48.4843C40.4124 48.5295 40.4332 48.5669 40.4496 48.5757L40.5037 48.6044C40.6479 48.6811 40.7969 48.7604 40.9489 48.8229C41.0599 48.8685 41.1229 48.8413 41.1738 48.7262C41.2094 48.6458 41.2394 48.5371 41.1802 48.4759C41.1471 48.4417 41.1174 48.4029 41.0886 48.3654C41.0149 48.2692 40.9452 48.1783 40.8286 48.1718Z" fill="#31AE71"/>
<defs>
<filter id="filter0_d" x="0" y="0" width="78" height="78" filterUnits="userSpaceOnUse" color-interpolation-filters="sRGB">
<feFlood flood-opacity="0" result="BackgroundImageFix"/>
<feColorMatrix in="SourceAlpha" type="matrix" values="0 0 0 0 0 0 0 0 0 0 0 0 0 0 0 0 0 0 127 0"/>
<feOffset dy="4"/>
<feGaussianBlur stdDeviation="2"/>
<feColorMatrix type="matrix" values="0 0 0 0 0 0 0 0 0 0 0 0 0 0 0 0 0 0 0.25 0"/>
<feBlend mode="normal" in2="BackgroundImageFix" result="effect1_dropShadow"/>
<feBlend mode="normal" in="SourceGraphic" in2="effect1_dropShadow" result="shape"/>
</filter>
</defs>
</svg>
