<svg width="78" height="78" viewBox="0 0 78 78" fill="none" xmlns="http://www.w3.org/2000/svg">
<g filter="url(#filter0_d)">
<circle cx="39" cy="35" r="35" fill="white"/>
</g>
<path d="M60.8439 43.6C61.9335 43.9818 62.6417 44.5818 63.5678 45.1818C64.494 45.7818 65.184 46.1273 65.7833 46.7636C66.3826 47.4182 66.891 48.3636 67 48.9091C66.3463 48.5636 65.638 48.3818 64.9298 48.2909C64.2216 48.2 63.5678 48.0545 62.8959 48.0727C62.224 48.0909 61.4977 48.2727 60.9529 48.2182C60.3899 48.1636 59.9178 48.0545 59.5909 47.7636C59.5001 48.5091 59.2277 49.0727 58.9008 49.5636C58.5558 50.0545 58.1926 50.5273 57.7568 50.9273C57.3391 51.3273 56.8488 51.6727 56.5038 52.1636C56.1406 52.6545 55.8682 53.2364 55.7229 54C55.3597 53.6182 55.1418 53.0364 55.051 52.3091C54.9421 51.5818 54.9602 50.7273 55.0329 49.8C55.1055 48.8727 55.051 47.9818 55.2326 46.9818C55.4142 45.9818 55.8137 44.8727 56.0135 43.9273C54.8694 42.8727 52.4905 41.7273 50.3295 40.6727C48.1685 39.6364 47.1879 39 44.7001 38.1091C42.2122 37.2182 38.7982 36.0182 36.6735 35.4545C34.5489 34.8909 32.7511 34.6727 31.6797 34.5818C31.3346 34.5455 31.1167 34.4545 30.7172 34.4182C30.3359 34.3636 29.7729 34.3636 29.3371 34.3091C28.9013 34.2545 28.4836 34.2909 28.0114 34.2182C27.5393 34.1455 27.0308 33.9818 26.5224 33.9091C26.4497 34.5091 26.3044 34.9455 26.3044 35.6C26.3226 36.2545 26.486 37.1091 26.5405 37.7273C26.595 38.3455 26.6495 38.9273 26.704 39.4182C26.7584 39.9091 26.7766 40.3091 26.7766 40.5818C26.4134 40.5091 25.8505 40.0727 25.4146 39.6C24.9788 39.1273 24.6519 38.6 24.1979 37.9091C23.7439 37.2 23.1084 36.4182 22.7088 35.6727C22.3093 34.9273 22.1459 34.2 21.8735 33.6C21.2198 33.6 20.566 33.6182 19.876 33.6545C19.2041 33.6909 18.5503 33.8727 17.8602 33.9636C17.1702 34.0727 16.4256 34.1091 15.7356 34.2727C15.0274 34.4545 14.3736 34.4909 13.6654 34.7455C12.9209 35.0182 11.9039 35.3455 11.3954 35.2545C10.9051 35.1636 10.5238 34.9273 10.2877 34.6364C10.0516 34.3455 9.96084 33.9818 10.0153 33.6545C10.0698 33.3091 10.6146 32.9091 10.9778 32.6727C11.341 32.4545 11.5952 32.2727 11.8131 32.1273C12.031 31.9818 12.1763 31.8545 12.3216 31.7273C12.4669 31.6 12.594 31.4727 12.7574 31.3273C12.9209 31.1818 13.2477 30.8909 13.502 30.6727C13.5928 30.3273 13.5746 29.8545 13.8288 29.1273C14.0831 28.4 14.3736 27.5636 14.991 26.7091C15.6085 25.8545 16.4256 25 17.6242 24.2545C18.8227 23.5091 20.4934 22.8909 22.4909 22.5091C23.1084 22.4 23.4897 22.2909 24.1071 22.2182C24.7246 22.1273 25.5417 22.0545 26.1773 22C26.7947 21.9455 27.3032 22.0727 27.9388 22.0545C28.5562 22.0364 29.3008 21.8727 29.9364 21.8909C30.1906 21.4545 30.5719 20.9091 31.0622 20.3455C31.5526 19.7636 32.0065 19.0545 32.7148 18.5273C33.423 18 34.3854 17.6545 35.2934 17.3636C36.1832 17.0727 36.9459 17.0364 37.9992 17.1818C37.5634 17.4909 37.5815 17.9636 37.3091 18.4182C37.0367 18.8909 36.7099 19.2545 36.5646 19.7818C36.4193 20.3273 36.5464 20.8364 36.5283 21.3636C36.5101 21.8909 36.3648 22.4364 36.4556 22.8909C37.3999 23.1636 38.3624 23.4727 39.3248 23.8727C40.2873 24.2545 41.4677 24.5273 42.4483 25.0364C43.4289 25.5455 44.2279 26.3273 45.2449 26.9818C46.2618 27.6364 47.3332 28.0909 48.3683 28.9091C50.1843 30.3455 51.5281 31.9818 52.5995 33.2909C53.689 34.6 54.7241 35.8364 55.3234 37.0182C55.9045 38.1818 56.0316 39.2727 56.3585 40.2909C56.6854 41.2909 56.9396 42.2182 57.2665 43.0364C58.2834 43.0364 59.7543 43.2182 60.8439 43.6ZM44.4095 19.1455L44.1371 19.0364C44.1371 19.0364 44.0282 19 43.8284 18.9273C43.7376 18.8909 43.6105 18.8727 43.4652 18.8364C43.3199 18.8 43.2655 18.7636 43.0839 18.7455C42.9931 18.7455 42.7933 18.7273 42.7025 18.7273C42.6117 18.7273 42.5028 18.7273 42.3938 18.7273C42.2849 18.7273 42.194 18.7455 42.0851 18.7455C41.9761 18.7636 41.8672 18.7818 41.7582 18.7818C41.6493 18.8 41.5766 18.8182 41.4677 18.8364C41.3587 18.8727 41.2134 18.9273 41.1226 18.9636C40.9229 19.0364 40.7231 19.1273 40.5234 19.2364C40.3418 19.3455 40.1602 19.4545 39.9967 19.5818C39.8333 19.7091 39.688 19.8364 39.5428 19.9636C39.2704 20.2182 39.0525 20.4727 38.8709 20.7091C38.7074 20.9273 38.5985 21.1091 38.5077 21.2364C38.544 21.2727 38.5621 21.2909 38.5803 21.3273C38.7074 21.2364 38.889 21.1091 39.1069 20.9818C39.343 20.8364 39.6336 20.6909 39.9423 20.5818C40.0875 20.5273 40.251 20.4727 40.4144 20.4364C40.5779 20.4 40.7413 20.3636 40.9047 20.3455C41.0682 20.3273 41.2316 20.3273 41.3769 20.3273C41.4495 20.3273 41.5222 20.3455 41.5948 20.3455C41.6674 20.3636 41.7401 20.3636 41.7945 20.3818C41.8672 20.4 41.9217 20.4182 41.9761 20.4364C42.0306 20.4545 42.0851 20.4727 42.1577 20.5091C42.2122 20.5273 42.2667 20.5636 42.3212 20.5818C42.3756 20.6182 42.4483 20.6364 42.5028 20.6727C42.5936 20.7273 42.6299 20.7636 42.7025 20.8182C42.7752 20.8727 42.8296 20.9091 42.866 20.9636C42.9568 21.0364 43.0112 21.0909 43.0112 21.0909C43.1202 21.2 43.2473 21.2909 43.4107 21.3455C44.0282 21.5636 44.7182 21.2182 44.9361 20.6C45.1177 19.9636 44.7546 19.3455 44.4095 19.1455ZM41.958 16L41.7401 16.0182C41.7401 16.0182 41.6493 16.0364 41.504 16.0545C41.4314 16.0727 41.3405 16.0909 41.2498 16.1091C41.159 16.1455 41.1045 16.1273 40.9774 16.1818C40.9229 16.2 40.7958 16.2727 40.7231 16.3091C40.6686 16.3455 40.596 16.3818 40.5234 16.4182C40.4689 16.4545 40.3963 16.4909 40.3418 16.5273C40.2873 16.5636 40.2147 16.6182 40.1602 16.6545C40.1057 16.7091 40.0512 16.7273 39.9967 16.7818C39.9423 16.8364 39.8696 16.9273 39.8151 16.9818C39.7062 17.0909 39.6154 17.2182 39.5428 17.3455C39.452 17.4727 39.3975 17.6 39.3248 17.7273C39.2704 17.8545 39.2159 17.9818 39.1796 18.1091C39.0888 18.3636 39.0524 18.6 39.0161 18.8C38.9798 18.9818 38.9798 19.1455 38.9617 19.2545C38.9798 19.2545 39.0161 19.2727 39.0343 19.2727C39.0888 19.1636 39.1432 19.0364 39.2522 18.8727C39.3612 18.7091 39.4883 18.5273 39.6336 18.3455C39.7062 18.2545 39.797 18.1636 39.8878 18.0909C39.9786 18.0182 40.0694 17.9273 40.1602 17.8727C40.251 17.8 40.3599 17.7455 40.4507 17.7091C40.5052 17.6909 40.5415 17.6727 40.596 17.6545C40.6505 17.6364 40.6868 17.6182 40.7413 17.6C40.7958 17.5818 40.8321 17.5818 40.8866 17.5636C40.9229 17.5636 40.9774 17.5455 41.0137 17.5455C41.05 17.5455 41.1045 17.5455 41.1408 17.5455C41.1771 17.5455 41.2498 17.5455 41.2861 17.5455C41.3587 17.5455 41.395 17.5636 41.4495 17.5636C41.504 17.5818 41.5585 17.5818 41.5948 17.6C41.6856 17.6182 41.7219 17.6364 41.7219 17.6364C41.8309 17.6545 41.9398 17.6909 42.0488 17.6727C42.5028 17.6 42.8296 17.1455 42.757 16.6909C42.6844 16.2727 42.2485 16.0182 41.958 16Z" fill="#0094FF"/>
<defs>
<filter id="filter0_d" x="0" y="0" width="78" height="78" filterUnits="userSpaceOnUse" color-interpolation-filters="sRGB">
<feFlood flood-opacity="0" result="BackgroundImageFix"/>
<feColorMatrix in="SourceAlpha" type="matrix" values="0 0 0 0 0 0 0 0 0 0 0 0 0 0 0 0 0 0 127 0"/>
<feOffset dy="4"/>
<feGaussianBlur stdDeviation="2"/>
<feColorMatrix type="matrix" values="0 0 0 0 0 0 0 0 0 0 0 0 0 0 0 0 0 0 0.25 0"/>
<feBlend mode="normal" in2="BackgroundImageFix" result="effect1_dropShadow"/>
<feBlend mode="normal" in="SourceGraphic" in2="effect1_dropShadow" result="shape"/>
</filter>
</defs>
</svg>
