<svg width="78" height="78" viewBox="0 0 78 78" fill="none" xmlns="http://www.w3.org/2000/svg">
<g filter="url(#filter0_d)">
<circle cx="39" cy="35" r="35" fill="white"/>
</g>
<path d="M55.0755 22.7951C54.6559 20.9943 53.4792 20.4008 53.4792 20.4008C53.735 21.5366 53.5406 22.5802 53.3565 23.2044C51.6784 23.982 50.1232 25.5577 50.1232 25.5577C50.1232 25.5577 47.0024 29.6812 44.2295 30.0905C42.6333 30.3258 41.4873 29.9574 40.812 29.6095C40.679 28.4431 41.0065 27.512 41.866 26.6013C42.9199 25.4962 43.1757 24.9949 43.2678 24.913C43.3598 24.8312 43.5338 25.2712 43.5338 25.2712C44.7411 23.7671 44.3114 22.3244 44.4034 22.1913C44.4955 22.0481 45.0992 22.8052 45.0992 22.8052C45.2015 20.2472 43.6974 19.5207 43.6769 19.3673C43.6462 19.2138 44.6489 19.5003 44.6489 19.5003C43.6871 17.3618 41.2622 17.4437 41.2315 17.1878C41.2008 16.932 42.2035 16.3795 42.2035 16.3795C40.8017 15.7145 39.5739 16.4716 39.0214 16.4C38.4689 16.3284 38.0288 15.735 39.1033 14.6504C40.1777 13.5658 41.7534 13.5556 41.917 13.443C42.091 13.3406 41.8352 12.5426 40.505 12.9519C39.1646 13.3611 38.1005 14.6504 37.4763 14.8346C36.8522 15.0187 36.2178 14.7937 36.4838 13.7398C36.7498 12.6859 38.4893 11.9083 38.3358 11.6525C38.1926 11.4069 37.1592 11.8162 36.4224 12.8598C35.6857 13.8933 35.1127 16.1443 35.0001 16.3388C34.8876 16.5332 33.7518 16.9425 33.6188 17.1881C33.4961 17.4337 33.537 17.5666 33.3323 17.8122C33.1277 18.0579 32.3296 18.1499 31.8282 18.0782C31.3371 17.9964 30.9687 18.2522 31.0301 18.8047C31.0914 19.3572 31.5212 20.1348 31.5212 20.1348C31.5212 20.1348 31.5314 19.4901 31.7053 19.3367C31.8793 19.1934 32.0737 19.265 32.2476 19.6437C32.4216 20.0325 32.7183 20.5237 32.7183 20.5237C32.7183 20.5237 32.9536 19.613 33.0968 19.3265C33.2401 19.04 33.6596 19.1424 34.0587 19.2241C34.4577 19.306 35.1535 19.1014 35.307 19.4082C35.4605 19.7152 35.1024 20.5951 34.6828 20.984C34.2633 21.3728 33.4141 21.25 33.189 21.4035C32.9639 21.5468 32.9434 22.2016 33.5982 22.2323C34.2531 22.263 34.6522 22.0277 35.6958 21.2194C36.1869 20.8408 36.6985 20.6976 37.0874 20.6669C37.5376 20.626 37.9469 20.4111 38.2435 20.0837C39.0622 19.1833 40.0649 19.746 40.0649 19.746C40.0649 19.746 41.2416 20.5032 40.8937 21.6799C40.556 22.8566 40.0956 23.2864 36.6576 24.8928C33.2197 26.4992 33.4755 29.5791 33.5062 30.019C30.8151 29.3743 27.9195 25.5476 27.9195 25.5476C27.9195 25.5476 26.4358 24.0333 24.7987 23.2455C24.6043 22.6213 24.3997 21.5674 24.6555 20.3907C24.6555 20.3907 23.489 20.9842 23.0696 22.7747C20.8186 22.7849 14.6179 25.875 12.2544 35.9741C12.2544 35.9741 13.8403 33.856 15.9073 33.9686C17.9639 34.0913 18.3835 36.0866 18.3835 36.0866C18.3835 36.0866 20.7368 33.0784 23.4483 33.9686C26.1599 34.8486 25.9246 37.386 25.9246 37.386C25.9246 37.386 26.4567 34.562 28.4008 34.6745C30.3449 34.7973 30.4574 37.386 30.4574 37.386C30.4574 37.386 32.8721 32.9044 36.0544 35.6159C36.4534 35.9433 36.7501 36.373 36.8934 36.8642C37.9473 40.4249 32.2378 41.7654 31.0202 43.4026C29.6491 45.2546 30.0789 46.7485 30.0789 46.7485C30.304 46.1243 31.1021 45.9402 31.1021 45.9402C31.1021 45.9402 30.6518 46.4313 30.6723 48.3754C30.6928 50.3195 31.5523 50.913 31.5523 50.913C31.5011 50.2683 31.7468 49.9614 31.7468 49.9614C32.9234 52.5604 35.2359 52.6012 35.2359 52.6012C34.9699 52.3966 34.796 51.8952 34.796 51.8952C35.6861 52.0896 36.8014 51.5166 36.8014 51.5166C36.8014 51.5166 38.9502 50.8311 39.8506 51.6804C40.7511 52.5297 40.1985 54.177 39.9223 54.6067C39.646 55.0365 37.4154 58.413 38.7968 60.5106C40.1884 62.6081 41.9995 62.3421 41.9995 62.3421C40.8126 62.1375 40.1781 61.1654 40.1781 61.1654C41.232 61.5543 42.0812 61.1961 42.0812 61.1961C40.7715 60.8176 39.7791 59.7841 39.8608 58.5767C39.9427 57.3693 41.365 55.5685 41.365 55.5685C41.5184 55.8755 41.365 56.5303 41.365 56.5303C42.1938 55.589 42.1324 54.1974 42.1324 54.1974C42.3984 54.402 42.4598 54.9341 42.4598 54.9341C43.3398 52.9286 42.1016 51.6291 42.1016 51.6291C42.296 51.5984 42.603 51.9054 42.603 51.9054C41.7947 49.0916 39.7279 48.9994 37.8042 49.0301C35.8806 49.0506 34.3355 48.4162 34.2742 46.4312C34.2128 44.4462 38.3772 43.1466 40.3622 42.1644C42.3472 41.1719 43.3808 39.719 43.4011 38.2762C43.4113 37.0177 42.9305 35.9536 42.5518 35.2168C45.4475 33.4569 47.5655 37.4065 47.5655 37.4065C47.5655 37.4065 47.6883 34.8179 49.6222 34.695C51.5663 34.5723 52.0984 37.4065 52.0984 37.4065C52.0984 37.4065 51.8631 34.869 54.5745 33.9891C57.2859 33.1092 59.6394 36.1071 59.6394 36.1071C59.6394 36.1071 60.0486 34.1016 62.1156 33.9891C64.1718 33.8662 65.768 35.9944 65.768 35.9944C63.4658 26.0386 57.3982 22.8975 55.0755 22.7951Z" fill="#C10000"/>
<defs>
<filter id="filter0_d" x="0" y="0" width="78" height="78" filterUnits="userSpaceOnUse" color-interpolation-filters="sRGB">
<feFlood flood-opacity="0" result="BackgroundImageFix"/>
<feColorMatrix in="SourceAlpha" type="matrix" values="0 0 0 0 0 0 0 0 0 0 0 0 0 0 0 0 0 0 127 0"/>
<feOffset dy="4"/>
<feGaussianBlur stdDeviation="2"/>
<feColorMatrix type="matrix" values="0 0 0 0 0 0 0 0 0 0 0 0 0 0 0 0 0 0 0.25 0"/>
<feBlend mode="normal" in2="BackgroundImageFix" result="effect1_dropShadow"/>
<feBlend mode="normal" in="SourceGraphic" in2="effect1_dropShadow" result="shape"/>
</filter>
</defs>
</svg>
