<svg width="78" height="78" viewBox="0 0 78 78" fill="none" xmlns="http://www.w3.org/2000/svg">
<g filter="url(#filter0_d)">
<circle cx="39" cy="35" r="35" fill="#101010"/>
</g>
<path d="M58.7833 40.1504C58.6001 39.1032 58.4182 38.0378 58.2423 37.0074L58.1418 36.4188C57.8037 34.4404 57.4658 32.462 57.1282 30.4836L55.2407 19.414C55.2015 19.1843 55.1616 18.9548 55.12 18.7156L55.0675 18.413C55.0625 18.4161 55.0577 18.4191 55.053 18.422C55.0239 18.4402 55.0015 18.4541 54.9802 18.4698L54.1418 19.0867C53.3303 19.6841 52.5187 20.2814 51.7053 20.8762C51.6139 20.9429 51.5795 21.0101 51.5783 21.124C51.5141 27.1431 51.4465 33.1492 51.389 38.2307C51.3713 39.7935 51.3528 41.3564 51.3342 42.9192L51.2974 46.0449C51.2969 46.0865 51.2987 46.1281 51.3008 46.1764C51.3011 46.1841 51.3014 46.192 51.3017 46.2001C51.3035 46.1989 51.3052 46.1978 51.3069 46.1966C51.3329 46.1796 51.3516 46.1673 51.3691 46.1535C51.7131 45.8816 52.0569 45.6093 52.4006 45.337L56.882 41.7876C57.482 41.3122 58.082 40.8367 58.6835 40.3632C58.7651 40.299 58.8009 40.2507 58.7833 40.1504Z" fill="#31AE71"/>
<path d="M27.7715 46.1522C27.7884 46.1656 27.8097 46.1764 27.8368 46.19C27.8384 46.1908 27.8401 46.1916 27.8418 46.1925L27.8418 46.1719C27.842 46.1292 27.8421 46.0936 27.8416 46.058L27.7362 36.8083C27.7095 34.4673 27.6828 32.1263 27.6565 29.7852C27.6221 26.7175 27.5913 23.9511 27.5637 21.1592C27.5623 21.0165 27.5248 20.939 27.4206 20.8631C26.6177 20.2784 25.8045 19.6796 25.0181 19.1005L24.1751 18.48C24.1499 18.4615 24.1232 18.4451 24.0937 18.4269C24.0896 18.4243 24.0854 18.4218 24.0812 18.4192C24.0804 18.4218 24.0795 18.4245 24.0787 18.4271C24.0692 18.4561 24.0611 18.4812 24.0568 18.506C23.87 19.5919 23.6834 20.6778 23.4982 21.7639C23.341 22.6858 23.1841 23.6076 23.0272 24.5295C22.8453 25.598 22.6635 26.6666 22.4811 27.735C22.3022 28.7832 22.1229 29.8314 21.9435 30.8794C21.7843 31.8093 21.6252 32.7392 21.4664 33.6692L21.1638 35.4431C20.8995 36.9939 20.6351 38.5447 20.3679 40.0949C20.3447 40.2293 20.3697 40.2976 20.4705 40.3762C21.1619 40.9149 21.8602 41.4684 22.5355 42.0037L24.9301 43.9012C25.8771 44.6517 26.8242 45.4021 27.7715 46.1522Z" fill="#31AE71"/>
<path d="M23.648 18.5406C23.6509 18.5238 23.6506 18.5064 23.6505 18.4891L23.6505 18.4814L23.6158 18.5043C23.5763 18.5303 23.5345 18.5577 23.4939 18.5868C23.0007 18.9396 22.5076 19.2926 22.0146 19.6457L20.4702 20.7514C19.3057 21.585 18.1412 22.4187 16.975 23.2499C16.9018 23.3021 16.8658 23.3611 16.8506 23.4533C16.5663 25.1836 16.2805 26.9137 15.9948 28.6438L14.9918 34.7183C14.9356 35.0631 14.8774 35.4195 14.8142 35.7692C14.7932 35.8852 14.8208 35.9479 14.9193 36.0088C15.0656 36.0993 15.1999 36.2021 15.3121 36.2909C16.4057 37.1557 17.4987 38.0213 18.5917 38.887L19.8299 39.8675C19.8667 39.8966 19.9041 39.925 19.9502 39.9598L19.9889 39.9891L20.2328 38.5597C21.3752 31.8639 22.5118 25.2023 23.648 18.5406Z" fill="#31AE71"/>
<path d="M64.3255 35.7709L63.1083 28.4017C62.8374 26.7642 62.5666 25.1268 62.2983 23.4889C62.2791 23.3717 62.2322 23.2962 62.1365 23.2281C61.3126 22.6418 60.4906 22.053 59.6686 21.4642L58.7858 20.832C57.7244 20.0723 56.6628 19.3129 55.6003 18.5546C55.5905 18.5476 55.5809 18.5396 55.5712 18.5314C55.5444 18.5088 55.5206 18.4887 55.4844 18.4861L59.1519 39.9818L59.1925 39.9518C59.241 39.9161 59.2821 39.8859 59.322 39.8543C59.6255 39.6143 59.9287 39.374 60.232 39.1338C60.8408 38.6513 61.4498 38.1688 62.0608 37.6889C62.8014 37.1073 63.5431 36.5325 64.2654 35.9804C64.3456 35.9191 64.3409 35.8637 64.3255 35.7709Z" fill="#31AE71"/>
<path d="M55.6621 18.0483L55.6172 18.0714L72.0565 29.8265C72.0526 29.7881 72.0415 29.7538 72.0264 29.7174C71.1315 27.5501 70.2365 25.3828 69.3388 23.2167C69.3096 23.1463 69.2643 23.0798 69.2146 23.0342C68.2336 22.1334 67.2337 21.2203 66.2667 20.3372L66.244 20.3166C65.0531 19.229 63.8617 18.1419 62.6704 17.0547L62.0516 16.4907C61.7025 16.1728 61.3533 15.855 61.0063 15.5349C60.9333 15.4675 60.8864 15.4601 60.8204 15.5052C60.7978 15.5207 60.7733 15.5314 60.7496 15.5417C60.7386 15.5465 60.7277 15.5512 60.7171 15.5564L55.7977 17.9792C55.7554 18 55.7135 18.0217 55.6621 18.0483Z" fill="#31AE71"/>
<path d="M7.0753 29.8279L7.07275 29.8353L23.522 18.0733C23.5088 18.0661 23.4964 18.0593 23.4846 18.0528C23.4385 18.0275 23.401 18.0068 23.3626 17.9879L22.5123 17.569C21.156 16.9009 19.7997 16.2327 18.4423 15.5667C18.3972 15.5445 18.3615 15.5253 18.3323 15.5096C18.286 15.4847 18.2595 15.4705 18.2357 15.4705C18.2041 15.4705 18.1772 15.4957 18.1145 15.5546C18.094 15.5739 18.0701 15.5963 18.0419 15.622C17.3002 16.2978 16.5596 16.9748 15.819 17.6519C15.3919 18.0424 14.9648 18.4329 14.5374 18.8231L13.2965 19.956C12.1778 20.9771 11.0592 21.9981 9.9422 23.0209C9.88411 23.0741 9.83242 23.1494 9.79654 23.2329C9.67031 23.5268 9.5466 23.8277 9.42695 24.1188L9.30754 24.4088C8.57681 26.1778 7.84612 27.9468 7.11585 29.7159C7.10074 29.7526 7.08804 29.7902 7.0753 29.8279Z" fill="#31AE71"/>
<path d="M43.881 44.4125C42.9997 43.632 42.0815 42.8128 41.152 41.9776C41.0513 41.8872 40.9556 41.8488 40.8298 41.8518C40.0543 41.8581 39.2711 41.858 38.5018 41.8518C38.5002 41.8518 38.4985 41.8518 38.4968 41.8518C38.3735 41.8518 38.2772 41.8886 38.1757 41.9744C37.1036 42.8809 36.1553 43.6778 35.2766 44.4104C35.1831 44.4884 35.1573 44.5589 35.1781 44.68C35.3099 45.4473 35.4398 46.2281 35.5655 46.9832L35.6702 47.6122C35.7579 48.1374 35.8452 48.6626 35.9325 49.1878C36.1351 50.4053 36.3376 51.6228 36.5435 52.8397C36.5748 53.0243 36.604 53.2093 36.6331 53.3944C36.7232 53.9649 36.8162 54.5548 36.9711 55.1223C36.9808 55.1577 36.9907 55.193 37.0007 55.2283L37.8008 47.7675L37.8216 47.7613C37.8437 47.7546 37.8636 47.7484 37.8821 47.7426C37.919 47.731 37.9504 47.7212 37.9822 47.7135C38.1356 47.6765 38.289 47.6399 38.4425 47.6033C38.72 47.537 38.9975 47.4707 39.2745 47.4025C39.4676 47.3548 39.6577 47.355 39.8557 47.403C40.1147 47.4657 40.3741 47.5273 40.6335 47.5888C40.8112 47.631 40.9889 47.6733 41.1666 47.7158C41.1987 47.7235 41.2302 47.7339 41.2657 47.7457C41.2827 47.7514 41.3007 47.7574 41.3202 47.7635L41.3406 47.77L41.3429 47.7912C41.3844 48.1782 41.4267 48.5648 41.469 48.9513C41.5625 49.8049 41.6591 50.6875 41.7441 51.5562C41.8869 53.0145 42.0751 54.6904 42.1592 55.1776C42.1733 55.1189 42.1875 55.0609 42.2016 55.0033C42.2557 54.7831 42.3068 54.5752 42.3439 54.3625C42.4566 53.7166 42.5649 53.0588 42.6697 52.4227C42.7173 52.1343 42.7648 51.846 42.8128 51.5578L42.9193 50.9188C43.2675 48.8306 43.6156 46.7424 43.9666 44.6546C43.9845 44.5477 43.9622 44.4843 43.881 44.4125Z" fill="#31AE71"/>
<path d="M33.262 38.7858L32.9992 38.5474C32.2342 37.8534 31.4692 37.1593 30.7036 36.4661C30.4763 36.2603 30.4725 36.2505 30.5001 35.9437C30.5281 35.6317 30.5546 35.3273 30.5811 35.023C30.6228 34.5444 30.6658 34.0495 30.7118 33.5629C30.7238 33.4347 30.6953 33.3345 30.6164 33.228C30.4326 32.9796 30.2419 32.7117 30.016 32.3847C29.951 32.2905 29.8965 32.191 29.8539 32.089C29.7163 31.7593 29.5799 31.4292 29.4434 31.099C29.272 30.6841 29.1005 30.2692 28.9267 29.8552C28.8798 29.7436 28.8777 29.6474 28.9195 29.5334C29.102 29.0362 29.2822 28.5381 29.4623 28.0401C29.5898 27.6875 29.7174 27.3349 29.8457 26.9826C29.8799 26.8887 29.8865 26.8057 29.8671 26.7136C29.8386 26.5782 29.8134 26.4421 29.7883 26.306C29.7591 26.1482 29.729 25.985 29.6938 25.8261C29.5858 25.3384 29.5283 24.9258 29.5984 24.4976C29.6132 24.4072 29.5935 24.3253 29.5323 24.2237C29.2802 23.8052 29.0308 23.3851 28.7814 22.965L28.4642 22.4311C28.3452 22.231 28.2256 22.0313 28.106 21.8316L27.9661 21.5977C27.9644 21.6242 27.9626 21.6508 27.9629 21.6774C28.0551 29.7921 28.1476 37.9072 28.2406 46.0219C28.2409 46.022 28.2411 46.0221 28.2414 46.0222L28.5413 45.5975C30.1308 43.346 31.7223 41.0919 33.3108 38.8371L33.2968 38.822C33.2826 38.8064 33.2728 38.7955 33.262 38.7858Z" fill="#31AE71"/>
<path d="M51.1823 21.5884L51.165 21.6159C51.1389 21.6575 51.1129 21.699 51.0879 21.7411C50.9612 21.9543 50.8355 22.1681 50.7099 22.382C50.4102 22.8921 50.1004 23.4196 49.7801 23.929C49.5789 24.249 49.5116 24.5301 49.5617 24.8405C49.5882 25.0046 49.5655 25.1796 49.5371 25.3442C49.4692 25.7372 49.3897 26.1513 49.2791 26.6868C49.2563 26.7974 49.2645 26.897 49.3057 27.0095C49.4539 27.4152 49.6007 27.8213 49.7475 28.2275C49.9061 28.6663 50.0648 29.1052 50.2252 29.5433C50.2646 29.6509 50.2622 29.7422 50.2174 29.8486L50.1697 29.9614C49.9219 30.5487 49.6655 31.156 49.4258 31.7581C49.2662 32.1589 49.0913 32.4725 48.8756 32.7449C48.8055 32.8335 48.7395 32.9284 48.6756 33.0202C48.6219 33.0973 48.5664 33.1771 48.5084 33.2533C48.4426 33.3396 48.419 33.4246 48.4295 33.5375C48.4781 34.0631 48.5239 34.589 48.5695 35.1149C48.5963 35.4231 48.6231 35.7313 48.6505 36.0394C48.6614 36.1622 48.6608 36.2724 48.5425 36.3781C47.9062 36.9465 47.2637 37.5296 46.6423 38.0935L46.1311 38.5573C46.061 38.6208 45.9918 38.6853 45.9185 38.7535L45.8296 38.8362C46.3573 39.584 46.8842 40.3311 47.4108 41.0777C48.5759 42.7297 49.7393 44.3792 50.9049 46.027L51.1823 21.5884Z" fill="#31AE71"/>
<path d="M7 30.4157L14.4346 35.6612C15.0986 31.6472 15.7558 27.6734 16.4146 23.6816C15.6292 24.1992 7.55435 29.9741 7 30.4157Z" fill="#31AE71"/>
<path d="M62.7222 23.6535L64.707 35.6611L72.1669 30.398L62.7256 23.6517L62.7222 23.6535Z" fill="#31AE71"/>
<path d="M36.7662 25.9997C36.8025 26.833 36.8436 27.6801 36.8834 28.4993L36.9053 28.9515C36.9068 28.9826 36.911 29.0135 36.9156 29.0477C36.9168 29.0567 36.9181 29.0659 36.9193 29.0755C38.6062 29.1551 40.4146 29.2088 42.2226 29.0698C42.2236 29.0624 42.2247 29.0552 42.2257 29.048C42.2304 29.0161 42.2349 28.985 42.2364 28.9537L42.2567 28.5371C42.2971 27.7062 42.3388 26.8471 42.3757 26.0019C42.3808 25.8875 42.3685 25.7715 42.3404 25.6665C41.4804 22.4596 40.6174 19.2536 39.7544 16.0475L39.6892 15.8055C39.6787 15.7666 39.6659 15.7282 39.6529 15.6892L39.6419 15.6558H39.4972L39.4838 15.7008C39.471 15.7438 39.4595 15.7825 39.449 15.8214L39.2192 16.675C38.4126 19.6712 37.6059 22.6674 36.8019 25.6643C36.7736 25.7699 36.7612 25.8859 36.7662 25.9997Z" fill="#31AE71"/>
<path d="M40.9165 36.5378C40.8417 36.4631 40.7712 36.4349 40.6642 36.4336L40.4592 36.435C39.9267 36.4388 39.3762 36.4427 38.8348 36.4276C38.8239 36.4273 38.8132 36.4271 38.8027 36.4271C38.5775 36.4271 38.4136 36.4962 38.2435 36.6611C37.2332 37.6408 36.1946 38.6249 35.1903 39.5766L34.9433 39.8106C34.8636 39.8861 34.8336 39.9606 34.8361 40.0764C34.8471 40.588 34.8559 41.0996 34.8646 41.6113C34.8708 41.9738 34.877 42.3362 34.8841 42.6986C34.8864 42.8225 34.8966 42.9446 34.9143 43.0614C34.9532 43.3192 34.9976 43.5806 35.0406 43.8334L35.0611 43.9536C35.0652 43.9777 35.0729 44.0015 35.0828 44.0317C35.0836 44.0343 35.0844 44.0369 35.0853 44.0395L35.1015 44.0272C35.1335 44.0032 35.1617 43.982 35.1886 43.9594L35.5 43.6982C36.3442 42.9901 37.1884 42.282 38.0312 41.5722C38.1364 41.4835 38.2307 41.4461 38.3493 41.4467C39.1577 41.4514 40.0215 41.4515 40.99 41.4473C41.1052 41.4455 41.2008 41.4831 41.2922 41.5651C41.9088 42.1189 42.5274 42.6705 43.146 43.2222L43.5368 43.5708C43.6577 43.6786 43.779 43.7859 43.9098 43.9017L44.0618 44.0363C44.0654 44.019 44.0687 44.0026 44.0719 43.9868C44.0841 43.9265 44.0944 43.8763 44.1019 43.8258C44.1179 43.7187 44.1367 43.6118 44.1555 43.5048C44.1977 43.2641 44.2413 43.0153 44.2508 42.7703C44.2726 42.2036 44.2813 41.6267 44.2898 41.0688C44.2948 40.7375 44.2998 40.4063 44.3074 40.0751C44.3101 39.9594 44.2763 39.8777 44.1908 39.7931C43.151 38.7643 42.08 37.6994 40.9165 36.5378Z" fill="#31AE71"/>
<path d="M36.2131 38.0475C36.2548 38.0101 36.2965 37.9727 36.3371 37.9341L36.7369 37.5533C37.2152 37.0979 37.7099 36.6269 38.1923 36.1597C38.2909 36.0642 38.3949 36.0252 38.5427 36.0252C39.3071 36.0314 40.0589 36.0325 40.7774 36.0285C40.9167 36.0277 41.0137 36.0679 41.1082 36.1629C41.5866 36.6442 42.0766 37.1298 42.5506 37.5995L42.8494 37.8957C42.8721 37.9183 42.8969 37.9386 42.9305 37.9661C42.9327 37.968 42.9351 37.9699 42.9374 37.9719L42.2447 29.4957C41.9747 29.5046 41.7068 29.5154 41.4404 29.5262C40.8003 29.5521 40.1952 29.5749 39.577 29.5757C38.9537 29.575 38.318 29.5481 37.7033 29.5221C37.4381 29.5109 37.1722 29.4996 36.905 29.4902L36.1792 38.0781L36.2131 38.0475Z" fill="#31AE71"/>
<path d="M41.8225 55.9385C41.6841 54.6837 41.5479 53.4075 41.4162 52.1732L41.2734 50.8362C41.2488 50.607 41.224 50.3779 41.1979 50.1373L41.165 49.8337C41.1596 49.8382 41.1544 49.8425 41.1494 49.8466C41.118 49.8723 41.0948 49.8914 41.0731 49.9121C40.9872 49.9938 40.9001 50.0743 40.813 50.1549C40.6056 50.3469 40.3912 50.5454 40.1976 50.7558C39.9752 50.9977 39.7299 51.0933 39.4254 51.0571C39.3137 51.0437 39.2281 51.0195 39.1464 50.9404C38.8623 50.6652 38.5703 50.3885 38.288 50.1209L38.0777 49.9216C38.0528 49.8979 38.0264 49.8758 37.9952 49.8495L37.9835 49.8396C37.9831 49.8411 37.9828 49.8427 37.9824 49.8443C37.9756 49.8753 37.97 49.9002 37.9673 49.9254C37.9527 50.0576 37.9388 50.19 37.925 50.3223L37.7824 51.6532C37.6173 53.1879 37.4523 54.7226 37.2892 56.2575C37.2811 56.3345 37.2869 56.4188 37.306 56.5014C37.4016 56.9136 37.5029 57.3319 37.6009 57.7364L37.6494 57.937C37.6579 57.9721 37.6691 58.0064 37.6806 58.0416C37.6837 58.0512 37.6868 58.0609 37.6899 58.0706H41.4544L41.4658 58.0309C41.4777 57.9899 41.4889 57.9513 41.4983 57.9123C41.5267 57.7942 41.5538 57.6759 41.581 57.5575C41.6395 57.302 41.7001 57.0377 41.7735 56.7814C41.8444 56.5334 41.8595 56.2735 41.8225 55.9385Z" fill="#31AE71"/>
<path d="M33.0644 23.2179L37.7378 20.0806L32.5192 17.2432L30.356 19.8069L33.0644 23.2179Z" fill="#31AE71"/>
<path d="M46.6221 17.2435L41.4097 20.086L46.0774 23.2178L48.7859 19.8067L46.6221 17.2435Z" fill="#31AE71"/>
<path d="M51.5775 20.4683C51.6098 20.4477 51.6318 20.4336 51.6528 20.4182L52.6034 19.7191C53.3874 19.1423 54.1714 18.5656 54.9564 17.9902C55.0751 17.9032 55.1926 17.8308 55.3056 17.775C56.4697 17.1995 57.6348 16.6257 58.7998 16.052L59.9591 15.481C60.0098 15.456 60.06 15.4298 60.1102 15.4035L60.1439 15.386L51.4316 15.0001L51.5561 20.482C51.5638 20.4771 51.5708 20.4726 51.5775 20.4683Z" fill="#31AE71"/>
<path d="M19.1949 15.4866L20.3203 16.0408C21.5079 16.6256 22.6954 17.2104 23.8827 17.7959C23.9482 17.8282 24.0332 17.8725 24.11 17.9289C24.9374 18.5372 25.7641 19.1466 26.5907 19.7559L27.4409 20.3825C27.4752 20.4077 27.5101 20.4322 27.5545 20.4634L27.5852 20.4849L27.7097 15L18.9946 15.3861L19.0413 15.4096C19.0924 15.4354 19.1436 15.4613 19.1949 15.4866Z" fill="#31AE71"/>
<path d="M51.0281 15.0688C51.0273 15.0639 51.0264 15.0589 51.0256 15.0537L45.6143 16.5299C45.64 16.5385 45.6659 16.5468 45.6923 16.5528L45.9007 16.6006C46.1151 16.6501 46.3368 16.7013 46.5561 16.7437C46.7021 16.7718 46.8114 16.8373 46.9105 16.9558C47.5711 17.7462 48.2947 18.6052 49.1227 19.5817C49.2042 19.6779 49.2443 19.7812 49.2525 19.9166C49.3203 21.0347 49.3932 22.1713 49.4638 23.2704L49.4815 23.5461C49.4831 23.5723 49.4883 23.5996 49.4949 23.6333C49.512 23.6091 49.5255 23.5897 49.5376 23.5696L49.9934 22.8034C50.3668 22.1757 50.7402 21.548 51.115 20.9212C51.1544 20.8554 51.1709 20.7851 51.1686 20.6933C51.1418 19.5762 51.1154 18.459 51.0891 17.3419L51.037 15.1376C51.0365 15.1173 51.0328 15.0959 51.0281 15.0688Z" fill="#31AE71"/>
<path d="M28.0273 20.9139C28.5449 21.7912 29.075 22.6809 29.5876 23.5413L29.6107 23.5802C29.6204 23.5962 29.6329 23.6116 29.6496 23.6311C29.6504 23.6237 29.6512 23.6165 29.652 23.6094C29.658 23.5534 29.6632 23.5063 29.6662 23.459L29.6794 23.2532C29.7516 22.1243 29.8239 20.9954 29.8933 19.8663C29.8995 19.7664 29.9302 19.6887 29.9929 19.6145C30.8805 18.5644 31.6063 17.7031 32.2768 16.904C32.3436 16.8243 32.4208 16.7794 32.527 16.7585C32.7172 16.7211 32.9099 16.6782 33.0962 16.6367L33.1397 16.627C33.2427 16.6041 33.3454 16.5798 33.448 16.5555L33.4643 16.5517C31.5243 15.9844 29.5938 15.4559 28.1136 15.0551C28.113 15.0589 28.1124 15.0625 28.1119 15.0659C28.1087 15.086 28.1063 15.0996 28.106 15.1134L28.0985 15.4261C28.0562 17.1922 28.0139 18.9583 27.9752 20.7244C27.9738 20.7844 27.9938 20.8571 28.0273 20.9139Z" fill="#31AE71"/>
<path d="M35.4378 29.4487L36.4001 29.1617C36.4292 29.153 36.4572 29.1408 36.4869 29.1279C36.4941 29.1248 36.5013 29.1216 36.5086 29.1185C36.5087 29.1005 36.5089 29.083 36.5091 29.066C36.5097 29.018 36.5102 28.9733 36.5082 28.9287C36.4952 28.6532 36.4819 28.3776 36.4687 28.1021C36.4366 27.4357 36.4035 26.7465 36.3749 26.0685C36.3701 25.9556 36.3327 25.8904 36.2369 25.8279C35.6572 25.4501 35.0701 25.0625 34.5023 24.6878L33.1973 23.828L33.1926 23.8496C33.185 23.8838 33.1793 23.9093 33.1754 23.9351L32.8296 26.1907C32.6657 27.2582 32.5018 28.3258 32.336 29.393C32.3235 29.4735 32.3399 29.5254 32.3944 29.5783C32.5824 29.7608 32.7381 29.9162 32.8867 30.0816C32.9563 30.1591 33.0169 30.174 33.1275 30.1406C33.897 29.9079 34.6674 29.6783 35.4378 29.4487Z" fill="#31AE71"/>
<path d="M42.6431 29.1254C42.6497 29.1298 42.6559 29.134 42.6582 29.1347L43.6918 29.4438C44.4853 29.6811 45.2787 29.9184 46.0718 30.1566C46.1335 30.1751 46.1733 30.1642 46.2188 30.1162C46.4077 29.9175 46.5659 29.7523 46.7379 29.5883C46.8011 29.5281 46.8176 29.4712 46.8011 29.371C46.7475 29.0467 46.6976 28.7163 46.6494 28.3968L46.5161 27.5217C46.3324 26.3187 46.1487 25.1157 45.9641 23.9128C45.9608 23.8915 45.9515 23.8695 45.9408 23.8439C45.9396 23.841 45.9384 23.838 45.9371 23.8351L45.9318 23.8382C45.9112 23.8497 45.8946 23.859 45.8787 23.8695L45.1299 24.3635C44.3826 24.8566 43.6353 25.3498 42.8864 25.8404C42.805 25.8937 42.773 25.9517 42.7685 26.0542C42.7381 26.7453 42.7052 27.4363 42.6724 28.1273L42.6326 28.9696C42.6308 29.0061 42.6313 29.0427 42.6318 29.0804L42.6321 29.1181C42.6362 29.1208 42.6398 29.1232 42.6431 29.1254Z" fill="#31AE71"/>
<path d="M44.4205 36.4066C44.5876 35.8028 44.7576 35.1998 44.9275 34.5968L45.1386 33.8467C45.1835 33.687 45.2288 33.5274 45.2742 33.3678C45.5204 32.501 45.7751 31.6047 45.9474 30.7039C45.9548 30.6654 45.9603 30.6266 45.966 30.5856L45.9709 30.5516L42.6504 29.5605C42.6503 29.5642 42.6503 29.5676 42.6503 29.5709C42.6498 29.5961 42.6495 29.614 42.651 29.6318C42.7118 30.3804 42.7729 31.1289 42.8344 31.8774L43.2373 36.7761C43.2791 37.2782 43.3208 37.7803 43.3594 38.2827C43.3666 38.3775 43.4003 38.4475 43.4718 38.5169C43.6451 38.6849 43.8184 38.8586 43.986 39.0265C44.0723 39.1128 44.1585 39.1992 44.245 39.2852C44.2623 39.3024 44.2818 39.3174 44.3074 39.3372C44.3081 39.3378 44.3089 39.3384 44.3096 39.339L44.3113 39.3138C44.3147 39.2629 44.3176 39.2204 44.3184 39.1779L44.3313 38.4671C44.3415 37.9038 44.3516 37.3405 44.3648 36.7772C44.3676 36.656 44.3869 36.5278 44.4205 36.4066Z" fill="#31AE71"/>
<path d="M34.7767 36.7899C34.7901 37.3602 34.8002 37.9307 34.8104 38.5011L34.8233 39.2097C34.824 39.2481 34.8265 39.2864 34.8297 39.337L34.8314 39.3636C34.9019 39.2965 34.9704 39.2309 35.0375 39.1667C35.2378 38.975 35.4271 38.794 35.6204 38.6187C35.7118 38.5358 35.7555 38.4418 35.7665 38.3043C35.859 37.1505 35.9565 35.991 36.0398 35.0089C36.1154 34.1163 36.1915 33.2236 36.2676 32.3309C36.3437 31.4383 36.4199 30.5456 36.4955 29.6529C36.4974 29.6305 36.4947 29.6068 36.4912 29.5768C36.4907 29.5723 36.4902 29.5678 36.4896 29.5631L33.177 30.5499C33.1768 30.5568 33.1765 30.5633 33.1762 30.5695C33.1752 30.5916 33.1744 30.609 33.1775 30.6233C33.2081 30.7614 33.2371 30.9 33.2661 31.0386C33.3331 31.3584 33.4024 31.6891 33.4901 32.0084C33.7369 32.9069 33.994 33.8188 34.2426 34.7007C34.4023 35.2672 34.562 35.8338 34.7203 36.4008C34.754 36.5217 34.7735 36.6563 34.7767 36.7899Z" fill="#31AE71"/>
<path d="M41.163 19.7571L46.1034 17.066L46.1033 17.0652L45.4299 16.9147C43.6999 16.528 41.97 16.1413 40.2399 15.755C40.1999 15.7461 40.1592 15.7404 40.1184 15.7348L40.0896 15.7307C40.0874 15.7329 40.0862 15.7345 40.0845 15.7366L40.0825 15.7391L41.163 19.7571Z" fill="#31AE71"/>
<path d="M39.065 15.718L33.0688 17.0586C33.6292 17.4011 37.5863 19.5448 37.9888 19.7224L39.065 15.718Z" fill="#31AE71"/>
<path d="M37.0344 23.2705C37.1344 22.9001 37.2345 22.5298 37.333 22.1591C37.3781 21.9894 37.4243 21.82 37.4706 21.6499C37.5658 21.3002 37.6641 20.9393 37.7545 20.5707C37.1789 20.9181 33.7866 23.2072 33.4272 23.4914L36.439 25.4835L37.0344 23.2705Z" fill="#31AE71"/>
<path d="M45.7386 23.475L41.4062 20.5682C41.527 21.1588 42.5793 25.0594 42.7291 25.4662L45.7386 23.475Z" fill="#31AE71"/>
<path d="M30.1557 21.9534C30.0914 22.9521 30.0271 23.9509 29.9651 24.9498C29.9598 25.0351 29.9665 25.1284 29.9857 25.2349C30.0428 25.5535 30.1054 25.8768 30.166 26.1894L30.1883 26.3049C30.1945 26.3366 30.2041 26.3683 30.2163 26.4085C30.2178 26.4136 30.2194 26.419 30.2211 26.4244L32.7604 23.4793L30.2649 20.3354L30.2621 20.3623C30.2582 20.3982 30.2543 20.4342 30.2519 20.4701C30.2341 20.7343 30.2171 20.9985 30.2001 21.2627L30.1557 21.9534Z" fill="#31AE71"/>
<path d="M49.1717 24.8807C49.1072 23.8012 49.0365 22.7039 48.9681 21.6428L48.9178 20.8616C48.9098 20.7371 48.9005 20.6127 48.8912 20.4883L48.8793 20.3325L46.3848 23.4746L48.9218 26.4195C48.9243 26.4102 48.9267 26.4013 48.929 26.3927C48.9417 26.3462 48.9517 26.3097 48.9589 26.2728L49.0017 26.0576C49.0468 25.8315 49.0935 25.5977 49.1317 25.3668C49.1562 25.2184 49.1815 25.0461 49.1717 24.8807Z" fill="#31AE71"/>
<path d="M33.4757 33.4548C33.4737 33.4497 33.4716 33.4443 33.4695 33.4388L31.0713 36.2588L33.5051 38.4641C33.5063 38.4625 33.5074 38.461 33.5085 38.4596C33.5202 38.4445 33.5279 38.4345 33.5324 38.4247L33.7884 37.8698C33.971 37.4738 34.1535 37.0779 34.3381 36.6829C34.3686 36.6176 34.3564 36.5605 34.3373 36.4927C34.1889 35.9665 34.0409 35.4401 33.8929 34.9138L33.5076 33.5445C33.4998 33.5167 33.4893 33.4898 33.4757 33.4548Z" fill="#31AE71"/>
<path d="M47.2708 35.3172L47.1027 35.1195C46.8877 34.8663 46.6727 34.6131 46.4563 34.3611C46.3708 34.2615 46.2865 34.161 46.202 34.0601C46.0315 33.8567 45.8556 33.6468 45.6686 33.4447C45.6634 33.4548 45.6598 33.462 45.6576 33.4696L45.4092 34.3497C45.2044 35.0754 44.9996 35.8011 44.7933 36.5264C44.7739 36.5945 44.7892 36.6491 44.8202 36.7151C44.9183 36.9241 45.0151 37.1338 45.1119 37.3435L45.6303 38.4653L48.07 36.259L47.818 35.9619C47.6339 35.7448 47.4524 35.531 47.2708 35.3172Z" fill="#31AE71"/>
<path d="M33.4051 41.8858C33.2683 41.7438 33.1316 41.6019 32.9945 41.4602C32.9786 41.4438 32.9588 41.4293 32.9359 41.4125C32.9345 41.4116 32.9332 41.4105 32.9318 41.4095C32.9258 41.4252 32.9213 41.4372 32.9185 41.4497L32.8166 41.9057C32.556 43.0724 32.2864 44.2789 32.0247 45.4663C32.0087 45.5389 32.0101 45.6254 32.0287 45.7036C32.1638 46.2748 32.3052 46.8548 32.442 47.4156L32.5274 47.7659C32.5331 47.7891 32.5405 47.8118 32.55 47.8407C32.5505 47.84 32.551 47.8393 32.5514 47.8386C32.5721 47.8077 32.5886 47.7832 32.6029 47.7574L32.8036 47.3941C33.0508 46.9468 33.3065 46.4843 33.5533 46.0269C33.6179 45.9071 33.666 45.78 33.6925 45.6595C33.7947 45.1934 33.8945 44.7268 33.9943 44.2601C34.0874 43.8245 34.1806 43.3889 34.2757 42.9537C34.2982 42.8509 34.282 42.7899 34.214 42.7206C33.9428 42.4439 33.6739 42.1648 33.4051 41.8858Z" fill="#31AE71"/>
<path d="M46.7682 47.1358C46.877 46.6866 46.9858 46.2375 47.0977 45.7891C47.1324 45.6499 47.1345 45.5223 47.1042 45.3877C46.8994 44.4797 46.697 43.5711 46.4947 42.6626L46.2548 41.5859C46.2444 41.539 46.2318 41.4927 46.2181 41.4423L46.2087 41.407C46.1967 41.4144 46.1878 41.4201 46.1817 41.4265C46.0466 41.5662 45.9116 41.7062 45.7767 41.8461C45.4843 42.1494 45.1919 42.4526 44.8973 42.7537C44.8407 42.8115 44.8484 42.8639 44.8657 42.9445L45.025 43.6893C45.1687 44.3618 45.3124 45.0343 45.4585 45.7063C45.4781 45.7966 45.5125 45.8885 45.5578 45.9718C45.8302 46.473 46.1104 46.9808 46.3814 47.4719L46.5269 47.7355C46.543 47.7647 46.5611 47.7926 46.5852 47.83C46.5877 47.8338 46.5903 47.8378 46.5929 47.8418L46.5987 47.8212C46.6115 47.7758 46.621 47.7422 46.6292 47.7083L46.7682 47.1358Z" fill="#31AE71"/>
<path d="M32.7114 24.1404L32.0708 24.8848C31.5093 25.5374 30.9479 26.19 30.3846 26.8411C30.3333 26.9003 30.3218 26.9514 30.3418 27.0295C30.4835 27.5808 30.6242 28.1324 30.7649 28.684C30.86 29.0567 30.955 29.4295 31.0504 29.8022C31.0572 29.8285 31.0688 29.8548 31.0823 29.8853C31.0848 29.8911 31.0874 29.897 31.0901 29.9031C31.1558 29.8665 31.2203 29.8302 31.284 29.7943C31.4671 29.6914 31.6401 29.5941 31.8185 29.5014C31.9045 29.4569 31.9432 29.3999 31.9563 29.2981C31.9797 29.1185 32.008 28.9366 32.0353 28.7608L32.2252 27.5237C32.395 26.4172 32.5648 25.3108 32.7337 24.2041C32.7376 24.1786 32.7369 24.151 32.7357 24.1163C32.7264 24.1247 32.7185 24.1322 32.7114 24.1404Z" fill="#31AE71"/>
<path d="M46.853 24.6331L46.4146 24.1238C46.4147 24.184 46.4151 24.2411 46.4236 24.2974C46.5288 24.9935 46.6355 25.6893 46.7421 26.3852L46.9132 27.5027C47.0058 28.1078 47.0983 28.7129 47.1877 29.3185C47.2006 29.4056 47.2347 29.4546 47.3093 29.4932C47.4321 29.5569 47.5543 29.6259 47.6725 29.6927C47.7347 29.7278 47.7969 29.763 47.8595 29.7975C47.909 29.8249 47.9592 29.8508 48.0118 29.878L48.0574 29.9017C48.0585 29.8992 48.0597 29.8968 48.0607 29.8945C48.0685 29.8775 48.0742 29.8655 48.0775 29.8527L48.3005 28.9801C48.4683 28.3227 48.6362 27.6654 48.8056 27.0085C48.8238 26.9379 48.8005 26.8931 48.7541 26.8394C48.1198 26.1046 47.4864 25.3688 46.853 24.6331Z" fill="#31AE71"/>
<path d="M38.6192 49.8833C38.8658 50.1187 39.1125 50.3541 39.3601 50.5885C39.4486 50.6723 39.6888 50.6758 39.7747 50.5947C40.0326 50.3509 40.2893 50.1057 40.5459 49.8606C40.7116 49.7023 40.8773 49.544 41.0434 49.3861C41.0909 49.3409 41.1073 49.3034 41.1016 49.2527C41.0691 48.9582 41.0382 48.6636 41.0075 48.3704L40.9793 48.1025C40.9737 48.0997 40.9684 48.097 40.9634 48.0944C40.9476 48.0862 40.9351 48.0798 40.9238 48.0771L40.635 48.0075C40.3245 47.9323 40.0034 47.8546 39.6859 47.787C39.6015 47.7691 39.4989 47.7729 39.3723 47.799C39.192 47.8361 39.01 47.8817 38.8339 47.9258C38.7628 47.9436 38.6916 47.9614 38.6203 47.9788L38.1634 48.0904L38.1326 48.3839C38.1019 48.6769 38.0723 48.961 38.0394 49.2447C38.0319 49.3097 38.0576 49.3482 38.1045 49.3928C38.2763 49.5561 38.4477 49.7197 38.6192 49.8833Z" fill="#31AE71"/>
<path d="M33.305 32.8186C33.2358 32.6104 33.173 32.3885 33.1184 32.1593C33.0973 32.0705 33.0582 32.038 32.9576 32.0254C32.7374 31.9978 32.5143 31.9643 32.2986 31.932C32.1955 31.9165 32.0924 31.9011 31.9892 31.8861C31.9318 31.8778 31.8742 31.8712 31.8164 31.8645L31.7585 31.8577C31.7563 31.8613 31.7542 31.8648 31.7521 31.8682C31.7431 31.8829 31.7355 31.895 31.7301 31.9081L31.6444 32.1154C31.4779 32.5179 31.3114 32.9204 31.148 33.3242C31.1245 33.3822 31.1159 33.4488 31.1101 33.5121C31.0618 34.0389 31.0155 34.5658 30.9699 35.0928C30.9546 35.2692 30.9407 35.4458 30.9269 35.6223L30.9106 35.8276L32.1702 34.347C32.5224 33.9326 32.8865 33.504 33.2484 33.0856C33.325 32.9971 33.3403 32.9247 33.305 32.8186Z" fill="#31AE71"/>
<path d="M48.225 35.8115C48.225 35.8113 48.225 35.8111 48.225 35.8109C48.2257 35.7722 48.2262 35.7431 48.2238 35.7142L48.2085 35.5361C48.1507 34.8592 48.0908 34.1593 48.0281 33.4713C48.0215 33.3983 47.9939 33.3226 47.9652 33.2516C47.8231 32.9005 47.6786 32.5503 47.534 32.2002L47.4608 32.0228C47.4438 31.9817 47.4255 31.9411 47.4059 31.8977L47.3861 31.8536L47.1417 31.8889C46.7941 31.9391 46.4509 31.9886 46.1077 32.0378C46.0623 32.0443 46.0498 32.0722 46.0338 32.1298L45.9999 32.2522C45.9449 32.4513 45.8879 32.6572 45.8259 32.858C45.8017 32.9365 45.8149 32.9915 45.8742 33.061C46.411 33.6888 46.9464 34.3178 47.4819 34.9467L48.1728 35.7582C48.1874 35.7754 48.2037 35.7911 48.225 35.8115Z" fill="#31AE71"/>
<path d="M32.8867 40.7658L34.4767 42.416C34.479 42.4106 34.4808 42.4058 34.4809 42.404C34.4522 40.7724 34.4228 39.1408 34.3928 37.5092L32.8867 40.7658Z" fill="#31AE71"/>
<path d="M44.7434 37.4974L44.6572 42.4209L44.6599 42.422L46.2555 40.7656L44.7434 37.4974Z" fill="#31AE71"/>
<path d="M30.5044 49.335L32.2473 48.2969L31.7468 46.2346C31.265 47.4272 30.8695 48.4142 30.5044 49.335Z" fill="#31AE71"/>
<path d="M47.4224 46.3022C47.4155 46.2852 47.4055 46.2685 47.3921 46.2472L46.895 48.2944L48.6163 49.3286C48.6144 49.2989 48.6116 49.271 48.6022 49.2473C48.2108 48.2649 47.8168 47.2835 47.4224 46.3022Z" fill="#31AE71"/>
<path d="M46.8751 30.0612C46.8778 30.0611 46.8804 30.0611 46.883 30.0611C47.1523 30.0611 47.319 30.4461 47.319 30.8027C47.319 30.9303 47.2975 31.0408 47.2566 31.1221C47.2081 31.2188 47.1345 31.2698 47.0437 31.2698C46.7744 31.2698 46.6077 30.8849 46.6077 30.5282C46.6077 30.4344 46.6194 30.3499 46.6418 30.2794C46.5683 30.3488 46.4958 30.4178 46.4238 30.4878C46.394 30.5167 46.3805 30.5771 46.3706 30.6213C46.3057 30.9113 46.2442 31.202 46.1826 31.4927L46.1764 31.5222C46.1709 31.548 46.1683 31.5744 46.1657 31.5999C46.1653 31.6037 46.1649 31.6074 46.1646 31.6111C46.1689 31.613 46.1724 31.6148 46.1755 31.6155C46.2923 31.5985 46.4131 31.5812 46.534 31.5638C46.7861 31.5276 47.0468 31.4901 47.3038 31.4574C47.3788 31.4478 47.4041 31.4056 47.4342 31.3424C47.5216 31.1582 47.61 30.9744 47.6985 30.7907C47.7646 30.6532 47.8308 30.5157 47.8966 30.378C47.9052 30.3599 47.9109 30.3391 47.9175 30.3151C47.9188 30.3101 47.9202 30.3051 47.9216 30.2999L47.1082 29.8444L46.9408 30.0001C46.9188 30.0207 46.8969 30.041 46.8751 30.0612Z" fill="#31AE71"/>
<path d="M32.2842 30.0612C32.2816 30.0611 32.279 30.0611 32.2764 30.0611C32.0071 30.0611 31.8403 30.4461 31.8403 30.8027C31.8403 30.9303 31.8619 31.0408 31.9028 31.1221C31.9513 31.2188 32.0249 31.2698 32.1156 31.2698C32.385 31.2698 32.5517 30.8849 32.5517 30.5282C32.5517 30.4344 32.54 30.3499 32.5176 30.2794C32.5911 30.3488 32.6636 30.4178 32.7356 30.4878C32.7654 30.5167 32.7789 30.5771 32.7888 30.6213C32.8536 30.9113 32.9152 31.202 32.9768 31.4927L32.983 31.5222C32.9885 31.548 32.9911 31.5744 32.9937 31.5999C32.9941 31.6037 32.9945 31.6074 32.9948 31.6111C32.9905 31.613 32.987 31.6148 32.9839 31.6155C32.8671 31.5985 32.7463 31.5812 32.6254 31.5638C32.3733 31.5276 32.1126 31.4901 31.8556 31.4574C31.7806 31.4478 31.7553 31.4056 31.7252 31.3424C31.6378 31.1582 31.5494 30.9744 31.4609 30.7907C31.3948 30.6532 31.3286 30.5157 31.2628 30.378C31.2542 30.3599 31.2485 30.3391 31.2419 30.3151C31.2406 30.3101 31.2392 30.3051 31.2378 30.2999L32.0512 29.8444L32.2186 30.0001C32.2406 30.0207 32.2625 30.041 32.2842 30.0612Z" fill="#31AE71"/>
<path d="M48.8187 31.1523C48.8791 31.2906 48.9396 31.429 49.0003 31.5673C49.0105 31.5903 49.0231 31.6122 49.0402 31.6423C49.0408 31.6434 49.0415 31.6446 49.0422 31.6458L49.8081 29.7938C49.6062 29.6423 48.8558 29.2196 48.6572 29.1439L48.6022 29.3748C48.5477 29.6047 48.4913 29.8425 48.4314 30.0753C48.4086 30.1638 48.4146 30.2367 48.4515 30.319C48.5757 30.5959 48.6972 30.8741 48.8187 31.1523Z" fill="#31AE71"/>
<path d="M30.4661 29.1233L29.3276 29.7799L30.1 31.6483C30.1032 31.6458 30.1057 31.6438 30.1074 31.6418L30.1998 31.4315C30.3688 31.0483 30.5436 30.6521 30.7107 30.2604C30.726 30.2244 30.7267 30.1673 30.7125 30.1039C30.6475 29.8134 30.5757 29.5192 30.5062 29.2347L30.5041 29.2262C30.4975 29.1992 30.4863 29.1722 30.4734 29.1409C30.471 29.1352 30.4686 29.1293 30.4661 29.1233Z" fill="#31AE71"/>
<path d="M48.3897 32.7323C48.5263 32.5405 48.6552 32.3595 48.7864 32.1801C48.8167 32.1386 48.8056 32.1087 48.7816 32.0551L48.7755 32.0414C48.5883 31.6136 48.4011 31.1858 48.2124 30.7587C48.206 30.7442 48.1948 30.7301 48.1793 30.7109C48.1458 30.781 48.1129 30.8499 48.0805 30.9181C47.9796 31.1299 47.8843 31.33 47.7824 31.5295C47.743 31.6067 47.7425 31.6717 47.7807 31.7617C47.8799 31.9952 47.976 32.2301 48.0721 32.465C48.118 32.5771 48.1639 32.6892 48.2102 32.8012C48.2217 32.8292 48.235 32.8564 48.2525 32.8922C48.2555 32.8984 48.2586 32.9048 48.2619 32.9114L48.3897 32.7323Z" fill="#31AE71"/>
<path d="M30.631 32.5664C30.6966 32.6579 30.7622 32.7495 30.8282 32.8407C30.8424 32.8604 30.8602 32.8791 30.879 32.8989C30.8804 32.9004 30.8818 32.9019 30.8832 32.9033C30.8893 32.8958 30.8937 32.89 30.8956 32.8854C30.9506 32.7524 31.0054 32.6193 31.0602 32.4863C31.1666 32.2278 31.273 31.9695 31.3811 31.7118C31.4027 31.6604 31.4008 31.6179 31.3744 31.5649C31.3231 31.462 31.2736 31.3582 31.2241 31.2544L31.1504 31.1004C31.1053 31.0067 31.0599 30.9131 31.0089 30.8082L30.9561 30.6991L30.8203 31.0101C30.6592 31.3792 30.5065 31.7291 30.3516 32.078C30.3281 32.1309 30.3416 32.165 30.3766 32.213C30.462 32.3304 30.5465 32.4484 30.631 32.5664Z" fill="#31AE71"/>
<path d="M30.3639 28.7167C30.3169 28.3929 30.1407 27.7728 30.0524 27.5718L29.4502 29.2413L30.3639 28.7167Z" fill="#31AE71"/>
<path d="M48.7661 28.7103L49.6924 29.2413L49.0753 27.5355L48.7661 28.7103Z" fill="#31AE71"/>
<defs>
<filter id="filter0_d" x="0" y="0" width="78" height="78" filterUnits="userSpaceOnUse" color-interpolation-filters="sRGB">
<feFlood flood-opacity="0" result="BackgroundImageFix"/>
<feColorMatrix in="SourceAlpha" type="matrix" values="0 0 0 0 0 0 0 0 0 0 0 0 0 0 0 0 0 0 127 0"/>
<feOffset dy="4"/>
<feGaussianBlur stdDeviation="2"/>
<feColorMatrix type="matrix" values="0 0 0 0 0 0 0 0 0 0 0 0 0 0 0 0 0 0 0.25 0"/>
<feBlend mode="normal" in2="BackgroundImageFix" result="effect1_dropShadow"/>
<feBlend mode="normal" in="SourceGraphic" in2="effect1_dropShadow" result="shape"/>
</filter>
</defs>
</svg>
