<svg width="78" height="78" viewBox="0 0 78 78" fill="none" xmlns="http://www.w3.org/2000/svg">
<g filter="url(#filter0_d)">
<circle cx="39" cy="35" r="35" fill="#101010"/>
</g>
<path d="M34.5861 17.7164C34.6397 17.7083 34.6889 17.7009 34.7379 17.6925C35.0887 17.6331 35.4394 17.5731 35.7901 17.5132C36.6455 17.3669 37.5299 17.2157 38.4012 17.0747C38.6046 17.0418 38.8099 17.0254 39.0154 17.0254C39.2178 17.0254 39.4205 17.0413 39.6221 17.0733C40.3124 17.1826 41.0126 17.3037 41.6898 17.4209C41.9794 17.471 42.269 17.5211 42.5588 17.5705C42.7703 17.6065 42.9818 17.642 43.2005 17.6787L43.4877 17.7269L46.5285 9.18591L46.4927 9.17449C46.455 9.16235 46.4226 9.15185 46.3896 9.14308L43.5238 8.38151C42.0909 8.00074 40.658 7.61997 39.2252 7.23894C39.0737 7.19875 38.9285 7.19818 38.7812 7.2373L31.7253 9.11349C31.6891 9.12313 31.6532 9.13389 31.6129 9.146L31.5752 9.15723L34.5286 17.7252L34.5861 17.7164Z" fill="#31AE71"/>
<path d="M44.0442 59.6054L43.8356 58.0232C43.6945 56.9541 43.5534 55.8849 43.4133 54.8156C43.2855 53.8409 43.1585 52.8661 43.0314 51.8914C42.9404 51.1937 42.8495 50.4961 42.7583 49.7985C42.7535 49.762 42.7462 49.726 42.7378 49.6843C42.7361 49.6764 42.7345 49.6683 42.7328 49.66C42.7307 49.6618 42.7286 49.6635 42.7265 49.6653C42.7023 49.6856 42.6823 49.7023 42.6642 49.7209C42.6334 49.7524 42.6023 49.7836 42.5712 49.8149C42.4799 49.9069 42.3855 50.002 42.2994 50.1009C42.2093 50.2045 42.1081 50.2488 41.9616 50.2488C41.961 50.2488 41.9604 50.2488 41.9598 50.2488C40.3687 50.245 38.7511 50.2451 37.1868 50.2454L36.0503 50.2455C36.0416 50.2455 36.0329 50.2453 36.0241 50.245C36.0072 50.2444 35.9903 50.2438 35.9736 50.2458C35.8895 50.256 35.8193 50.2274 35.7527 50.1562C35.6436 50.0394 35.5293 49.9233 35.4188 49.8112L35.3405 49.7316C35.3173 49.708 35.2929 49.6856 35.2609 49.6561C35.2545 49.6502 35.2477 49.6439 35.2406 49.6373L33.8789 60.2224L33.9335 60.253C33.9754 60.2766 34.0118 60.2971 34.0486 60.3169C35.4013 61.0472 36.754 61.7774 38.1068 62.5074C38.158 62.535 38.209 62.566 38.2583 62.596C38.3714 62.6649 38.4884 62.7361 38.611 62.7673C38.7263 62.7966 38.8484 62.793 38.9776 62.7892C39.0489 62.7871 39.1225 62.785 39.1945 62.7889C39.3086 62.7956 39.4163 62.7672 39.5435 62.6979C40.2125 62.3337 40.8828 61.9716 41.5531 61.6095L42.7384 60.969C43.1617 60.7403 43.5849 60.5117 44.0079 60.2825C44.1236 60.2198 44.1236 60.2198 44.1067 60.0862C44.0864 59.9257 44.0653 59.7656 44.0442 59.6054Z" fill="#31AE71"/>
<path d="M48.6557 38.3992C48.4715 38.8175 48.2875 39.2359 48.1035 39.6543L47.8691 40.1874C47.8619 40.2038 47.8542 40.2201 47.8466 40.2365C47.802 40.3315 47.76 40.4213 47.807 40.5276C47.8197 40.5566 47.8123 40.5903 47.8058 40.62C47.8034 40.631 47.8009 40.642 47.7997 40.6524L47.7721 40.8893C47.7486 41.0934 47.7242 41.3043 47.6963 41.5113C47.6812 41.6244 47.7007 41.7164 47.7596 41.8096C47.9675 42.1386 48.1747 42.4757 48.375 42.8017C48.4536 42.9296 48.5322 43.0574 48.611 43.1852L52.1856 48.9771C52.9931 50.2854 53.8008 51.5935 54.6088 52.9014C54.6263 52.9297 54.6461 52.9567 54.6675 52.986C54.6731 52.9936 54.6788 53.0014 54.6846 53.0095L60.2922 48.6548L48.7246 38.2524L48.7069 38.2896C48.6872 38.3308 48.6709 38.3647 48.6557 38.3992Z" fill="#31AE71"/>
<path d="M28.5248 44.6005C29.0995 43.6727 29.6743 42.745 30.2515 41.8188C30.3034 41.7354 30.3202 41.6599 30.3076 41.5664C30.2731 41.3104 30.2435 41.0496 30.2149 40.7974L30.1975 40.6436C30.1965 40.635 30.1952 40.626 30.1939 40.6169C30.1879 40.5747 30.1812 40.5268 30.1989 40.4879C30.2281 40.4238 30.216 40.3718 30.1835 40.2984C29.9948 39.8729 29.807 39.447 29.6194 39.0211L29.3428 38.3939C29.3287 38.3619 29.313 38.3306 29.2971 38.299L29.2897 38.2841C28.6851 38.7842 18.2464 48.1614 17.7271 48.671L23.3092 53.0053C23.3139 52.9988 23.3183 52.9927 23.3226 52.9869C23.3394 52.9638 23.3532 52.945 23.3655 52.9253C23.5856 52.5718 23.8054 52.2182 24.0247 51.8643L28.5248 44.6005Z" fill="#31AE71"/>
<path d="M28.03 35.4126L15.9482 40.7403C15.9486 40.7471 15.9488 40.7535 15.9491 40.7595C15.9499 40.7796 15.9505 40.7955 15.9535 40.8097C16.4696 43.2763 16.9861 45.7431 17.5031 48.2095L17.509 48.2105L29.0906 37.8196L28.03 35.4126Z" fill="#31AE71"/>
<path d="M49.9692 35.4178L48.918 37.8036L60.5004 48.221L62.0641 40.718L49.9692 35.4178Z" fill="#31AE71"/>
<path d="M42.8941 33.7732C42.9158 33.2363 42.9383 32.681 42.9649 32.1351C42.9708 32.0147 42.9372 31.9454 42.8489 31.8959C42.8379 31.8898 42.828 31.8817 42.8182 31.8736L42.8073 31.8647L39.5063 29.3256C39.3879 29.2346 39.269 29.1442 39.1487 29.0527L38.9972 28.9374L38.9706 28.9561C38.9428 28.9754 38.9171 28.9933 38.8924 29.0124C37.6995 29.9312 36.5067 30.8499 35.3145 31.7695C35.2884 31.7896 35.26 31.8089 35.2315 31.8283C35.1575 31.8786 35.0811 31.9307 35.0497 31.9974C35.0178 32.0652 35.0268 32.1589 35.0356 32.2496C35.0388 32.2824 35.0419 32.315 35.0433 32.3465C35.1256 34.2699 35.2091 36.1933 35.2925 38.1167L35.2997 38.2836C35.3012 38.3177 35.304 38.3519 35.3072 38.3922L35.311 38.4401L35.3771 38.4465C35.4336 38.452 35.4859 38.4571 35.5383 38.461L36.0081 38.4951C36.7354 38.548 37.4628 38.6009 38.1902 38.6523L38.2957 38.6598C38.6576 38.6859 39.0318 38.7128 39.4016 38.6843C40.1144 38.6294 40.8395 38.5776 41.5406 38.5276C41.8554 38.5051 42.1702 38.4826 42.485 38.4598C42.5343 38.4562 42.5836 38.4513 42.6353 38.4461L42.6904 38.4407C42.6916 38.4293 42.6928 38.4184 42.6939 38.4077C42.6976 38.3738 42.701 38.3433 42.7023 38.3126C42.7567 37.0377 42.8111 35.7627 42.8647 34.4877C42.8747 34.2496 42.8844 34.0114 42.8941 33.7732Z" fill="#31AE71"/>
<path d="M32.459 46.9032C32.4405 46.8863 32.4256 46.8727 32.41 46.86C32.2873 46.7602 32.1647 46.6604 32.0422 46.5604C31.6786 46.2639 31.3025 45.9573 30.9288 45.6608C30.8219 45.576 30.7693 45.4783 30.7528 45.3343C30.6634 44.5522 30.5684 43.7575 30.4766 42.989L30.4242 42.551C30.4213 42.5266 30.4155 42.5015 30.4074 42.4668C30.4068 42.4644 30.4062 42.4619 30.4056 42.4594L23.6948 53.2891C24.0574 53.6078 29.029 57.4528 29.4642 57.7519L32.4803 46.9224L32.459 46.9032Z" fill="#31AE71"/>
<path d="M47.571 42.575L47.5107 43.0802C47.4221 43.8215 47.3306 44.588 47.2449 45.3424C47.2295 45.4788 47.1786 45.5724 47.0747 45.6553C46.8355 45.8465 46.598 46.0398 46.3605 46.2331C46.1218 46.4273 45.8831 46.6216 45.6427 46.8137C45.5462 46.8908 45.5266 46.9488 45.5675 47.0353C45.5748 47.0505 45.578 47.066 45.581 47.0809C45.5824 47.0878 45.5838 47.0947 45.5857 47.1014L48.5388 57.5991C48.5489 57.6348 48.5607 57.6701 48.5744 57.7112C48.5778 57.7216 48.5815 57.7324 48.5852 57.7436L54.3042 53.3056L47.6037 42.4521C47.5842 42.4932 47.5761 42.532 47.571 42.575Z" fill="#31AE71"/>
<path d="M23.0961 11.5663C24.0736 12.7253 25.0513 13.8841 26.0292 15.0428L26.726 15.8681C27.4788 16.7596 28.2316 17.6512 28.9822 18.5446C29.0489 18.6239 29.1063 18.6454 29.2016 18.6268C29.4209 18.5839 29.6451 18.5468 29.8618 18.5109L31.4904 18.2368C32.3012 18.1002 33.1122 17.9636 33.923 17.8267C33.9555 17.8212 33.9876 17.8131 34.0234 17.8042C34.0324 17.8019 34.0416 17.7996 34.0512 17.7973C33.6568 16.6549 33.2642 15.5156 32.872 14.3778C32.2855 12.6763 31.7002 10.9782 31.1122 9.27783L22.9932 11.4369L23.0201 11.4712C23.0489 11.5081 23.072 11.5377 23.0961 11.5663Z" fill="#31AE71"/>
<path d="M44.0161 17.81C44.0638 17.8199 44.104 17.8283 44.1445 17.8352L46.7651 18.2794C47.4495 18.3954 48.1339 18.5114 48.8178 18.6297C48.9004 18.644 48.949 18.626 48.9977 18.5634C49.0739 18.4654 49.156 18.3698 49.2355 18.2774C49.2697 18.2375 49.304 18.1976 49.3379 18.1575L49.4092 18.073C51.2484 15.8939 53.0877 13.7149 54.9267 11.5356C54.9461 11.5126 54.9641 11.4886 54.9865 11.4587C54.9917 11.4517 54.9972 11.4444 55.003 11.4367L46.9912 9.30371L43.9644 17.7994L44.0161 17.81Z" fill="#31AE71"/>
<path d="M14.8018 35.197C14.8503 35.5852 15.7548 39.8947 15.8682 40.2801L27.8355 35.0053C27.7026 34.6306 26.6012 32.1558 26.4665 31.9283L14.8018 35.197Z" fill="#31AE71"/>
<path d="M51.5012 31.932L50.1519 35.0002L62.1586 40.2643L63.2182 35.1757L51.5012 31.932Z" fill="#31AE71"/>
<path d="M26.4233 27.017L27.5402 23.0735L19.2557 18.9596L16.3618 25.1328L26.4233 27.017Z" fill="#31AE71"/>
<path d="M61.6236 25.1062L58.7596 18.9961L50.458 23.0736L51.5682 26.9958C52.0828 26.9369 61.0443 25.2526 61.6236 25.1062Z" fill="#31AE71"/>
<path d="M49.3874 18.8212C49.31 18.9125 49.294 18.9845 49.3262 19.096C49.5663 19.9292 49.8063 20.7773 50.0385 21.5976L50.2895 22.4838C50.2997 22.5194 50.3117 22.5545 50.3251 22.5939C50.3289 22.6052 50.3329 22.6167 50.337 22.6288L58.5658 18.5842L55.3626 11.7506L55.3384 11.7771C55.3097 11.8083 55.2866 11.8332 55.2648 11.8591L52.6014 15.0162C51.5488 16.264 50.4605 17.5543 49.3874 18.8212Z" fill="#31AE71"/>
<path d="M27.658 22.622C27.662 22.6115 27.666 22.6015 27.6697 22.592C27.6825 22.5595 27.6935 22.5313 27.7014 22.5036L27.9793 21.5219C28.2121 20.6992 28.4449 19.8764 28.6801 19.0544C28.7038 18.9715 28.6914 18.9181 28.6327 18.8502C28.4421 18.6296 28.2513 18.4028 28.0668 18.1834L26.9732 16.8868C25.5573 15.2086 24.1413 13.5304 22.7252 11.8524C22.7035 11.8267 22.6804 11.8023 22.6528 11.7732C22.6467 11.7667 22.6403 11.76 22.6336 11.7529L19.4487 18.5475L27.658 22.622Z" fill="#31AE71"/>
<path d="M42.363 21.4365C41.9486 20.3205 41.5184 19.151 41.048 17.8611C41.0208 17.7865 40.9816 17.7555 40.8981 17.7426L40.7721 17.7233C40.5328 17.6867 40.2854 17.6489 40.0445 17.5982C39.6997 17.5255 39.3398 17.4897 38.951 17.4897C38.8683 17.4897 38.7843 17.4913 38.6988 17.4946C38.624 17.4974 38.5357 17.5022 38.4478 17.5167C38.2883 17.5429 38.129 17.5702 37.9697 17.5975C37.6971 17.6442 37.4152 17.6925 37.1369 17.7346C37.0273 17.7512 36.9768 17.7938 36.9368 17.9034C36.522 19.0414 36.0898 20.2136 35.6521 21.3876C35.6118 21.4957 35.6168 21.5779 35.67 21.6807C36.505 23.2968 37.3378 24.9139 38.1707 26.531L38.941 28.0266C38.9548 28.0535 38.9704 28.0794 38.9889 28.1102C38.9915 28.1145 38.9942 28.119 38.9969 28.1235L39.0063 28.1072C39.0262 28.0732 39.0433 28.0439 39.0589 28.0138C39.1868 27.7665 39.3143 27.5191 39.4418 27.2717L40.0527 26.0868C40.8121 24.614 41.5714 23.1412 42.3317 21.6689C42.3771 21.581 42.3943 21.5209 42.363 21.4365Z" fill="#31AE71"/>
<path d="M51.7101 27.4866L51.8788 28.0847C52.0187 28.5804 52.1634 29.0932 52.3028 29.5982C52.3242 29.6756 52.3631 29.6859 52.4406 29.6898C53.6546 29.7508 54.8685 29.8136 56.0824 29.8764L57.7314 29.962C58.5636 30.0054 59.3959 30.0486 60.2281 30.0913C61.4701 30.1551 62.7121 30.2174 63.9542 30.2794C63.9772 30.2805 64.0008 30.2777 64.031 30.2741C64.0361 30.2735 64.0414 30.2728 64.0468 30.2722L61.8333 25.5516L51.7075 27.4462C51.7077 27.4508 51.7078 27.4549 51.7079 27.4587C51.7083 27.4725 51.7085 27.4808 51.7101 27.4866Z" fill="#31AE71"/>
<path d="M13.9593 30.2769C13.9704 30.277 13.9816 30.2772 13.9929 30.2774C14.0274 30.2779 14.0629 30.2784 14.0983 30.2766L16.5725 30.1479C17.624 30.0931 18.6754 30.0383 19.7268 29.9839C20.9352 29.9214 22.1436 29.8593 23.352 29.7973L25.5314 29.6852C25.6695 29.6781 25.6695 29.6781 25.7087 29.5399C25.8952 28.8828 26.0812 28.2257 26.2669 27.5685C26.2751 27.5393 26.2813 27.5097 26.2885 27.4758C26.2904 27.4665 26.2924 27.457 26.2946 27.447L16.1713 25.5529C16.1661 25.562 16.1612 25.5705 16.1566 25.5786C16.1427 25.6029 16.131 25.6232 16.1211 25.6444C15.3997 27.1876 14.6787 28.7312 13.958 30.2749C13.9585 30.2757 13.9589 30.2763 13.9593 30.2769Z" fill="#31AE71"/>
<path d="M44.8198 26.7415C44.8302 26.7404 44.8402 26.7394 44.8498 26.7385C44.8804 26.7355 44.9072 26.7329 44.9335 26.7277C45.0757 26.6997 45.2178 26.6713 45.36 26.6429C45.668 26.5813 45.9866 26.5176 46.3008 26.4591C46.3952 26.4416 46.4359 26.4056 46.451 26.3263C46.4555 26.3033 46.4631 26.2815 46.4706 26.2605C46.4739 26.2508 46.4773 26.2412 46.4804 26.2315L48.4939 19.7984C48.5463 19.6309 48.5982 19.4632 48.6527 19.2867L48.72 19.0694L41.5493 17.8524L44.8198 26.7415Z" fill="#31AE71"/>
<path d="M29.3273 19.2279L30.8281 23.9967C31.0658 24.751 31.3117 25.531 31.5492 26.2995C31.5827 26.4078 31.6317 26.451 31.7434 26.4709C32.0497 26.5254 32.3599 26.5876 32.6599 26.6477C32.7945 26.6747 32.9292 26.7017 33.0639 26.7281C33.0901 26.7332 33.1168 26.7357 33.1474 26.7385C33.157 26.7394 33.167 26.7403 33.1775 26.7414L36.4514 17.8523L29.2803 19.069L29.2927 19.1116C29.3053 19.155 29.3159 19.1916 29.3273 19.2279Z" fill="#31AE71"/>
<path d="M33.8169 47.4819L34.3724 48.0568C34.8941 48.5967 35.4336 49.1548 35.9616 49.7064C36.0359 49.7841 36.1117 49.7999 36.2097 49.7999C36.21 49.7999 36.2102 49.7999 36.2105 49.7999C37.18 49.7988 38.0701 49.7982 38.9036 49.7982C39.9349 49.7982 40.8796 49.7991 41.7824 49.8007C41.8978 49.8004 41.9777 49.7679 42.0555 49.6867C42.5669 49.1527 43.0892 48.6119 43.5942 48.0889L44.1885 47.4731C44.2097 47.4512 44.2295 47.4279 44.252 47.4016C44.2567 47.396 44.2615 47.3904 44.2665 47.3846C44.2597 47.3809 44.2532 47.3772 44.2468 47.3737C44.217 47.3572 44.1905 47.3425 44.1631 47.3297L43.4963 47.0185C43.1141 46.8403 42.7319 46.662 42.3501 46.4829C42.26 46.4407 42.1738 46.3942 42.094 46.3448L41.8058 46.1662C40.8832 45.5947 39.9293 45.0037 38.9943 44.4172C38.8921 44.3531 38.8274 44.3544 38.7278 44.4226C37.8396 45.0304 36.933 45.6434 36.0562 46.2362L35.893 46.3465C35.8111 46.4019 35.7307 46.4482 35.654 46.484C35.245 46.6752 34.8355 46.8651 34.4259 47.0549L33.8682 47.3136C33.8338 47.3296 33.7999 47.3467 33.7605 47.3666L33.728 47.383L33.7501 47.408C33.7754 47.4368 33.7956 47.4598 33.8169 47.4819Z" fill="#31AE71"/>
<path d="M45.0227 47.3212C44.9432 47.3869 44.861 47.4548 44.7887 47.5285C44.6136 47.7069 44.4402 47.8871 44.2668 48.0672C43.9748 48.3707 43.673 48.6844 43.3675 48.9844C43.211 49.1381 43.1644 49.2797 43.1957 49.507C43.3631 50.7253 43.5242 51.9653 43.68 53.1644C43.7389 53.6179 43.7978 54.0713 43.8572 54.5247C44.03 55.8445 44.2036 57.1642 44.3771 58.4839L44.4913 59.3519C44.5099 59.4935 44.529 59.6349 44.5495 59.7861L44.5752 59.9757L48.1478 58.0424C48.0458 57.5398 45.331 47.9103 45.1064 47.2516C45.0786 47.2751 45.0507 47.2982 45.0227 47.3212Z" fill="#31AE71"/>
<path d="M33.7611 57.3975L34.312 53.1049C34.4756 51.8311 34.6392 50.5573 34.8055 49.2838C34.815 49.2108 34.7987 49.1633 34.7454 49.1086C34.5209 48.8786 34.2973 48.6477 34.0736 48.4169C33.7885 48.1226 33.5033 47.8283 33.2165 47.5357C33.1459 47.4637 33.066 47.3979 32.9815 47.3284C32.95 47.3025 32.9176 47.2758 32.8844 47.2478L29.8726 58.0583L33.4195 59.9767C33.421 59.9711 33.4225 59.9656 33.4239 59.9604C33.4312 59.9331 33.4369 59.9114 33.4397 59.8902C33.5473 59.0594 33.6544 58.2285 33.7611 57.3975Z" fill="#31AE71"/>
<path d="M26.229 31.5244C26.2465 31.5195 26.2636 31.5116 26.2818 31.5032L26.2964 31.4966L26.2944 31.4952C26.2957 31.493 26.2965 31.4906 26.2983 31.4863L26.2995 31.4835L25.7056 30.1397C25.6764 30.1396 25.6485 30.1393 25.6216 30.139C25.5564 30.1382 25.495 30.1375 25.4351 30.1404C25.2325 30.15 25.0299 30.1609 24.8273 30.1718C24.6993 30.1786 24.5714 30.1855 24.4434 30.1921L23.1323 30.2591C22.4495 30.2939 21.7667 30.3287 21.084 30.3642C20.1744 30.4114 19.2649 30.4591 18.3554 30.5067L15.4314 30.6593C14.9428 30.6846 14.4542 30.7099 13.9656 30.7357C13.9384 30.7371 13.9112 30.7425 13.8796 30.7489C13.8725 30.7503 13.8653 30.7517 13.8579 30.7532L14.69 34.7459C14.6942 34.7463 14.698 34.7467 14.7016 34.747C14.7125 34.7482 14.7211 34.7491 14.7248 34.748C18.5597 33.674 22.3944 32.5994 26.229 31.5244Z" fill="#31AE71"/>
<path d="M26.2998 31.499L26.303 31.5062L26.3183 31.512V31.512L26.2998 31.499Z" fill="#31AE71"/>
<path d="M52.2956 30.1265L51.686 31.5193L63.3106 34.7334L64.1417 30.741L52.2956 30.1265Z" fill="#31AE71"/>
<path d="M42.5486 46.0799C43.0996 46.3373 43.6512 46.5936 44.2028 46.8498C44.303 46.8963 44.4035 46.942 44.5021 46.9868L44.6186 47.0397C44.8642 46.8777 46.4845 45.5429 46.6541 45.364L42.5496 40.0129L40.9291 40.6632L41.171 41.1256L41.1034 41.1993C41.0674 41.2388 41.0337 41.2757 40.9994 41.3121L40.5075 41.8356C40.1342 42.2326 39.761 42.6296 39.3885 43.0273C39.3615 43.0561 39.3323 43.0843 39.303 43.1126C39.2248 43.1882 39.1439 43.2664 39.109 43.3566C39.0795 43.4332 39.0842 43.5234 39.0891 43.6189C39.0921 43.6761 39.0952 43.7353 39.0904 43.7923C39.0813 43.9021 39.118 43.9677 39.226 44.0341C39.9723 44.4937 40.729 44.964 41.4609 45.4188C41.7635 45.6068 42.066 45.7948 42.3687 45.9826C42.4256 46.0179 42.4861 46.0506 42.5486 46.0799Z" fill="#31AE71"/>
<path d="M33.3641 47.0434L33.3857 47.0354C33.4028 47.0292 33.4149 47.0248 33.4265 47.0194L33.6523 46.9145C34.2596 46.6323 34.867 46.35 35.4737 46.0665C35.5285 46.0409 35.581 46.0063 35.6346 45.9702C36.0188 45.7111 36.4026 45.4513 36.7864 45.1915L37.3836 44.787C37.7599 44.5319 38.1363 44.2767 38.5143 44.0239C38.5917 43.9722 38.62 43.9207 38.6153 43.8402C38.6081 43.7161 38.608 43.5912 38.6152 43.4688C38.6206 43.3763 38.5927 43.2997 38.5219 43.2125C38.1008 42.6938 37.6751 42.1644 37.2634 41.6524L36.9636 41.2795C36.9363 41.2457 36.91 41.2109 36.8832 41.1753L36.8347 41.1116L37.0684 40.6626L35.448 40.0132L31.3281 45.3843L33.3641 47.0434Z" fill="#31AE71"/>
<path d="M51.6952 30.3192C51.7224 30.2574 51.7474 30.1945 51.7725 30.1316L51.7948 30.0757C51.793 30.0716 51.7918 30.0699 51.7901 30.0672L51.7873 30.0626L46.6782 29.1831L47.7177 39.345C49.0441 36.3366 50.3698 33.328 51.6952 30.3192Z" fill="#31AE71"/>
<path d="M30.2805 39.3472C30.3328 38.8345 30.3844 38.3216 30.4359 37.8088C30.5524 36.6502 30.6729 35.4521 30.8006 34.2747C31.0023 32.4154 31.2893 29.5143 31.2897 29.1882L26.1914 30.066L30.2797 39.3472L30.2805 39.3472Z" fill="#31AE71"/>
<path d="M43.1367 31.3506C43.6731 29.737 44.0684 28.4073 44.3809 27.1659C44.4063 27.0649 44.4026 26.9791 44.3688 26.8875C43.946 25.7427 43.5247 24.5973 43.1034 23.4519L42.6655 22.2617C42.6542 22.2311 42.6415 22.201 42.6251 22.1619L42.6173 22.1434L39.2979 28.5864L43.0829 31.4973L43.0961 31.4622C43.1117 31.421 43.1249 31.3861 43.1367 31.3506Z" fill="#31AE71"/>
<path d="M34.9055 31.4713C34.9087 31.4794 34.9121 31.4878 34.9156 31.4967L38.6945 28.5813L38.423 28.054C37.4258 26.1174 36.435 24.1931 35.4439 22.269C35.4274 22.237 35.4088 22.206 35.3902 22.175L35.3782 22.155L35.3678 22.18C35.3545 22.2116 35.3406 22.2445 35.3282 22.2779C35.2894 22.3829 35.2511 22.4881 35.2127 22.5932C35.1797 22.6835 35.1468 22.7738 35.1136 22.864C34.6177 24.2108 34.1218 25.5575 33.6253 26.904C33.6004 26.9714 33.5814 27.033 33.6008 27.104C33.6656 27.3411 33.7285 27.5787 33.7914 27.8164C33.9121 28.2723 34.037 28.7437 34.1736 29.2031C34.3266 29.7179 34.4972 30.2372 34.6621 30.7393C34.7324 30.9534 34.8027 31.1675 34.872 31.3818C34.8811 31.41 34.8921 31.4377 34.9055 31.4713Z" fill="#31AE71"/>
<path d="M44.421 29.3622C44.304 29.3741 44.2544 29.4163 44.2168 29.5359C43.9619 30.3467 43.7002 31.1507 43.5007 31.7606C43.4756 31.8372 43.4819 31.9012 43.5224 31.9814C44.528 33.9758 45.5323 35.9708 46.5365 37.9658L47.2016 39.2871C47.2134 39.3105 47.2257 39.3336 47.2381 39.3567L46.1961 29.1653C46.1805 29.1664 46.1658 29.1673 46.1519 29.1682C46.1115 29.1707 46.0775 29.1729 46.0437 29.1768C45.8853 29.1951 45.7269 29.2138 45.5686 29.2326C45.1927 29.2771 44.8041 29.3232 44.421 29.3622Z" fill="#31AE71"/>
<path d="M33.5953 29.3654C33.3466 29.3402 33.0943 29.3101 32.8503 29.281C32.7328 29.2671 32.6152 29.2531 32.4976 29.2395C32.3372 29.221 32.1768 29.2033 32.0139 29.1852L31.8179 29.1635C31.7258 29.7371 30.8704 38.1839 30.7891 39.2985C30.7932 39.2906 30.7972 39.2826 30.8012 39.2747L32.0704 36.7534C32.8684 35.1684 33.6664 33.5834 34.4667 31.9995C34.5131 31.9077 34.519 31.8305 34.487 31.7329C34.2147 30.9022 33.9805 30.1746 33.771 29.5085C33.7406 29.4117 33.6962 29.3756 33.5953 29.3654Z" fill="#31AE71"/>
<path d="M42.3152 39.6146C42.4108 39.5756 42.4296 39.545 42.4333 39.5337C42.4833 39.3783 42.5246 39.2211 42.5683 39.0548C42.5809 39.0068 42.5936 38.9583 42.6067 38.9092C42.5942 38.909 42.5821 38.9088 42.5704 38.9086C42.5271 38.9079 42.4898 38.9072 42.4532 38.9099C42.1336 38.9329 41.8141 38.9563 41.4946 38.9798C40.861 39.0263 40.2059 39.0743 39.5614 39.1181C39.2823 39.137 39.0097 39.1527 38.7424 39.1356C38.0124 39.089 37.2708 39.0348 36.5535 38.9824C36.2286 38.9586 35.9036 38.9349 35.5786 38.9117C35.535 38.9086 35.4917 38.9093 35.4417 38.9103C35.4282 38.9105 35.4142 38.9108 35.3999 38.9109C35.4121 38.9581 35.4244 39.0043 35.4366 39.0498C35.4719 39.1819 35.5052 39.3066 35.5306 39.4346C35.5511 39.5377 35.5999 39.592 35.7106 39.635C36.185 39.8192 36.6653 40.0114 37.1298 40.1974L37.5269 40.3562C37.5627 40.3704 37.5977 40.3865 37.6362 40.4041L37.7226 40.4431L37.7085 40.4694C37.6811 40.5207 37.6551 40.5711 37.6295 40.6204C37.5701 40.7352 37.514 40.8436 37.4495 40.9483C37.3982 41.0318 37.4039 41.088 37.4718 41.1711C37.7843 41.5536 38.0992 41.9447 38.4037 42.3229C38.5327 42.4831 38.6616 42.6433 38.7908 42.8033C38.8094 42.8264 38.8297 42.8482 38.8558 42.8763C38.8641 42.8852 38.8729 42.8948 38.8825 42.9051C38.888 42.8976 38.8933 42.8902 38.8985 42.8831C38.9217 42.8508 38.9437 42.8204 38.969 42.7931C39.0632 42.6909 39.1587 42.5899 39.254 42.4889L39.5638 42.1596C39.881 41.822 40.1982 41.4844 40.5149 41.1464C40.6018 41.0537 40.6018 41.0537 40.5375 40.9347L40.4947 40.8555C40.4451 40.764 40.3954 40.6724 40.3474 40.58C40.3341 40.5546 40.3246 40.5275 40.3144 40.4988C40.3095 40.4848 40.3043 40.47 40.2982 40.4544L40.2884 40.4288L41.2743 40.0334C41.6216 39.8945 41.9689 39.7557 42.3152 39.6146Z" fill="#31AE71"/>
<path d="M29.0109 19.8079C29.0036 19.7847 28.994 19.7622 28.9844 19.7398L28.9813 19.7325L27.4263 25.2257C27.4338 25.2313 27.4407 25.2366 27.4473 25.2416C27.4665 25.2562 27.482 25.2681 27.4987 25.2779L27.7253 25.4105C28.3214 25.7593 28.9379 26.12 29.5461 26.4713C29.5893 26.4962 29.6525 26.5096 29.712 26.5057C30.0838 26.4823 30.4616 26.4537 30.827 26.426L30.9734 26.415C30.9984 26.4131 31.0238 26.408 31.056 26.4016C31.0651 26.3998 31.0746 26.3979 31.0848 26.3959L31.0529 26.2948C30.3681 24.1189 29.6897 21.9633 29.0109 19.8079Z" fill="#31AE71"/>
<path d="M49.0133 19.7291L46.9277 26.395C46.9354 26.3968 46.9426 26.3985 46.9495 26.4002C46.9771 26.4067 46.9989 26.4119 47.0201 26.4135L47.2101 26.4281C47.5662 26.4554 47.9344 26.4836 48.2969 26.5057C48.3507 26.5087 48.42 26.4915 48.4764 26.4601C49.1209 26.0999 49.7742 25.7299 50.406 25.3721L50.4979 25.32C50.5201 25.3075 50.5411 25.2912 50.5633 25.2739C50.5693 25.2692 50.5753 25.2645 50.5815 25.2598L49.015 19.7293L49.0133 19.7291Z" fill="#31AE71"/>
<path d="M34.8312 38.5102C34.7603 36.8057 34.6819 34.995 34.5846 32.8193C34.5767 32.8288 34.5718 32.8351 34.5688 32.8409C33.354 35.2584 32.1397 37.6759 30.9258 40.0938L34.8312 38.5102Z" fill="#31AE71"/>
<path d="M43.1743 38.5099L47.0789 40.1051L47.0826 40.1013L46.385 38.7145C45.4795 36.9144 44.574 35.1143 43.6681 33.3143C43.6047 33.1884 43.5389 33.0637 43.4732 32.939L43.4126 32.8239L43.1743 38.5099Z" fill="#31AE71"/>
<path d="M31.1972 44.7805C31.2216 44.7507 31.2461 44.7209 31.2695 44.6903C32.0134 43.7218 32.7571 42.753 33.5008 41.7842L34.0051 41.1268C34.3388 40.6917 34.6837 40.2417 35.0254 39.801C35.0921 39.715 35.1065 39.6509 35.0786 39.5645C35.044 39.4575 35.0164 39.3469 34.9896 39.2398C34.9753 39.1826 34.961 39.1254 34.9456 39.0685C34.939 39.0437 34.9291 39.0189 34.9177 38.9903C34.9149 38.9832 34.912 38.9759 34.909 38.9684L30.6821 40.6829L31.1748 44.808L31.1972 44.7805Z" fill="#31AE71"/>
<path d="M46.8119 44.7904C46.8158 44.7946 46.8198 44.7991 46.824 44.8037L47.3146 40.6933L43.0867 38.9648C43.0714 39.0217 43.0568 39.0773 43.0424 39.1319C43.0023 39.2845 42.9643 39.4287 42.9202 39.5718C42.8945 39.6553 42.9075 39.7156 42.968 39.7944C43.9035 41.0103 44.8375 42.2273 45.7715 43.4443L46.7497 44.7188C46.7668 44.7411 46.7859 44.7619 46.8119 44.7904Z" fill="#31AE71"/>
<path d="M31.1071 28.745C31.0934 28.7262 31.0805 28.7084 31.0659 28.6929L30.9311 28.549C30.4516 28.0372 29.9558 27.5081 29.4658 26.9897C29.4197 26.9409 29.3598 26.8952 29.2828 26.85C28.6928 26.5033 28.1015 26.1587 27.5101 25.8141L27.3757 25.7358C27.3565 25.7246 27.3361 25.7155 27.3108 25.7041C27.3051 25.7016 27.2991 25.6989 27.2928 25.696L26.1929 29.5766C26.6241 29.5367 30.6527 28.855 31.1071 28.745Z" fill="#31AE71"/>
<path d="M50.6867 25.7441C50.6649 25.7542 50.643 25.7645 50.6219 25.7764L50.3545 25.9275C49.7933 26.2446 49.232 26.5617 48.6721 26.8814C48.6068 26.9187 48.5501 26.9743 48.5081 27.0187C48.1985 27.3447 47.8905 27.6724 47.5825 28L47.432 28.1602C47.3042 28.296 47.1769 28.4321 47.0431 28.575L46.8755 28.7541C46.8778 28.7547 46.8799 28.7553 46.882 28.7559C46.9041 28.7621 46.9188 28.7663 46.9338 28.769C48.5429 29.0462 50.152 29.3232 51.7612 29.5999C51.7717 29.6017 51.7837 29.6011 51.7965 29.6006L51.7973 29.5997C51.7426 29.2991 50.8135 26.0599 50.6917 25.7417L50.6867 25.7441Z" fill="#31AE71"/>
<path d="M57.3881 14.9529C57.9411 16.1272 58.4945 17.3013 59.0483 18.4751C59.0523 18.476 59.0549 18.4762 59.0593 18.4766L59.0736 18.4779C59.0769 18.4735 59.0804 18.4687 59.0842 18.4638C59.103 18.4385 59.1264 18.407 59.1535 18.3784C59.4489 18.0658 59.7448 17.7536 60.0407 17.4414L60.5732 16.8793C61.0684 16.3564 61.5635 15.8333 62.0575 15.3092C62.0651 15.3012 62.0734 15.2934 62.0818 15.2855C62.1076 15.2613 62.1306 15.2398 62.1383 15.2058L57.3584 14.8735C57.3607 14.88 57.3628 14.8861 57.3648 14.8918C57.374 14.918 57.3801 14.9359 57.3881 14.9529Z" fill="#31AE71"/>
<path d="M18.9884 18.4079L19.144 18.0782C19.276 17.7986 19.4077 17.5197 19.5389 17.2405L19.5644 17.1861C19.7419 16.8083 19.9194 16.4305 20.0949 16.0517C20.1529 15.9265 20.2124 15.802 20.2721 15.6768C20.3946 15.4204 20.521 15.1556 20.6376 14.8785L15.8965 15.2049C16.1984 15.562 18.6847 18.1384 18.9884 18.4079Z" fill="#31AE71"/>
<path d="M33.5857 28.9147C33.5857 28.9117 33.5856 28.9089 33.5856 28.9062C33.5853 28.892 33.5852 28.8834 33.5837 28.8776V28.8776L33.4517 28.3844C33.3536 28.0184 33.2556 27.6525 33.1597 27.286C33.1415 27.2165 33.1024 27.1964 33.0367 27.1835C32.714 27.1201 32.3914 27.0556 32.0688 26.9912C31.8373 26.9449 31.6058 26.8986 31.3742 26.8528C31.3225 26.8426 31.2784 26.8389 31.2392 26.8418C30.8618 26.8688 30.4845 26.8982 30.1072 26.9278C30.0951 26.9288 30.0824 26.9322 30.0654 26.9369C30.0672 26.9393 30.0688 26.9416 30.0705 26.9439C30.0868 26.9664 30.0997 26.9842 30.1143 26.9999L30.6148 27.5327C30.9555 27.8951 31.2962 28.2575 31.6357 28.621C31.6837 28.6724 31.7365 28.698 31.8123 28.7065C32.1208 28.7411 33.5857 28.9147 33.5857 28.9147ZM32.0531 28.4293C31.6208 28.4293 31.4239 28.0934 31.4239 27.7812C31.4239 27.606 31.4819 27.4418 31.5873 27.3187C31.7066 27.1794 31.8753 27.1057 32.0753 27.1057C32.5077 27.1057 32.7046 27.4417 32.7046 27.7539C32.7046 28.0895 32.4808 28.4293 32.0531 28.4293Z" fill="#31AE71"/>
<path d="M46.3683 28.6112C46.6794 28.2795 46.9908 27.9483 47.3024 27.617L47.8689 27.0143C47.8868 26.9952 47.9035 26.9749 47.9254 26.9482C47.9288 26.9441 47.9323 26.9398 47.936 26.9354L47.9138 26.9328C47.8754 26.9283 47.8457 26.9249 47.8159 26.9226L47.5853 26.9047C47.3474 26.8861 47.1014 26.867 46.8593 26.8525C46.7409 26.8456 46.6397 26.8505 46.5499 26.8677C46.3044 26.9148 46.0593 26.9641 45.8142 27.0135C45.5414 27.0684 45.2592 27.1252 44.9809 27.1779C44.8888 27.1953 44.8514 27.2314 44.8269 27.3267C44.7398 27.6653 44.6471 28.0084 44.5575 28.3402C44.5165 28.4917 44.4756 28.6431 44.435 28.7947C44.4273 28.8238 44.4221 28.8536 44.4165 28.8859C44.4153 28.8933 44.414 28.9008 44.4126 28.9084C44.4132 28.9085 44.4138 28.9086 44.4144 28.9087C44.4294 28.911 44.4403 28.9126 44.4493 28.9116C44.4981 28.9058 45.8384 28.7464 46.2125 28.7036C46.2773 28.6962 46.3187 28.6641 46.3683 28.6112ZM45.3068 27.7811C45.3068 27.4454 45.5306 27.1056 45.9583 27.1056C46.3906 27.1056 46.5875 27.4416 46.5875 27.7538C46.5875 28.0895 46.3638 28.4292 45.9361 28.4292C45.5037 28.4292 45.3068 28.0933 45.3068 27.7811Z" fill="#31AE71"/>
<path d="M16.0489 16.4934C16.2347 17.0571 16.4205 17.6208 16.6037 18.1853C16.627 18.2569 16.6667 18.2976 16.7456 18.3303C17.1423 18.4947 17.5385 18.6605 17.9348 18.8262L18.5463 19.0818C18.5709 19.0921 18.5965 19.1002 18.6258 19.1096C18.6343 19.1123 18.6431 19.1151 18.6523 19.1182L18.769 18.881L18.5565 18.6611C17.6579 17.7312 16.766 16.8082 15.874 15.8855C15.8627 15.8738 15.8507 15.8629 15.8384 15.8523C15.8389 15.8552 15.8396 15.858 15.8404 15.8606L16.0489 16.4934Z" fill="#31AE71"/>
<path d="M59.3439 19.1254L59.4021 19.1019C59.4537 19.0811 59.4993 19.0627 59.5447 19.0438L60.0004 18.8528C60.4025 18.6841 60.8183 18.5097 61.2288 18.3419C61.3245 18.3028 61.3742 18.2489 61.4063 18.1496C61.571 17.6401 61.7415 17.1232 61.9064 16.6232L62.1097 16.0059C62.1205 15.9729 62.1295 15.9393 62.1385 15.9058L62.1406 15.8979L59.2583 18.9416L59.3439 19.1254Z" fill="#31AE71"/>
<defs>
<filter id="filter0_d" x="0" y="0" width="78" height="78" filterUnits="userSpaceOnUse" color-interpolation-filters="sRGB">
<feFlood flood-opacity="0" result="BackgroundImageFix"/>
<feColorMatrix in="SourceAlpha" type="matrix" values="0 0 0 0 0 0 0 0 0 0 0 0 0 0 0 0 0 0 127 0"/>
<feOffset dy="4"/>
<feGaussianBlur stdDeviation="2"/>
<feColorMatrix type="matrix" values="0 0 0 0 0 0 0 0 0 0 0 0 0 0 0 0 0 0 0.25 0"/>
<feBlend mode="normal" in2="BackgroundImageFix" result="effect1_dropShadow"/>
<feBlend mode="normal" in="SourceGraphic" in2="effect1_dropShadow" result="shape"/>
</filter>
</defs>
</svg>
