<svg width="78" height="78" viewBox="0 0 78 78" fill="none" xmlns="http://www.w3.org/2000/svg">
<g filter="url(#filter0_d)">
<circle cx="39" cy="35" r="35" fill="#CFCFCF"/>
</g>
<path d="M27.8389 35.6327C27.8389 37.966 26.1478 39.7654 24.1694 39.7654C22.1911 39.7654 20.5 37.966 20.5 35.6327C20.5 33.2994 22.1911 31.5 24.1694 31.5C26.1478 31.5 27.8389 33.2994 27.8389 35.6327Z" fill="#C4C4C4" stroke="black"/>
<path d="M18.9586 38.0881C28.0507 30.1445 39.8664 29.0227 49.7194 35.9306C52.2755 37.7227 54.3119 40.062 55.112 42.4854C55.5098 43.6902 55.6007 44.9096 55.3085 46.1006C55.0166 47.2907 54.3345 48.4843 53.1361 49.6264C50.7411 51.9088 47.1125 52.8769 43.8629 53.2584C41.1993 53.5711 38.8803 53.4831 37.7916 53.4417C37.5554 53.4327 37.3771 53.426 37.2658 53.426C36.7024 53.426 30.6086 53.253 24.3654 52.7904C21.2442 52.5591 18.0977 52.2563 15.592 51.8685C14.338 51.6744 13.2566 51.4609 12.4239 51.2279C12.0075 51.1114 11.6631 50.9927 11.3949 50.8736C11.1195 50.7513 10.9575 50.6428 10.8762 50.5615C10.4882 50.1735 10.3762 49.5391 10.6522 48.5719C10.9256 47.6141 11.5484 46.4621 12.4094 45.223C14.1263 42.7523 16.7012 40.0604 18.9586 38.0881Z" fill="#C4C4C4" stroke="black"/>
<path d="M55.3335 42.5759C55.3335 42.5759 60.1978 45.8187 60.8927 39.1013C61.5876 32.3839 69.4632 35.3952 66.2204 29.6043C62.9775 23.8134 56.7293 26.2048 56.26 20.3389C55.7091 13.4527 60.8927 12 60.8927 12" stroke="black" stroke-linecap="round" stroke-linejoin="round"/>
<circle cx="20.3566" cy="44.1973" r="0.889812" fill="#C4C4C4" stroke="black"/>
<ellipse cx="24.5" cy="36" rx="3.5" ry="4" fill="#C4C4C4"/>
<defs>
<filter id="filter0_d" x="0" y="0" width="78" height="78" filterUnits="userSpaceOnUse" color-interpolation-filters="sRGB">
<feFlood flood-opacity="0" result="BackgroundImageFix"/>
<feColorMatrix in="SourceAlpha" type="matrix" values="0 0 0 0 0 0 0 0 0 0 0 0 0 0 0 0 0 0 127 0"/>
<feOffset dy="4"/>
<feGaussianBlur stdDeviation="2"/>
<feColorMatrix type="matrix" values="0 0 0 0 0 0 0 0 0 0 0 0 0 0 0 0 0 0 0.25 0"/>
<feBlend mode="normal" in2="BackgroundImageFix" result="effect1_dropShadow"/>
<feBlend mode="normal" in="SourceGraphic" in2="effect1_dropShadow" result="shape"/>
</filter>
</defs>
</svg>
