<svg width="78" height="78" viewBox="0 0 78 78" fill="none" xmlns="http://www.w3.org/2000/svg">
<g filter="url(#filter0_d)">
<circle cx="39" cy="35" r="35" fill="#101010"/>
</g>
<g filter="url(#filter1_d)">
<circle cx="39" cy="35" r="35" fill="#101010"/>
</g>
<mask id="path-3-outside-1" maskUnits="userSpaceOnUse" x="11" y="15" width="39" height="38" fill="black">
<rect fill="white" x="11" y="15" width="39" height="38"/>
<path d="M47.9825 24.3815C45.7918 21.1828 42.5647 18.7028 38.7597 17.2939C34.9548 15.8851 30.7655 15.619 26.7874 16.5336C22.8092 17.4481 19.2445 19.4968 16.5999 22.3884C13.9552 25.28 12.3652 28.8675 12.0557 32.641C11.7461 36.4146 12.7329 40.1821 14.8758 43.4084C17.0186 46.6346 20.2085 49.1553 23.9921 50.6124C27.7758 52.0694 31.9606 52.3886 35.952 51.5246C39.9434 50.6606 43.5383 48.6574 46.2258 45.7996L31.5 34L47.9825 24.3815Z"/>
</mask>
<path d="M47.9825 24.3815C45.7918 21.1828 42.5647 18.7028 38.7597 17.2939C34.9548 15.8851 30.7655 15.619 26.7874 16.5336C22.8092 17.4481 19.2445 19.4968 16.5999 22.3884C13.9552 25.28 12.3652 28.8675 12.0557 32.641C11.7461 36.4146 12.7329 40.1821 14.8758 43.4084C17.0186 46.6346 20.2085 49.1553 23.9921 50.6124C27.7758 52.0694 31.9606 52.3886 35.952 51.5246C39.9434 50.6606 43.5383 48.6574 46.2258 45.7996L31.5 34L47.9825 24.3815Z" fill="white"/>
<path d="M47.9825 24.3815C45.7918 21.1828 42.5647 18.7028 38.7597 17.2939C34.9548 15.8851 30.7655 15.619 26.7874 16.5336C22.8092 17.4481 19.2445 19.4968 16.5999 22.3884C13.9552 25.28 12.3652 28.8675 12.0557 32.641C11.7461 36.4146 12.7329 40.1821 14.8758 43.4084C17.0186 46.6346 20.2085 49.1553 23.9921 50.6124C27.7758 52.0694 31.9606 52.3886 35.952 51.5246C39.9434 50.6606 43.5383 48.6574 46.2258 45.7996L31.5 34L47.9825 24.3815Z" stroke="#C4C4C4" stroke-width="2" mask="url(#path-3-outside-1)"/>
<circle cx="35.5" cy="23.5" r="3.25" fill="#101010" stroke="#C4C4C4" stroke-width="0.5"/>
<circle cx="47.5" cy="34.5" r="3.5" fill="#C4C4C4"/>
<circle cx="57.5" cy="34.5" r="3.5" fill="#C4C4C4"/>
<circle cx="67.5" cy="34.5" r="3.5" fill="#C4C4C4"/>
<defs>
<filter id="filter0_d" x="0" y="0" width="78" height="78" filterUnits="userSpaceOnUse" color-interpolation-filters="sRGB">
<feFlood flood-opacity="0" result="BackgroundImageFix"/>
<feColorMatrix in="SourceAlpha" type="matrix" values="0 0 0 0 0 0 0 0 0 0 0 0 0 0 0 0 0 0 127 0"/>
<feOffset dy="4"/>
<feGaussianBlur stdDeviation="2"/>
<feColorMatrix type="matrix" values="0 0 0 0 0 0 0 0 0 0 0 0 0 0 0 0 0 0 0.25 0"/>
<feBlend mode="normal" in2="BackgroundImageFix" result="effect1_dropShadow"/>
<feBlend mode="normal" in="SourceGraphic" in2="effect1_dropShadow" result="shape"/>
</filter>
<filter id="filter1_d" x="0" y="0" width="78" height="78" filterUnits="userSpaceOnUse" color-interpolation-filters="sRGB">
<feFlood flood-opacity="0" result="BackgroundImageFix"/>
<feColorMatrix in="SourceAlpha" type="matrix" values="0 0 0 0 0 0 0 0 0 0 0 0 0 0 0 0 0 0 127 0"/>
<feOffset dy="4"/>
<feGaussianBlur stdDeviation="2"/>
<feColorMatrix type="matrix" values="0 0 0 0 0 0 0 0 0 0 0 0 0 0 0 0 0 0 0.25 0"/>
<feBlend mode="normal" in2="BackgroundImageFix" result="effect1_dropShadow"/>
<feBlend mode="normal" in="SourceGraphic" in2="effect1_dropShadow" result="shape"/>
</filter>
</defs>
</svg>
