<svg width="78" height="78" viewBox="0 0 78 78" fill="none" xmlns="http://www.w3.org/2000/svg">
<g filter="url(#filter0_d)">
<circle cx="39" cy="35" r="35" fill="#636363"/>
</g>
<path d="M48.0809 47.8164C48.6437 47.5235 49.2279 47.2724 49.7568 46.9161C49.1971 45.858 49.3747 44.7187 49.3472 43.5741C48.8791 43.2664 48.406 42.9587 47.9819 42.5544C47.1197 43.2441 46.1095 43.6421 45.1182 44.1156C45.2097 45.2547 45.2037 46.5435 46.322 47.177C46.8385 47.543 47.3888 48.2617 48.0809 47.8164Z" fill="#FBB040"/>
<path d="M46.1561 52.4527C46.631 52.0163 46.8719 51.4178 47.1691 50.8705C47.5744 50.2098 47.2473 49.1882 47.3256 48.4199C46.4958 48.0716 45.8461 47.4076 45.176 46.8165C44.4068 47.2964 43.6056 47.6752 42.7539 47.9571C42.9786 48.8303 42.7084 50.7469 43.3342 51.2785C44.1198 51.8646 44.9194 52.4962 45.8574 52.8076C45.962 52.6822 46.0502 52.5588 46.1561 52.4527Z" fill="#F4CD36"/>
<path d="M42.5962 51.2449C42.4594 50.1564 42.3317 49.0754 42.3085 47.9856C41.4151 47.7672 40.5384 47.3848 39.6369 47.2269C39.031 47.7052 38.4939 48.4022 37.6953 48.4694C38.2169 51.7848 38.329 51.3076 41.0342 52.97C41.4597 52.2762 42.0239 51.7376 42.5962 51.2449Z" fill="#FBB040"/>
<path d="M34.5818 35.777C34.5673 35.5127 34.52 35.2504 34.4874 34.9867C32.1074 34.742 32.0158 36.0254 31.146 35.1686C30.7636 37.2592 29.9816 38.294 32.2643 39.468C32.9787 38.7102 33.938 38.3452 34.7626 37.7502C34.5682 37.1185 34.6107 36.4329 34.5818 35.777Z" fill="#FBB040"/>
<path d="M36.773 56.2126C37.3827 56.499 37.9487 56.9051 38.583 57.1339C39.2005 56.5271 40.0288 55.8819 40.9402 55.9468C40.3308 53.1996 41.5728 53.7917 39.7008 52.729C39.1898 52.3229 38.5315 52.1527 38.1122 51.6333C37.5114 52.2603 36.4673 52.6154 36.4417 53.5824C36.3956 54.4119 36.5707 55.2196 36.6333 56.038C36.6407 56.1359 36.6876 56.1754 36.773 56.2126Z" fill="#F4CD36"/>
<path d="M44.55 34.8122C44.4409 35.6197 44.3446 36.4292 44.3398 37.2451C44.3998 38.0346 45.5641 37.5559 46.0831 37.7349C46.7562 37.837 47.2047 38.3471 47.8687 38.4921C47.984 37.54 47.8519 36.5447 47.9916 35.6067C47.3008 35.1526 46.8176 34.5336 46.1924 34.0244C45.7171 34.4375 45.188 34.644 44.5833 34.6686C44.5713 34.7194 44.5558 34.7653 44.55 34.8122Z" fill="#FBB040"/>
<path d="M48.381 38.6543C48.6928 38.7351 49.8915 38.3689 49.8431 38.0064C49.7892 37.1222 49.5211 36.2828 49.2423 35.4435C48.9385 35.5326 48.6538 35.6163 48.3721 35.6989C48.495 36.6835 48.4068 37.6548 48.381 38.6543Z" fill="#F4CD36"/>
<path d="M42.422 33.3534C43.445 33.8258 45.1426 34.7965 45.907 33.4794C46.0918 33.0649 46.0343 31.5641 45.6628 31.3113C44.9092 30.9122 44.2671 30.3094 43.4082 30.1217C42.6018 29.759 42.0343 30.4309 41.4023 30.8329C41.0867 31.4411 41.1419 32.2357 40.9565 32.9367C41.4499 33.1041 41.9498 33.1331 42.422 33.3534Z" fill="#F4CD36"/>
<path d="M40.7145 33.484C40.2997 33.968 39.6251 34.0963 39.0522 34.3594C39.244 35.2714 39.6588 36.1591 39.5921 37.1052C39.5629 37.4185 39.5108 37.3836 39.8456 37.5171C40.9007 37.9108 41.748 38.902 42.9541 38.8265C43.4359 38.7327 43.6555 38.1588 44.0302 37.8488C43.5931 36.8396 43.9934 35.6408 44.1418 34.5917C42.9959 34.2631 41.9786 33.5697 40.7682 33.4152C40.756 33.4309 40.7341 33.4567 40.7145 33.484Z" fill="#FBB040"/>
<path d="M46.3905 33.5608C47.2569 34.0665 47.8853 35.6739 49.0369 34.9659C48.6293 33.4605 47.7192 32.3693 46.3711 31.6177C46.4591 32.2726 46.647 32.9174 46.3905 33.5608Z" fill="#FBB040"/>
<path d="M34.6802 44.1112C34.7943 45.1137 35.0224 46.0907 34.8959 47.1101C35.9427 47.2596 37.0372 48.2179 38.0666 47.868C38.4301 47.502 39.0948 47.2868 39.2397 46.7743C39.262 45.6004 39.318 44.433 39.3178 43.2581C38.6281 43.0055 37.9453 42.9289 37.4919 42.2942C36.6016 42.9946 35.6825 43.6299 34.6802 44.1112Z" fill="#F4CD36"/>
<path d="M33.8246 51.6153C34.2828 52.4079 35.1977 52.7495 35.9911 53.086C36.3108 52.2393 37.178 51.8578 37.8243 51.2436C37.4932 50.3394 37.3568 49.3755 37.1817 48.4066C36.6372 48.3004 36.1562 48.0421 35.6541 47.8395C35.2926 47.7873 34.9632 47.6744 34.6625 47.4037C34.3322 47.8495 33.8833 48.1345 33.3975 48.3804C33.5244 49.0413 33.7213 49.6499 33.7166 50.3208C33.7585 50.7451 33.6147 51.2291 33.8246 51.6153Z" fill="#FBB040"/>
<path d="M45.6441 53.2826C44.6202 52.8234 43.7154 52.2451 42.8966 51.553C41.2328 53.2045 40.8566 53.7587 41.5343 56.135C41.5731 56.2718 41.687 56.2759 41.7994 56.314C42.4372 56.4933 43.0452 56.7502 43.663 56.99C44.3237 56.3501 44.756 55.5745 45.1855 54.7768C45.4514 54.0838 44.8906 54.3698 45.6441 53.2826Z" fill="#FBB040"/>
<path d="M34.176 47.2172C34.7922 46.7866 34.157 44.7966 34.1937 44.0377C33.4592 43.632 32.8337 43.1457 32.4201 42.3982C31.7015 43.0446 30.9803 43.6293 30.0381 43.8403C30.1189 44.8648 30.3177 45.8179 30.3795 46.8457C30.9294 47.1462 31.5583 47.2687 32.056 47.6531C32.763 48.4265 33.595 47.8267 34.176 47.2172Z" fill="#FBB040"/>
<path d="M48.2733 39.1438C48.1965 39.9244 48.1754 40.7077 48.1316 41.4909C48.09 42.2362 48.8258 42.6164 49.3466 42.9971C49.8049 43.4241 50.365 42.9386 50.837 42.7654C51.0844 42.6828 50.9875 42.3817 51.0879 42.18C51.6356 40.911 50.6411 39.7082 50.0536 38.6302C49.4797 38.9206 48.9417 39.2552 48.2733 39.1438Z" fill="#FBB040"/>
<path d="M47.8143 38.9953C47.2795 38.8834 46.8637 38.571 46.3807 38.3428C45.7479 38.0485 45.0398 38.3083 44.3857 38.1053C44.0441 38.8138 43.1317 39.1538 42.9969 39.9325C42.8527 42.3449 42.8211 41.9491 44.6895 43.5293C45.0849 43.91 47.2956 42.4251 47.7622 42.1329C47.4901 41.1125 47.7197 40.0309 47.8143 38.9953Z" fill="#F4CD36"/>
<path d="M41.3863 38.9084C40.7043 38.6097 40.1313 38.1036 39.4209 37.8678C39.0043 38.3324 38.3488 38.7976 37.7124 39.0782C37.6692 39.8508 37.6444 40.6016 37.6293 41.3702C37.5917 41.6924 38.3014 42.9425 39.8113 42.9297C40.8122 42.9212 41.6335 42.3115 42.4408 41.8796C42.491 41.0244 42.4056 40.1585 42.6257 39.3229C42.2014 39.2614 41.7466 39.1665 41.3863 38.9084Z" fill="#FBB040"/>
<path d="M42.122 42.6549C41.4321 43.0945 40.6642 43.5432 39.8125 43.458C39.7914 44.5802 39.7709 45.6729 39.7505 46.7746C42.5223 47.3363 42.1644 48.0692 44.9285 46.3993C44.832 45.609 44.6038 44.8871 44.6656 44.0925C43.8807 43.6378 43.2785 42.9686 42.6376 42.3412C42.4603 42.4489 42.2906 42.551 42.122 42.6549Z" fill="#FBB040"/>
<path d="M31.9285 48.1628C31.4317 47.7348 30.777 47.5871 30.1892 47.3099C29.9557 47.9039 29.0462 48.4278 29.0342 48.8085C29.2774 49.7575 29.6478 50.6654 29.939 51.5999C30.1971 52.4985 31.1261 52.7221 31.9027 53.011C33.8443 51.2823 33.2611 50.2647 32.927 48.5549C32.5345 48.5867 32.2268 48.398 31.9285 48.1628Z" fill="#F4CD36"/>
<path d="M37.1767 40.081C37.1866 39.7762 37.2114 39.4701 37.2102 39.1651C36.3327 39.0721 36.0128 38.9438 35.0573 38.1179C34.2478 38.82 32.746 39.1492 32.4647 40.2654C32.3326 41.2307 32.6544 42.1128 33.3238 42.8121C33.7299 43.1362 34.2749 43.8097 34.8387 43.4966C35.6804 43.0027 36.4728 42.4823 37.2428 41.8697C37.0244 41.3008 37.1864 40.6744 37.1767 40.081Z" fill="#FBB040"/>
<path d="M49.8343 53.3585C49.7998 53.0537 49.7779 52.7474 49.7489 52.4252C49.1453 52.4362 48.7503 52.0007 48.2837 51.688C48.028 51.5252 47.7683 51.3729 47.6097 51.0643C47.2018 52.1588 46.2974 52.8863 45.8343 53.9384C45.4718 54.4654 46.1864 55.0026 46.5342 55.3361C46.8833 55.6412 47.1958 55.989 47.5229 56.3165C47.7172 56.5273 47.9082 56.2556 48.0942 56.1737C48.7679 55.8547 49.2926 55.3177 49.8932 54.8864C50.1563 54.4919 49.8052 53.832 49.8343 53.3585Z" fill="#FBB040"/>
<path d="M47.3646 57.2112C47.3869 56.4408 46.0479 55.6962 45.5502 55.0875C45.2076 55.8065 44.8168 56.5086 44.2437 57.075C44.0269 57.2877 43.9072 57.5531 43.8992 57.8655C43.9556 58.4432 43.6683 59.1465 44.0009 59.6505C45.0978 60.6194 46.4193 59.4608 47.3358 58.7569C47.6233 58.4915 47.2581 57.6467 47.3646 57.2112Z" fill="#F4CD36"/>
<path d="M42.4409 60.871C43.1054 60.8599 43.7055 60.7503 44.2478 60.4C44.0327 60.2589 43.8225 60.121 43.6262 59.9921C43.2256 60.289 42.8458 60.5707 42.4409 60.871Z" fill="#FBB040"/>
<path d="M43.2921 59.568C43.4618 58.8986 43.3568 58.1501 43.4264 57.4357C42.6547 57.08 41.8235 56.8927 41.0566 56.5286C40.8346 56.3992 40.5835 56.3901 40.3446 56.5059C39.0471 57.0595 38.7413 57.5586 38.9678 58.9695C39.1439 59.8313 40.7069 60.5832 41.467 60.9436C42.0612 60.4708 42.7669 60.1192 43.2921 59.568Z" fill="#FBB040"/>
<path d="M39.7515 60.5549C39.5447 60.4111 39.3388 60.2656 39.1179 60.1104C38.7926 60.452 38.4648 60.7963 38.1079 61.1712C39.0344 61.2045 39.908 61.396 40.8239 61.2322C40.4463 60.954 40.1258 60.7688 39.7515 60.5549Z" fill="#FBB040"/>
<path d="M47.8179 56.9058C47.9094 57.3158 47.7842 57.7451 47.9365 58.1857C48.2223 57.7289 48.678 57.4942 48.9496 57.0416C49.2096 56.5865 49.4625 56.1277 49.7244 55.6736C49.7122 55.6596 49.7002 55.6455 49.688 55.6315C49.1645 56.193 48.4846 56.5154 47.8179 56.9058Z" fill="#F4CD36"/>
<path d="M38.7886 59.7536C38.3125 59.1706 38.4214 58.3731 38.4607 57.6702C37.7313 57.2999 37.0849 56.8588 36.3103 56.5649C35.8184 57.0233 34.9039 57.2912 34.8779 58.0633C34.9957 58.7736 34.5702 59.7782 35.1441 60.3097C35.7492 60.7123 36.4829 60.8611 37.1909 60.9659C37.9157 60.9969 38.2759 60.1527 38.7886 59.7536Z" fill="#FBB040"/>
<path d="M51.146 43.3395C51.1326 43.2963 51.1115 43.2556 51.0896 43.2037C50.6662 43.4034 50.2638 43.6204 49.7998 43.6851C49.9203 45.1935 49.513 46.9029 51.373 47.4301C51.9225 46.1088 51.5412 44.6508 51.146 43.3395Z" fill="#F4CD36"/>
<path d="M50.2207 52.4099C50.3025 53.0919 50.3862 53.7884 50.4722 54.5051C51.1672 53.709 51.3764 52.8007 51.2604 51.8C50.9174 52.0013 50.5743 52.2026 50.2207 52.4099Z" fill="#FBB040"/>
<path d="M51.285 48.1053C51.2521 47.7806 50.3684 47.5566 50.0783 47.2875C49.37 47.7618 48.5981 48.135 47.8022 48.4692C47.9711 49.9702 47.3639 50.6983 48.9445 51.5587C49.5292 52.1849 50.3897 51.9021 50.9434 51.3859C51.3923 51.0831 51.2842 50.5739 51.3015 50.0979C51.3367 49.4331 51.3309 48.7693 51.285 48.1053Z" fill="#FBB040"/>
<path d="M35.7601 32.4546C36.3217 32.9457 37.1601 32.9033 37.7605 33.3582C38.1583 33.6233 38.5768 34.0247 39.09 33.819C40.9832 33.172 40.3876 32.6315 40.7916 30.9276C38.3389 29.8787 37.5017 28.6443 35.3906 31.1911C35.5084 31.573 35.4921 32.1031 35.7601 32.4546Z" fill="#FBB040"/>
<path d="M36.1413 56.0781C36.0817 55.25 35.8844 54.4444 35.9518 53.6217C34.9829 53.2263 34.008 52.8095 33.4062 51.9163C32.6341 53.2865 31.7973 53.1424 32.2247 54.9834C32.3285 55.4815 32.3198 56.2075 32.718 56.5396C33.3475 56.7725 33.9289 57.1321 34.5154 57.4626C34.9021 56.8333 35.5901 56.5398 36.1413 56.0781Z" fill="#FBB040"/>
<path d="M28.7863 38.2723C29.2596 38.1473 29.7436 38.1398 30.2247 38.1572C30.215 37.2357 30.3671 35.7067 30.8044 34.9249C30.6211 34.7336 30.4568 34.562 30.291 34.389C29.3709 35.4904 28.7642 36.7903 28.7266 38.2372C28.7528 38.2531 28.7731 38.2758 28.7863 38.2723Z" fill="#FBB040"/>
<path d="M27.9582 42.194C29.4846 44.097 30.5948 43.3604 32.1498 41.9933C31.9026 41.2925 31.8968 40.6101 32.019 39.9198C31.4913 39.5356 30.8453 39.2083 30.495 38.6424C30.0331 38.6515 29.6318 38.6071 29.1971 38.6949C28.9768 38.7511 28.7638 38.8274 28.5329 38.7036C28.1254 39.8194 27.6998 41.0052 27.9582 42.194Z" fill="#F4CD36"/>
<path d="M31.7337 34.996C32.2076 34.779 32.6542 34.5091 33.1839 34.5045C33.5643 34.4258 34.0322 34.6085 34.3666 34.3991C35.4452 33.5551 34.6832 32.4688 34.7305 31.37C34.02 31.5289 33.2543 31.2609 32.5996 31.6936C31.5435 32.1336 31.1381 32.9694 30.5786 33.8787C30.8967 34.3214 31.2931 34.663 31.7337 34.996Z" fill="#FBB040"/>
<path d="M34.3716 59.3928C34.3725 58.9065 34.372 58.4202 34.372 57.9131C33.2914 57.3933 31.5147 55.9235 30.9062 57.763C31.3212 58.0869 31.4142 58.5705 31.6248 59.0117C32.1713 60.0628 33.5855 60.1515 34.6 60.5117C34.3332 60.1748 34.3613 59.783 34.3716 59.3928Z" fill="#F4CD36"/>
<path d="M27.4071 48.1078C27.7464 48.2859 28.273 48.6995 28.6312 48.394C28.8951 48.0224 29.301 47.7852 29.5448 47.3977C30.2841 46.3761 29.512 45.0028 29.5417 43.8424C28.7669 43.7713 28.3166 43.2214 27.7915 42.7194C27.0287 44.0114 26.2423 46.9252 27.4071 48.1078Z" fill="#FBB040"/>
<path d="M31.0767 56.6567C31.3613 56.4926 31.6504 56.338 32.0069 56.3041C31.749 55.3773 31.5475 54.4204 31.6729 53.4598C31.074 53.2244 30.4871 53.0297 29.9725 52.6249C29.5695 53.2188 29.2072 53.9575 28.5591 54.2918C28.9929 55.4634 29.3539 56.7375 30.4815 57.4387C30.6846 57.1742 30.7735 56.8316 31.0767 56.6567Z" fill="#FBB040"/>
<path d="M34.9709 34.9512C35.2641 35.8628 34.801 36.9999 35.4272 37.7768C36.158 38.5919 37.4159 39.0155 38.2999 38.193C38.5756 37.9473 39.0031 37.7821 39.0682 37.3802C39.2288 36.3708 38.7971 35.3941 38.5373 34.4362C38.3705 34.1932 37.9696 34.1901 37.7598 33.9456C37.0739 33.3578 36.1032 33.3878 35.4086 32.8281C35.8108 33.7769 34.8363 34.1281 34.9709 34.9512Z" fill="#F4CD36"/>
<path d="M29.4997 52.4201C29.7984 51.8611 28.6375 49.8459 28.6065 49.0454C28.0215 48.9651 27.5645 48.8001 27.0483 48.4889C26.7533 49.861 27.2349 51.1284 27.6681 52.4056C27.8751 52.9318 27.8255 53.5874 28.2176 54.0162C28.7169 53.5574 29.2114 53.0459 29.4997 52.4201Z" fill="#FBB040"/>
<path d="M40.3774 20.9792C40.4284 20.8621 40.4146 20.7348 40.3563 20.6504C40.2375 20.4785 40.1992 20.2836 40.1428 20.0939C40.0438 19.7609 39.8975 19.4485 39.7008 19.1676C39.356 18.6755 39.0039 18.1872 38.6244 17.722C38.2816 17.3014 37.9559 16.8643 37.5469 16.4981C36.9281 15.9442 36.3275 15.3709 35.7859 14.7385C35.5751 14.4924 35.3754 14.2423 35.2494 13.9406C35.2376 13.9123 35.2144 13.8887 35.1777 13.8358C35.1619 13.9234 35.146 13.9778 35.1431 14.0328C35.1002 14.8404 35.1706 15.639 35.4215 16.4082C35.7406 17.387 36.0893 18.3562 36.4301 19.328C36.489 19.4962 36.5598 19.6628 36.646 19.8184C36.9783 20.4181 37.2604 21.0454 37.6566 21.6104C37.9439 22.02 38.2018 22.4501 38.4816 22.8651C38.7303 23.2334 39.0374 23.5533 39.362 23.916C39.397 23.8054 39.4195 23.7391 39.4389 23.6719C39.6503 22.9362 39.8667 22.2023 40.1715 21.4978C40.2455 21.3273 40.3032 21.1497 40.3774 20.9792Z" fill="#6FBE44"/>
<path d="M40.8136 12.3988C41.16 13.0341 41.458 13.6923 41.7325 14.3615C41.7641 14.4388 41.8067 14.5117 41.8468 14.5919C41.873 14.5686 41.8862 14.5613 41.8926 14.5502C42.319 13.8047 42.7449 13.0589 43.1703 12.3128C43.1913 12.2758 43.2168 12.2369 43.2221 12.1964C43.2521 11.9695 43.2957 11.7422 43.2992 11.5144C43.3098 10.8411 43.2986 10.1676 43.306 9.49427C43.3114 8.9931 43.3267 8.49193 43.3476 7.99097C43.3732 7.37573 43.4019 6.76027 43.4431 6.14585C43.4736 5.68912 43.5257 5.23383 43.5697 4.77793C43.5774 4.69919 43.5927 4.62127 43.6047 4.54315C43.5908 4.53737 43.577 4.53158 43.5629 4.526C43.3864 4.7399 43.2011 4.94698 43.0351 5.16894C42.6143 5.73128 42.2314 6.31842 41.9048 6.94131C41.4915 7.72954 41.1238 8.53513 40.9577 9.4178C40.9006 9.72015 40.8372 10.0215 40.7868 10.3251C40.6975 10.8626 40.6225 11.4016 40.683 11.9495C40.7008 12.1078 40.7363 12.2568 40.8136 12.3988Z" fill="#6FBE44"/>
<path d="M39.7227 10.8783C39.5268 10.4337 39.3323 9.98856 39.1362 9.54402C39.13 9.53017 39.1147 9.52046 39.0977 9.50269C39.0835 9.53431 39.0692 9.55249 39.0671 9.57233C39.0173 10.0129 38.9498 10.4527 38.9245 10.8948C38.8847 11.5964 38.9256 12.2974 39.0113 12.9951C39.0909 13.6424 39.1918 14.2845 39.4451 14.8926C39.7954 15.7335 40.2245 16.5314 40.7484 17.2975C40.7612 17.2814 40.7678 17.2765 40.7699 17.27C41.0067 16.5343 41.259 15.8048 41.623 15.1197C41.668 15.0349 41.6331 14.9734 41.5982 14.9012C41.4705 14.6375 41.3479 14.3713 41.2223 14.1066C40.9803 13.5963 40.737 13.0867 40.4952 12.5762C40.3729 12.3177 40.2509 12.0589 40.1327 11.7988C39.9938 11.4929 39.8583 11.1856 39.7227 10.8783Z" fill="#6FBE44"/>
<path d="M43.5244 12.5426C43.4274 12.5856 43.3873 12.6627 43.3394 12.741C42.8058 13.6154 42.318 14.5138 41.8685 15.4349C41.2382 16.7263 40.8863 18.0881 40.7765 19.5161C40.7631 19.6904 40.7747 19.8666 40.7747 20.0419C40.7858 20.0435 40.797 20.0452 40.8081 20.0469C40.8391 19.9906 40.872 19.9353 40.9011 19.878C41.3446 19.004 41.8991 18.2048 42.559 17.4827C43.247 16.7301 44.0051 16.0491 44.834 15.4566C45.1093 15.2598 45.2523 15.0261 45.3157 14.7163C45.323 14.6812 45.3283 14.6458 45.3354 14.6107C45.4147 14.2106 45.4877 13.8092 45.5749 13.4108C45.727 12.7172 45.825 12.0162 45.8849 11.3092C45.9746 10.2527 46.1112 9.20244 46.3139 8.16125C46.3532 7.95934 46.3904 7.75701 46.4284 7.55489C46.4142 7.54972 46.3999 7.54456 46.3857 7.53918C46.2069 7.83947 46.0217 8.13624 45.8504 8.44066C45.3451 9.33884 44.8512 10.2432 44.3407 11.1385C44.146 11.4801 43.9158 11.8015 43.7087 12.1363C43.6665 12.2047 43.6605 12.2944 43.6285 12.3704C43.6023 12.4331 43.575 12.5201 43.5244 12.5426Z" fill="#6FBE44"/>
<path d="M45.9386 24.6007C45.6838 25.0059 45.4317 25.4129 45.1719 25.8307C45.2256 25.8531 45.2686 25.8764 45.3147 25.8892C45.5346 25.951 45.7584 26.0006 45.9752 26.0717C46.4871 26.2391 47.0189 26.3081 47.5456 26.4018C47.6548 26.4212 47.7451 26.4026 47.8422 26.3276C47.9759 26.2244 48.1361 26.1554 48.2853 26.0725C48.3281 26.0488 48.3862 26.0382 48.4132 26.0031C48.5662 25.8057 48.7166 25.6061 48.8588 25.4011C49.2341 24.8604 49.5985 24.3122 49.9789 23.775C50.3394 23.2662 50.7203 22.7663 51.2096 22.3771C51.6788 22.0043 52.188 21.6817 52.6799 21.3372C52.7138 21.3134 52.7485 21.2909 52.783 21.2678C52.7799 21.2595 52.7768 21.2514 52.7737 21.2432C52.6354 21.2713 52.4974 21.3006 52.3589 21.3275C51.5994 21.4753 50.8558 21.6747 50.1544 22.0089C49.5869 22.2794 49.0167 22.5454 48.4585 22.8345C48.0782 23.0314 47.7015 23.2425 47.3508 23.4869C46.8994 23.8015 46.4753 24.1553 46.0405 24.4938C46.0021 24.5238 45.9644 24.5597 45.9386 24.6007Z" fill="#6FBE44"/>
<path d="M43.206 17.3376C42.1586 18.3666 41.3809 19.5787 40.801 20.9154C40.4429 21.741 40.1134 22.5811 39.8838 23.4559C39.7586 23.9329 39.5763 24.3977 39.548 24.8948C39.5244 25.3089 39.5321 25.7247 39.5265 26.1397C39.5252 26.2369 39.5263 26.334 39.5263 26.4654C39.6207 26.4111 39.6807 26.3778 39.7396 26.3425C39.8683 26.2652 39.99 26.172 40.1264 26.1126C40.2984 26.0378 40.424 25.9498 40.398 25.7373C40.393 25.6972 40.4133 25.6532 40.4257 25.6123C40.6175 24.9762 40.8855 24.3764 41.3177 23.866C41.7393 23.3679 42.195 22.9013 42.712 22.5003C43.2946 22.0485 43.8841 21.6059 44.4683 21.1564C44.5208 21.1159 44.5685 21.0596 44.5983 21.0005C44.6977 20.804 44.762 20.5845 44.887 20.407C45.1879 19.9794 45.4822 19.5491 45.73 19.0883C45.7434 19.063 45.7622 19.0407 45.7751 19.0153C45.9536 18.6652 46.1485 18.3221 46.3056 17.9627C46.5718 17.3537 46.8063 16.7308 47.0704 16.1209C47.1517 15.9331 47.2753 15.7605 47.3974 15.5939C47.8289 15.0053 48.2753 14.4281 48.7785 13.8776C48.7246 13.8916 48.6686 13.9001 48.6171 13.9206C48.1788 14.0942 47.7363 14.2587 47.3046 14.4471C46.4889 14.8032 45.7234 15.2519 45.0061 15.7768C44.3637 16.2468 43.7741 16.7796 43.206 17.3376Z" fill="#6FBE44"/>
<path d="M41.9247 23.7249C41.3915 24.2802 41.0226 24.9217 40.7959 25.6512C40.782 25.6955 40.7773 25.7426 40.7646 25.8064C42.1094 25.451 43.4406 25.4719 44.8213 25.6872C44.9184 25.5365 45.0424 25.3543 45.1561 25.1656C45.8114 24.0785 46.5222 23.0309 47.3443 22.0612C47.7888 21.5371 48.2177 20.9996 48.6674 20.4798C49.2138 19.8482 49.8842 19.3506 50.5144 18.8097C50.56 18.7705 50.6045 18.7296 50.6495 18.6895C50.6448 18.6814 50.64 18.6733 50.6353 18.6653C50.6022 18.674 50.5687 18.6808 50.5363 18.6913C50.0748 18.8436 49.6083 18.9827 49.1532 19.1524C48.4841 19.4023 47.8083 19.6422 47.1618 19.9433C45.8765 20.5422 44.7339 21.3703 43.6235 22.2437C43.0322 22.7093 42.4482 23.1797 41.9247 23.7249Z" fill="#6FBE44"/>
<path d="M33.2912 19.4529C33.4001 19.5424 33.5239 19.6215 33.6529 19.6771C34.1379 19.8867 34.6306 20.0782 35.1152 20.2888C35.423 20.4226 35.7231 20.5745 36.0231 20.7249C36.3222 20.875 36.6171 21.0333 36.9139 21.1881C36.9232 21.1781 36.9323 21.168 36.9416 21.1581C36.9064 21.0893 36.8752 21.0182 36.836 20.9516C36.3714 20.1661 36.0242 19.3314 35.7338 18.4665C35.4517 17.6266 35.1283 16.8005 34.9096 15.9476C34.7755 15.8554 34.6542 15.7517 34.5161 15.6806C33.8238 15.3237 33.1275 14.9746 32.4319 14.6241C32.1959 14.5051 31.951 14.4017 31.7222 14.2705C31.1762 13.9574 30.6333 13.6385 30.0966 13.3097C29.3743 12.8674 28.7301 12.3187 28.0706 11.7913C28.0125 11.7448 27.9561 11.6961 27.8989 11.6483C27.8863 11.6595 27.8734 11.6706 27.8608 11.6818C27.9094 11.7556 27.9563 11.8306 28.007 11.9031C28.9649 13.2775 29.8473 14.7004 30.723 16.1276C31.0782 16.7069 31.4413 17.2814 31.8069 17.8543C32.2041 18.4766 32.7243 18.9877 33.2912 19.4529Z" fill="#6FBE44"/>
<path d="M45.7865 27.5467C46.2596 27.4095 46.7318 27.269 47.2065 27.1377C47.5219 27.0505 47.841 26.9774 48.1585 26.898C48.1574 26.8841 48.1562 26.8703 48.1551 26.8565C48.1223 26.8498 48.0894 26.8418 48.0564 26.8368C47.6184 26.7694 47.1739 26.7302 46.7438 26.6293C46.0628 26.4694 45.392 26.2668 44.7162 26.0856C44.5374 26.0376 44.3574 25.9854 44.1745 25.9639C43.9119 25.9329 43.6455 25.9366 43.3822 25.911C42.7853 25.8529 42.1932 25.9188 41.605 25.9951C40.9791 26.0763 40.4113 26.3276 39.8862 26.6802C39.2745 27.091 38.6551 27.4884 37.9801 27.7949C37.7553 27.897 37.5595 28.0646 37.3541 28.2072C37.3055 28.2409 37.2715 28.2951 37.2188 28.3529C37.5571 28.4581 37.8224 28.6328 38.0783 28.8322C38.2746 28.9853 38.4881 29.1203 38.7061 29.2416C39.0453 29.4303 39.3681 29.6365 39.6597 29.8959C39.8786 30.0904 40.121 30.2586 40.3529 30.4386C40.5136 30.5634 40.6841 30.6054 40.8668 30.489C41.0289 30.3859 41.2078 30.2983 41.3438 30.1671C41.6782 29.8442 42.0047 29.5111 42.3116 29.162C42.7988 28.608 43.3855 28.2283 44.0991 28.0357C44.6639 27.8828 45.224 27.71 45.7865 27.5467Z" fill="#6FBE44"/>
<path d="M44.6744 28.2618C44.2903 28.3707 43.8943 28.4455 43.5376 28.6373C43.439 28.6902 43.3433 28.7485 43.2412 28.8074C43.4661 28.9855 43.6884 29.1327 43.8749 29.3162C44.2225 29.6584 44.5827 29.9835 44.9782 30.2685C45.3137 30.5099 45.633 30.7701 46.0242 30.9321C46.3392 31.0625 46.6312 31.25 46.9298 31.4184C47.1476 31.5412 47.362 31.6706 47.5738 31.8039C47.8823 31.9979 48.1965 32.1852 48.4916 32.398C49.1899 32.9017 49.7062 33.564 50.1121 34.3171C50.1522 34.3917 50.1976 34.4634 50.2406 34.5364C50.2545 34.5314 50.2685 34.5265 50.2824 34.5215C50.1985 34.2279 50.128 33.9296 50.0282 33.6415C49.7206 32.7531 49.292 31.92 48.8448 31.0956C48.6117 30.666 48.2957 30.3115 47.9102 30.0164C46.973 29.2991 45.9442 28.7419 44.8582 28.2868C44.8024 28.2634 44.7294 28.2463 44.6744 28.2618Z" fill="#6FBE44"/>
<path d="M51.8954 26.1815C50.7521 25.9357 49.6366 26.0358 48.5311 26.3755C48.4627 26.3966 48.398 26.4293 48.3317 26.4567C48.3358 26.4708 48.3399 26.4848 48.3441 26.4989C48.5369 26.4989 48.7297 26.4995 48.9223 26.4987C49.0726 26.4981 49.223 26.4923 49.3733 26.4954C49.5599 26.4991 49.6591 26.5601 49.6787 26.6727C49.6996 26.793 49.6324 26.8478 49.4433 26.9246C48.9971 27.1059 48.5292 27.202 48.0618 27.3041C47.1481 27.5033 46.2464 27.747 45.3325 28.0805C45.3792 28.1082 45.4013 28.1229 45.4245 28.1351C45.9304 28.4004 46.439 28.6611 46.9408 28.9341C47.0596 28.9987 47.1545 29.0107 47.2758 28.95C47.4027 28.8863 47.5451 28.8541 47.6745 28.7948C48.4668 28.4316 49.2685 28.095 50.0883 27.7953C51.0483 27.4444 52.0304 27.2706 53.0474 27.2758C53.4411 27.2778 53.8348 27.2917 54.2279 27.3113C54.4678 27.3233 54.7065 27.3566 54.9901 27.3847C54.9138 27.3371 54.8745 27.3092 54.8324 27.2867C53.903 26.7878 52.9319 26.4042 51.8954 26.1815Z" fill="#6FBE44"/>
<path d="M36.7869 28.5844C36.9186 28.4551 37.0455 28.3209 37.1751 28.188C37.1176 28.1151 37.0618 28.0444 36.9918 27.9555C36.8826 27.9483 36.7671 27.9487 36.6543 27.932C36.1142 27.8518 35.5798 27.8989 35.0588 28.0386C34.7151 28.1308 34.388 28.2829 34.0505 28.3999C33.7973 28.4875 33.5596 28.6049 33.3552 28.7752C32.6788 29.339 31.9838 29.8831 31.377 30.5246C30.9736 30.9512 30.5874 31.3941 30.1947 31.8308C30.1604 31.869 30.1356 31.9157 30.1064 31.9585C30.3024 31.8487 30.4729 31.7169 30.656 31.6063C30.8453 31.492 31.0466 31.3978 31.2431 31.2955C31.9369 30.9346 32.6778 30.691 33.4106 30.4281C34.197 30.146 34.9813 29.8561 35.7772 29.6029C36.2184 29.4626 36.6138 29.2369 37.0269 29.0428C37.0426 29.0354 37.0498 29.0095 37.069 28.9796C37.0079 28.962 36.9548 28.9349 36.901 28.9341C36.8043 28.9325 36.7297 28.9017 36.6983 28.8087C36.6658 28.7134 36.7225 28.6479 36.7869 28.5844Z" fill="#6FBE44"/>
<path d="M36.0732 9.66636C36.1374 10.2638 36.2255 10.8588 36.2962 11.4555C36.4171 12.4743 36.5948 13.4816 36.9784 14.4379C37.183 14.9479 37.4363 15.4383 37.6583 15.9418C37.7406 16.1284 37.8426 16.2908 37.9974 16.4272C38.1202 16.5353 38.2252 16.6647 38.3304 16.7912C38.8286 17.3911 39.347 17.9756 39.7663 18.6369C39.9345 18.9021 40.1023 19.1676 40.2697 19.4332C40.3024 19.4851 40.3326 19.5386 40.3741 19.6085C40.4723 18.942 40.5669 18.3005 40.6634 17.6441C40.4688 17.5071 40.3098 17.3138 40.1852 17.0962C39.9186 16.631 39.6471 16.1681 39.4036 15.6907C39.1139 15.1221 38.8735 14.53 38.776 13.8948C38.6947 13.3649 38.6389 12.8308 38.578 12.2978C38.5608 12.1484 38.5488 12.0083 38.4587 11.8733C38.3486 11.7084 38.2678 11.5226 38.1851 11.341C38.0193 10.977 37.8679 10.6067 37.6982 10.2446C37.4372 9.68702 37.1474 9.14452 36.8087 8.6291C36.5375 8.21659 36.2732 7.79974 36.0058 7.38476C35.9715 7.33164 35.937 7.27874 35.9027 7.22583C35.8872 7.22872 35.8717 7.23141 35.856 7.2343C35.8744 7.44634 35.8925 7.65838 35.9113 7.87042C35.9643 8.46914 36.0089 9.06888 36.0732 9.66636Z" fill="#6FBE44"/>
<path d="M34.7937 15.3047C34.7937 15.1907 34.8007 15.1283 34.7927 15.0677C34.7055 14.4206 34.7912 13.7814 34.878 13.1424C34.8857 13.0864 34.8908 13.0215 34.9221 12.9791C34.9607 12.9268 35.0198 12.8737 35.0799 12.857C35.1605 12.8345 35.2354 12.8779 35.2705 12.9605C35.3011 13.0327 35.3246 13.1081 35.3501 13.1825C35.5133 13.6582 35.6929 14.1232 36.0562 14.4936C36.2666 14.7081 36.4568 14.9423 36.6605 15.1636C36.7542 15.2653 36.8585 15.3572 36.9579 15.4535C36.9701 15.4449 36.9821 15.4362 36.9943 15.4275C36.9827 15.3965 36.9741 15.3639 36.9592 15.3345C36.6485 14.7255 36.4402 14.0782 36.2687 13.4202C36.0934 12.7477 35.9932 12.0599 35.9122 11.3698C35.9029 11.2898 35.8831 11.1937 35.832 11.139C35.4619 10.7418 35.0923 10.3431 34.7038 9.96427C34.1551 9.42921 33.5758 8.92805 32.966 8.46181C32.0326 7.74839 31.1111 7.02031 30.2764 6.18971C30.1514 6.06551 30.0261 5.9415 29.9009 5.8175C29.9501 6.01776 30.0336 6.19695 30.1036 6.38129C30.5971 7.68019 31.1748 8.94148 31.7849 10.1891C32.3476 11.3401 32.8992 12.4964 33.5481 13.6024C33.8348 14.091 34.1458 14.563 34.5085 14.9991C34.5883 15.0948 34.6784 15.1818 34.7937 15.3047Z" fill="#6FBE44"/>
<path d="M33.4551 28.1628C33.5771 28.0789 33.7213 28.025 33.8606 27.9696C34.1061 27.8718 34.3554 27.7832 34.6032 27.6908C35.1951 27.4699 35.8064 27.3856 36.4361 27.4308C36.5022 27.4356 36.569 27.4314 36.6502 27.4314C36.527 27.2779 36.3985 27.1803 36.2094 27.1725C36.1184 27.1688 36.0257 27.1404 35.9393 27.108C35.1304 26.804 34.2963 26.5643 33.5223 26.1697C33.4661 26.141 33.4041 26.1166 33.3421 26.1071C33.1664 26.0796 32.9899 26.0544 32.8128 26.0399C32.3997 26.0061 31.9845 25.9418 31.573 25.9587C31.0675 25.9796 30.5637 26.0625 30.0612 26.1338C29.322 26.2388 28.6133 26.4628 27.9136 26.7162C27.5205 26.8586 27.1588 27.0594 26.8319 27.3211C26.7955 27.3502 26.762 27.3827 26.7139 27.4254C26.7564 27.4393 26.7746 27.4502 26.793 27.4507C27.4833 27.4651 28.1576 27.5957 28.8279 27.7445C29.3224 27.8545 29.8106 27.9934 30.3024 28.1159C30.5103 28.1678 30.7226 28.2023 30.929 28.2591C31.3701 28.3804 31.8152 28.4052 32.2685 28.3528C32.4809 28.3282 32.6954 28.3151 32.9093 28.3135C33.1075 28.312 33.2861 28.2792 33.4551 28.1628Z" fill="#6FBE44"/>
<path d="M35.0879 24.775C35.4845 25.3005 35.8974 25.8139 36.3082 26.3285C36.4151 26.4622 36.5316 26.5918 36.6606 26.7036C36.97 26.9714 37.2732 27.243 37.4984 27.5896C37.5052 27.6001 37.5216 27.6043 37.5358 27.6129C38.104 27.3036 38.7173 27.0719 39.228 26.6569C39.0933 25.8317 39.1193 25.0145 39.2789 24.2141C39.1131 24.0839 38.9327 23.9822 38.8056 23.8345C38.5307 23.5152 38.2755 23.1781 38.0269 22.8377C37.8076 22.5374 37.6113 22.2204 37.3978 21.9156C37.3511 21.8488 37.2827 21.7878 37.2107 21.7496C36.7255 21.4911 36.2367 21.2391 35.749 20.9853C35.6665 20.9424 35.5857 20.8957 35.5002 20.8597C34.8105 20.5697 34.1314 20.2496 33.4271 20.001C32.4248 19.6472 31.4218 19.2849 30.367 19.1039C30.0518 19.0497 29.7389 18.9834 29.425 18.9226C29.4186 18.9315 29.4122 18.9402 29.4058 18.9491C29.4611 18.9999 29.5155 19.0518 29.5721 19.1014C30.0733 19.5393 30.5776 19.9739 31.075 20.416C31.2403 20.5629 31.3941 20.7241 31.5452 20.8861C32.214 21.6035 32.8819 22.3217 33.5459 23.0435C34.0694 23.6121 34.6204 24.1556 35.0879 24.775Z" fill="#6FBE44"/>
<path d="M38.2487 10.1661C38.3027 10.4678 38.3465 10.7741 38.4928 11.049C38.5046 11.0496 38.5176 11.0517 38.518 11.0502C38.5275 11.0186 38.5412 10.9866 38.5428 10.9543C38.5872 10.1227 38.7185 9.30431 38.9152 8.49583C38.9287 8.44044 38.9318 8.37431 38.9652 8.33442C39.0068 8.28482 39.071 8.23563 39.1322 8.22571C39.2172 8.21166 39.2802 8.27387 39.3035 8.35757C39.3228 8.42618 39.3376 8.49769 39.3412 8.56857C39.3682 9.10591 39.517 9.61121 39.7456 10.094C39.9128 10.4472 40.0905 10.7954 40.2635 11.1457C40.3358 10.8636 40.3764 10.5896 40.414 10.3155C40.4177 10.2889 40.4057 10.2597 40.3999 10.232C40.3146 9.8187 40.2352 9.40413 40.142 8.99265C39.9566 8.17487 39.6958 7.379 39.3932 6.59863C39.0748 5.77713 38.7813 4.94943 38.5829 4.0899C38.5759 4.05931 38.5641 4.02997 38.5544 4C38.5128 4.04629 38.498 4.09155 38.4953 4.13743C38.4488 4.92359 38.4087 5.71017 38.3562 6.49591C38.3295 6.8954 38.2946 7.29551 38.2388 7.69169C38.1578 8.26663 38.0611 8.83848 38.1466 9.42169C38.1828 9.66969 38.2047 9.91976 38.2487 10.1661Z" fill="#6FBE44"/>
<path d="M35.582 26.3657C35.6958 26.401 35.8062 26.4486 35.918 26.4903C35.923 26.4789 35.9279 26.4676 35.9327 26.4562C35.6264 26.0687 35.3083 25.6897 35.0169 25.2912C34.6352 24.7692 34.2153 24.2821 33.7691 23.8156C33.3481 23.3756 32.9207 22.941 32.5153 22.4872C32.3479 22.2997 32.1561 22.1931 31.9215 22.1346C31.5679 22.0466 31.2184 21.9412 30.8627 21.8628C30.5771 21.8 30.2866 21.7395 29.9958 21.7258C29.5103 21.7031 29.0232 21.7213 28.5367 21.7167C28.3654 21.7151 28.1943 21.6973 28.0229 21.687C27.8227 21.6748 27.6226 21.6626 27.4224 21.6504C27.6303 21.8079 27.8489 21.9263 28.0657 22.0478C28.7777 22.4467 29.4934 22.84 30.1481 23.3312C30.6236 23.6879 31.0961 24.049 31.5625 24.4174C31.8733 24.6628 32.2075 24.8663 32.5574 25.0496C33.5341 25.5618 34.5253 26.0381 35.582 26.3657Z" fill="#6FBE44"/>
<path d="M54.0314 39.8526C54.9359 40.4133 54.9607 40.573 54.4226 41.1091C54.201 42.2913 54.0989 43.3719 53.7889 44.3891C52.947 47.151 50.4951 48.4658 47.6819 47.814C44.5046 47.0779 40.8973 43.6133 40.7793 39.6348C39.9187 38.6035 39.1865 38.5744 38.1873 39.5676C38.0261 42.5027 36.5002 44.7006 34.1965 46.438C33.1514 47.2263 31.9649 47.7059 30.6782 47.9285C28.4115 48.3206 26.2663 47.1132 25.3456 44.9356C24.8575 43.7807 24.6665 42.5709 24.7095 41.3313C24.4929 41.0976 24.2875 40.8758 24 40.5656C24.3168 40.2984 24.5793 40.0768 24.941 39.7718C25.396 37.8122 26.9857 37.0795 28.8746 36.7381C30.4689 36.45 32.0614 36.5302 33.6522 36.7892C33.9064 36.8305 34.1709 36.8539 34.4265 36.8334C35.2073 36.7712 35.985 36.6296 36.7656 36.6168C38.7345 36.5848 40.704 36.6028 42.6734 36.6098C43.0394 36.611 43.4269 36.586 43.767 36.6924C44.6071 36.9553 45.4212 36.7813 46.2481 36.6674C47.7448 36.4614 49.2305 36.529 50.7044 36.8739C52.3559 37.2606 53.5827 38.1191 54.0314 39.8526ZM40.9124 38.7637C41.702 38.2288 42.4068 37.7516 43.0892 37.2895C40.702 37.2895 38.2803 37.2895 35.8575 37.2895C36.5757 37.7737 37.28 38.2489 38.0141 38.7438C38.9709 38.1025 39.971 38.0347 40.9124 38.7637Z" fill="black"/>
<defs>
<filter id="filter0_d" x="0" y="0" width="78" height="78" filterUnits="userSpaceOnUse" color-interpolation-filters="sRGB">
<feFlood flood-opacity="0" result="BackgroundImageFix"/>
<feColorMatrix in="SourceAlpha" type="matrix" values="0 0 0 0 0 0 0 0 0 0 0 0 0 0 0 0 0 0 127 0"/>
<feOffset dy="4"/>
<feGaussianBlur stdDeviation="2"/>
<feColorMatrix type="matrix" values="0 0 0 0 0 0 0 0 0 0 0 0 0 0 0 0 0 0 0.25 0"/>
<feBlend mode="normal" in2="BackgroundImageFix" result="effect1_dropShadow"/>
<feBlend mode="normal" in="SourceGraphic" in2="effect1_dropShadow" result="shape"/>
</filter>
</defs>
</svg>
