<svg width="78" height="78" viewBox="0 0 78 78" fill="none" xmlns="http://www.w3.org/2000/svg">
<g filter="url(#filter0_d)">
<g clip-path="url(#clip0)">
<rect x="4" width="70" height="70" rx="35" fill="white"/>
<g filter="url(#filter1_d)">
<circle cx="39.0005" cy="35.0454" r="35" fill="white"/>
</g>
<path d="M64.322 -1.5L70.1231 1.62568L69.4779 6.51919L68.9006 10.7887L68.4491 13.6037L68.0852 16.2076L66.8111 20.2L65.8122 19.7304L66.1614 16.8168L66.0628 14.7522L65.9248 11.8619L65.285 8.6851L64.7558 11.9177L64.8445 13.7758L64.5052 16.8958L64.0389 19.4012L58.7042 18.1039L57.7584 16.7006L57.2948 15.1708L57.2259 13.7256L56.7672 12.299L56.4662 14.1757L56.1023 16.7796L56.1466 17.7087L52.4002 16.9563L49.7403 16.4625L48.0595 16.0254L47.5724 16.0487L45.9249 14.265L46.8904 16.0812L46.5007 16.0998L45.6622 14.8983L44.9063 13.3825L44.238 11.6555L43.6869 10.3368L43.3404 9.21529L43.1111 8.502L42.989 7.99052L42.862 7.37581L42.74 6.86432L42.7153 6.34819L42.5883 5.73348L42.5637 5.21735L42.5391 4.70121L42.5046 3.97863L42.4701 3.25604L42.2112 1.92339L41.7881 3.28859L41.7203 3.9126L41.6574 4.63984L41.5993 5.4703L41.5315 6.09431L41.4735 6.92478L41.4204 7.85847L41.4549 8.58105L41.4795 9.09719L41.514 9.81978L41.5436 10.4391L41.583 11.265L41.7149 11.9829L41.8468 12.7008L41.9788 13.4188L42.2081 14.132L42.4325 14.7421L42.7445 15.1411L42.8518 15.3429L42.8616 15.5493L42.6717 15.6618L42.282 15.6804L41.8825 15.4926L41.5853 15.4033L41.3904 15.4126L41.0312 15.3429L40.796 15.2341L40.304 15.1541L39.997 14.8584L39.7775 14.3515L39.5629 13.9479L39.2263 13.0328L38.992 12.2163L38.8552 11.3952L38.6209 10.5786L38.3719 9.45245L38.3226 8.42018L38.1759 7.39257L38.1119 6.05062L38.0823 5.43126L38.038 4.50222L38.0084 3.88286L35.2275 4.94676L34.9845 5.99298L34.7464 7.14242L34.5133 8.39509L34.3677 9.43666L34.2222 10.4782L34.1691 11.4119L33.9989 11.9374L32.8052 11.477L31.3143 10.9274L29.9504 10.9925L28.5865 11.0576L26.6233 10.8409L25.9561 11.1832L25.1471 10.601L24.8352 10.2021L24.7525 10.5164L24.9671 10.92L25.1816 11.3236L25.2938 11.6286L24.8943 11.4408L24.48 10.9433L24.1631 10.4411L23.7192 9.32418L23.4898 8.61089L23.2408 7.4847L23.2063 6.76211L23.1817 6.24598L22.9474 5.42947L23.1028 4.59435L23.0782 4.07822L22.5998 2.23874L21.9721 3.40679L21.115 3.86155L20.8375 4.18518L20.6821 5.02029L20.6191 5.74753L20.6586 6.57334L20.698 7.39916L20.7325 8.12174L20.8595 8.73645L21.0789 9.24328L21.1085 9.86265L21.0308 10.2802L20.8557 10.7024L20.5683 10.8196L20.276 10.8335L19.8814 10.7489L19.3894 10.6689L18.9023 10.6922L18.4201 10.8187L17.8356 10.8466L17.256 10.9777L16.6714 11.0056L15.9993 11.2446L15.5122 11.2679L14.9326 11.399L14.2605 11.638L13.6858 11.8723L13.1062 12.0035L12.7264 12.2285L12.2492 12.4582L11.7768 12.7912L11.7916 13.1008L11.7965 13.2041L11.3045 13.1241L10.9 12.833L10.6904 12.5326L10.4759 12.129L10.3587 11.7208L10.2367 11.2093L10.1195 10.801L9.90498 10.3974L9.68057 9.78737L9.65593 9.27124L9.48572 9.79667L9.50543 10.2096L9.535 10.8289L9.55963 11.3451L9.59413 12.0677L9.82839 12.8842L10.0429 13.2878L10.0627 13.7007L10.3697 13.9964L10.5744 14.1936L10.8716 14.2828L10.969 14.2782L10.784 14.4939L10.3943 14.5125L9.90723 14.5358L9.50768 14.3479L9.10321 14.0569L8.79617 13.7611L8.58161 13.3575L8.26964 12.9586L7.94288 12.2499L7.82082 11.7385L7.59149 11.0252L7.56685 10.509L7.34244 9.89898L7.32766 9.5893L7.11803 9.28892L6.93797 9.6079L6.96261 10.124L6.99217 10.7434L7.01681 11.2595L6.85646 11.9914L6.87124 12.3011L6.78367 12.5122L6.7344 11.4799L6.69991 10.7573L6.67034 10.138L6.63585 9.41539L6.60629 8.79603L6.67907 8.27525L6.65443 7.75912L6.73707 7.44479L6.70258 6.7222L6.78522 6.40787L6.84322 5.57741L7.08622 4.53119L7.24164 3.69607L7.59684 2.95488L22.5483 -2.93189L39.8894 -3.75965L64.322 -1.5Z" fill="#C4C4C4"/>
<path d="M65.285 8.6851L65.9248 11.8619L66.0628 14.7522L66.1614 16.8168L65.8122 19.7304L66.8111 20.2L68.0852 16.2076L68.4491 13.6037L68.9006 10.7887L69.4779 6.51919L70.1231 1.62568L64.322 -1.5L39.8894 -3.75965L22.5483 -2.93189L7.59684 2.95488L7.24164 3.69607L7.08622 4.53119L6.84322 5.57741L6.78522 6.40787L6.70258 6.7222L6.73707 7.44479L6.65443 7.75912L6.67907 8.27525L6.60629 8.79603L6.63585 9.41539L6.67034 10.138L6.69991 10.7573L6.7344 11.4799L6.78367 12.5122L6.87124 12.3011L6.85646 11.9914L7.01681 11.2595L6.99217 10.7434L6.96261 10.124L6.93797 9.6079L7.11803 9.28892L7.32766 9.5893L7.34244 9.89898L7.56685 10.509L7.59149 11.0252L7.82082 11.7385L7.94288 12.2499L8.26964 12.9586L8.58161 13.3575L8.79617 13.7611L9.10321 14.0569L9.50768 14.3479L9.90723 14.5358L10.3943 14.5125L10.784 14.4939L10.969 14.2782L10.8716 14.2828L10.5744 14.1936L10.3697 13.9964L10.0627 13.7007L10.0429 13.2878L9.82839 12.8842L9.59413 12.0677L9.55963 11.3451L9.535 10.8289L9.50543 10.2096L9.48572 9.79667L9.65593 9.27124L9.68057 9.78737L9.90498 10.3974L10.1195 10.801L10.2367 11.2093L10.3587 11.7208L10.4759 12.129L10.6904 12.5326L10.9 12.833L11.3045 13.1241L11.7965 13.2041L11.7916 13.1008L11.7768 12.7912L12.2492 12.4582L12.7264 12.2285L13.1062 12.0035L13.6858 11.8723L14.2605 11.638L14.9326 11.399L15.5122 11.2679L15.9993 11.2446L16.6714 11.0056L17.256 10.9777L17.8356 10.8466L18.4201 10.8187L18.9023 10.6922L19.3894 10.6689L19.8814 10.7489L20.276 10.8335L20.5683 10.8196L20.8557 10.7024L21.0308 10.2802L21.1085 9.86265L21.0789 9.24328L20.8595 8.73645L20.7325 8.12174L20.698 7.39916L20.6586 6.57334L20.6191 5.74753L20.6821 5.02029L20.8375 4.18518L21.115 3.86155L21.9721 3.40679L22.5998 2.23874L23.0782 4.07822L23.1028 4.59435L22.9474 5.42947L23.1817 6.24598L23.2063 6.76211L23.2408 7.4847L23.4898 8.61089L23.7192 9.32418L24.1631 10.4411L24.48 10.9433L24.8943 11.4408L25.2938 11.6286L25.1816 11.3236L24.9671 10.92L24.7525 10.5164L24.8352 10.2021L25.1471 10.601L25.9561 11.1832L26.6233 10.8409L28.5865 11.0576L29.9504 10.9925L31.3143 10.9274L32.8052 11.477L33.9989 11.9374L34.1691 11.4119L34.2222 10.4782L34.3677 9.43666L34.5133 8.39509L34.7464 7.14242L34.9845 5.99298L35.2275 4.94676L38.0084 3.88286L38.038 4.50222L38.0823 5.43126L38.1119 6.05062L38.1759 7.39257L38.3226 8.42018L38.3719 9.45245L38.6209 10.5786L38.8552 11.3952L38.992 12.2163L39.2263 13.0328L39.5629 13.9479L39.7775 14.3515L39.997 14.8584L40.304 15.1541L40.796 15.2341L41.0312 15.3429L41.3904 15.4126L41.5853 15.4033L41.8825 15.4926L42.282 15.6804L42.6717 15.6618L42.8616 15.5493L42.8518 15.3429L42.7445 15.1411L42.4325 14.7421L42.2081 14.132L41.9788 13.4188L41.8468 12.7008L41.7149 11.9829L41.583 11.265L41.5436 10.4391L41.514 9.81978L41.4795 9.09719L41.4549 8.58105L41.4204 7.85847L41.4735 6.92478L41.5315 6.09431L41.5993 5.4703L41.6574 4.63984L41.7203 3.9126L41.7881 3.28859L42.2112 1.92339L42.4701 3.25604L42.5046 3.97863L42.5391 4.70121L42.5637 5.21735L42.5883 5.73348L42.7153 6.34819L42.74 6.86432L42.862 7.37581L42.989 7.99052L43.1111 8.502L43.3404 9.21529L43.6869 10.3368L44.238 11.6555L44.9063 13.3825L45.6622 14.8983L46.5007 16.0998L46.8904 16.0812L45.9249 14.265L47.5724 16.0487L48.0595 16.0254L49.7403 16.4625L52.4002 16.9563L56.1466 17.7087L56.1023 16.7796L56.4662 14.1757L56.7672 12.299L57.2259 13.7256L57.2948 15.1708L57.7584 16.7006L58.7042 18.1039L64.0389 19.4012L64.5052 16.8958L64.8445 13.7758L64.7558 11.9177L65.285 8.6851ZM65.285 8.6851L64.3222 2.83374" stroke="black" stroke-width="0.5" stroke-linecap="round" stroke-linejoin="round"/>
<circle cx="39" cy="35" r="41" stroke="#494949" stroke-width="12"/>
<path d="M31.7411 23.8492C31.2346 28.04 27.2098 31.0441 22.7131 30.5115C18.2164 29.979 15.0212 26.1198 15.5278 21.929C16.0343 17.7382 20.0591 14.7341 24.5558 15.2667C29.0525 15.7993 32.2477 19.6584 31.7411 23.8492Z" fill="#AEAEAE" stroke="black" stroke-width="0.7"/>
<path d="M23.6523 26.1247L15.5487 25.6003L16.5546 29.2018L22.5043 31.6476L30.3417 30.3993L31.6521 27.5075L23.6523 26.1247Z" fill="white"/>
<path d="M13.9228 25.5384C20.6294 25.3078 29.0631 26.9045 32.4417 27.7316" stroke="black" stroke-linecap="round" stroke-linejoin="round"/>
<path d="M10.8467 30.7026L14.4019 27.6413" stroke="#F911C6" stroke-opacity="0.5" stroke-linecap="round" stroke-linejoin="round"/>
<path d="M10.6692 32.1741L18.6483 27.6468" stroke="#F911C6" stroke-opacity="0.5" stroke-linecap="round" stroke-linejoin="round"/>
<path d="M12.7034 32.9122L21.8479 27.528" stroke="#F911C6" stroke-opacity="0.5" stroke-linecap="round" stroke-linejoin="round"/>
<path d="M15.8428 33.2843L23.8812 28.2666" stroke="#F911C6" stroke-opacity="0.5" stroke-linecap="round" stroke-linejoin="round"/>
<path d="M19.0417 33.1655L27.0209 28.6383" stroke="#F911C6" stroke-opacity="0.5" stroke-linecap="round" stroke-linejoin="round"/>
<path d="M22.1819 33.5375L30.161 29.0102" stroke="#F911C6" stroke-opacity="0.5" stroke-linecap="round" stroke-linejoin="round"/>
<path d="M27.535 33.1762L32.1961 29.7484" stroke="#F911C6" stroke-opacity="0.5" stroke-linecap="round" stroke-linejoin="round"/>
<ellipse rx="2.02699" ry="2.00698" transform="matrix(0.99306 0.117612 -0.120003 0.992774 25.5821 20.2904)" fill="white"/>
<path d="M24.3734 20.1494C24.2404 21.2499 23.2313 22.0352 22.1196 21.9035C21.0079 21.7719 20.2145 20.7731 20.3475 19.6726C20.4805 18.5722 21.4896 17.7869 22.6013 17.9186C23.713 18.0502 24.5064 19.049 24.3734 20.1494Z" fill="white"/>
<rect width="3.99347" height="3.99347" transform="matrix(0.790107 -0.61493 0.621241 0.782081 20.96 21.3599)" fill="white"/>
<path d="M10.9995 22L12.4995 17.5L14.9995 14.5L17.9995 12.5L20.9995 12L24.9995 12L27.9995 13L30.4995 14L32.4995 15.5L33.9995 17.5" stroke="black" stroke-width="2" stroke-linecap="round" stroke-linejoin="round"/>
<path d="M12.5 17L11 15.5" stroke="black" stroke-width="2" stroke-linecap="round" stroke-linejoin="round"/>
<path d="M14.5 15L13 13.5" stroke="black" stroke-width="2" stroke-linecap="round" stroke-linejoin="round"/>
<path d="M52.2505 28.8695C50.6005 32.7549 52.5919 37.3655 56.7555 39.1455C60.9191 40.9255 65.6128 39.173 67.2628 35.2875C68.9129 31.402 66.9215 26.7915 62.7579 25.0114C58.5943 23.2314 53.9006 24.984 52.2505 28.8695Z" fill="#AEAEAE" stroke="black" stroke-width="0.7"/>
<path d="M58.1283 34.8745L65.4145 38.4596L62.7472 41.0802L56.3702 40.2345L50.1984 35.2453L50.5041 32.0852L58.1283 34.8745Z" fill="white"/>
<path d="M66.855 39.2166C61.1562 35.6734 53.0492 32.8531 49.708 31.8859" stroke="black" stroke-linecap="round" stroke-linejoin="round"/>
<path d="M51.7201 40.1408L55.9275 38.0652" stroke="#F911C6" stroke-opacity="0.5" stroke-linecap="round" stroke-linejoin="round"/>
<path d="M51.1804 41.5211L60.0378 39.1317" stroke="#F911C6" stroke-opacity="0.5" stroke-linecap="round" stroke-linejoin="round"/>
<path d="M52.9654 42.7444L63.1653 39.8165" stroke="#F911C6" stroke-opacity="0.5" stroke-linecap="round" stroke-linejoin="round"/>
<path d="M55.912 43.8892L64.9494 41.0397" stroke="#F911C6" stroke-opacity="0.5" stroke-linecap="round" stroke-linejoin="round"/>
<path d="M59.0393 44.5736L67.8967 42.1842" stroke="#F911C6" stroke-opacity="0.5" stroke-linecap="round" stroke-linejoin="round"/>
<path d="M61.987 45.7187L70.8444 43.3293" stroke="#F911C6" stroke-opacity="0.5" stroke-linecap="round" stroke-linejoin="round"/>
<path d="M67.2604 46.7067L72.6303 44.5526" stroke="#F911C6" stroke-opacity="0.5" stroke-linecap="round" stroke-linejoin="round"/>
<ellipse rx="2.02699" ry="2.00698" transform="matrix(-0.919495 -0.393101 -0.390885 0.92044 59.3644 28.8548)" fill="white"/>
<path d="M60.482 29.3351C60.0488 30.3553 60.532 31.5391 61.5613 31.9792C62.5907 32.4193 63.7764 31.949 64.2096 30.9287C64.6429 29.9085 64.1597 28.7247 63.1303 28.2846C62.101 27.8445 60.9153 28.3149 60.482 29.3351Z" fill="white"/>
<rect width="3.99347" height="3.99347" transform="matrix(-0.378376 -0.926952 -0.928422 0.368273 62.8379 32.0862)" fill="white"/>
<path d="M71.153 37.6064L72.096 32.9577L71.4244 29.1108L69.8208 25.8815L67.4694 23.9525L64.0019 21.9584L60.9027 21.3297L58.237 20.9503L55.7554 21.2536L53.4581 22.2396" stroke="black" stroke-width="2" stroke-linecap="round" stroke-linejoin="round"/>
<path d="M72.345 32.5241L74.3931 31.9716" stroke="black" stroke-width="2" stroke-linecap="round" stroke-linejoin="round"/>
<path d="M71.6082 29.7933L73.6562 29.2407" stroke="black" stroke-width="2" stroke-linecap="round" stroke-linejoin="round"/>
<path d="M17.4524 47.1058L19.5918 46.1889C21.0877 45.5478 22.81 46.3391 23.2979 47.8918V47.8918C23.7786 49.4215 25.4769 50.2106 26.9642 49.6114V49.6114C27.9628 49.2091 29.1133 49.4169 29.9012 50.1505L30.9239 51.1027C32.1706 52.2634 33.9913 52.564 35.5449 51.8658V51.8658C37.2553 51.0971 39.2676 51.545 40.4905 52.9666L41.4131 54.0392C42.4245 55.2148 43.9803 55.7708 45.5077 55.5024L47.5709 55.1398C48.5005 54.9764 49.4118 55.51 49.7244 56.4007V56.4007C50.102 57.4769 51.3261 57.992 52.3596 57.5097L54.4036 56.5558" stroke="black" stroke-linecap="round" stroke-linejoin="round"/>
<path d="M58 9V9C58.9275 10.8361 60.4569 12.2983 62.3329 13.1424L69.9457 16.5676" stroke="black" stroke-linecap="round" stroke-linejoin="round"/>
<path d="M38 4V4C36.5358 5.06664 34.7584 5.61587 32.9478 5.56116L24 5.29082" stroke="black" stroke-linecap="round" stroke-linejoin="round"/>
</g>
</g>
<defs>
<filter id="filter0_d" x="0" y="0" width="78" height="78" filterUnits="userSpaceOnUse" color-interpolation-filters="sRGB">
<feFlood flood-opacity="0" result="BackgroundImageFix"/>
<feColorMatrix in="SourceAlpha" type="matrix" values="0 0 0 0 0 0 0 0 0 0 0 0 0 0 0 0 0 0 127 0"/>
<feOffset dy="4"/>
<feGaussianBlur stdDeviation="2"/>
<feColorMatrix type="matrix" values="0 0 0 0 0 0 0 0 0 0 0 0 0 0 0 0 0 0 0.25 0"/>
<feBlend mode="normal" in2="BackgroundImageFix" result="effect1_dropShadow"/>
<feBlend mode="normal" in="SourceGraphic" in2="effect1_dropShadow" result="shape"/>
</filter>
<filter id="filter1_d" x="0.000488281" y="0.0454102" width="78" height="78" filterUnits="userSpaceOnUse" color-interpolation-filters="sRGB">
<feFlood flood-opacity="0" result="BackgroundImageFix"/>
<feColorMatrix in="SourceAlpha" type="matrix" values="0 0 0 0 0 0 0 0 0 0 0 0 0 0 0 0 0 0 127 0"/>
<feOffset dy="4"/>
<feGaussianBlur stdDeviation="2"/>
<feColorMatrix type="matrix" values="0 0 0 0 0 0 0 0 0 0 0 0 0 0 0 0 0 0 0.25 0"/>
<feBlend mode="normal" in2="BackgroundImageFix" result="effect1_dropShadow"/>
<feBlend mode="normal" in="SourceGraphic" in2="effect1_dropShadow" result="shape"/>
</filter>
<clipPath id="clip0">
<rect x="4" width="70" height="70" rx="35" fill="white"/>
</clipPath>
</defs>
</svg>
