<svg width="78" height="78" viewBox="0 0 78 78" fill="none" xmlns="http://www.w3.org/2000/svg">
<g filter="url(#filter0_d)">
<circle cx="39" cy="35" r="35" fill="white"/>
</g>
<path d="M35.8753 22.5601C35.8937 22.5968 35.9487 22.606 35.9762 22.5785C36.0038 22.5601 36.0129 22.5234 35.9946 22.4959C34.912 19.8353 34.756 18.1013 34.6551 16.1196C34.6184 15.4131 34.6092 14.6608 34.8294 13.9819C35.0496 13.3213 35.5083 12.8167 36.0313 12.6607C35.9304 12.8534 35.8937 13.0828 35.9304 13.303C35.9579 13.6057 36.1138 13.881 36.3524 14.0736C36.8019 14.4039 37.4809 14.3122 37.8754 13.8718C38.2332 13.4681 38.3341 12.7892 38.1231 12.2387C37.7928 11.3946 36.7744 10.9176 35.857 11.1836C35.0588 11.4038 34.3707 12.1194 34.0129 13.0919C33.6642 14.0369 33.6734 15.0645 33.7009 15.8535C33.7927 17.6701 34.2422 20.3399 35.8753 22.5601Z" fill="black"/>
<path d="M30.8842 18.1104C31.242 18.404 31.6181 18.6793 31.9943 18.9545C32.4897 19.3215 33.0127 19.7068 33.4806 20.1197C33.5081 20.1472 33.554 20.138 33.5815 20.1105C33.5999 20.0922 33.5999 20.0646 33.5999 20.0371C32.9485 18.505 32.1686 16.7618 31.1778 15.4223C30.8383 14.9636 30.297 14.3856 29.6181 14.2479C29.3245 14.2021 29.0217 14.3122 28.8291 14.5324C28.6731 14.725 28.5446 15.0645 28.7832 15.6241C29.2419 16.6884 30.1502 17.5141 30.8842 18.1104Z" fill="black"/>
<path d="M32.4348 15.7984C32.4806 15.7984 32.5082 15.7617 32.5082 15.725V15.7159C32.4623 15.0553 32.554 14.3947 32.8109 13.78C32.8293 13.7433 32.8476 13.6883 32.866 13.6332C32.9394 13.4681 33.0036 13.2938 33.0495 13.1194C33.0678 12.9543 33.0403 12.7525 32.8843 12.624C32.7559 12.5323 32.6091 12.4956 32.4531 12.5231C32.3155 12.5414 32.1962 12.5965 32.1136 12.7066C31.9302 12.9543 31.7191 13.3396 31.7283 14.1103C31.7375 14.5966 32.2146 15.4957 32.3705 15.7526C32.3889 15.7893 32.4072 15.7984 32.4348 15.7984Z" fill="black"/>
<path d="M26.7828 18.1196C26.8011 18.1196 26.8103 18.1196 26.8286 18.1196C27.003 18.0921 27.1773 18.0462 27.3516 17.982C27.4066 17.9636 27.4617 17.9453 27.4984 17.9361C28.1314 17.7435 28.792 17.6884 29.4434 17.7893C29.4893 17.7985 29.5168 17.771 29.526 17.7251C29.5352 17.6976 29.5168 17.6701 29.4985 17.6517C29.4434 17.615 29.3884 17.5783 29.3333 17.5416C28.8654 17.2205 28.4617 16.9361 27.9113 16.881C27.058 16.7985 26.6543 17.0462 26.48 17.1563C26.3699 17.2297 26.2965 17.349 26.269 17.4866C26.2323 17.6334 26.2506 17.7893 26.3332 17.9178C26.4525 18.0554 26.6176 18.1288 26.7828 18.1196Z" fill="black"/>
<path d="M29.4248 23.7161C29.9203 23.7161 29.9203 22.9363 29.4248 22.9363C28.9202 22.9363 28.9202 23.7161 29.4248 23.7161Z" fill="black"/>
<path d="M28.5083 23.5143C29.0037 23.5143 29.0037 22.7345 28.5083 22.7345C28.0129 22.7345 28.0037 23.5143 28.5083 23.5143Z" fill="black"/>
<path d="M27.5264 23.4042C28.0218 23.4042 28.0218 22.6244 27.5264 22.6244C27.0218 22.6336 27.0218 23.4042 27.5264 23.4042Z" fill="black"/>
<path d="M26.5723 22.661C26.0768 22.661 26.0768 23.4409 26.5723 23.4409C27.0677 23.4409 27.0677 22.661 26.5723 22.661Z" fill="black"/>
<path d="M25.6821 23.6059C26.1775 23.6059 26.1775 22.826 25.6821 22.826C25.1867 22.8352 25.1867 23.6059 25.6821 23.6059Z" fill="black"/>
<path d="M36.3706 22.0005C36.866 22.0005 36.866 21.2207 36.3706 21.2207C35.8752 21.2299 35.8752 22.0005 36.3706 22.0005Z" fill="black"/>
<path d="M36.1138 21.0004C36.6092 21.0004 36.6092 20.2206 36.1138 20.2206C35.6092 20.2298 35.6092 21.0004 36.1138 21.0004Z" fill="black"/>
<path d="M35.8745 20.0738C36.3699 20.0738 36.3699 19.2939 35.8745 19.2939C35.3791 19.2939 35.3791 20.0738 35.8745 20.0738Z" fill="black"/>
<path d="M35.6455 19.0463C36.1409 19.0463 36.1409 18.2665 35.6455 18.2665C35.1501 18.2757 35.1501 19.0463 35.6455 19.0463Z" fill="black"/>
<path d="M35.5171 18.0554C36.0126 18.0554 36.0126 17.2755 35.5171 17.2755C35.0125 17.2755 35.0125 18.0554 35.5171 18.0554Z" fill="black"/>
<path d="M35.4532 17.092C35.9486 17.092 35.9486 16.3121 35.4532 16.3121C34.9486 16.3121 34.9486 17.092 35.4532 17.092Z" fill="black"/>
<path d="M35.4165 16.0645C35.9119 16.0645 35.9119 15.2847 35.4165 15.2847C34.9211 15.2847 34.9211 16.0645 35.4165 16.0645Z" fill="black"/>
<path d="M35.4805 15.1011C35.9759 15.1011 35.9759 14.3213 35.4805 14.3213C34.9851 14.3213 34.9759 15.1011 35.4805 15.1011Z" fill="black"/>
<path d="M41.4255 14.0552C41.6641 13.8626 41.8109 13.5873 41.8476 13.2846C41.8751 13.0644 41.8384 12.8442 41.7466 12.6423C42.2696 12.8075 42.7191 13.3121 42.9485 13.9635C43.1779 14.6424 43.1595 15.3947 43.1228 16.1012C43.0219 18.0829 42.8659 19.8077 41.7833 22.4775C41.765 22.5142 41.7833 22.5509 41.8292 22.5693C41.8567 22.5876 41.8934 22.5693 41.9118 22.5509C43.5449 20.3398 43.9944 17.67 44.0862 15.8259C44.132 15.0369 44.132 14.0094 43.7742 13.0644C43.4164 12.101 42.7283 11.3854 41.9393 11.1469C41.0218 10.8808 40.0126 11.3579 39.6732 12.202C39.453 12.7524 39.5539 13.4314 39.9209 13.835C40.2971 14.2938 40.976 14.3855 41.4255 14.0552Z" fill="black"/>
<path d="M44.2145 20.1288C44.2237 20.138 44.2329 20.138 44.242 20.138C44.2604 20.138 44.2787 20.1288 44.2879 20.1196C44.7558 19.7068 45.2788 19.3306 45.7742 18.9545C46.1412 18.6792 46.5173 18.404 46.8843 18.1104C47.6275 17.5049 48.5357 16.6883 48.9945 15.6149C49.233 15.0553 49.0954 14.7066 48.9486 14.5231C48.7559 14.2938 48.4623 14.1837 48.1596 14.2387C47.4898 14.3855 46.9394 14.9635 46.5999 15.4131C45.609 16.7617 44.8292 18.5049 44.1778 20.0279C44.1595 20.0646 44.1686 20.1105 44.2145 20.1288Z" fill="black"/>
<path d="M44.9028 13.6515C44.9211 13.7065 44.9486 13.7524 44.9578 13.7983C45.2055 14.4038 45.3064 15.0736 45.2606 15.7341C45.2606 15.78 45.2881 15.8075 45.3248 15.8075C45.3523 15.8075 45.3798 15.7892 45.3982 15.7708C45.545 15.5139 46.0404 14.6148 46.0404 14.1286C46.0496 13.3579 45.8386 12.9726 45.6551 12.7249C45.5725 12.6239 45.4441 12.5597 45.3156 12.5414C45.1688 12.523 45.0128 12.5597 44.8844 12.6423C44.7193 12.7707 44.6917 12.9818 44.7193 13.1377C44.7651 13.312 44.8294 13.4864 44.9028 13.6515Z" fill="black"/>
<path d="M48.2609 17.6517C48.2242 17.67 48.215 17.7251 48.2426 17.7526C48.2609 17.7709 48.2884 17.7893 48.316 17.7801C48.9674 17.6792 49.6371 17.7342 50.261 17.9269C50.2977 17.9452 50.3527 17.9544 50.4078 17.9728C50.5729 18.037 50.7472 18.0829 50.9307 18.1104C50.9491 18.1104 50.9582 18.1104 50.9766 18.1104C51.1417 18.1196 51.3069 18.037 51.4078 17.9085C51.4812 17.7709 51.5087 17.6241 51.472 17.4773C51.4537 17.3397 51.3711 17.2204 51.261 17.1471C51.0959 17.0461 50.6922 16.7892 49.8298 16.8718C49.2793 16.9269 48.8756 17.2113 48.4077 17.5324C48.371 17.5783 48.316 17.615 48.2609 17.6517Z" fill="black"/>
<path d="M48.3428 22.9363C47.8473 22.9363 47.8473 23.7161 48.3428 23.7161C48.8474 23.7161 48.8474 22.9363 48.3428 22.9363Z" fill="black"/>
<path d="M49.2607 22.7345C48.7653 22.7345 48.7653 23.5143 49.2607 23.5143C49.7653 23.5143 49.7653 22.7345 49.2607 22.7345Z" fill="black"/>
<path d="M50.2427 22.6334C49.7472 22.6334 49.7472 23.4133 50.2427 23.4133C50.7473 23.4041 50.7473 22.6334 50.2427 22.6334Z" fill="black"/>
<path d="M51.1968 22.661C50.7013 22.661 50.7013 23.4409 51.1968 23.4409C51.7014 23.4409 51.7014 22.661 51.1968 22.661Z" fill="black"/>
<path d="M52.0864 22.8352C51.591 22.8352 51.591 23.615 52.0864 23.615C52.5818 23.6059 52.5818 22.8352 52.0864 22.8352Z" fill="black"/>
<path d="M41.3985 22.0005C41.8939 22.0005 41.8939 21.2207 41.3985 21.2207C40.8847 21.2299 40.8847 22.0005 41.3985 22.0005Z" fill="black"/>
<path d="M41.6548 21.0004C42.1502 21.0004 42.1502 20.2206 41.6548 20.2206C41.1593 20.2298 41.1593 21.0004 41.6548 21.0004Z" fill="black"/>
<path d="M41.8936 20.0738C42.389 20.0738 42.389 19.2939 41.8936 19.2939C41.389 19.2939 41.389 20.0738 41.8936 20.0738Z" fill="black"/>
<path d="M42.1231 19.0463C42.6185 19.0463 42.6185 18.2665 42.1231 18.2665C41.6185 18.2757 41.6276 19.0463 42.1231 19.0463Z" fill="black"/>
<path d="M42.251 18.0554C42.7464 18.0554 42.7464 17.2755 42.251 17.2755C41.7464 17.2755 41.7464 18.0554 42.251 18.0554Z" fill="black"/>
<path d="M42.3159 16.3121C41.8205 16.3121 41.8205 17.092 42.3159 17.092C42.8205 17.092 42.8205 16.3121 42.3159 16.3121Z" fill="black"/>
<path d="M42.3525 15.2847C41.8571 15.2847 41.8571 16.0645 42.3525 16.0645C42.848 16.0645 42.848 15.2847 42.3525 15.2847Z" fill="black"/>
<path d="M42.2876 14.3213C41.7922 14.3213 41.7922 15.1011 42.2876 15.1011C42.7922 15.1011 42.783 14.3213 42.2876 14.3213Z" fill="black"/>
<path d="M36.5539 38.3679C36.8016 37.9 36.7557 37.3312 36.453 36.9C37.031 36.7348 37.3246 36.0651 37.3521 35.4412C37.3704 34.8816 37.031 34.377 36.508 34.1751C36.8291 33.5145 36.875 32.9732 36.664 32.5329C36.4163 32.0466 35.8291 31.7438 35.2511 31.7897C35.3245 31.2484 35.0768 30.7071 34.6181 30.4044C34.1593 30.1199 33.563 30.23 33.1409 30.4961C33.0675 30.0282 32.673 29.5511 32.0033 29.441C31.5721 29.3676 30.9299 29.597 30.6363 29.9915C30.2876 29.5511 29.7188 29.3309 29.1683 29.441C28.6913 29.5328 28.3151 29.9273 28.1683 30.4777C27.7096 30.2209 27.0398 30.1658 26.5995 30.5236C26.1683 30.8906 25.9664 31.4503 26.0582 32.0007C25.8013 32.0007 25.5627 32.0558 25.3334 32.1659C24.948 32.3769 24.6911 32.909 24.6728 33.3035C24.6544 33.6705 24.8563 34.0467 25.0948 34.3036C24.6177 34.5604 24.2966 35.0375 24.2875 35.533C24.2691 36.0467 24.5535 36.5238 25.0031 36.7623C24.682 37.2211 24.5902 37.7991 24.7554 38.2853C24.948 38.8266 25.5627 39.1569 26.0949 39.1661C25.9939 39.6799 26.1499 40.212 26.5261 40.579C26.9664 41.0102 27.7279 40.9184 28.1867 40.7716C28.3059 41.2579 28.7647 41.6616 29.3335 41.735C29.4069 41.7442 29.4803 41.7533 29.5537 41.7533C30.0032 41.7625 30.4344 41.5607 30.7097 41.2029C31.0491 41.5698 31.6638 41.7625 32.1776 41.6341C32.7006 41.4964 33.1134 41.0836 33.2235 40.6065C33.9667 40.8909 34.7924 40.5331 35.086 39.79C35.1685 39.5789 35.1961 39.3496 35.1777 39.1202C35.6915 39.1844 36.2878 38.8633 36.5539 38.3679ZM35.0584 38.8909C34.9942 38.8725 34.9208 38.9184 34.9116 38.9826C34.9025 39.0009 34.9025 39.0193 34.9116 39.0376C35.0584 39.6799 34.6548 40.3221 34.0034 40.4689C33.7189 40.5331 33.4345 40.4872 33.1868 40.3588C33.1318 40.3313 33.0492 40.3496 33.0217 40.4047C33.0125 40.423 33.0033 40.4322 33.0033 40.4505C32.9666 40.9001 32.5996 41.2946 32.1134 41.423C31.6455 41.5423 31.04 41.3313 30.8014 40.9551C30.7831 40.9184 30.7372 40.9001 30.7005 40.9001C30.6546 40.9001 30.6179 40.9184 30.5996 40.9643C30.361 41.3772 29.8748 41.6065 29.3702 41.5331C28.8564 41.4597 28.4436 41.0744 28.4069 40.634C28.3977 40.5606 28.3426 40.5148 28.2692 40.5239C28.2509 40.5239 28.2509 40.5239 28.2325 40.5331C27.7371 40.7258 27.0307 40.7716 26.682 40.4322C26.2233 39.9918 26.26 39.3863 26.3609 39.1019C26.3793 39.0376 26.3426 38.9643 26.2875 38.9459C26.2692 38.9367 26.2508 38.9367 26.2416 38.9367C25.7187 38.9918 25.1407 38.6523 24.9847 38.2211C24.8196 37.7716 24.9389 37.2211 25.2875 36.8082C25.3334 36.7623 25.3242 36.6798 25.2691 36.6431C25.26 36.6339 25.2508 36.6247 25.2324 36.6247C24.7921 36.4596 24.5076 36.0284 24.526 35.5605C24.526 35.1017 24.8655 34.6522 25.3425 34.4779C25.4068 34.4595 25.4343 34.3861 25.4159 34.3219C25.4068 34.3036 25.3976 34.2852 25.3792 34.276C25.1407 34.0742 24.893 33.698 24.9113 33.3402C24.9297 33.0191 25.1499 32.5696 25.4435 32.4044C25.6728 32.2943 25.9297 32.2484 26.1866 32.2668C26.26 32.276 26.315 32.2209 26.3242 32.1567C26.3242 32.1384 26.3242 32.1292 26.3242 32.1108C26.1866 31.6062 26.3701 31.0282 26.7463 30.7255C27.1499 30.3952 27.7922 30.4961 28.1683 30.7805C28.2234 30.8264 28.2968 30.808 28.3335 30.753C28.3518 30.7346 28.3518 30.7163 28.3518 30.7071C28.4619 30.0557 28.8748 29.753 29.1959 29.6887C29.6546 29.597 30.2785 29.7988 30.5078 30.2851C30.5262 30.331 30.5721 30.3585 30.6179 30.3585C30.6638 30.3585 30.7097 30.331 30.728 30.2851C30.8932 29.8997 31.5446 29.6337 31.9482 29.6979C32.5721 29.7988 32.9391 30.3126 32.8841 30.7346C32.8749 30.7989 32.9299 30.8631 32.985 30.8723C33.0217 30.8814 33.0584 30.8631 33.0859 30.8447C33.4345 30.5328 34.0401 30.3585 34.4713 30.6337C34.8933 30.9181 35.086 31.4319 34.9575 31.9273C34.9392 31.9916 34.9759 32.065 35.0401 32.0741C35.0584 32.0833 35.086 32.0833 35.0951 32.0741C35.6181 31.964 36.1961 32.2209 36.4163 32.6613C36.6089 33.0466 36.5355 33.5696 36.1961 34.2118C36.1686 34.2669 36.1869 34.3494 36.242 34.377C36.2511 34.3861 36.2603 34.3861 36.2787 34.3953C36.7374 34.487 37.0952 34.9733 37.0768 35.4596C37.0585 35.8908 36.8475 36.6981 36.1869 36.7256C36.1135 36.7256 36.0676 36.7807 36.0676 36.8541C36.0676 36.8908 36.086 36.9183 36.1043 36.9367C36.4621 37.2945 36.5539 37.8449 36.3245 38.2853C36.0952 38.7074 35.508 38.9918 35.0584 38.8909Z" fill="black"/>
<path d="M27.5535 29.8173C27.5994 29.8356 27.6544 29.854 27.7003 29.854C27.8012 29.854 27.9021 29.8081 27.9755 29.7439C28.0489 29.6796 28.0856 29.5787 28.0856 29.4686V29.4503C28.0856 29.3494 28.0397 29.2484 27.9755 29.175C27.9021 29.1016 27.8012 29.0649 27.7003 29.0649C27.5994 29.0649 27.4984 29.1108 27.425 29.175C27.3516 29.2484 27.3149 29.3402 27.3149 29.4503V29.4686C27.3149 29.5695 27.3608 29.6705 27.425 29.7439C27.4617 29.7806 27.5076 29.8081 27.5535 29.8173Z" fill="black"/>
<path d="M30.6454 29.2851C30.7463 29.2851 30.8472 29.2392 30.9206 29.175C30.994 29.1016 31.0307 29.0007 31.0307 28.8997C31.0307 28.7988 30.9848 28.6979 30.9206 28.6245C30.8472 28.5511 30.7555 28.5144 30.6454 28.5144H30.627C30.5261 28.5144 30.4252 28.5603 30.3518 28.6245C30.2784 28.6979 30.2417 28.7988 30.2417 28.8997C30.2417 29.0007 30.2876 29.1016 30.3518 29.175C30.4252 29.2484 30.5169 29.2851 30.627 29.2851H30.6454Z" fill="black"/>
<path d="M33.481 29.7896C33.9764 29.7896 33.9764 29.0098 33.481 29.0098C32.9855 29.0098 32.9764 29.7896 33.481 29.7896Z" fill="black"/>
<path d="M38.7832 26.5784C39.2787 26.5784 39.2787 25.7986 38.7832 25.7986C38.2786 25.7986 38.2786 26.5784 38.7832 26.5784Z" fill="black"/>
<path d="M38.7832 25.6612C39.2787 25.6612 39.2787 24.8813 38.7832 24.8813C38.2786 24.8813 38.2786 25.6612 38.7832 25.6612Z" fill="black"/>
<path d="M38.7832 23.9639C38.2878 23.9639 38.2878 24.7437 38.7832 24.7437C39.2786 24.7437 39.2786 23.9639 38.7832 23.9639Z" fill="black"/>
<path d="M25.15 26.3034C25.5812 26.0007 26.0583 25.7805 26.5629 25.6704C27.1133 25.5511 27.7097 25.597 28.2602 25.6337C30.6639 25.8172 32.9943 26.6979 35.0494 27.9365C35.9852 28.487 36.8568 29.1384 37.6458 29.8723C37.6917 29.9182 37.7742 29.9182 37.8201 29.8632C37.8568 29.8265 37.866 29.7622 37.8385 29.7255C37.1687 28.6154 36.0953 27.753 35.0494 26.9823C33.9209 26.1383 32.719 25.3951 31.4713 24.7529C30.1685 24.0923 28.6272 23.6611 27.1409 23.7529C25.8105 23.8263 24.361 24.3951 23.6453 25.5878C22.9481 26.7621 22.9848 28.4686 23.7187 29.6154C23.7279 29.6246 23.7279 29.6338 23.7371 29.6338L23.7463 29.643C23.7646 29.6613 23.8013 29.6705 23.8288 29.6705C23.8747 29.6705 23.9114 29.643 23.9298 29.5971C23.9389 29.5788 23.9481 29.5512 23.9389 29.5237C23.9389 28.8815 23.9665 28.2209 24.1683 27.6062C24.3518 27.0924 24.6912 26.6337 25.15 26.3034Z" fill="black"/>
<path d="M25.3977 21.1104C25.8197 21.2847 26.4711 21.0921 26.8197 20.9728C27.9941 20.615 29.3703 20.6884 30.6914 21.1838C31.8015 21.5967 32.875 22.2939 33.9851 23.3031C35.5172 24.7069 36.765 26.3858 37.6641 28.2666C37.6825 28.3033 37.7283 28.3125 37.765 28.3033C37.8017 28.2941 37.8109 28.2483 37.8017 28.2116C36.9301 25.6427 35.2879 23.0371 33.4254 21.2297C32.352 20.2021 31.3245 19.4865 30.2602 19.0553C28.9574 18.5232 27.5996 18.4314 26.4344 18.7892C25.939 18.9452 25.3243 19.459 25.0674 19.9361C24.9206 20.2113 24.8747 20.4682 24.9573 20.6792C25.0307 20.8811 25.1775 21.0187 25.3977 21.1104Z" fill="black"/>
<path d="M35.9482 27.3492C36.4437 27.3492 36.4437 26.5693 35.9482 26.5693C35.4528 26.5785 35.4528 27.3492 35.9482 27.3492Z" fill="black"/>
<path d="M35.0221 25.8262C34.9211 25.8262 34.8202 25.872 34.7468 25.9363C34.6734 26.0097 34.6367 26.1106 34.6367 26.2115C34.6367 26.3124 34.6826 26.4133 34.7468 26.4867C34.811 26.5601 34.912 26.5968 35.0221 26.5968H35.0588C35.1597 26.5968 35.2606 26.551 35.334 26.4867C35.4074 26.4133 35.4441 26.3124 35.4441 26.2115C35.4441 26.1106 35.3982 26.0097 35.334 25.9363C35.2606 25.8629 35.1688 25.8262 35.0588 25.8262H35.0221Z" fill="black"/>
<path d="M34.1773 25.9179C34.6727 25.9179 34.6727 25.1381 34.1773 25.1381C33.6727 25.1472 33.6727 25.9179 34.1773 25.9179Z" fill="black"/>
<path d="M33.2232 25.2757C33.7186 25.2757 33.7186 24.4958 33.2232 24.4958C32.7186 24.4958 32.7186 25.2757 33.2232 25.2757Z" fill="black"/>
<path d="M32.0676 24.1105C31.9942 24.1839 31.9575 24.2756 31.9575 24.3857V24.4224C31.9575 24.5234 32.0034 24.6243 32.0676 24.6977C32.141 24.7711 32.2419 24.8078 32.3429 24.8078C32.4438 24.8078 32.5447 24.7619 32.6181 24.6977C32.6915 24.6243 32.7282 24.5325 32.7282 24.4224V24.3857C32.7282 24.2848 32.6823 24.1839 32.6181 24.1105C32.5447 24.0371 32.4438 24.0004 32.3429 24.0004C32.2419 23.9912 32.141 24.0279 32.0676 24.1105Z" fill="black"/>
<path d="M31.4526 24.395C31.9481 24.395 31.9481 23.6151 31.4526 23.6151C30.9572 23.6151 30.9572 24.395 31.4526 24.395Z" fill="black"/>
<path d="M30.4341 23.2115C29.9386 23.2115 29.9386 23.9914 30.4341 23.9914C30.9387 23.9914 30.9387 23.2115 30.4341 23.2115Z" fill="black"/>
<path d="M24.8384 23.9914C25.3338 23.9914 25.3338 23.2115 24.8384 23.2115C24.3429 23.2115 24.3429 23.9914 24.8384 23.9914Z" fill="black"/>
<path d="M23.9937 24.5601C24.4891 24.5601 24.4891 23.7803 23.9937 23.7803C23.4891 23.7803 23.4891 24.5601 23.9937 24.5601Z" fill="black"/>
<path d="M53.4808 35.5513C53.4808 35.0559 53.1506 34.5697 52.6735 34.3219C52.912 34.0651 53.1139 33.6889 53.0955 33.3219C53.0772 32.9274 52.8203 32.4045 52.4349 32.1843C52.2147 32.0742 51.967 32.0191 51.7101 32.0191C51.8019 31.4686 51.6 30.909 51.1688 30.542C50.7285 30.175 50.0587 30.2301 49.6 30.4961C49.4532 29.9457 49.077 29.5512 48.6 29.4594C48.0495 29.3493 47.4806 29.5603 47.132 30.0099C46.8293 29.6154 46.1962 29.3952 45.765 29.4594C45.0953 29.5603 44.7007 30.0466 44.6273 30.5145C44.2053 30.2484 43.5998 30.1383 43.1502 30.4227C42.6915 30.7255 42.453 31.2668 42.5172 31.8081C41.9484 31.7622 41.352 32.065 41.1043 32.5512C40.8841 32.9825 40.9392 33.5329 41.2603 34.1935C40.7373 34.3953 40.407 34.9091 40.4162 35.4596C40.4437 36.0835 40.7373 36.7532 41.3153 36.9184C41.0034 37.3496 40.9667 37.9184 41.2144 38.3863C41.4805 38.8725 42.0676 39.2028 42.5906 39.1661C42.5172 39.9552 43.086 40.6616 43.875 40.7442C44.0952 40.7625 44.3338 40.735 44.5448 40.6524C44.6549 41.1295 45.0677 41.5424 45.5907 41.68C46.1045 41.8176 46.7192 41.6158 47.0586 41.2488C47.343 41.6066 47.7651 41.8084 48.2146 41.7992C48.288 41.7992 48.3614 41.7901 48.4348 41.7809C48.9945 41.7075 49.4624 41.2946 49.5816 40.8176C50.0404 40.9644 50.8019 41.0469 51.2422 40.6249C51.6092 40.2579 51.7744 39.7166 51.6734 39.212C52.2056 39.1937 52.8203 38.8725 53.0129 38.3312C53.1781 37.845 53.0863 37.267 52.7652 36.8083C53.2148 36.5422 53.4992 36.0651 53.4808 35.5513ZM52.5267 36.6156C52.4625 36.6431 52.4349 36.7165 52.4533 36.7716C52.4625 36.7899 52.4716 36.7899 52.4716 36.8083C52.8111 37.2119 52.9304 37.7624 52.7744 38.2212C52.6184 38.6524 52.0313 38.9918 51.5175 38.9368C51.4533 38.9276 51.389 38.9826 51.3799 39.0377C51.3799 39.056 51.3799 39.0744 51.389 39.0836C51.49 39.368 51.5267 39.9735 51.0679 40.4139C50.7193 40.7533 50.0128 40.6983 49.5174 40.5148C49.4532 40.4965 49.3798 40.524 49.3614 40.5882C49.3523 40.6065 49.3523 40.6065 49.3523 40.6249C49.3156 41.0653 48.9027 41.4506 48.3889 41.524C47.8752 41.5974 47.3981 41.368 47.1595 40.9552C47.1412 40.9185 47.0953 40.891 47.0586 40.891C47.0127 40.891 46.9852 40.9093 46.9577 40.946C46.7192 41.3222 46.1136 41.5332 45.6457 41.4139C45.1595 41.2855 44.7925 40.891 44.7558 40.4414C44.7466 40.368 44.6916 40.3221 44.6182 40.3313C44.5998 40.3313 44.5815 40.3405 44.5723 40.3497C43.9943 40.6616 43.2603 40.4322 42.9576 39.8542C42.8199 39.5973 42.7833 39.3129 42.8475 39.0377C42.8658 38.9735 42.8199 38.9001 42.7557 38.8909C42.7374 38.8817 42.719 38.8817 42.7007 38.8909C42.2511 38.9918 41.6639 38.7074 41.4162 38.2579C41.1869 37.8083 41.2694 37.267 41.6364 36.9092C41.6823 36.8633 41.6823 36.7807 41.6456 36.744C41.6272 36.7257 41.5997 36.7073 41.563 36.7073C40.8933 36.689 40.6914 35.8725 40.6731 35.4412C40.6547 34.955 41.0126 34.4687 41.4713 34.377C41.5355 34.3586 41.5722 34.3036 41.5722 34.2394C41.5722 34.221 41.563 34.221 41.5539 34.2027C41.2144 33.5605 41.141 33.0375 41.3337 32.6522C41.5539 32.2118 42.1319 31.9549 42.6548 32.065C42.719 32.0833 42.7924 32.0375 42.7924 31.9732C42.8016 31.9549 42.7924 31.9274 42.7924 31.9182C42.664 31.4319 42.8658 30.909 43.2787 30.6246C43.7099 30.3493 44.3154 30.5237 44.664 30.8356C44.7099 30.8815 44.7925 30.8815 44.8292 30.8172C44.8475 30.7897 44.8659 30.753 44.8567 30.7163C44.7925 30.1934 45.2879 29.753 45.7925 29.6796C46.1962 29.6154 46.8476 29.8814 47.0127 30.2668C47.0311 30.3126 47.077 30.3402 47.1228 30.3402C47.1687 30.3402 47.2146 30.3126 47.2329 30.2668C47.4531 29.7805 48.0862 29.5787 48.5449 29.6704C48.866 29.7346 49.2789 30.0374 49.389 30.6888C49.4073 30.753 49.4624 30.7989 49.5266 30.7897C49.5449 30.7897 49.5633 30.7714 49.5725 30.7714C50.0587 30.4044 50.6826 30.4594 50.9945 30.7163C51.3707 31.0283 51.545 31.5971 51.4166 32.1017C51.3982 32.1659 51.4349 32.2393 51.4991 32.2485C51.5175 32.2577 51.5267 32.2577 51.545 32.2485C51.8019 32.2301 52.0588 32.2668 52.2881 32.3861C52.5817 32.5512 52.8111 33.0008 52.8203 33.3219C52.8386 33.6705 52.5909 34.0467 52.3524 34.2577C52.3065 34.3036 52.2973 34.377 52.334 34.4229C52.3524 34.4412 52.3615 34.4504 52.3799 34.4596C52.857 34.6431 53.1964 35.0926 53.1964 35.5422C53.2607 36.0284 52.9762 36.4596 52.5267 36.6156Z" fill="black"/>
<path d="M50.2152 29.8173C50.2611 29.7989 50.307 29.7714 50.3437 29.7439C50.4171 29.6705 50.4538 29.5787 50.4538 29.4686V29.4503C50.4538 29.3494 50.4079 29.2484 50.3437 29.175C50.2703 29.1016 50.1785 29.0649 50.0684 29.0649C49.9675 29.0741 49.8758 29.1108 49.7932 29.175C49.7198 29.2484 49.6831 29.3402 49.6831 29.4503V29.4686C49.6831 29.5695 49.729 29.6705 49.7932 29.7439C49.8666 29.8173 49.9583 29.854 50.0684 29.854C50.1143 29.854 50.1694 29.8448 50.2152 29.8173Z" fill="black"/>
<path d="M47.1415 29.2851C47.2424 29.2851 47.3433 29.2392 47.4167 29.175C47.4901 29.1016 47.5268 29.0098 47.5268 28.8997C47.5176 28.7988 47.4809 28.7071 47.4167 28.6245C47.3433 28.5511 47.2516 28.5144 47.1415 28.5144H47.1231C47.0222 28.5144 46.9213 28.5603 46.8479 28.6245C46.7745 28.6979 46.7378 28.7896 46.7378 28.8997C46.747 29.0007 46.7837 29.0924 46.8479 29.175C46.9213 29.2484 47.013 29.2851 47.1231 29.2851H47.1415Z" fill="black"/>
<path d="M44.2881 29.0098C43.7926 29.0098 43.7926 29.7896 44.2881 29.7896C44.7927 29.7896 44.7835 29.0098 44.2881 29.0098Z" fill="black"/>
<path d="M51.1783 23.8079C48.2333 23.3767 45.4901 25.0373 43.1781 26.652C41.9762 27.4961 40.701 28.4502 39.9303 29.7255C39.8936 29.7805 39.9211 29.8631 39.9762 29.8906C40.022 29.9181 40.0771 29.909 40.1138 29.8723C41.6368 28.4319 43.5176 27.3401 45.4626 26.5878C46.6094 26.129 47.8204 25.8263 49.0498 25.6795C49.637 25.6061 50.2609 25.5602 50.8481 25.6153C51.371 25.6703 51.8756 25.8354 52.316 26.1107C52.8573 26.4226 53.3068 26.8722 53.5362 27.4594C53.7931 28.1199 53.8298 28.8355 53.8206 29.5328C53.8114 29.5512 53.8206 29.5787 53.8298 29.6062C53.8481 29.6521 53.8848 29.6796 53.9307 29.6796C53.9582 29.6888 53.9949 29.6704 54.0133 29.6613L54.0225 29.6521C54.0316 29.6429 54.0408 29.6337 54.0408 29.6337C54.7014 28.5878 54.7748 27.1291 54.3069 26.0006C53.8023 24.7345 52.472 24.0005 51.1783 23.8079Z" fill="black"/>
<path d="M39.9944 28.3033C40.0311 28.3216 40.0678 28.3033 40.0862 28.2666C40.9853 26.395 42.2331 24.7068 43.7652 23.3031C44.8753 22.2939 45.9488 21.5967 47.0589 21.1838C48.38 20.6884 49.7562 20.615 50.9306 20.9728C51.2792 21.0737 51.9306 21.2847 52.3526 21.1104C52.5728 21.0187 52.7196 20.8719 52.793 20.6884C52.8664 20.4774 52.8297 20.2205 52.6829 19.9452C52.426 19.459 51.8113 18.9544 51.3159 18.7984C50.1507 18.4406 48.7929 18.5323 47.4901 19.0645C46.435 19.4957 45.3983 20.2113 44.3249 21.2388C42.4532 23.0462 40.811 25.6518 39.9486 28.2207C39.9394 28.2574 39.9669 28.2941 39.9944 28.3033Z" fill="black"/>
<path d="M41.8198 26.5785C41.3244 26.5785 41.3244 27.3583 41.8198 27.3583C42.3152 27.3492 42.3152 26.5785 41.8198 26.5785Z" fill="black"/>
<path d="M42.7467 26.5968C42.8477 26.5968 42.9486 26.551 43.022 26.4867C43.0954 26.4133 43.1321 26.3216 43.1321 26.2115C43.1229 26.1106 43.0862 26.0188 43.022 25.9363C42.9486 25.8629 42.8568 25.8262 42.7467 25.8262H42.71C42.6091 25.8262 42.5082 25.872 42.4348 25.9363C42.3614 26.0097 42.3247 26.1014 42.3247 26.2115C42.3339 26.3124 42.3706 26.4042 42.4348 26.4867C42.5082 26.5601 42.6 26.5968 42.71 26.5968H42.7467Z" fill="black"/>
<path d="M43.5913 25.1473C43.0959 25.1473 43.0959 25.9272 43.5913 25.9272C44.0959 25.918 44.0959 25.1473 43.5913 25.1473Z" fill="black"/>
<path d="M44.5449 24.4958C44.0495 24.4958 44.0495 25.2757 44.5449 25.2757C45.0403 25.2757 45.0495 24.4958 44.5449 24.4958Z" fill="black"/>
<path d="M45.5819 24.762C45.6278 24.7436 45.6737 24.7161 45.7104 24.6886C45.7838 24.6152 45.8205 24.5235 45.8205 24.4134V24.3767C45.8205 24.2757 45.7746 24.1748 45.7104 24.1014C45.637 24.028 45.5452 23.9913 45.4351 23.9913C45.3342 24.0005 45.2425 24.0372 45.1599 24.1014C45.0865 24.1748 45.0498 24.2666 45.0498 24.3767V24.4134C45.0498 24.5143 45.0957 24.6152 45.1599 24.6886C45.2241 24.762 45.325 24.7987 45.4351 24.7987C45.481 24.7987 45.5269 24.7895 45.5819 24.762Z" fill="black"/>
<path d="M46.3154 23.6151C45.82 23.6151 45.82 24.395 46.3154 24.395C46.8108 24.395 46.8108 23.6151 46.3154 23.6151Z" fill="black"/>
<path d="M47.334 23.2115C46.8385 23.2115 46.8385 23.9914 47.334 23.9914C47.8294 23.9914 47.8294 23.2115 47.334 23.2115Z" fill="black"/>
<path d="M52.9307 23.9914C53.4261 23.9914 53.4261 23.2115 52.9307 23.2115C52.4352 23.2115 52.4352 23.9914 52.9307 23.9914Z" fill="black"/>
<path d="M53.7749 24.5601C54.2703 24.5601 54.2703 23.7803 53.7749 23.7803C53.2795 23.7803 53.2795 24.5601 53.7749 24.5601Z" fill="black"/>
<path d="M42.0222 44.1112C42.2515 43.5607 42.2148 42.8818 41.9304 42.0744C41.5726 41.0927 40.9854 40.2762 40.4074 39.4963C39.8019 38.6706 39.178 37.8174 38.8477 36.7715C38.8294 36.7348 38.7927 36.7164 38.756 36.7256C38.7376 36.7348 38.7101 36.7531 38.7101 36.7715C38.3798 37.8174 37.756 38.6706 37.1504 39.4963C36.5816 40.2854 35.9944 41.0927 35.6366 42.0744C35.343 42.8726 35.3155 43.5607 35.5449 44.1112C35.8385 44.7809 36.4807 45.2213 37.2147 45.2396C37.2238 45.2396 37.233 45.2396 37.2422 45.2396C37.9119 45.2396 38.545 44.836 38.8019 44.2855C39.0863 44.8726 39.6918 45.2488 40.3524 45.2396C41.0863 45.2213 41.7286 44.7809 42.0222 44.1112Z" fill="black"/>
<path d="M34.5635 44.1754C34.6002 44.2213 34.6369 44.2672 34.6644 44.3039C34.6919 44.3314 34.7378 44.3406 34.7653 44.313C34.7837 44.2947 34.802 44.2672 34.7837 44.2396C33.8387 41.579 30.5725 42.4873 29.0037 42.9277C28.811 42.9827 28.6459 43.0286 28.5174 43.0653C28.4349 43.0836 28.3523 43.1112 28.2605 43.1295C27.6825 43.2671 27.0954 43.4139 26.5174 43.3497C25.7742 43.258 25.132 42.6616 25.0036 42.1478C25.2146 42.1662 25.4256 42.0836 25.5816 41.9368C25.7926 41.7533 25.9027 41.4781 25.866 41.1937C25.8201 40.9551 25.6917 40.735 25.4898 40.5973C25.2696 40.4322 24.9852 40.3588 24.7008 40.3955C24.2145 40.4689 23.7925 40.8817 23.6641 41.4139C23.554 41.8634 23.6457 42.3956 23.921 42.8635C24.4256 43.7167 25.4806 44.2855 26.6642 44.3589C27.7743 44.4231 28.8661 44.0745 29.7835 43.7259C29.8845 43.6892 29.9854 43.6525 30.0955 43.6066C30.49 43.4506 30.8937 43.2947 31.3157 43.2304C33.5268 42.8451 34.1782 43.68 34.5635 44.1754Z" fill="black"/>
<path d="M33.5265 41.2304C33.3155 41.2763 33.1596 41.4506 33.1504 41.6708C33.1504 41.8451 33.2605 42.0286 33.4532 42.1479C33.5724 42.2029 33.7009 42.2488 33.8201 42.258C33.9027 42.2763 33.9853 42.2946 34.077 42.3222C34.6367 42.5699 34.7651 43.0561 34.8569 43.6341C34.866 43.6708 34.8936 43.6984 34.9303 43.6984H34.9394C34.9761 43.6984 35.0128 43.6617 35.0128 43.625V43.5699C35.0128 42.946 35.0128 42.4047 34.6734 41.8634C34.4991 41.6249 34.0862 41.0928 33.5265 41.2304Z" fill="black"/>
<path d="M54.6646 37.2945C56.7197 32.0649 56.9124 27.7896 56.7197 25.1198C56.5087 22.2573 55.8298 20.6242 55.7839 20.4958C53.9673 15.6149 50.903 12.2386 46.6643 10.4404C43.2789 9 40.132 9 38.7833 9C37.1227 9 34.0217 9 30.7647 10.4404C26.7646 12.2111 23.8012 15.5965 21.9938 20.4958C21.948 20.615 21.269 22.2573 21.058 25.1198C20.8653 27.7896 21.058 32.0649 23.1131 37.2945C23.0214 37.6064 22.9296 37.9092 22.8471 38.2028C22.0856 40.7349 21.5534 42.5607 23.5902 44.4874C23.6086 44.5057 23.6177 44.5149 23.6361 44.5332C24.2599 45.1479 25.0581 45.5516 25.9206 45.6984C26.1958 46.2122 27.4894 48.9095 27.3701 52.7628C27.3151 54.4326 27.6821 55.6895 28.4527 56.4877C28.9115 56.974 29.5353 57.2859 30.1959 57.3593C30.8932 58.1667 31.7739 59.286 32.2327 60.1025C32.5997 60.7539 33.2235 61.3044 34.0125 61.6347C34.9025 62.0017 35.9576 62.0934 37.0585 61.8824C37.0585 61.8824 37.0585 61.8824 37.0677 61.8824C37.6457 61.7631 38.242 61.6897 38.8384 61.6897C39.71 61.6897 40.7192 61.8824 40.7284 61.8824C41.1137 61.9558 41.499 61.9925 41.8935 61.9925C42.5358 62.0017 43.178 61.8732 43.7835 61.6347C44.5725 61.3044 45.2056 60.7631 45.5634 60.1025C46.0221 59.286 46.9029 58.1575 47.6001 57.3593C48.2699 57.2859 48.8938 56.974 49.3433 56.4877C50.1231 55.6804 50.4901 54.4234 50.4259 52.7628C50.3066 48.9187 51.6094 46.2122 51.8755 45.6984C52.7379 45.5608 53.5361 45.1479 54.16 44.5332C54.1783 44.5149 54.1875 44.5057 54.2058 44.4874C56.2426 42.5607 55.7013 40.7349 54.949 38.2028C54.8481 37.9092 54.7563 37.6064 54.6646 37.2945ZM28.7188 56.2125C28.0215 55.4877 27.6912 54.3225 27.7463 52.772C27.8564 49.1939 26.8105 46.6434 26.3701 45.7534C26.5261 45.7718 26.682 45.7718 26.838 45.7718C26.8564 45.7718 26.8839 45.7718 26.9022 45.7718C27.2417 45.9094 27.9757 46.2489 28.205 46.7902C28.416 47.2856 28.361 47.7443 28.3059 48.2306C28.2417 48.7811 28.1775 49.3407 28.4436 50.0288C28.7096 50.7261 29.3427 51.2215 30.1776 51.3775C30.15 51.405 30.1225 51.4325 30.1042 51.46C29.9115 51.7169 29.8932 52.0839 30.0308 52.561C30.0399 52.5793 30.0491 52.6069 30.0583 52.6252C29.8656 52.4876 29.6363 52.4142 29.3977 52.4234C28.9665 52.4234 28.5537 52.7537 28.3977 53.2216C28.2509 53.6069 28.2234 54.0289 28.3151 54.4234C28.4252 54.9831 28.6638 55.506 29.0124 55.9556C29.15 56.1758 29.306 56.3868 29.4803 56.5611C29.5537 56.6437 29.6546 56.7446 29.7647 56.8639C29.3702 56.7446 29.0124 56.5244 28.7188 56.2125ZM30.9666 52.5243C30.9758 52.7995 31.0216 53.0748 31.1134 53.3317H31.1042C31.0859 53.3408 30.9299 53.4051 30.7005 53.1849C30.5812 53.0564 30.3244 52.5518 30.2968 52.4784C30.1867 52.1114 30.1959 51.8179 30.3152 51.6435C30.3611 51.5701 30.4528 51.5059 30.5354 51.4876C30.7372 51.4876 31.0492 51.7812 31.095 52.0197C31.0767 52.0472 31.0492 52.0839 31.0308 52.1114C30.9849 52.2491 30.9666 52.3867 30.9666 52.5243ZM30.9024 51.0105C30.884 51.0288 30.8473 51.0564 30.7647 51.0472C30.673 51.0013 30.5996 50.9371 30.5629 50.8545C30.4253 50.3958 30.4712 49.7261 30.8748 49.2673C30.9115 49.2398 30.9574 49.2214 31.0033 49.2123C31.0216 49.2214 31.0492 49.2306 31.0492 49.249C31.095 49.3132 31.1226 49.3774 31.1501 49.4416C30.9115 49.9279 30.8198 50.4784 30.9024 51.0105ZM30.2601 50.827C30.2418 50.8087 30.2143 50.7903 30.1959 50.772C30.1133 50.6894 29.9849 50.4692 30.0308 49.9646C30.0491 49.7077 30.2326 49.3499 30.4069 49.2031C30.4345 49.1756 30.462 49.1572 30.5079 49.1572C30.5262 49.1756 30.5445 49.1939 30.5537 49.2123C30.1959 49.7077 30.1409 50.3407 30.2601 50.827ZM47.3432 57.0382C47.3341 57.0382 47.3341 57.0474 47.3341 57.0566C46.6185 57.8823 45.6826 59.0658 45.2056 59.9282C44.3615 61.442 42.3798 61.8182 40.7926 61.5062C40.7651 61.4971 40.3889 61.4328 39.9118 61.3686C40.3614 61.3411 40.8293 61.2218 41.3981 60.8457C41.5724 60.7264 42.1596 60.1484 42.6 59.2218C42.6458 59.3869 42.7376 59.5429 42.8569 59.6621C43.0771 59.8548 43.4624 59.8548 43.7009 59.7631C43.9578 59.6346 44.1597 59.4053 44.2239 59.1208C44.2973 58.7722 44.2055 58.4052 43.967 58.13C43.7285 57.8639 43.389 57.7263 43.0312 57.7447C42.1688 57.7905 41.8844 58.4419 41.5999 59.13C41.4348 59.5245 41.2605 59.9282 40.9669 60.2768C40.3614 61.0016 39.7008 61.1209 39.0127 61.2035C39.1411 60.9833 39.2788 60.7631 39.4347 60.5613C39.6458 60.2677 39.8659 59.9649 40.0036 59.5979C40.1137 59.286 40.132 59.0291 40.0403 58.8089C39.9302 58.552 39.6733 58.3777 39.3797 58.3685C39.1503 58.3685 38.9393 58.4786 38.8109 58.6713C38.6732 58.4786 38.4622 58.3593 38.2237 58.3685C37.9393 58.3777 37.6824 58.552 37.5631 58.8089C37.4714 59.0199 37.4897 59.286 37.5998 59.5979C37.7374 59.9649 37.9485 60.2677 38.1686 60.5613C38.3246 60.7631 38.4622 60.9833 38.5907 61.2035C37.8934 61.1209 37.242 61.0108 36.6181 60.2768C36.3337 59.9374 36.1594 59.5245 35.9851 59.13C35.6915 58.4419 35.4071 57.7905 34.5539 57.7447C34.196 57.7263 33.8566 57.8639 33.618 58.13C33.3887 58.4052 33.2878 58.7722 33.3612 59.1208C33.4345 59.4053 33.6272 59.6438 33.8841 59.7631C34.1226 59.864 34.508 59.8548 34.7282 59.6621C34.8566 59.5429 34.9484 59.3869 34.9851 59.2218C35.4346 60.1484 36.0126 60.7356 36.1869 60.8457C36.7925 61.2493 37.2879 61.3594 37.765 61.3778C37.3338 61.4328 37.031 61.4971 36.9943 61.5154C34.7832 61.9466 33.1868 61.0292 32.5813 59.9374C32.0951 59.0658 31.1592 57.8823 30.4436 57.0566C30.1959 56.7721 29.9849 56.5336 29.8198 56.3593C29.3152 55.607 29.1592 54.7446 29.3977 53.9739C29.6821 54.1757 29.8932 54.1574 30.0308 54.0932C30.2877 53.9739 30.4345 53.6253 30.4345 53.3684C30.4345 53.35 30.4345 53.3225 30.4345 53.295C30.462 53.3408 30.4895 53.3684 30.5262 53.4051C30.7097 53.5977 30.8932 53.662 31.0492 53.662C31.1226 53.662 31.1868 53.6436 31.2418 53.6161C31.2785 53.6987 31.3152 53.7812 31.3703 53.8546C31.4528 54.0106 31.5629 54.139 31.7097 54.2491C31.829 54.3317 31.9666 54.3867 32.1134 54.3867C32.1593 54.3867 32.2143 54.3776 32.2602 54.3684C32.3152 54.35 32.3611 54.3225 32.4162 54.295C32.4896 54.4326 32.5905 54.5519 32.7189 54.6436C32.8474 54.7446 33.0033 54.8088 33.1593 54.8088C33.1777 54.8088 33.1868 54.8088 33.2052 54.8088C33.3153 54.7996 33.4254 54.7629 33.5171 54.6895C33.6547 54.9189 33.8382 55.1482 34.0951 55.2675C34.1869 55.3134 34.2878 55.3409 34.3979 55.3409C34.4071 55.3409 34.4071 55.3409 34.4162 55.3409C34.5814 55.3317 34.7282 55.2583 34.8199 55.1299C34.8658 55.2033 34.9117 55.2675 34.9667 55.3317C35.1685 55.5978 35.3796 55.7354 35.6089 55.7446C35.6181 55.7446 35.6273 55.7446 35.6365 55.7446C35.8291 55.7354 36.0034 55.6437 36.1227 55.4877C36.2236 55.6712 36.3704 55.8272 36.5356 55.9556C36.7925 56.1483 37.1503 56.0932 37.3429 55.8363C37.3888 55.7813 37.4163 55.7079 37.4438 55.6437C37.453 55.6528 37.4622 55.662 37.4622 55.6712C37.6273 55.9556 37.9485 56.2217 38.2696 56.2217C38.2879 56.2217 38.2971 56.2217 38.3154 56.2217C38.7375 56.1941 38.8934 55.8088 38.9485 55.4418C39.0035 55.7996 39.1503 56.185 39.5815 56.2217C39.5999 56.2217 39.6091 56.2217 39.6274 56.2217C39.9485 56.2217 40.2605 55.9464 40.4348 55.6712C40.4439 55.662 40.4531 55.6528 40.4531 55.6437C40.5265 55.9556 40.8476 56.1299 41.1504 56.0565C41.2238 56.0382 41.288 56.0107 41.3522 55.9556C41.5174 55.8272 41.6642 55.6712 41.7651 55.4877C41.8752 55.6437 42.0587 55.7446 42.2513 55.7446C42.2605 55.7446 42.2697 55.7446 42.2789 55.7446C42.4991 55.7262 42.7101 55.5978 42.9211 55.3317C42.967 55.2675 43.022 55.1941 43.0679 55.1299C43.1688 55.2583 43.3156 55.3317 43.4716 55.3409C43.4807 55.3409 43.4807 55.3409 43.4899 55.3409C43.5908 55.3409 43.7009 55.3134 43.7927 55.2675C44.0496 55.1391 44.2239 54.9189 44.3707 54.6895C44.4624 54.7629 44.5633 54.7996 44.6826 54.8088C44.701 54.8088 44.7101 54.8088 44.7285 54.8088C44.8936 54.8088 45.0404 54.7446 45.1689 54.6436C45.2881 54.5427 45.3891 54.4234 45.4716 54.295C45.5175 54.3317 45.5725 54.35 45.6276 54.3684C45.6735 54.3867 45.7285 54.3867 45.7744 54.3867C45.9212 54.3867 46.0588 54.3409 46.1781 54.2491C46.3157 54.1482 46.435 54.0106 46.5175 53.8546C46.5634 53.7812 46.6093 53.6987 46.646 53.6161C46.7102 53.6436 46.7836 53.662 46.8386 53.662C46.9946 53.662 47.1781 53.5886 47.3616 53.4051C47.3983 53.3684 47.4258 53.3317 47.4533 53.295C47.4533 53.3133 47.4533 53.3408 47.4533 53.3684C47.4533 53.6344 47.6001 53.9739 47.857 54.0932C47.9946 54.1574 48.2057 54.1757 48.4901 53.9739C48.7286 54.7446 48.5635 55.607 48.068 56.3593C47.8111 56.5153 47.591 56.7538 47.3432 57.0382ZM33.0217 51.1022C33.0125 51.1665 33.0125 51.2307 33.0125 51.2949C32.985 51.5426 32.9116 51.7078 32.7923 51.8087C32.7189 51.8546 32.618 51.8729 32.5354 51.8546C32.3795 51.8362 32.251 51.7536 32.1501 51.6344C31.9483 51.3316 31.9574 51.1114 32.0308 50.671C32.0767 50.3316 32.1685 50.0013 32.3152 49.6894C32.3886 49.5242 32.4804 49.4325 32.5538 49.4233C32.563 49.4233 32.563 49.4233 32.5721 49.4233C32.6272 49.4325 32.6731 49.46 32.7098 49.4967C32.7832 49.5884 32.829 49.6894 32.8565 49.8086C32.9116 50.0196 32.9575 50.2307 32.9758 50.4508C32.9942 50.6252 33.0217 50.9096 33.0217 51.1022ZM34.9208 52.9922C35.086 52.9372 35.2786 53.0106 35.4071 53.0748C35.5172 53.1298 35.7099 53.2674 35.7741 53.4509C35.7557 53.4968 35.7465 53.5427 35.7282 53.5886C35.6915 53.7537 35.6823 53.928 35.7007 54.1023C35.7282 54.451 35.8016 54.7996 35.9209 55.1299C35.9025 55.1482 35.9025 55.1666 35.9025 55.1941C35.875 55.3409 35.7374 55.451 35.5906 55.451C35.453 55.4418 35.3153 55.3501 35.1594 55.1482C34.875 54.7813 34.6823 54.3409 34.6089 53.8821C34.563 53.6987 34.5722 53.5152 34.6181 53.3317C34.6548 53.1757 34.7649 53.0473 34.9208 52.9922ZM34.6731 52.7904C34.6731 52.7812 34.6731 52.7812 34.6731 52.7904C34.6731 52.7812 34.6823 52.7812 34.6731 52.7904C34.6731 52.7812 34.6731 52.7812 34.6731 52.7904ZM37.2879 53.9188C37.3246 53.6987 37.5448 53.3959 37.7558 53.3684C38.0494 53.3225 38.3246 53.561 38.4439 53.8179C38.5907 54.1207 38.6182 54.4234 38.6182 54.8455C38.6182 54.8638 38.6182 54.8913 38.6182 54.9097C38.6365 55.9006 38.3338 55.9281 38.2329 55.9373C38.0585 55.9556 37.8017 55.7721 37.6549 55.5244C37.4989 55.2492 37.187 54.506 37.2879 53.9188ZM38.3246 52.9005C38.1595 52.9922 37.9576 52.983 37.8017 52.9739C37.5172 52.9463 37.3154 52.8729 37.1778 52.7537C36.9576 52.561 36.8383 52.2399 36.8567 51.9004L36.8658 51.7995C36.8934 51.1573 36.9576 49.6343 37.6273 49.3774C37.7007 49.3499 37.765 49.3591 37.8292 49.3958C38.0952 49.5334 38.3338 50.0105 38.3797 50.1848C38.5723 50.8729 38.6916 51.46 38.6641 52.0747C38.6457 52.506 38.5265 52.7812 38.3246 52.9005ZM37.1227 53.5335C37.0585 53.6344 37.0218 53.7445 36.9943 53.8638C36.9209 54.2767 37.031 54.7629 37.1594 55.1482C37.1594 55.1574 37.1594 55.1666 37.1503 55.1758C37.1411 55.4235 37.0952 55.6161 37.031 55.6804C36.9301 55.7905 36.7558 55.8088 36.6365 55.7171C36.453 55.5703 36.3154 55.3776 36.2236 55.1666C36.086 54.818 36.0034 54.451 35.9667 54.084C35.9484 53.9464 35.9576 53.7996 35.9851 53.6528C36.0126 53.5243 36.0768 53.4142 36.1686 53.3225C36.3062 53.2124 36.4989 53.1665 36.6732 53.2216C36.875 53.2766 37.0218 53.3867 37.1227 53.5335ZM35.7832 52.5885C35.6181 52.6069 35.453 52.5885 35.297 52.5518C34.93 52.4876 34.8841 52.0931 34.8841 52.0656C34.8199 51.4876 34.8107 50.6527 35.1227 49.9004V49.8912C35.2603 49.5793 35.4346 49.3866 35.5906 49.3866C35.5998 49.3866 35.5998 49.3866 35.6089 49.3866C35.6915 49.3958 35.8566 49.5426 35.9759 49.7261C36.3521 50.2765 36.4163 51.0655 36.4346 51.3224L36.4438 51.3867C36.4713 51.9004 36.4346 52.4968 35.7832 52.5885ZM34.6089 54.818C34.5905 54.9464 34.4896 55.029 34.3704 55.0381C34.3061 55.0381 34.2419 55.0198 34.196 54.9923C33.9392 54.8547 33.7648 54.5702 33.618 54.3134C33.5171 54.1299 33.4345 53.9372 33.3795 53.7353C33.3336 53.5427 33.3336 53.35 33.3979 53.1573C33.4437 52.9922 33.5722 52.8546 33.7373 52.7904C33.8749 52.7537 34.0217 52.772 34.141 52.8454C34.2327 52.8913 34.2878 52.983 34.352 53.1023C34.3612 53.1207 34.3704 53.139 34.3795 53.1482C34.3612 53.1757 34.352 53.2124 34.3428 53.2491C34.2878 53.4693 34.2786 53.7078 34.3245 53.928C34.3704 54.24 34.4713 54.5427 34.6089 54.818ZM34.4805 51.6986C34.4529 51.8913 34.3979 52.1206 34.2419 52.2491C34.1869 52.2949 33.9759 52.35 33.7557 52.2858C33.5446 52.2215 33.3887 52.0564 33.3336 51.8454C33.2969 51.6711 33.2878 51.4967 33.2878 51.3133C33.2878 51.2949 33.2969 51.2766 33.2969 51.2674C33.2969 51.2215 33.3061 51.1756 33.3061 51.1206C33.3336 50.6894 33.4345 50.2123 33.563 49.9187C33.6639 49.7077 33.8199 49.5242 33.8933 49.5242H33.9025C34.0584 49.5242 34.1593 49.6068 34.2603 49.7994C34.4346 50.1481 34.4713 50.5701 34.508 50.9463C34.5172 51.194 34.508 51.4509 34.4805 51.6986ZM33.3795 52.6711C33.2602 52.772 33.1777 52.9096 33.1226 53.0656C33.0492 53.3041 33.04 53.561 33.1043 53.7996C33.1593 54.0106 33.2419 54.2216 33.352 54.4051C33.3061 54.4601 33.2419 54.4877 33.1685 54.4968C33.0676 54.4968 32.9666 54.4601 32.8841 54.3959C32.7923 54.3225 32.7189 54.2308 32.6547 54.1207C32.4437 53.7812 32.3336 53.3959 32.3244 52.9922C32.3244 52.7995 32.3519 52.5335 32.5171 52.3867C32.6547 52.2766 32.8474 52.2491 33.0125 52.3133C33.1685 52.3775 33.2969 52.506 33.3795 52.6711ZM32.2327 52.2582C32.0859 52.4326 32.0125 52.6894 32.0217 53.0014C32.0308 53.35 32.1042 53.6987 32.2602 54.0198C32.2419 54.0473 32.2052 54.0656 32.1776 54.0656C32.0675 54.084 31.9574 54.0565 31.8657 53.9922C31.7648 53.9097 31.673 53.7996 31.6088 53.6895C31.3978 53.3317 31.2785 52.928 31.2693 52.5151C31.2602 52.4234 31.2785 52.3316 31.3152 52.2491C31.3427 52.194 31.3886 52.1481 31.4437 52.1114C31.5813 52.0105 31.7556 51.9738 31.9116 52.0105C32.04 52.0472 32.1593 52.1298 32.2327 52.2582ZM31.7372 50.6252C31.6914 50.8453 31.6822 51.0564 31.7005 51.2766C31.6363 51.3408 31.5446 51.3775 31.4528 51.3683C31.3152 51.35 31.2326 51.2307 31.1959 51.0472C31.095 50.4692 31.2326 49.7719 31.5446 49.3407C31.5905 49.2673 31.6455 49.2398 31.6914 49.2398C31.7556 49.2581 31.8106 49.304 31.8382 49.3591C31.884 49.5059 31.9116 49.6618 31.9391 49.8178C31.8473 50.0747 31.7739 50.3499 31.7372 50.6252ZM46.0313 50.6252C45.9854 50.3499 45.9212 50.0747 45.8294 49.8086C45.8294 49.7719 45.8386 49.7352 45.8386 49.7077C45.8386 49.5884 45.8661 49.4692 45.9212 49.3682C45.9579 49.304 46.0129 49.2581 46.0863 49.2306C46.1322 49.2214 46.1781 49.2581 46.2239 49.3315C46.5451 49.7719 46.6827 50.46 46.5726 51.038C46.5359 51.2307 46.4533 51.3316 46.3157 51.3591C46.2239 51.3683 46.1322 51.3408 46.068 51.2674C46.0863 51.0564 46.0771 50.8362 46.0313 50.6252ZM45.8753 52.0105C46.0405 51.9738 46.2148 52.0197 46.3432 52.1114C46.3891 52.1481 46.435 52.1848 46.4717 52.2491C46.5084 52.3316 46.5175 52.4234 46.5175 52.5151C46.4992 52.928 46.3891 53.3317 46.1781 53.6895C46.1138 53.8087 46.0313 53.9097 45.9212 53.9922C45.8294 54.0656 45.7193 54.0932 45.6092 54.0656C45.5725 54.0565 45.545 54.0381 45.5267 54.0198C45.6735 53.6987 45.756 53.35 45.7652 53.0014C45.7744 52.6803 45.701 52.4326 45.5542 52.2582C45.6092 52.1298 45.7285 52.0472 45.8753 52.0105ZM45.6184 51.6344C45.5267 51.7536 45.3891 51.827 45.2331 51.8546C45.1413 51.8729 45.0496 51.8637 44.9762 51.8087C44.8569 51.7078 44.7835 51.5426 44.756 51.2949C44.756 51.2307 44.7468 51.1665 44.7468 51.1022C44.7468 50.9096 44.7652 50.6252 44.7927 50.4508C44.8111 50.2307 44.8569 50.0196 44.912 49.8086C44.9303 49.6985 44.9854 49.5884 45.0588 49.4967C45.0955 49.4508 45.1413 49.4233 45.1964 49.4233C45.2056 49.4233 45.2056 49.4233 45.2147 49.4233C45.2881 49.4416 45.3799 49.5242 45.4533 49.6894C45.6001 50.0013 45.701 50.3316 45.7377 50.671C45.8203 51.1022 45.8203 51.3316 45.6184 51.6344ZM44.7652 52.3225C44.9303 52.2491 45.123 52.2766 45.2606 52.3959C45.4258 52.5427 45.4533 52.7995 45.4533 53.0014C45.4441 53.4051 45.334 53.7904 45.123 54.1299C45.0588 54.2308 44.9854 54.3225 44.8936 54.4051C44.8202 54.4693 44.7101 54.506 44.6092 54.506C44.5358 54.4968 44.4716 54.4693 44.4257 54.4143C44.5266 54.2216 44.6184 54.0106 44.6734 53.8087C44.7377 53.561 44.7285 53.3133 44.6551 53.0748C44.6092 52.928 44.5175 52.7904 44.3982 52.6803C44.4716 52.506 44.6 52.3775 44.7652 52.3225ZM44.4257 51.8362C44.3798 52.0472 44.2147 52.2124 44.0037 52.2766C43.7835 52.35 43.5725 52.2949 43.5174 52.2399C43.3615 52.1023 43.3064 51.8729 43.2789 51.6894C43.2514 51.4325 43.2422 51.1848 43.2605 50.9279C43.2881 50.5609 43.3248 50.1389 43.5083 49.7811C43.6092 49.5884 43.7101 49.5059 43.8661 49.5059H43.8752C43.9486 49.5059 44.0954 49.6894 44.2055 49.9004C44.3431 50.1848 44.4349 50.671 44.4624 51.1022C44.4624 51.1573 44.4624 51.2032 44.4716 51.249C44.4716 51.2674 44.4808 51.2857 44.4808 51.2949C44.4808 51.4876 44.4716 51.6619 44.4257 51.8362ZM43.4532 53.928C43.4991 53.7078 43.4991 53.4693 43.4349 53.2491C43.4257 53.2124 43.4165 53.1849 43.3982 53.1482C43.4073 53.1298 43.4165 53.1115 43.4257 53.1023C43.4899 52.9922 43.545 52.8913 43.6367 52.8454C43.756 52.772 43.9028 52.7537 44.0404 52.7904C44.2055 52.8546 44.3248 52.983 44.3798 53.1573C44.4349 53.35 44.4441 53.5427 44.3982 53.7353C44.3431 53.9372 44.2606 54.139 44.1597 54.3134C44.022 54.5794 43.8477 54.8638 43.5817 54.9923C43.5266 55.0198 43.4716 55.0381 43.4073 55.0381C43.2881 55.0198 43.1872 54.9372 43.1688 54.818V54.8088C43.2972 54.5427 43.3982 54.24 43.4532 53.928ZM43.1688 53.8821C43.0954 54.3409 42.9027 54.7813 42.6183 55.1482C42.4624 55.3409 42.3339 55.4418 42.1871 55.451C42.0311 55.451 41.9027 55.3501 41.8752 55.1941C41.8752 55.1758 41.8568 55.1482 41.8568 55.1299C41.9761 54.7996 42.0495 54.451 42.077 54.1023C42.0954 53.9372 42.0862 53.7629 42.0495 53.5886C42.0403 53.5427 42.0311 53.4968 42.0036 53.4509C42.0678 53.2583 42.2605 53.1298 42.3706 53.0748C42.4991 53.0014 42.6825 52.9372 42.8569 52.9922C43.0037 53.0564 43.1229 53.1849 43.1596 53.3317C43.2055 53.506 43.2055 53.6987 43.1688 53.8821ZM42.8936 52.0656C42.8936 52.0839 42.8477 52.4876 42.4807 52.5518C42.3156 52.5885 42.1596 52.5977 41.9945 52.5885C41.6458 52.5427 41.2605 52.3683 41.3431 51.3958L41.3522 51.3316C41.3706 51.0747 41.4348 50.2857 41.811 49.7352C41.9302 49.5609 42.0954 49.4049 42.1779 49.3958C42.3431 49.3774 42.5266 49.5701 42.6642 49.9004V49.9095C42.967 50.6527 42.9578 51.4876 42.8936 52.0656ZM41.5816 53.3225C41.6733 53.4142 41.7376 53.5243 41.7651 53.6528C41.7926 53.7904 41.8018 53.9372 41.7834 54.084C41.7559 54.451 41.6733 54.8271 41.5265 55.1666C41.4348 55.3868 41.2972 55.5703 41.1137 55.7171C40.9944 55.8088 40.8293 55.7905 40.7192 55.6804C40.655 55.6161 40.6091 55.4235 40.5999 55.1758C40.5999 55.1666 40.5999 55.1574 40.5907 55.1482C40.7284 54.7629 40.8293 54.2767 40.7559 53.8638C40.7375 53.7537 40.6917 53.6436 40.6274 53.5335C40.7284 53.3867 40.8843 53.2766 41.0586 53.2216C41.2421 53.1757 41.4348 53.2124 41.5816 53.3225ZM40.5816 52.7537C40.4439 52.8729 40.2421 52.9463 39.9577 52.9739C39.8109 52.9922 39.5999 52.9922 39.4347 52.9005C39.2329 52.7812 39.1228 52.506 39.0953 52.0747C39.0586 51.46 39.1778 50.8729 39.3797 50.1848C39.4256 50.0196 39.6641 49.5426 39.9302 49.3958C39.9669 49.3774 40.0127 49.3591 40.0586 49.3591C40.0861 49.3591 40.1137 49.3682 40.132 49.3774C40.8018 49.6343 40.866 51.1481 40.8935 51.7995L40.9027 51.9004C40.921 52.2399 40.8018 52.561 40.5816 52.7537ZM40.1137 55.5152C39.9577 55.7629 39.71 55.9464 39.5357 55.9281C39.4347 55.9189 39.132 55.9006 39.1503 54.9005C39.1503 54.873 39.1503 54.8546 39.1503 54.8363C39.1503 54.4143 39.1778 54.1115 39.3246 53.8087C39.4347 53.5794 39.6733 53.3592 39.9485 53.3592C39.9669 53.3592 39.9944 53.3592 40.0127 53.3684C40.2238 53.3959 40.4439 53.6987 40.4806 53.9188C40.5816 54.506 40.2696 55.2492 40.1137 55.5152ZM46.7194 52.1114C46.701 52.0747 46.6827 52.0472 46.6552 52.0197C46.701 51.7812 47.013 51.4876 47.2148 51.4876C47.3065 51.5059 47.3891 51.561 47.435 51.6435C47.5543 51.8179 47.5634 52.1023 47.4533 52.4784C47.435 52.5518 47.1689 53.0564 47.0497 53.1849C46.8295 53.4142 46.6643 53.35 46.646 53.3317H46.6368C46.7285 53.0748 46.7744 52.7995 46.7836 52.5243C46.8019 52.3867 46.7836 52.2491 46.7194 52.1114ZM47.5084 50.827C47.6093 50.3499 47.5634 49.7169 47.224 49.2214C47.2423 49.2031 47.2515 49.1756 47.2698 49.1664C47.3065 49.1756 47.3432 49.1847 47.3708 49.2123C47.5451 49.3499 47.7194 49.7169 47.7469 49.9738C47.7928 50.4784 47.6644 50.6986 47.5818 50.7811C47.5634 50.7903 47.5359 50.8087 47.5084 50.827ZM47.2148 50.8453C47.1689 50.9371 47.1047 51.0105 47.013 51.038C46.9396 51.0564 46.912 51.0288 46.8753 50.9921C46.9487 50.4692 46.857 49.9279 46.6276 49.4416C46.6918 49.249 46.7561 49.2031 46.7928 49.1939C46.8295 49.2031 46.8662 49.2214 46.8937 49.249C47.2974 49.726 47.3432 50.3866 47.2148 50.8453ZM50.0222 52.772C50.0681 54.3317 49.7378 55.4877 49.0497 56.2125C48.7653 56.5153 48.4075 56.7446 48.0038 56.8731C48.1047 56.7538 48.2057 56.6529 48.2882 56.5703C48.4717 56.3868 48.6277 56.1758 48.7561 55.9648C49.1048 55.5152 49.3433 54.9923 49.4534 54.4326C49.5451 54.0289 49.5176 53.6161 49.3708 53.2307C49.2057 52.7628 48.802 52.4326 48.3708 52.4326C48.1414 52.4234 47.9121 52.4968 47.7102 52.6344C47.7194 52.616 47.7286 52.5885 47.7378 52.5702C47.8754 52.0931 47.857 51.7261 47.6644 51.4692C47.646 51.4417 47.6185 51.405 47.591 51.3867C48.4258 51.2307 49.0589 50.7444 49.325 50.038C49.5818 49.3499 49.5176 48.7811 49.4626 48.2398C49.4075 47.7535 49.3617 47.2856 49.5635 46.7994C49.7929 46.2581 50.5268 45.9278 50.8663 45.781C50.8846 45.781 50.9122 45.781 50.9305 45.781C51.0957 45.781 51.2424 45.7718 51.3984 45.7626C50.958 46.6434 49.9121 49.2031 50.0222 52.772ZM53.9214 44.2121C53.9031 44.2305 53.8939 44.2396 53.8756 44.258C53.2976 44.8268 52.5636 45.1938 51.7654 45.3131C51.7287 45.3039 51.692 45.3131 51.6645 45.3314C51.2057 45.3956 50.7378 45.4048 50.2791 45.3498C49.7286 45.2488 49.1873 45.0929 48.6644 44.9002L48.646 44.891C47.9671 44.6341 47.2698 44.3589 46.5359 44.2855C45.701 44.2029 44.9211 44.3956 44.4165 44.836C44.1321 45.0837 43.967 45.3681 43.9578 45.6525C43.9486 45.9736 44.178 46.3406 44.545 46.3681C44.5633 46.3681 44.5725 46.3681 44.5909 46.3681C44.8753 46.3498 45.123 46.1755 45.2239 45.9094C45.2514 45.836 45.2698 45.7534 45.2881 45.6709C45.3065 45.5975 45.3248 45.5241 45.3432 45.4507C45.4808 45.1112 45.8845 44.9277 46.2148 44.8727C46.9487 44.7626 47.6827 45.0378 48.3891 45.3131L48.5359 45.3681C48.7561 45.4507 48.9855 45.5149 49.2149 45.57C48.5451 45.6892 47.9121 46.0379 47.6827 46.9278C47.5359 47.515 47.6093 48.3315 47.7378 48.8361C47.7469 48.8728 47.7561 48.9095 47.7653 48.9462C47.8111 49.1114 47.857 49.2765 47.8845 49.4508C47.8111 49.2673 47.6919 49.1022 47.5359 48.9646C47.4533 48.8912 47.3432 48.8453 47.224 48.8545C47.1414 48.8728 47.0588 48.9095 47.0038 48.9829C46.9304 48.9279 46.8295 48.9003 46.7377 48.9095C46.6001 48.9279 46.4808 49.0196 46.4258 49.1389C46.2882 48.9462 46.1322 48.9279 46.0221 48.937C45.8111 48.9554 45.6643 49.1572 45.6184 49.2398C45.6001 49.2857 45.5817 49.3224 45.5725 49.3591C45.4991 49.2306 45.3707 49.148 45.2331 49.1205C45.0771 49.1022 44.9212 49.1664 44.8202 49.2857C44.7193 49.4141 44.6459 49.5609 44.6092 49.7169C44.5817 49.8178 44.5633 49.9187 44.5358 50.0288C44.5083 49.9462 44.4716 49.8545 44.4349 49.7719C44.3615 49.6068 44.1413 49.2214 43.8569 49.2214H43.8477C43.4532 49.2214 43.2881 49.5517 43.233 49.6527C43.1504 49.827 43.0862 50.0105 43.0495 50.2031C43.0037 50.0655 42.967 49.9187 42.9119 49.7811V49.7719C42.7192 49.3132 42.444 49.0655 42.1321 49.093C41.866 49.1114 41.6091 49.4508 41.5449 49.5517C41.2788 49.9371 41.1596 50.4141 41.0953 50.7811C40.9944 50.0655 40.7834 49.304 40.2238 49.093C40.077 49.038 39.921 49.0471 39.7834 49.1205C39.4072 49.3132 39.1412 49.8912 39.0861 50.0839C38.9944 50.3958 38.921 50.6894 38.8659 50.983C38.82 50.6986 38.7375 50.405 38.6457 50.0839C38.5907 49.8912 38.3338 49.3132 37.9485 49.1205C37.8108 49.0471 37.6549 49.038 37.5081 49.093C36.9484 49.304 36.7191 50.0655 36.6365 50.7811C36.5723 50.4141 36.4438 49.9371 36.1869 49.5517C36.1135 49.4508 35.8658 49.1114 35.5998 49.093C35.2878 49.0747 35.0218 49.3132 34.8199 49.7719V49.7811C34.7649 49.9187 34.719 50.0655 34.6823 50.2031C34.6456 50.0105 34.5814 49.8361 34.4988 49.6527C34.4438 49.5517 34.2786 49.2214 33.8841 49.2214H33.8749C33.5905 49.2306 33.3703 49.616 33.2969 49.7719C33.2511 49.8545 33.2235 49.9371 33.196 50.0288C33.1777 49.9279 33.1501 49.8178 33.1226 49.7169C33.0859 49.5517 33.0217 49.4049 32.9116 49.2857C32.8107 49.1664 32.6547 49.1022 32.4987 49.1205C32.3611 49.1389 32.2419 49.2214 32.1409 49.3774C32.1318 49.3315 32.1226 49.304 32.1042 49.2581C32.04 49.093 31.9024 48.9737 31.7281 48.9462C31.6363 48.9279 31.4712 48.937 31.3152 49.1389C31.2969 49.1114 31.2877 49.093 31.2693 49.0655C31.1959 48.9646 31.0859 48.9095 30.9666 48.9187C30.884 48.9279 30.8014 48.9554 30.728 49.0013C30.6822 48.9279 30.5904 48.882 30.5079 48.8728C30.3978 48.8636 30.2877 48.9095 30.1959 48.9829C30.0491 49.1205 29.9299 49.2857 29.8473 49.4692C29.8748 49.304 29.9207 49.1297 29.9666 48.9646C29.9849 48.9187 29.9849 48.882 29.9941 48.8545C30.1225 48.3499 30.1959 47.5333 30.0491 46.9461C29.8289 46.0562 29.1959 45.7167 28.517 45.5883C28.7463 45.5424 28.9757 45.469 29.1959 45.3865L29.3427 45.3314C30.0491 45.0562 30.7831 44.7809 31.5171 44.891C31.8565 44.9461 32.251 45.1204 32.3886 45.469C32.4162 45.5424 32.4345 45.6158 32.4437 45.6892C32.462 45.7626 32.4804 45.8544 32.5079 45.9278C32.6088 46.1938 32.8565 46.3773 33.141 46.3865C33.1593 46.3865 33.1685 46.3865 33.1868 46.3865C33.5538 46.359 33.7832 45.992 33.774 45.6709C33.7648 45.3865 33.6089 45.0929 33.3153 44.8543C32.8015 44.4231 32.0308 44.2121 31.1959 44.3039C30.462 44.3773 29.7555 44.6433 29.0858 44.9094L29.0674 44.9186C28.5445 45.1112 28.0032 45.258 27.4527 45.3681C26.994 45.414 26.5261 45.414 26.0673 45.3498C26.0306 45.3314 26.0031 45.3314 25.9664 45.3314C25.1682 45.203 24.4343 44.836 23.8563 44.2763C23.8379 44.258 23.8196 44.2396 23.8104 44.2305C21.9479 42.4598 22.425 40.8267 23.1682 38.3404C23.2599 38.0284 23.3608 37.6981 23.4526 37.3587C24.4526 33.8173 23.8379 30.2759 23.8287 30.2484C23.8104 30.1475 23.7095 30.0741 23.6086 30.0924C23.5076 30.1108 23.4342 30.2117 23.4526 30.3126C23.4618 30.3493 24.0031 33.4228 23.2324 36.6706C21.3883 31.7438 21.214 27.7254 21.3975 25.1932C21.6085 22.3399 22.3058 20.6884 22.3058 20.6701C22.3058 20.6701 22.3058 20.6609 22.3149 20.6609C24.1132 15.8443 26.994 12.5322 30.9024 10.8074C34.0859 9.40368 37.1319 9.40368 38.765 9.40368C40.0861 9.40368 43.178 9.40368 46.49 10.8074C50.6369 12.5597 53.6278 15.8718 55.3894 20.6426C55.3894 20.6426 55.3894 20.6517 55.3985 20.6517C55.4077 20.6701 56.105 22.3215 56.3068 25.1748C56.4903 27.7162 56.316 31.7347 54.4719 36.6522C53.7104 33.4044 54.2517 30.3218 54.2517 30.2942C54.2701 30.1933 54.2058 30.0924 54.0957 30.0741C53.9948 30.0557 53.8939 30.1199 53.8756 30.23C53.8664 30.2667 53.2517 33.8081 54.2517 37.3403C54.3526 37.6798 54.4444 38.0101 54.5361 38.322C55.2976 40.7992 55.7931 42.4414 53.9214 44.2121Z" fill="black"/>
<path d="M53.0682 40.3772C52.7838 40.3313 52.5086 40.4139 52.2792 40.579C52.0774 40.7166 51.9397 40.9368 51.903 41.1754C51.8663 41.4598 51.9764 41.735 52.1875 41.9185C52.3434 42.0653 52.5453 42.1387 52.7655 42.1295C52.6278 42.6525 51.9948 43.2488 51.2516 43.3314C50.6736 43.4048 50.0773 43.258 49.5085 43.1112C49.4259 43.0929 49.3433 43.0653 49.2516 43.047C49.114 43.0195 48.958 42.9736 48.7653 42.9094C47.1965 42.469 43.9211 41.5515 42.9853 44.2213C42.967 44.258 42.9945 44.2947 43.0312 44.3131C43.0587 44.3223 43.0954 44.3131 43.1046 44.2947C43.1413 44.258 43.1688 44.2122 43.2055 44.1663C43.5909 43.6709 44.2423 42.8452 46.4625 43.1846C46.8845 43.2488 47.2882 43.4048 47.6827 43.5608C47.7836 43.6066 47.8846 43.6342 47.9947 43.68C48.9121 44.0195 49.9947 44.3681 51.114 44.3131C52.2975 44.2489 53.3435 43.6709 53.8572 42.8176C54.1416 42.3497 54.2242 41.8268 54.1141 41.368C53.9857 40.8634 53.5545 40.4414 53.0682 40.3772Z" fill="black"/>
<path d="M44.2419 41.2303C43.6822 41.0927 43.2694 41.634 43.1134 41.8634C42.7739 42.4047 42.7739 42.946 42.7739 43.5699V43.6249C42.7739 43.6616 42.8015 43.6983 42.8473 43.6983H42.8565C42.8932 43.6983 42.9207 43.6708 42.9299 43.6341C43.0216 43.0561 43.1501 42.5698 43.7097 42.3221C43.7923 42.2946 43.8749 42.2762 43.9666 42.2579C44.0951 42.2395 44.2235 42.2028 44.3336 42.1478C44.5263 42.0285 44.6456 41.8542 44.6364 41.6707C44.6089 41.4597 44.4529 41.2762 44.2419 41.2303Z" fill="black"/>
<path d="M42.7557 46.9186C42.5355 46.992 42.3796 47.1755 42.3245 47.4048C42.2878 47.5975 42.3704 47.781 42.5172 47.8911C42.3245 47.992 42.0768 48.0195 41.774 47.9828C41.6364 47.9645 41.508 47.937 41.3795 47.9186C41.196 47.8819 41.0125 47.8544 40.8291 47.8452C40.0767 47.7994 39.5354 48.0012 39.1684 48.4324C39.2051 48.3498 39.2418 48.2673 39.2694 48.1939C39.4804 47.726 39.6914 47.2397 39.6914 46.6892C39.6914 46.1112 39.4987 45.5883 39.2051 45.4231C38.8657 45.2213 38.4253 45.313 38.1959 45.6341C37.9849 45.9277 37.8932 46.3865 37.9391 46.8635C37.9849 47.3406 38.1592 47.726 38.3427 48.1296C38.407 48.2673 38.4712 48.4049 38.5262 48.5517C38.1684 48.0287 37.5904 47.7994 36.7739 47.8452C36.5904 47.8636 36.4069 47.8911 36.2234 47.9186C36.095 47.937 35.9573 47.9645 35.8289 47.9828C35.5261 48.0195 35.2784 47.9828 35.0857 47.8911C35.2417 47.781 35.3151 47.5883 35.2784 47.4048C35.2325 47.1847 35.0582 47.0012 34.8472 46.9186C34.5628 46.8085 34.2509 46.9461 34.0765 47.2397C34.0031 47.3865 33.9756 47.5516 34.0031 47.7168C34.049 48.0562 34.1683 48.2673 34.4252 48.4232C34.7188 48.6159 35.1133 48.6526 35.5995 48.5608C35.7463 48.5333 35.8931 48.4875 36.0307 48.4508C36.2509 48.3774 36.4803 48.3315 36.7097 48.304C37.4987 48.2306 38.251 48.5975 38.6822 49.2581C38.7189 49.2765 38.7556 49.304 38.7923 49.3315C38.829 49.3132 38.8565 49.2856 38.884 49.2581C39.3152 48.5975 40.0767 48.2306 40.8566 48.304C41.0859 48.3315 41.3153 48.3774 41.5355 48.4508C41.6731 48.4966 41.8199 48.5241 41.9667 48.5608C42.453 48.6618 42.8383 48.6159 43.141 48.4232C43.3979 48.2581 43.508 48.0562 43.5631 47.7168C43.5906 47.5516 43.5631 47.3865 43.4897 47.2397C43.3521 46.9369 43.031 46.7993 42.7557 46.9186Z" fill="black"/>
<path d="M37.2422 47.5517C37.7376 47.5517 37.7376 46.7719 37.2422 46.7719C36.7468 46.781 36.7376 47.5517 37.2422 47.5517Z" fill="black"/>
<path d="M40.0586 46.8727L40.0403 46.891C39.9669 46.9644 39.9302 47.0562 39.9302 47.1663C39.9394 47.2672 39.976 47.3589 40.0403 47.4415C40.1137 47.5149 40.2054 47.5516 40.3155 47.5516C40.4164 47.5516 40.5174 47.5057 40.5907 47.4415L40.6091 47.4231C40.6825 47.3497 40.7192 47.258 40.7192 47.1479C40.71 47.047 40.6733 46.9552 40.6091 46.8727C40.5357 46.7993 40.444 46.7626 40.3339 46.7626C40.2329 46.7626 40.1412 46.7993 40.0586 46.8727Z" fill="black"/>
<path d="M36.288 47.038C36.2146 47.038 36.1504 47.0655 36.0954 47.1114C36.0495 47.1572 36.022 47.2306 36.022 47.304C36.022 47.3774 36.0495 47.4416 36.0954 47.4967L36.1137 47.515C36.1596 47.5609 36.233 47.5884 36.3064 47.5884C36.3798 47.5884 36.444 47.5609 36.4991 47.515C36.5449 47.4692 36.5724 47.3958 36.5724 47.3224C36.5724 47.249 36.5449 47.1848 36.4991 47.1297L36.4807 47.1114C36.4165 47.0655 36.3523 47.038 36.288 47.038Z" fill="black"/>
<path d="M41.132 47.0746C41.0861 47.1205 41.0586 47.1939 41.0586 47.2673V47.2856C41.0586 47.359 41.0861 47.4232 41.132 47.4783C41.2329 47.5792 41.4072 47.5792 41.5081 47.4783C41.554 47.4324 41.5815 47.359 41.5815 47.2856V47.2673C41.5815 47.1939 41.554 47.1296 41.5081 47.0746C41.4072 46.9737 41.2421 46.9737 41.132 47.0746Z" fill="black"/>
<path d="M35.6271 47.6435C35.8472 47.6435 35.8472 47.3041 35.6271 47.3041C35.4069 47.3041 35.4069 47.6435 35.6271 47.6435Z" fill="black"/>
<path d="M42.0221 47.616C42.1138 47.616 42.1872 47.5426 42.1872 47.4508V47.4233C42.1872 47.3316 42.1138 47.2582 42.0221 47.2582C41.9303 47.2582 41.8569 47.3316 41.8569 47.4233V47.4417C41.8569 47.5426 41.9303 47.616 42.0221 47.616Z" fill="black"/>
<path d="M38.0865 29.9271C38.0865 29.9363 38.3985 30.4501 38.7012 32.23C38.7104 32.2667 38.7379 32.285 38.7746 32.2942C38.8113 32.2942 38.8388 32.2758 38.848 32.2391C39.2792 30.4134 39.5453 29.9363 39.5453 29.9363C39.5636 29.918 39.5636 29.8813 39.5453 29.8629C39.1691 29.2849 38.9489 28.0372 38.8755 27.6243C38.8572 27.5326 38.8572 27.505 38.848 27.4867C38.8297 27.45 38.793 27.4316 38.7563 27.4408C38.7379 27.45 38.7104 27.4683 38.7104 27.4867C38.7012 27.505 38.7012 27.5326 38.6829 27.6518C38.6095 28.083 38.3985 29.3858 38.0865 29.8629C38.0682 29.8721 38.0682 29.9088 38.0865 29.9271Z" fill="black"/>
<path d="M35.9575 30.6979C35.4621 30.6979 35.4621 31.4777 35.9575 31.4777C36.4621 31.4777 36.4621 30.6979 35.9575 30.6979Z" fill="black"/>
<path d="M37.5171 33.5513C37.0217 33.5513 37.0217 34.3311 37.5171 34.3311C38.0125 34.3311 38.0125 33.5513 37.5171 33.5513Z" fill="black"/>
<path d="M37.4716 36.6523H37.4532C37.3523 36.6523 37.2514 36.6982 37.178 36.7624C37.1046 36.8358 37.0679 36.9368 37.0679 37.0377C37.0679 37.1386 37.1137 37.2395 37.178 37.3129C37.2422 37.3863 37.3431 37.423 37.4532 37.423H37.4716C37.5725 37.423 37.6734 37.3771 37.7468 37.3129C37.8202 37.2395 37.8569 37.1386 37.8569 37.0377C37.8569 36.9368 37.811 36.8358 37.7468 36.7624C37.6734 36.6982 37.5725 36.6523 37.4716 36.6523Z" fill="black"/>
<path d="M36.1138 40.0834C36.6092 40.0834 36.6092 39.3036 36.1138 39.3036C35.6092 39.3128 35.6092 40.0834 36.1138 40.0834Z" fill="black"/>
<path d="M41.811 30.6979C41.3156 30.6979 41.3156 31.4777 41.811 31.4777C42.3156 31.4777 42.3156 30.6979 41.811 30.6979Z" fill="black"/>
<path d="M40.2515 33.5513C39.756 33.5513 39.756 34.3311 40.2515 34.3311C40.7469 34.3311 40.7469 33.5513 40.2515 33.5513Z" fill="black"/>
<path d="M39.9116 37.0377C39.9208 37.1386 39.9575 37.2303 40.0217 37.3129C40.0951 37.3863 40.1869 37.423 40.297 37.423H40.3153C40.4162 37.423 40.5171 37.3771 40.5905 37.3129C40.6639 37.2395 40.7006 37.1478 40.7006 37.0377C40.6915 36.9368 40.6548 36.845 40.5905 36.7624C40.5171 36.689 40.4254 36.6523 40.3153 36.6523H40.297C40.196 36.6523 40.0951 36.6982 40.0217 36.7624C39.9483 36.8358 39.9116 36.9368 39.9116 37.0377Z" fill="black"/>
<path d="M41.6548 39.3129C41.1593 39.3129 41.1593 40.0927 41.6548 40.0927C42.1594 40.0835 42.1594 39.3129 41.6548 39.3129Z" fill="black"/>
<path d="M35.3241 36.8449C35.425 36.6064 35.4892 36.3587 35.5443 36.1109C35.6727 36.1568 35.8011 36.1752 35.9296 36.1752C36.0856 36.1843 36.2323 36.1385 36.3608 36.0559C36.636 35.8632 36.6636 35.5054 36.6452 35.3403C36.5902 34.9733 36.3791 34.8265 36.2048 34.7623C36.003 34.6889 35.7736 34.6889 35.5626 34.7531C35.5167 34.4962 35.4525 34.2668 35.3516 34.0283C35.6085 34.0191 35.8378 33.8999 35.9938 33.7164C36.1039 33.5696 36.214 33.3035 36.0489 32.8998C35.9755 32.7072 35.636 32.3769 35.2231 32.4778C34.9938 32.542 34.8011 32.7072 34.7002 32.9365C34.5442 32.7439 34.3699 32.5695 34.1864 32.3952C34.3699 32.2668 34.5442 32.12 34.6176 31.909C34.691 31.6521 34.6451 31.386 34.4892 31.175C34.3883 31.0557 34.2598 30.9823 34.113 30.9456C33.691 30.8447 33.269 31.1016 33.1589 31.5236C33.1497 31.5695 33.1405 31.6062 33.1405 31.6613C32.9111 31.5328 32.6726 31.4319 32.4341 31.3401C32.5717 31.12 32.6359 30.7805 32.5075 30.5328C32.3698 30.2851 32.0579 30.1291 31.746 30.1474C31.6726 30.1566 31.6084 30.1658 31.5441 30.1933C31.379 30.2667 31.2414 30.3952 31.168 30.5603C31.1037 30.7071 31.0762 30.8631 31.0854 31.019C30.8744 31.0007 30.6634 30.9823 30.4524 30.9823C30.4157 30.9823 30.3881 30.9823 30.3514 30.9823C30.3698 30.7621 30.3514 30.4777 30.1496 30.2575C30.012 30.1107 29.8377 30.019 29.6358 30.0007C29.434 29.9823 29.2413 30.0465 29.0853 30.1658C28.8835 30.3126 28.6633 30.7805 28.9202 31.2209C28.6725 31.2943 28.4339 31.4044 28.2046 31.5236C28.122 31.0924 27.7091 30.7988 27.2688 30.8814C27.0211 30.9273 26.81 31.0833 26.6999 31.3034C26.599 31.5236 26.6174 31.8631 26.755 32.0925C26.8284 32.2301 26.9477 32.3218 27.0944 32.3769C26.9477 32.542 26.81 32.7072 26.6908 32.8907C26.5256 32.698 26.2871 32.5879 26.0302 32.6154C25.755 32.6521 25.5256 32.8264 25.4247 33.0741C25.3238 33.331 25.3513 33.6154 25.5072 33.8356C25.6449 34.0283 25.8559 34.1292 26.1219 34.1476C26.0761 34.3311 26.0302 34.5146 26.0118 34.6981C26.0027 34.6981 26.0027 34.6981 25.9935 34.6981C25.5164 34.6338 25.076 34.9825 25.021 35.4595C24.9659 35.9366 25.3054 36.377 25.7825 36.4321C25.8192 36.4412 25.8559 36.4412 25.8926 36.4412C25.9384 36.4412 25.966 36.4412 26.0118 36.4321C26.0302 36.4321 26.0394 36.4229 26.0485 36.4137C26.0761 36.5788 26.1128 36.7256 26.1495 36.8724C25.9568 36.8908 25.6999 37.0559 25.5439 37.2578C25.388 37.4504 25.3421 37.7165 25.4063 37.9459C25.4889 38.2119 25.6265 38.3954 25.8375 38.478C25.9201 38.5147 26.021 38.5239 26.1128 38.5239C26.3972 38.5239 26.6724 38.3771 26.7825 38.322L26.8009 38.3128C26.81 38.3128 26.8192 38.3037 26.8192 38.2945C26.911 38.4321 27.0119 38.5606 27.122 38.689C27.1495 38.7165 27.177 38.7532 27.2045 38.7807C27.0669 38.8817 26.9477 39.0101 26.8651 39.1569C26.6724 39.5331 26.8284 39.9918 27.2045 40.1845C27.3146 40.2395 27.4339 40.267 27.5532 40.267C27.6266 40.267 27.7 40.2487 27.7734 40.2303C28.0394 40.1386 28.2321 39.9184 28.2963 39.6432C28.4798 39.7441 28.6633 39.8267 28.856 39.8909C28.8101 40.056 28.7917 40.2303 28.8193 40.4138C28.8651 40.6891 29.0578 40.9093 29.3239 40.9918C29.4156 41.0194 29.5074 41.0377 29.5991 41.0377C29.7826 41.0377 29.9569 40.9827 30.1037 40.8726C30.3239 40.7074 30.4157 40.3863 30.3973 40.1478C30.59 40.1478 30.7735 40.1294 30.9661 40.1019C30.9661 40.3037 31.0212 40.5056 31.1313 40.6799C31.2781 40.8817 31.5074 41.001 31.7551 41.001C31.8561 41.001 31.9478 40.9827 32.0396 40.9551C32.2873 40.8817 32.4708 40.6799 32.5258 40.4322C32.5717 40.1845 32.535 39.9276 32.4065 39.7074C32.6267 39.6065 32.8469 39.5055 33.0579 39.3771C33.113 39.6065 33.2506 39.8175 33.4433 39.9551C33.5442 40.0285 33.6818 40.0652 33.8103 40.0652C33.9112 40.0652 34.0213 40.0468 34.1222 40.001C34.3149 39.9276 34.48 39.7808 34.5534 39.5789C34.6268 39.3588 34.5993 39.1202 34.5075 38.9092C34.4341 38.7441 34.3057 38.6248 34.1405 38.5422C34.2965 38.3954 34.4433 38.2303 34.5809 38.0651C34.6818 38.2211 34.847 38.3312 35.0213 38.3954C35.1039 38.4229 35.1956 38.4413 35.2782 38.4321C35.5351 38.4505 35.792 38.322 35.9388 38.1018C36.1406 37.7899 36.058 37.377 35.9296 37.1935C35.7828 36.9734 35.5259 36.8908 35.3241 36.8449ZM35.5993 35.01C35.6085 35.0008 35.6177 35.0008 35.6177 34.9916C35.792 34.9274 35.9846 34.9366 36.1498 35.01C36.2874 35.0742 36.37 35.2027 36.3975 35.377C36.3975 35.3953 36.4434 35.6981 36.214 35.8632C36.0489 35.9825 35.7002 35.9183 35.581 35.8816C35.5993 35.7256 35.6177 35.5696 35.6177 35.4137C35.6177 35.2669 35.6085 35.1384 35.5993 35.01ZM25.9751 36.166C25.6357 36.2119 25.3054 35.9733 25.2595 35.6247C25.232 35.4045 25.3146 35.1935 25.4797 35.0467C25.6173 34.9366 25.7917 34.8815 25.966 34.9091C25.9751 34.9091 25.9751 34.9091 25.9843 34.9091C25.966 35.0742 25.9568 35.2394 25.9568 35.4137C25.9568 35.6706 25.9751 35.9183 26.0118 36.166C25.9935 36.166 25.9843 36.166 25.9751 36.166ZM34.9112 33.0925C34.9663 32.7897 35.2782 32.7072 35.2782 32.7072C35.5626 32.6338 35.792 32.8998 35.8195 32.9916C35.9204 33.2301 35.9112 33.4228 35.8011 33.5696C35.6727 33.7255 35.48 33.7989 35.2782 33.7898C35.2598 33.7898 35.2507 33.7898 35.2415 33.7898C35.1406 33.5696 35.0213 33.3586 34.8745 33.1567C34.8929 33.1384 34.9112 33.1108 34.9112 33.0925ZM34.7736 35.2302C34.2782 35.2302 34.2782 34.4503 34.7736 34.4503C35.2782 34.4595 35.2782 35.2302 34.7736 35.2302ZM35.0947 35.799V35.8174C35.0947 35.9183 35.0488 36.0192 34.9846 36.0926C34.9112 36.166 34.8195 36.2027 34.7094 36.2027C34.6084 36.1935 34.5167 36.1568 34.4341 36.0926C34.3607 36.0192 34.324 35.9274 34.324 35.8174V35.799C34.324 35.6981 34.3699 35.5972 34.4341 35.5238C34.5075 35.4504 34.5993 35.4137 34.7094 35.4137C34.8103 35.4228 34.902 35.4595 34.9846 35.5238C35.058 35.5972 35.0947 35.6889 35.0947 35.799ZM34.5075 33.5971C34.6084 33.5971 34.7094 33.643 34.7828 33.7072C34.8562 33.7806 34.8929 33.8723 34.8929 33.9824C34.8837 34.0834 34.847 34.1751 34.7828 34.2577C34.7094 34.3311 34.6176 34.3678 34.5075 34.3678H34.4892C34.3883 34.3678 34.2873 34.3219 34.2139 34.2577C34.1405 34.1934 34.1038 34.0925 34.1038 33.9824C34.113 33.8815 34.1497 33.7898 34.2139 33.7072C34.2873 33.6338 34.3791 33.5971 34.4892 33.5971H34.5075ZM33.9937 33.5971C33.4983 33.5971 33.4983 32.8173 33.9937 32.8173C34.4892 32.8264 34.4892 33.5971 33.9937 33.5971ZM33.8837 31.1567C33.9479 31.1475 34.0029 31.1567 34.058 31.175C34.1589 31.1934 34.2415 31.2484 34.3057 31.3218C34.3699 31.4044 34.4066 31.5053 34.4066 31.6062C34.4158 31.6796 34.4066 31.753 34.3883 31.8264C34.3424 31.9824 34.1864 32.1016 34.0396 32.2026C34.0213 32.2117 34.0213 32.2209 34.0121 32.2301C33.8194 32.0649 33.6084 31.9181 33.379 31.7805C33.379 31.7714 33.379 31.7622 33.379 31.753C33.3607 31.4411 33.5809 31.1842 33.8837 31.1567ZM33.2873 32.2484C33.7827 32.2484 33.7827 33.0283 33.2873 33.0283C32.7919 33.0191 32.7919 32.2484 33.2873 32.2484ZM32.4432 31.8081C32.5442 31.8172 32.6359 31.8539 32.7185 31.9181C32.7919 31.9915 32.8286 32.0833 32.8286 32.1934V32.2117C32.8286 32.3127 32.7827 32.4136 32.7185 32.487C32.6451 32.5604 32.5533 32.5971 32.4432 32.5971C32.3423 32.5879 32.2506 32.5512 32.168 32.487C32.0946 32.4136 32.0579 32.3218 32.0579 32.2117V32.1934C32.0579 32.0925 32.1038 31.9915 32.168 31.9181C32.2506 31.8539 32.3423 31.8081 32.4432 31.8081ZM31.7643 39.5789C31.2689 39.5789 31.2689 38.7991 31.7643 38.7991C32.2597 38.8083 32.2597 39.5789 31.7643 39.5789ZM31.3882 30.6521C31.434 30.542 31.5258 30.4594 31.6359 30.4043C31.6817 30.386 31.7184 30.3768 31.7643 30.3768C31.9753 30.3585 32.1955 30.4777 32.2873 30.6337C32.379 30.808 32.3148 31.0924 32.1864 31.2392C32.1864 31.2392 32.1864 31.2392 32.1864 31.2484C31.9019 31.1567 31.6175 31.0924 31.3239 31.0466V31.0374C31.3239 30.9089 31.3423 30.7713 31.3882 30.6521ZM31.5074 31.5695C32.0029 31.5695 32.0029 32.3494 31.5074 32.3494C31.0028 32.3402 31.012 31.5695 31.5074 31.5695ZM29.2321 30.3493C29.3422 30.2667 29.489 30.23 29.6266 30.2392C29.7643 30.2575 29.8835 30.3126 29.9753 30.4135C30.1312 30.5787 30.1404 30.808 30.1129 30.9823C29.7918 31.0007 29.4707 31.0557 29.1679 31.1383C28.9844 30.8998 29.0119 30.5603 29.2321 30.3493ZM29.5532 32.3402C29.0578 32.3402 29.0578 31.5603 29.5532 31.5603C30.0578 31.5695 30.0578 32.3402 29.5532 32.3402ZM28.645 31.8356C29.1404 31.8356 29.1404 32.6154 28.645 32.6154C28.1495 32.6062 28.1495 31.8356 28.645 31.8356ZM27.8192 33.0925C27.3238 33.0925 27.3238 32.3127 27.8192 32.3127C28.3147 32.3127 28.3238 33.0925 27.8192 33.0925ZM26.966 31.964C26.8651 31.7989 26.8559 31.5879 26.9201 31.4044C27.0578 31.1291 27.4064 31.0282 27.6816 31.1658C27.8468 31.2484 27.9569 31.4135 27.9752 31.597C27.9752 31.6154 27.9844 31.6246 27.9936 31.6429C27.7458 31.7897 27.5165 31.964 27.3055 32.1659C27.2963 32.1659 27.2963 32.1659 27.2871 32.1659C27.1587 32.1567 27.0302 32.0833 26.966 31.964ZM26.9568 33.1384C27.0302 33.065 27.122 33.0283 27.2321 33.0283H27.2504C27.3513 33.0283 27.4523 33.0741 27.5257 33.1384C27.5991 33.2118 27.6357 33.3035 27.6357 33.4136C27.6266 33.5145 27.5899 33.6063 27.5257 33.6888C27.4523 33.7622 27.3605 33.7989 27.2504 33.7989H27.2321C27.1311 33.7989 27.0302 33.7531 26.9568 33.6888C26.8834 33.6154 26.8467 33.5237 26.8467 33.4136C26.8467 33.3127 26.8834 33.2209 26.9568 33.1384ZM26.8651 33.9641C27.3605 33.9641 27.3605 34.7439 26.8651 34.7439C26.3605 34.7439 26.3605 33.9641 26.8651 33.9641ZM26.7275 35.8907C27.2229 35.8907 27.2229 36.6706 26.7275 36.6706C26.232 36.6706 26.232 35.8907 26.7275 35.8907ZM26.7275 34.9366C27.2229 34.9366 27.2229 35.7164 26.7275 35.7164C26.2229 35.7164 26.2229 34.9366 26.7275 34.9366ZM25.7091 33.6797C25.6082 33.5237 25.5806 33.331 25.654 33.1567C25.7274 32.9916 25.8834 32.8723 26.0669 32.8448C26.2504 32.8264 26.4339 32.909 26.5348 33.065C26.544 33.0833 26.5531 33.0833 26.5715 33.1017C26.4247 33.3586 26.2963 33.6246 26.2045 33.909C26.1953 33.909 26.1953 33.909 26.1862 33.909C26.0577 33.8907 25.8284 33.8632 25.7091 33.6797ZM26.6724 38.1018C26.3605 38.267 26.1219 38.3128 25.9476 38.2394C25.81 38.1844 25.7183 38.056 25.6632 37.8633C25.6173 37.6981 25.6449 37.5238 25.755 37.3862C25.8926 37.1935 26.1128 37.0926 26.2137 37.0926C26.2229 37.0926 26.232 37.0926 26.232 37.0926C26.3513 37.4413 26.5073 37.7807 26.6908 38.0927L26.6724 38.1018ZM27.0578 36.8174C27.5532 36.8174 27.5532 37.5972 27.0578 37.5972C26.5623 37.5881 26.5623 36.8174 27.0578 36.8174ZM27.4614 37.6156C27.9569 37.6156 27.9569 38.3954 27.4614 38.3954C26.966 38.3862 26.966 37.6156 27.4614 37.6156ZM28.067 39.5514C28.0394 39.8358 27.7825 40.0468 27.4981 40.0193C27.2137 39.9918 27.0027 39.7349 27.0302 39.4505C27.0394 39.3863 27.0486 39.3221 27.0853 39.267C27.1587 39.1386 27.2504 39.0376 27.3697 38.9551C27.3697 38.9551 27.3789 38.9551 27.3789 38.9459C27.5991 39.1569 27.8284 39.3496 28.0853 39.4964C28.067 39.5239 28.067 39.5422 28.067 39.5514ZM28.3789 38.9184C28.3055 38.9918 28.2137 39.0285 28.1037 39.0285H28.0853C27.9844 39.0285 27.8835 38.9826 27.8101 38.9184C27.7367 38.845 27.7 38.7532 27.7 38.6431C27.7091 38.5422 27.7458 38.4505 27.8101 38.3679C27.8835 38.2945 27.9752 38.2578 28.0853 38.2578H28.1037C28.2046 38.2578 28.3055 38.3037 28.3789 38.3679C28.4523 38.4413 28.489 38.533 28.489 38.6431C28.4798 38.7441 28.4431 38.845 28.3789 38.9184ZM28.911 38.7441C29.4064 38.7441 29.4064 39.5239 28.911 39.5239C28.4156 39.5239 28.4156 38.7441 28.911 38.7441ZM29.9569 40.6799C29.7918 40.79 29.5899 40.8267 29.4064 40.7625C29.223 40.7074 29.0945 40.5514 29.067 40.3588C29.0486 40.2212 29.0486 40.0927 29.0945 39.9551C29.4431 40.056 29.801 40.1111 30.1679 40.1202C30.1771 40.3313 30.0945 40.5698 29.9569 40.6799ZM30.0762 39.6248C30.0028 39.6982 29.911 39.7349 29.801 39.7349H29.7826C29.6817 39.7349 29.5808 39.689 29.5074 39.6248C29.434 39.5514 29.3973 39.4597 29.3973 39.3496C29.4064 39.2487 29.4431 39.1569 29.5074 39.0743C29.5808 39.0009 29.6725 38.9642 29.7826 38.9642H29.801C29.9019 38.9642 30.0028 39.0101 30.0762 39.0743C30.1496 39.1386 30.1863 39.2395 30.1863 39.3496C30.1771 39.4597 30.1404 39.5514 30.0762 39.6248ZM30.2597 32.1292L30.2413 32.1108C30.1679 32.0374 30.1312 31.9457 30.1312 31.8356C30.1312 31.7347 30.1771 31.6337 30.2413 31.5603C30.3147 31.4869 30.4157 31.4502 30.5166 31.4502C30.6175 31.4502 30.7184 31.4961 30.7918 31.5603L30.8102 31.5787C30.8836 31.6521 30.9203 31.7438 30.9203 31.8539C30.9203 31.9548 30.8744 32.0558 30.8102 32.1292C30.7368 32.2026 30.6358 32.2393 30.5349 32.2393C30.434 32.2393 30.3331 32.2026 30.2597 32.1292ZM30.8193 39.8083C30.3239 39.8083 30.3239 39.0285 30.8193 39.0285C31.3148 39.0285 31.3239 39.8083 30.8193 39.8083ZM32.2964 40.368C32.2506 40.5331 32.1313 40.6615 31.9662 40.7166C31.746 40.8083 31.4891 40.7349 31.3423 40.5423C31.2505 40.3955 31.2047 40.2303 31.2138 40.056C31.5441 40.001 31.8744 39.9092 32.1864 39.79V39.7991C32.2964 39.9643 32.3331 40.1753 32.2964 40.368ZM32.8469 39.0193C32.7735 39.0927 32.6818 39.1294 32.5717 39.1294H32.5533C32.4524 39.1294 32.3515 39.0835 32.2781 39.0193C32.2047 38.9459 32.168 38.8541 32.168 38.7441C32.1772 38.6431 32.2139 38.5514 32.2781 38.4688C32.3515 38.3954 32.4432 38.3587 32.5533 38.3587H32.5717C32.6726 38.3587 32.7735 38.4046 32.8469 38.4688C32.9203 38.5422 32.957 38.634 32.957 38.7441C32.957 38.845 32.9111 38.9459 32.8469 39.0193ZM33.3424 37.7899C33.8378 37.7899 33.8378 38.5697 33.3424 38.5697C32.8377 38.5697 32.8377 37.7899 33.3424 37.7899ZM34.2965 39.0193C34.3699 39.1661 34.3791 39.3312 34.3424 39.4872C34.2873 39.6248 34.1772 39.7257 34.0396 39.7716C33.8653 39.845 33.7185 39.8358 33.5901 39.7533C33.3974 39.6156 33.3057 39.3404 33.2965 39.2303C33.5258 39.0743 33.7552 38.9184 33.9662 38.7257C33.9754 38.7349 33.9846 38.7349 33.9846 38.7349C34.113 38.7807 34.2323 38.8908 34.2965 39.0193ZM34.0029 37.8541C33.5075 37.8541 33.5075 37.0743 34.0029 37.0743C34.5075 37.0834 34.5075 37.8541 34.0029 37.8541ZM34.4341 37.0834C34.3332 37.0743 34.2415 37.0376 34.1589 36.9734C34.0855 36.9 34.0488 36.8082 34.0488 36.6981V36.6798C34.0488 36.5788 34.0947 36.4779 34.1589 36.4045C34.2323 36.3311 34.324 36.2944 34.4341 36.2944C34.535 36.3036 34.6268 36.3403 34.7094 36.4045C34.7828 36.4779 34.8195 36.5697 34.8195 36.6798V36.6981C34.8195 36.799 34.7736 36.9 34.7094 36.9734C34.636 37.0376 34.535 37.0834 34.4341 37.0834ZM35.7461 37.9826C35.5626 38.267 35.1956 38.2028 35.1039 38.1752C34.9479 38.1294 34.8195 38.0101 34.7461 37.8633C34.9296 37.6064 35.0855 37.3403 35.2231 37.0743C35.48 37.1201 35.6452 37.2027 35.7461 37.3495C35.8103 37.4413 35.9021 37.7532 35.7461 37.9826Z" fill="black"/>
<path d="M27.6729 41.6708C27.4527 41.4415 27.1592 41.1203 26.7738 41.1387C26.6362 41.1387 26.5169 41.2029 26.4344 41.3038C26.361 41.4139 26.3518 41.5607 26.3977 41.68C26.4435 41.7901 26.5078 41.891 26.5903 41.9736C27.0215 42.4323 27.6362 42.6709 28.3335 42.6709C28.6454 42.6709 28.9574 42.625 29.2601 42.5332C29.2877 42.5241 29.306 42.4965 29.3152 42.4598C29.3152 42.414 29.2877 42.3864 29.2418 42.3864C28.4253 42.3681 27.9849 42.0195 27.6729 41.6708Z" fill="black"/>
<path d="M52.4442 34.8724C52.2515 34.7164 52.013 34.6522 51.7745 34.6797C51.7653 34.6797 51.7653 34.6797 51.7561 34.6797C51.7286 34.4962 51.6919 34.3127 51.646 34.1292C51.9121 34.1109 52.1323 34.01 52.2607 33.8173C52.4167 33.5971 52.4442 33.3035 52.3433 33.0558C52.2424 32.7989 52.0038 32.6246 51.7378 32.5971C51.4809 32.5695 51.2332 32.6705 51.0772 32.8723C50.9579 32.6888 50.8203 32.5237 50.6735 32.3585C50.8111 32.3126 50.9396 32.2117 51.013 32.0741C51.1506 31.8447 51.1781 31.4961 51.068 31.2851C50.8662 30.8906 50.3799 30.7346 49.9854 30.9365C49.7652 31.0466 49.6093 31.2576 49.5634 31.5053C49.334 31.386 49.0955 31.2851 48.8478 31.2025C49.1046 30.7713 48.8936 30.2942 48.6826 30.1474C48.5175 30.0373 48.334 29.9823 48.1321 29.9823C47.9395 30.0006 47.7468 30.0832 47.6184 30.2392C47.4165 30.4594 47.389 30.7438 47.4165 30.964C47.3798 30.964 47.3523 30.964 47.3156 30.964C47.1046 30.964 46.8936 30.9823 46.6826 31.0007C46.6917 30.8355 46.6642 30.6887 46.6 30.542C46.5266 30.3768 46.389 30.2392 46.2238 30.175C46.1596 30.1474 46.0862 30.1291 46.022 30.1291C45.71 30.1107 45.3981 30.2667 45.2605 30.5144C45.132 30.7621 45.1963 31.0924 45.3339 31.3218C45.0862 31.4135 44.8476 31.5145 44.6274 31.6429C44.5999 31.2117 44.2238 30.8814 43.7834 30.9181C43.7375 30.9181 43.6916 30.9273 43.6458 30.9365C43.499 30.9732 43.3613 31.0557 43.2696 31.1658C43.1136 31.3768 43.0678 31.6521 43.1412 31.8998C43.2146 32.12 43.3889 32.2576 43.5724 32.386C43.3889 32.5512 43.2146 32.7347 43.0586 32.9273C42.9668 32.7072 42.7742 32.5328 42.5356 32.4686C42.1228 32.3677 41.7833 32.6888 41.7099 32.8906C41.5448 33.2943 41.6457 33.5604 41.765 33.7072C41.9301 33.8999 42.1595 34.0191 42.4072 34.0191C42.3154 34.2577 42.2421 34.5054 42.1962 34.7439C41.9943 34.6797 41.765 34.6797 41.554 34.7531C41.3888 34.8173 41.1686 34.9733 41.1136 35.3311C41.086 35.5054 41.1227 35.854 41.398 36.0467C41.5264 36.1293 41.6732 36.1752 41.8292 36.166C41.9668 36.166 42.0861 36.1476 42.2145 36.1018C42.2604 36.3586 42.343 36.5972 42.4347 36.8357C42.2329 36.8816 41.976 36.9733 41.82 37.2027C41.6916 37.377 41.609 37.7899 41.8108 38.111C41.9576 38.3312 42.2145 38.4505 42.4714 38.4413C42.5632 38.4413 42.6457 38.4229 42.7283 38.4046C42.9118 38.3495 43.0678 38.2303 43.1687 38.0743C43.3063 38.2394 43.4531 38.3954 43.6091 38.5514C43.4439 38.6248 43.3247 38.7532 43.2421 38.9184C43.1412 39.1294 43.132 39.3679 43.1962 39.5881C43.2788 39.7808 43.4347 39.9276 43.6274 40.0101C43.7283 40.056 43.8293 40.0744 43.9394 40.0744C44.077 40.0744 44.1962 40.0377 44.3063 39.9643C44.499 39.8266 44.6366 39.6156 44.6917 39.3863C44.9027 39.5147 45.1229 39.6156 45.3431 39.7165C45.2146 39.9367 45.1779 40.1936 45.2238 40.4413C45.288 40.6891 45.4715 40.8909 45.71 40.9643C45.8018 40.9918 45.9027 41.0102 45.9945 41.0102C46.2422 41.0102 46.4715 40.8909 46.6183 40.6891C46.7284 40.5147 46.7835 40.3129 46.7835 40.1111C46.9761 40.1294 47.1596 40.1478 47.3523 40.1569C47.3339 40.4046 47.4257 40.7258 47.6459 40.8817C47.7927 40.9826 47.967 41.0469 48.1505 41.0469C48.2422 41.0469 48.334 41.0285 48.4257 41.001C48.6918 40.9184 48.8845 40.6891 48.9303 40.423C48.9579 40.2487 48.9487 40.0744 48.8936 39.9C49.0863 39.8266 49.2698 39.7441 49.4533 39.6523C49.5083 39.9276 49.7102 40.1569 49.9762 40.2395C50.0496 40.2579 50.123 40.2762 50.1964 40.2762C50.6185 40.2854 50.9579 39.9459 50.9671 39.5239C50.9671 39.3954 50.9396 39.2762 50.8845 39.1752C50.8019 39.0285 50.6919 38.8908 50.5451 38.7991C50.5726 38.7716 50.6001 38.7349 50.6276 38.7073C50.7286 38.5789 50.8386 38.4505 50.9304 38.3128C50.9396 38.322 50.9487 38.322 50.9487 38.3312L50.9671 38.3404C51.068 38.3954 51.3432 38.5422 51.6368 38.5422C51.7286 38.5422 51.8295 38.5239 51.9121 38.4963C52.1139 38.4138 52.2515 38.2394 52.3433 37.9642C52.4167 37.7257 52.3616 37.4688 52.2057 37.2761C52.0497 37.0743 51.802 36.9091 51.6001 36.8908C51.646 36.7348 51.6735 36.5788 51.7011 36.432C51.7194 36.4412 51.7286 36.4412 51.7378 36.4504C51.7836 36.4596 51.8112 36.4596 51.857 36.4596C52.3433 36.4596 52.7286 36.0742 52.7286 35.588C52.7561 35.2852 52.646 35.0375 52.4442 34.8724ZM41.554 35.8632C41.3338 35.6981 41.3705 35.3953 41.3705 35.377C41.398 35.1935 41.4714 35.0742 41.6182 35.01C41.7833 34.9366 41.9852 34.9366 42.1503 34.9916C42.1595 35.0008 42.1687 35.0008 42.1687 35.01C42.1503 35.1476 42.1503 35.2669 42.1503 35.4045C42.1503 35.5696 42.1687 35.7164 42.187 35.8724C42.0677 35.9183 41.7191 35.9825 41.554 35.8632ZM50.9029 34.7439C50.4074 34.7439 50.4074 33.9641 50.9029 33.9641C51.4075 33.9641 51.4075 34.7439 50.9029 34.7439ZM51.0405 35.7164C50.5451 35.7164 50.5451 34.9366 51.0405 34.9366C51.5451 34.9366 51.5451 35.7164 51.0405 35.7164ZM51.0405 36.6706C50.5451 36.6706 50.5451 35.8907 51.0405 35.8907C51.5359 35.8907 51.5359 36.6706 51.0405 36.6706ZM50.8111 33.1384C50.8845 33.2118 50.9212 33.3127 50.9212 33.4136C50.9212 33.5145 50.8753 33.6154 50.8111 33.6888C50.7377 33.7622 50.646 33.7989 50.5359 33.7989H50.5175C50.4166 33.7989 50.3157 33.7531 50.2423 33.6888C50.1689 33.6154 50.1322 33.5145 50.1322 33.4136C50.1322 33.3127 50.1781 33.2118 50.2423 33.1384C50.3157 33.065 50.4074 33.0283 50.5175 33.0283H50.5359C50.646 33.0283 50.7469 33.0741 50.8111 33.1384ZM49.7927 31.597C49.8294 31.2851 50.1047 31.0741 50.4166 31.1108C50.6001 31.1291 50.7561 31.2484 50.8478 31.4044C50.9212 31.5879 50.9029 31.7989 50.8019 31.964C50.7377 32.0833 50.6093 32.1567 50.4808 32.1567C50.4717 32.1567 50.4717 32.1567 50.4625 32.1567C50.2515 31.964 50.0221 31.7897 49.7744 31.6337C49.7836 31.6246 49.7927 31.6154 49.7927 31.597ZM49.9487 32.3126C50.4441 32.3126 50.4441 33.0925 49.9487 33.0925C49.4441 33.0925 49.4441 32.3126 49.9487 32.3126ZM49.123 31.8356C49.6184 31.8356 49.6184 32.6154 49.123 32.6154C48.6276 32.6062 48.6184 31.8356 49.123 31.8356ZM47.7927 30.4135C47.8844 30.3126 48.0129 30.2484 48.1413 30.2392C48.2789 30.23 48.4257 30.2759 48.5358 30.3493C48.7468 30.5603 48.7744 30.8906 48.6 31.1383C48.2881 31.0557 47.967 31.0007 47.6551 30.9823C47.6275 30.8172 47.6367 30.5786 47.7927 30.4135ZM48.2147 32.3402C47.7193 32.3402 47.7193 31.5603 48.2147 31.5603C48.7101 31.5695 48.7101 32.3402 48.2147 32.3402ZM46.2605 32.3402C45.7651 32.3402 45.7651 31.5603 46.2605 31.5603C46.756 31.5695 46.7651 32.3402 46.2605 32.3402ZM46.0036 39.5789C45.5082 39.5789 45.5082 38.7991 46.0036 38.7991C46.4991 38.8083 46.4991 39.5789 46.0036 39.5789ZM45.4715 30.6337C45.5541 30.4686 45.7834 30.3585 45.9945 30.3768C46.0403 30.3768 46.0862 30.3952 46.1229 30.4043C46.233 30.4502 46.3156 30.542 46.3706 30.652C46.4165 30.7713 46.444 30.9089 46.4348 31.0282V31.0374C46.1413 31.0833 45.8568 31.1475 45.5724 31.2392C45.5724 31.2392 45.5724 31.2392 45.5724 31.23C45.4532 31.0833 45.3798 30.808 45.4715 30.6337ZM44.9302 32.1934C44.9302 32.0925 44.9761 31.9915 45.0403 31.9181C45.1137 31.8447 45.2146 31.808 45.3155 31.808C45.4165 31.808 45.5174 31.8539 45.5908 31.9181C45.6642 31.9915 45.7009 32.0833 45.7009 32.1934V32.2117C45.7009 32.3126 45.655 32.4136 45.5908 32.487C45.5174 32.5604 45.4165 32.5971 45.3155 32.5971C45.2146 32.5971 45.1137 32.5512 45.0403 32.487C44.9669 32.4136 44.9302 32.3218 44.9302 32.2117V32.1934ZM44.4807 32.2484C44.9761 32.2484 44.9761 33.0283 44.4807 33.0283C43.976 33.0191 43.976 32.2484 44.4807 32.2484ZM43.3797 31.8264C43.3614 31.753 43.3522 31.6888 43.3613 31.6062C43.3705 31.5053 43.4072 31.4044 43.4623 31.3218C43.5265 31.2484 43.6182 31.1933 43.71 31.175C44.0036 31.1016 44.2972 31.2759 44.3706 31.5787C44.3889 31.6337 44.3889 31.698 44.3889 31.753C44.3889 31.7622 44.3889 31.7713 44.3889 31.7805C44.1687 31.9181 43.9577 32.0649 43.7559 32.2301C43.7467 32.2209 43.7375 32.2117 43.7283 32.2026C43.5724 32.0925 43.4256 31.9824 43.3797 31.8264ZM43.7742 32.8264C44.2696 32.8264 44.2696 33.6063 43.7742 33.6063C43.2788 33.5971 43.2788 32.8264 43.7742 32.8264ZM42.9852 33.7072C43.0586 33.6338 43.1503 33.5971 43.2604 33.5971H43.2788C43.3797 33.5971 43.4806 33.643 43.554 33.7072C43.6274 33.7806 43.6641 33.8815 43.6641 33.9824C43.6641 34.0833 43.6182 34.1843 43.554 34.2577C43.4806 34.3311 43.3889 34.3678 43.2788 34.3678H43.2604C43.1595 34.3678 43.0586 34.3219 42.9852 34.2577C42.9118 34.1843 42.8751 34.0833 42.8751 33.9824C42.8751 33.8815 42.9118 33.7898 42.9852 33.7072ZM42.6733 35.799C42.6733 35.6981 42.7191 35.5972 42.7834 35.5238C42.8567 35.4504 42.9577 35.4137 43.0586 35.4137C43.1595 35.4137 43.2604 35.4595 43.3338 35.5238C43.4072 35.5972 43.4439 35.6889 43.4439 35.799V35.8173C43.4439 35.9183 43.398 36.0192 43.3338 36.0926C43.2604 36.166 43.1595 36.2027 43.0586 36.2027C42.9577 36.2027 42.8567 36.1568 42.7834 36.0926C42.71 36.0284 42.6733 35.9274 42.6733 35.8173V35.799ZM42.9944 34.4595C43.4898 34.4595 43.4898 35.2393 42.9944 35.2393C42.4898 35.2302 42.4898 34.4595 42.9944 34.4595ZM41.9576 33.5604C41.8475 33.4136 41.8384 33.2209 41.9393 32.9824C41.976 32.909 42.1962 32.6338 42.4806 32.698C42.4806 32.698 42.8017 32.7806 42.8476 33.0833C42.8567 33.1017 42.8659 33.1292 42.8751 33.1475C42.7375 33.3402 42.609 33.5512 42.5081 33.7806C42.4898 33.7806 42.4806 33.7806 42.4714 33.7806C42.2879 33.7898 42.0953 33.7164 41.9576 33.5604ZM42.6641 38.1752C42.5815 38.2027 42.2054 38.2578 42.0219 37.9826C41.8751 37.7532 41.9576 37.4321 42.0219 37.3495C42.1228 37.2027 42.2879 37.1201 42.5448 37.0743C42.6824 37.3587 42.8384 37.6247 43.0219 37.8633C42.9485 38.0192 42.8201 38.1293 42.6641 38.1752ZM43.0586 36.9642C42.9852 36.8908 42.9485 36.799 42.9485 36.6889V36.6706C42.9485 36.5697 42.9944 36.4687 43.0586 36.3953C43.132 36.3219 43.2329 36.2853 43.3338 36.2853C43.4347 36.2853 43.5357 36.3311 43.6091 36.3953C43.6825 36.4596 43.7192 36.5605 43.7192 36.6706V36.6889C43.7192 36.7899 43.6733 36.8908 43.6091 36.9642C43.5357 37.0376 43.4347 37.0743 43.3338 37.0743C43.2329 37.0834 43.132 37.0376 43.0586 36.9642ZM43.765 37.0834C44.2605 37.0834 44.2605 37.8633 43.765 37.8633C43.2604 37.8541 43.2604 37.0834 43.765 37.0834ZM44.1871 39.7624C44.0586 39.845 43.9118 39.8542 43.7375 39.7808C43.5999 39.7349 43.4898 39.6248 43.4347 39.4964C43.3889 39.3404 43.4072 39.1752 43.4806 39.0285C43.5448 38.8908 43.6549 38.7899 43.8017 38.7532C43.8109 38.7532 43.8201 38.744 43.8201 38.744C44.0311 38.9275 44.2513 39.0927 44.4898 39.2486C44.4807 39.3404 44.3889 39.6248 44.1871 39.7624ZM44.4256 38.5697C43.9302 38.5697 43.9302 37.7899 44.4256 37.7899C44.9302 37.7899 44.9302 38.5697 44.4256 38.5697ZM45.2054 39.1386H45.1871C45.0862 39.1386 44.9853 39.0927 44.9119 39.0285C44.8385 38.9551 44.8018 38.8541 44.8018 38.7532C44.8018 38.6523 44.8476 38.5514 44.9119 38.478C44.9853 38.4046 45.077 38.3679 45.1871 38.3679H45.2054C45.3064 38.3679 45.4073 38.4138 45.4807 38.478C45.5541 38.5514 45.5908 38.6523 45.5908 38.7532C45.5908 38.8541 45.5449 38.9551 45.4807 39.0285C45.4073 39.0927 45.3155 39.1386 45.2054 39.1386ZM46.4348 40.5423C46.288 40.7349 46.0312 40.7992 45.811 40.7166C45.6458 40.6707 45.5266 40.5331 45.4807 40.3679C45.444 40.1753 45.4807 39.9643 45.5816 39.7899V39.7808C45.8935 39.9 46.2238 39.9918 46.5541 40.0468C46.5633 40.2303 46.5266 40.4046 46.4348 40.5423ZM46.9486 39.8083C46.4532 39.8083 46.4532 39.0285 46.9486 39.0285C47.444 39.0285 47.444 39.8083 46.9486 39.8083ZM47.5083 32.1292C47.4349 32.2026 47.3431 32.2393 47.233 32.2393C47.1321 32.2301 47.0404 32.1934 46.9578 32.1292C46.8844 32.0558 46.8477 31.964 46.8477 31.8539C46.8477 31.753 46.8936 31.6521 46.9578 31.5787L46.9761 31.5603C47.0495 31.4869 47.1413 31.4502 47.2514 31.4502C47.3523 31.4594 47.444 31.4961 47.5266 31.5603C47.6 31.6337 47.6367 31.7255 47.6367 31.8356C47.6367 31.9365 47.5908 32.0374 47.5266 32.1108L47.5083 32.1292ZM47.5817 39.3496C47.5817 39.2486 47.6275 39.1477 47.6918 39.0743C47.7652 39.0009 47.8569 38.9642 47.967 38.9642H47.9853C48.0863 38.9642 48.1872 39.0101 48.2606 39.0743C48.334 39.1477 48.3707 39.2486 48.3707 39.3496C48.3707 39.4505 48.3248 39.5514 48.2606 39.6248C48.1872 39.6982 48.0954 39.7349 47.9853 39.7349H47.967C47.8661 39.7349 47.7652 39.689 47.6918 39.6248C47.6275 39.5514 47.5908 39.4597 47.5817 39.3496ZM48.701 40.3588C48.6734 40.5514 48.5358 40.6982 48.3615 40.7625C48.1688 40.8267 47.967 40.7992 47.811 40.6799C47.6734 40.579 47.5908 40.3404 47.6184 40.1386C47.9853 40.1202 48.3432 40.0652 48.6918 39.9734C48.7285 40.0927 48.7285 40.2303 48.701 40.3588ZM48.8569 39.5239C48.3615 39.5239 48.3615 38.744 48.8569 38.744C49.3524 38.744 49.3524 39.5239 48.8569 39.5239ZM49.6643 39.0285C49.5634 39.0285 49.4625 38.9826 49.3891 38.9184C49.3157 38.845 49.279 38.744 49.279 38.6431C49.279 38.5422 49.3248 38.4413 49.3891 38.3679C49.4625 38.2945 49.5542 38.2578 49.6643 38.2578H49.6826C49.7836 38.2578 49.8845 38.3037 49.9579 38.3679C50.0313 38.4413 50.068 38.5422 50.068 38.6431C50.068 38.744 50.0221 38.845 49.9579 38.9184C49.8845 38.9918 49.7927 39.0285 49.6826 39.0285H49.6643ZM50.6919 39.2762C50.8203 39.5331 50.7102 39.845 50.4625 39.9734C50.2056 40.1019 49.8937 39.9918 49.7652 39.7441C49.7377 39.689 49.7193 39.6248 49.7102 39.5606C49.7102 39.5422 49.701 39.5331 49.6918 39.5147C49.9487 39.3496 50.1781 39.1752 50.3983 38.9642C50.3983 38.9642 50.3983 38.9734 50.4074 38.9734C50.5175 39.0468 50.6185 39.1477 50.6919 39.2762ZM50.3065 38.3862C49.8111 38.3862 49.8111 37.6064 50.3065 37.6064C50.8019 37.6156 50.8019 38.3862 50.3065 38.3862ZM50.7102 37.588C50.2148 37.588 50.2148 36.8082 50.7102 36.8082C51.2056 36.8174 51.2056 37.588 50.7102 37.588ZM52.0222 37.3954C52.1231 37.533 52.1598 37.7073 52.1139 37.8725C52.0497 38.0651 51.9488 38.1936 51.8295 38.2486C51.6552 38.322 51.4075 38.2761 51.1047 38.111L51.0864 38.1018C51.279 37.7899 51.435 37.4504 51.5451 37.1018C51.5543 37.1018 51.5634 37.1018 51.5634 37.1018C51.6644 37.1018 51.8754 37.2027 52.0222 37.3954ZM51.5818 33.8907C51.5726 33.8907 51.5634 33.8907 51.5634 33.8907C51.4717 33.6063 51.3433 33.3402 51.1965 33.0833C51.2148 33.0741 51.2148 33.065 51.2332 33.0466C51.3341 32.8906 51.5176 32.8081 51.7011 32.8264C51.8846 32.8539 52.0405 32.9732 52.1139 33.1384C52.1873 33.3127 52.1598 33.5053 52.0589 33.6613C51.9396 33.8632 51.7102 33.8907 51.5818 33.8907ZM52.3066 36.01C52.169 36.1385 51.9763 36.1935 51.7928 36.1752C51.7745 36.1752 51.7745 36.1752 51.7561 36.1752C51.7928 35.9183 51.802 35.6797 51.8112 35.4228C51.8112 35.2577 51.802 35.0834 51.7836 34.9182C51.7928 34.9182 51.7928 34.9182 51.802 34.9182C52.1414 34.8724 52.4717 35.1201 52.5084 35.4687C52.5359 35.6614 52.4625 35.8724 52.3066 36.01Z" fill="black"/>
<path d="M50.9944 41.1295C50.6091 41.1112 50.3155 41.4323 50.0953 41.6617C49.7742 42.0011 49.3338 42.3589 48.5173 42.3865C48.4806 42.3865 48.4623 42.4048 48.4439 42.4415C48.4256 42.4874 48.4623 42.5149 48.4898 42.5333C48.7925 42.6158 49.0953 42.6617 49.4164 42.6709C50.1137 42.6709 50.7375 42.4323 51.1596 41.9736C51.2421 41.891 51.3155 41.7901 51.3522 41.68C51.3981 41.5516 51.3889 41.4139 51.3155 41.3039C51.2513 41.1938 51.1321 41.1295 50.9944 41.1295Z" fill="black"/>
<path d="M38.5906 19.5691C39.1503 19.7068 39.7191 19.3673 39.8567 18.8077C39.8843 18.6792 39.8934 18.5508 39.8751 18.4315C39.8751 18.4131 39.8567 18.3856 39.8384 18.3764C39.5081 18.1563 39.1228 18.0462 38.7283 18.037C38.4163 18.0462 38.1227 18.1104 37.8475 18.2572C37.8292 18.2664 37.8108 18.2847 37.8108 18.3031C37.6824 18.8627 38.031 19.4315 38.5906 19.5691ZM38.3613 18.2297V18.2113L38.3796 18.2021C38.5264 18.1563 38.6824 18.1287 38.8292 18.1287H38.8384C39.0035 18.1379 39.1778 18.1746 39.3246 18.2572L39.343 18.2664V18.2847C39.343 18.3031 39.3521 18.3306 39.3521 18.3397C39.3521 18.3856 39.343 18.4131 39.3338 18.459C39.2696 18.7251 39.0035 18.8902 38.7374 18.826C38.453 18.7618 38.2971 18.4957 38.3613 18.2297Z" fill="black"/>
<path d="M37.2055 16.092C36.866 16.3764 36.6825 16.8259 36.6091 17.5048C36.5265 18.2939 36.7926 19.67 37.5816 20.8444C38.444 22.1288 38.6092 23.0555 38.6826 23.4408C38.6917 23.4775 38.7009 23.505 38.7009 23.5326C38.7101 23.5693 38.7376 23.5876 38.7743 23.5876H38.7927C38.8294 23.5876 38.8569 23.5601 38.8661 23.5326C38.8752 23.505 38.8752 23.4775 38.8844 23.4408C38.9578 23.0463 39.123 22.1197 39.9854 20.8444C40.7744 19.67 41.0404 18.2939 40.9579 17.5048C40.8845 16.8259 40.6918 16.3764 40.3615 16.092C40.0955 15.8718 39.7377 15.8075 39.4165 15.9085C39.1321 16.0002 38.9028 16.2204 38.7927 16.4956C38.6917 16.2112 38.4532 16.0002 38.1688 15.9085C37.8293 15.8167 37.4715 15.8809 37.2055 16.092ZM39.3431 20.9637C39.2147 20.9545 39.1505 20.826 39.123 20.716C39.0863 20.4866 39.1964 20.248 39.3156 20.0554C39.3156 20.0554 39.3156 20.0554 39.3248 20.0462C39.334 20.037 39.3431 20.037 39.3523 20.037H39.3615C39.3615 20.037 39.3615 20.037 39.3707 20.0462C39.4991 20.2297 39.6367 20.4407 39.6276 20.6793C39.6092 20.8444 39.5083 20.9728 39.3431 20.9637ZM39.2514 17.9911C39.8477 18.1746 40.3523 18.5691 40.6643 19.1104C40.6735 19.1196 40.6735 19.1287 40.6551 19.1379C40.3982 19.3581 40.1046 19.5508 39.7835 19.6976C39.4716 19.826 39.1413 19.8902 38.8202 19.8811C38.0954 19.8811 37.4073 19.5875 36.9027 19.0737C36.9027 19.0737 36.9027 19.0737 36.9027 19.0645C36.9027 19.0553 36.9027 19.0462 36.9027 19.0462C37.0862 18.7526 37.3247 18.4957 37.6 18.2939C38.0862 17.9636 38.6826 17.826 39.2514 17.9911Z" fill="black"/>
<defs>
<filter id="filter0_d" x="0" y="0" width="78" height="78" filterUnits="userSpaceOnUse" color-interpolation-filters="sRGB">
<feFlood flood-opacity="0" result="BackgroundImageFix"/>
<feColorMatrix in="SourceAlpha" type="matrix" values="0 0 0 0 0 0 0 0 0 0 0 0 0 0 0 0 0 0 127 0"/>
<feOffset dy="4"/>
<feGaussianBlur stdDeviation="2"/>
<feColorMatrix type="matrix" values="0 0 0 0 0 0 0 0 0 0 0 0 0 0 0 0 0 0 0.25 0"/>
<feBlend mode="normal" in2="BackgroundImageFix" result="effect1_dropShadow"/>
<feBlend mode="normal" in="SourceGraphic" in2="effect1_dropShadow" result="shape"/>
</filter>
</defs>
</svg>
