<svg width="78" height="78" viewBox="0 0 78 78" fill="none" xmlns="http://www.w3.org/2000/svg">
<g filter="url(#filter0_d)">
<circle cx="39" cy="35" r="35" fill="white"/>
</g>
<path d="M55.8514 49.9217C53.1477 51.8436 48.6453 54.1172 42.1314 54.5608C41.5154 54.6022 40.8804 54.628 40.2274 54.6358C32.7111 54.7209 27.5378 52.724 24.5216 51.035C23.3087 50.363 22.1652 49.5712 21.1079 48.674C20.0719 51.4225 19.4547 53.2268 19.4939 53.5348C19.7101 55.2294 26.8277 60.798 39.0178 61.1743C51.2079 61.5507 60.3672 54.3726 60.3516 52.6624C60.3516 52.6624 59.553 50.8513 58.265 47.9337C57.509 48.6528 56.7015 49.3169 55.8514 49.9217Z" fill="#A1C04B"/>
<path d="M39.0198 58.8571C28.3586 58.5278 21.5781 54.227 19.8992 52.0251C19.6203 52.8583 19.4758 53.3859 19.496 53.5393C19.7122 55.2339 26.8298 60.8025 39.0198 61.1788C51.2099 61.5551 60.3693 54.3771 60.3536 52.6668L59.7936 51.4023C57.6398 53.9839 49.437 59.1785 39.0198 58.8571Z" fill="#5C7709"/>
<path d="M25.4994 49.5107C28.3128 51.0686 33.149 52.9087 40.2094 52.8292C47.2442 52.7497 51.9885 50.4335 54.7291 48.5038C55.7181 47.8105 56.641 47.0276 57.4854 46.1652C52.6594 35.2385 43.136 17.762 39.9933 10.8561C39.7525 10.3342 39.1354 10.1057 38.6134 10.3465C38.3771 10.4551 38.1901 10.6478 38.0893 10.8874C35.1952 17.8404 26.1053 35.6809 21.8022 46.8641C22.9211 47.8945 24.1632 48.7826 25.4994 49.5107Z" fill="#FF6262"/>
<path d="M41.3417 46.2648C41.3103 47.2617 40.7593 47.6514 40.0951 47.6301C39.4309 47.6089 38.9045 47.1821 38.9359 46.1898C38.9673 45.1975 40.2082 44.0215 40.2082 44.0215C40.2082 44.0215 41.373 45.268 41.3417 46.2648Z" fill="#262626"/>
<path d="M40.4359 27.8901C40.4729 28.8869 39.9487 29.3125 39.2846 29.3372C38.6204 29.3618 38.0671 28.9743 38.0302 27.9786C37.9932 26.9829 39.1502 25.7285 39.1502 25.7285C39.1502 25.7285 40.399 26.8933 40.4359 27.8901Z" fill="#262626"/>
<path d="M45.2104 36.2498C45.3313 37.2399 44.8452 37.7058 44.1855 37.7887C43.5259 37.8716 42.9412 37.5311 42.8203 36.541C42.6993 35.551 43.7476 34.2047 43.7476 34.2047C43.7476 34.2047 45.0894 35.2609 45.2104 36.2498Z" fill="#262626"/>
<path d="M32.6138 36.1703C32.4312 37.1503 32.8871 37.6487 33.54 37.7707C34.193 37.8928 34.7978 37.5915 34.9804 36.6104C35.1629 35.6293 34.1964 34.2203 34.1964 34.2203C34.1964 34.2203 32.8008 35.1903 32.6138 36.1703Z" fill="#262626"/>
<path d="M51.5049 43.8232C51.8286 44.7663 51.4511 45.3263 50.8228 45.5424C50.1945 45.7586 49.5527 45.5492 49.2279 44.6061C48.9031 43.6631 49.649 42.1276 49.649 42.1276C49.649 42.1276 51.1778 42.878 51.5049 43.8232Z" fill="#262626"/>
<path d="M27.7784 43.5354C27.3965 44.4561 27.7381 45.0385 28.3519 45.2938C28.9656 45.5492 29.6197 45.3801 30.0016 44.4594C30.3835 43.5388 29.7362 41.9596 29.7362 41.9596C29.7362 41.9596 28.1603 42.6137 27.7784 43.5354Z" fill="#262626"/>
<defs>
<filter id="filter0_d" x="0" y="0" width="78" height="78" filterUnits="userSpaceOnUse" color-interpolation-filters="sRGB">
<feFlood flood-opacity="0" result="BackgroundImageFix"/>
<feColorMatrix in="SourceAlpha" type="matrix" values="0 0 0 0 0 0 0 0 0 0 0 0 0 0 0 0 0 0 127 0"/>
<feOffset dy="4"/>
<feGaussianBlur stdDeviation="2"/>
<feColorMatrix type="matrix" values="0 0 0 0 0 0 0 0 0 0 0 0 0 0 0 0 0 0 0.25 0"/>
<feBlend mode="normal" in2="BackgroundImageFix" result="effect1_dropShadow"/>
<feBlend mode="normal" in="SourceGraphic" in2="effect1_dropShadow" result="shape"/>
</filter>
</defs>
</svg>
