<svg width="78" height="78" viewBox="0 0 78 78" fill="none" xmlns="http://www.w3.org/2000/svg">
<g filter="url(#filter0_d)">
<circle cx="39" cy="35" r="35" fill="white"/>
</g>
<path d="M38.9882 48.5719C31.2602 48.5719 24.9722 42.2839 24.9722 34.5559C24.9722 26.8279 31.2602 20.5399 38.9882 20.5399C46.7162 20.5399 53.0042 26.8279 53.0042 34.5559C53.0042 42.2839 46.7162 48.5719 38.9882 48.5719ZM38.9882 21.4759C31.7762 21.4759 25.9082 27.3439 25.9082 34.5559C25.9082 41.7679 31.7762 47.6359 38.9882 47.6359C46.2002 47.6359 52.0682 41.7679 52.0682 34.5559C52.0682 27.3439 46.2122 21.4759 38.9882 21.4759Z" fill="#000080"/>
<path d="M51.5642 22.3639L50.3282 23.5999L49.9562 23.2279L51.1922 21.9919C49.1402 19.9999 46.6082 18.5119 43.7882 17.7079L43.3322 19.3999L42.8162 19.2559L43.2722 17.5639C41.9042 17.2159 40.4642 17.0359 39.0002 17.0359C37.5242 17.0359 36.0962 17.2159 34.7282 17.5639L35.1842 19.2559L34.6682 19.3999L34.2122 17.7079C31.3922 18.5119 28.8602 19.9999 26.8082 21.9919L28.0442 23.2279L27.6722 23.5999L26.4482 22.3639C24.4562 24.4159 22.9682 26.9479 22.1642 29.7679L23.8562 30.2239L23.7122 30.7399L22.0202 30.2839C21.6722 31.6519 21.4922 33.0919 21.4922 34.5559C21.4922 36.0199 21.6722 37.4599 22.0202 38.8279L23.7122 38.3719L23.8562 38.8879L22.1642 39.3439C22.9682 42.1639 24.4562 44.6959 26.4482 46.7479L27.6842 45.5119L28.0562 45.8839L26.8202 47.1199C28.8722 49.1119 31.4042 50.5999 34.2242 51.4039L34.6802 49.7119L35.1962 49.8559L34.7402 51.5479C36.1082 51.8959 37.5482 52.0759 39.0122 52.0759C40.4882 52.0759 41.9162 51.8959 43.2842 51.5479L42.8282 49.8559L43.3442 49.7119L43.8002 51.4039C46.6202 50.5999 49.1522 49.1119 51.2042 47.1199L49.9682 45.8959L50.3402 45.5239L51.5762 46.7479C53.5682 44.6959 55.0562 42.1639 55.8602 39.3439L54.1682 38.8879L54.3122 38.3719L56.0042 38.8279C56.3522 37.4599 56.5322 36.0199 56.5322 34.5559C56.5322 33.0799 56.3522 31.6519 56.0042 30.2839L54.3122 30.7399L54.1682 30.2239L55.8602 29.7679C55.0442 26.9479 53.5562 24.4159 51.5642 22.3639ZM22.6682 34.9999C22.4282 34.9999 22.2242 34.7959 22.2242 34.5559C22.2242 34.3039 22.4282 34.1119 22.6682 34.1119C22.9202 34.1119 23.1122 34.3159 23.1122 34.5559C23.1122 34.8079 22.9082 34.9999 22.6682 34.9999ZM52.9082 26.0119C53.1242 25.8919 53.3882 25.9639 53.5202 26.1799C53.6402 26.3959 53.5682 26.6599 53.3522 26.7919C53.1362 26.9119 52.8722 26.8399 52.7402 26.6239C52.6322 26.4079 52.7042 26.1319 52.9082 26.0119ZM46.7762 20.1919C46.8962 19.9759 47.1722 19.9039 47.3882 20.0239C47.6042 20.1439 47.6762 20.4199 47.5562 20.6359C47.4362 20.8519 47.1602 20.9239 46.9442 20.8039C46.7282 20.6839 46.6442 20.4079 46.7762 20.1919ZM38.9882 17.7799C39.2402 17.7799 39.4322 17.9839 39.4322 18.2239C39.4322 18.4639 39.2282 18.6679 38.9882 18.6679C38.7482 18.6679 38.5442 18.4639 38.5442 18.2239C38.5442 17.9839 38.7482 17.7799 38.9882 17.7799ZM30.6122 20.0359C30.8282 19.9159 31.0922 19.9879 31.2242 20.2039C31.3442 20.4199 31.2722 20.6839 31.0562 20.8159C30.8402 20.9359 30.5762 20.8639 30.4442 20.6479C30.3242 20.4319 30.3962 20.1559 30.6122 20.0359ZM24.4682 26.1679C24.5882 25.9519 24.8642 25.8799 25.0802 25.9999C25.2962 26.1199 25.3682 26.3959 25.2482 26.6119C25.1282 26.8279 24.8522 26.8999 24.6362 26.7799C24.4202 26.6599 24.3482 26.3839 24.4682 26.1679ZM25.0802 43.1119C24.8642 43.2319 24.6002 43.1599 24.4682 42.9439C24.3482 42.7279 24.4202 42.4639 24.6362 42.3319C24.8522 42.2119 25.1162 42.2839 25.2482 42.4999C25.3562 42.7159 25.2842 42.9799 25.0802 43.1119ZM31.2122 48.9199C31.0922 49.1359 30.8162 49.2079 30.6002 49.0879C30.3842 48.9679 30.3122 48.6919 30.4322 48.4759C30.5522 48.2599 30.8282 48.1879 31.0442 48.3079C31.2602 48.4399 31.3442 48.7039 31.2122 48.9199ZM38.9882 51.3319C38.7482 51.3319 38.5442 51.1279 38.5442 50.8879C38.5442 50.6359 38.7482 50.4439 38.9882 50.4439C39.2402 50.4439 39.4322 50.6479 39.4322 50.8879C39.4442 51.1279 39.2402 51.3319 38.9882 51.3319ZM47.3762 49.0879C47.1602 49.2079 46.8962 49.1359 46.7642 48.9199C46.6442 48.7039 46.7162 48.4399 46.9322 48.3079C47.1482 48.1879 47.4122 48.2599 47.5442 48.4759C47.6642 48.6919 47.5922 48.9679 47.3762 49.0879ZM53.5202 42.9439C53.4002 43.1599 53.1242 43.2319 52.9082 43.1119C52.6922 42.9919 52.6202 42.7159 52.7402 42.4999C52.8602 42.2839 53.1362 42.2119 53.3522 42.3319C53.5682 42.4639 53.6402 42.7279 53.5202 42.9439ZM49.6442 45.2119C46.8002 48.0559 43.0202 49.6279 38.9882 49.6279C34.9682 49.6279 31.1762 48.0559 28.3322 45.2119C25.4882 42.3679 23.9162 38.5879 23.9162 34.5559C23.9162 30.5359 25.4882 26.7439 28.3322 23.8999C31.1762 21.0559 34.9562 19.4839 38.9882 19.4839C43.0082 19.4839 46.8002 21.0559 49.6442 23.8999C52.4882 26.7439 54.0602 30.5239 54.0602 34.5559C54.0602 38.5759 52.4882 42.3679 49.6442 45.2119ZM55.3202 34.1119C55.5602 34.1119 55.7642 34.3159 55.7642 34.5559C55.7642 34.7959 55.5602 34.9999 55.3202 34.9999C55.0682 34.9999 54.8762 34.7959 54.8762 34.5559C54.8762 34.3159 55.0802 34.1119 55.3202 34.1119Z" fill="#000080"/>
<path d="M64.8122 33.1159C62.7722 33.1159 59.0162 34.3039 58.8962 33.5359V33.4999H57.7562C57.6002 30.7639 56.8682 28.1839 55.6682 25.8919L56.6402 25.3279L56.6162 25.2919C56.3282 24.5719 60.1802 23.7199 61.9442 22.6999C62.7962 22.2079 63.1202 21.3319 62.7482 20.7079C62.3762 20.0719 61.4642 19.9159 60.6122 20.4079C58.8482 21.4279 56.1842 24.3319 55.7042 23.7319L55.6802 23.6959L54.6962 24.2599C53.2442 22.0399 51.3242 20.1439 49.0802 18.7159L49.6442 17.7439L49.6082 17.7199C48.9962 17.2399 51.9122 14.5759 52.9322 12.8119C53.4242 11.9599 53.2682 11.0479 52.6322 10.6759C51.9962 10.3039 51.1322 10.6279 50.6402 11.4799C49.6202 13.2439 48.7682 17.0959 48.0482 16.8079L48.0122 16.7839L47.4482 17.7679C45.1322 16.6039 42.5522 15.8959 39.8162 15.7759V14.6479H39.7802C39.0122 14.5279 40.2002 10.7839 40.2002 8.73192C40.2002 7.74792 39.6002 7.03992 38.8682 7.03992C38.1362 7.03992 37.5362 7.74792 37.5362 8.73192C37.5362 10.7719 38.7242 14.5279 37.9562 14.6479H37.9202V15.7879C35.1842 15.9439 32.6042 16.6759 30.3122 17.8759L29.7482 16.9039L29.7122 16.9279C28.9922 17.2159 28.1402 13.3639 27.1202 11.5999C26.6282 10.7479 25.7522 10.4239 25.1282 10.7959C24.4922 11.1679 24.3362 12.0799 24.8282 12.9319C25.8482 14.6959 28.7522 17.3599 28.1522 17.8399L28.1162 17.8639L28.6802 18.8479C26.4602 20.2999 24.5642 22.2199 23.1362 24.4639L22.1642 23.8999L22.1402 23.9359C21.6602 24.5479 18.9962 21.6319 17.2322 20.6119C16.3802 20.1199 15.4682 20.2759 15.0962 20.9119C14.7242 21.5479 15.0482 22.4119 15.9002 22.9039C17.6642 23.9239 21.5162 24.7759 21.2282 25.4959L21.2042 25.5319L22.1882 26.0959C21.0242 28.4119 20.3162 30.9919 20.1962 33.7279H19.0802V33.7639C18.9602 34.5319 15.2162 33.3439 13.1642 33.3439C12.1802 33.3439 11.4722 33.9319 11.4722 34.6759C11.4722 35.4079 12.1802 36.0079 13.1642 36.0079C15.2042 36.0079 18.9602 34.8199 19.0802 35.5879V35.6239H20.2202C20.3762 38.3599 21.1082 40.9399 22.3082 43.2319L21.3362 43.7959L21.3602 43.8319C21.6482 44.5519 17.7962 45.4039 16.0322 46.4239C15.1802 46.9159 14.8562 47.7919 15.2282 48.4159C15.6002 49.0519 16.5122 49.2079 17.3642 48.7159C19.1282 47.6959 21.7922 44.7919 22.2722 45.3919L22.2962 45.4279L23.2802 44.8639C24.7322 47.0839 26.6522 48.9799 28.8962 50.4079L28.3322 51.3799L28.3682 51.4039C28.9802 51.8839 26.0642 54.5479 25.0442 56.3119C24.5522 57.1639 24.7082 58.0759 25.3442 58.4479C25.9802 58.8199 26.8442 58.4959 27.3362 57.6439C28.3562 55.8799 29.2082 52.0279 29.9282 52.3159L29.9642 52.3399L30.5282 51.3559C32.8442 52.5199 35.4242 53.2279 38.1602 53.3479V54.4759H38.1962C38.9642 54.5959 37.7762 58.3399 37.7762 60.3919C37.7762 61.3759 38.3642 62.0839 39.1082 62.0839C39.8402 62.0839 40.4402 61.3759 40.4402 60.3919C40.4402 58.3519 39.2522 54.5959 40.0202 54.4759H40.0562V53.3359C42.7922 53.1799 45.3722 52.4479 47.6642 51.2479L48.2282 52.2199L48.2642 52.1959C48.9842 51.9079 49.8362 55.7599 50.8562 57.5239C51.3482 58.3759 52.2242 58.6999 52.8482 58.3279C53.4842 57.9559 53.6402 57.0439 53.1482 56.1919C52.1282 54.4279 49.2242 51.7639 49.8242 51.2839L49.8602 51.2599L49.2962 50.2759C51.5162 48.8239 53.4122 46.9039 54.8402 44.6599L55.8122 45.2239L55.8362 45.1879C56.3162 44.5759 58.9802 47.4919 60.7442 48.5119C61.5962 49.0039 62.5082 48.8479 62.8802 48.2119C63.2522 47.5759 62.9282 46.7119 62.0762 46.2199C60.3122 45.1999 56.4602 44.3479 56.7482 43.6279L56.7722 43.5919L55.7882 43.0279C56.9522 40.7119 57.6602 38.1319 57.7802 35.3959H58.9082V35.3599C59.0282 34.5919 62.7842 35.7799 64.8242 35.7799C65.8082 35.7799 66.5162 35.1919 66.5162 34.4479C66.5162 33.7159 65.7962 33.1159 64.8122 33.1159ZM38.9882 52.6159C29.0282 52.6159 20.9282 44.5159 20.9282 34.5559C20.9282 24.5959 29.0402 16.4959 38.9882 16.4959C48.9482 16.4959 57.0482 24.5959 57.0482 34.5559C57.0482 44.5159 48.9482 52.6159 38.9882 52.6159Z" fill="#000080"/>
<defs>
<filter id="filter0_d" x="0" y="0" width="78" height="78" filterUnits="userSpaceOnUse" color-interpolation-filters="sRGB">
<feFlood flood-opacity="0" result="BackgroundImageFix"/>
<feColorMatrix in="SourceAlpha" type="matrix" values="0 0 0 0 0 0 0 0 0 0 0 0 0 0 0 0 0 0 127 0"/>
<feOffset dy="4"/>
<feGaussianBlur stdDeviation="2"/>
<feColorMatrix type="matrix" values="0 0 0 0 0 0 0 0 0 0 0 0 0 0 0 0 0 0 0.25 0"/>
<feBlend mode="normal" in2="BackgroundImageFix" result="effect1_dropShadow"/>
<feBlend mode="normal" in="SourceGraphic" in2="effect1_dropShadow" result="shape"/>
</filter>
</defs>
</svg>
