<svg width="78" height="78" viewBox="0 0 78 78" fill="none" xmlns="http://www.w3.org/2000/svg">
<g filter="url(#filter0_d)">
<circle cx="39" cy="35" r="35" fill="white"/>
</g>
<path d="M39 0C43.5963 0 48.1475 0.905304 52.3939 2.66422C56.6403 4.42313 60.4987 7.00121 63.7487 10.2513C66.9988 13.5013 69.5769 17.3597 71.3358 21.6061C73.0947 25.8525 74 30.4037 74 35C74 39.5963 73.0947 44.1475 71.3358 48.3939C69.5769 52.6403 66.9988 56.4987 63.7487 59.7487C60.4987 62.9988 56.6403 65.5769 52.3939 67.3358C48.1475 69.0947 43.5963 70 39 70L39 35L39 0Z" fill="black"/>
<circle cx="38.5" cy="52.5" r="17.5" fill="black"/>
<circle cx="38.5" cy="17.5" r="17.5" fill="white"/>
<circle cx="38.5" cy="17.5" r="3.5" fill="black"/>
<circle cx="38.5" cy="52.5" r="3.5" fill="white"/>
<defs>
<filter id="filter0_d" x="0" y="0" width="78" height="78" filterUnits="userSpaceOnUse" color-interpolation-filters="sRGB">
<feFlood flood-opacity="0" result="BackgroundImageFix"/>
<feColorMatrix in="SourceAlpha" type="matrix" values="0 0 0 0 0 0 0 0 0 0 0 0 0 0 0 0 0 0 127 0"/>
<feOffset dy="4"/>
<feGaussianBlur stdDeviation="2"/>
<feColorMatrix type="matrix" values="0 0 0 0 0 0 0 0 0 0 0 0 0 0 0 0 0 0 0.25 0"/>
<feBlend mode="normal" in2="BackgroundImageFix" result="effect1_dropShadow"/>
<feBlend mode="normal" in="SourceGraphic" in2="effect1_dropShadow" result="shape"/>
</filter>
</defs>
</svg>
