<svg width="410" height="227" viewBox="0 0 410 227" fill="none" xmlns="http://www.w3.org/2000/svg">
<path d="M205 227C318.218 227 410 176.184 410 113.5C410 50.8157 318.218 0 205 0C91.7816 0 0 50.8157 0 113.5C0 176.184 91.7816 227 205 227Z" fill="white"/>
<path d="M38.061 102.363L121.547 190.283L3.66269 218.624L38.061 102.363Z" fill="white"/>
<path d="M61.297 106.975C60.874 100.041 60.385 94.491 59.832 90.324C63.478 91.952 66.717 93.091 69.549 93.742C72.413 94.361 74.92 94.67 77.068 94.67C79.9 94.67 82.146 94.263 83.807 93.449C85.499 92.603 86.346 91.366 86.346 89.738C86.346 89.185 86.264 88.664 86.102 88.176C85.939 87.655 85.63 87.085 85.174 86.467C84.718 85.816 84.067 85.116 83.221 84.367L74.041 76.359C71.893 74.536 70.395 73.218 69.549 72.404C67.824 70.744 66.473 69.198 65.496 67.766C64.552 66.333 63.852 64.885 63.396 63.42C62.973 61.923 62.762 60.344 62.762 58.684C62.762 56.698 63.104 54.761 63.787 52.873C64.503 50.952 65.561 49.162 66.961 47.502C68.361 45.842 70.216 44.41 72.527 43.205C74.839 42.001 77.312 41.187 79.949 40.764C82.586 40.308 85.304 40.08 88.104 40.08C93.605 40.08 99.594 40.715 106.072 41.984C106.17 44.23 106.284 46.298 106.414 48.186C106.544 50.041 106.854 53.312 107.342 58C104.347 56.796 101.613 55.965 99.139 55.51C96.665 55.021 94.533 54.777 92.742 54.777C90.203 54.777 88.087 55.249 86.395 56.193C84.734 57.137 83.904 58.309 83.904 59.709C83.904 60.36 84.035 60.995 84.295 61.613C84.555 62.232 85.044 62.964 85.76 63.811C86.476 64.624 87.42 65.536 88.592 66.545C89.764 67.521 91.603 68.986 94.109 70.939L97.625 73.723C98.667 74.569 99.79 75.594 100.994 76.799C102.199 78.003 103.24 79.191 104.119 80.363C104.998 81.535 105.665 82.609 106.121 83.586C106.609 84.562 106.967 85.555 107.195 86.564C107.423 87.541 107.537 88.599 107.537 89.738C107.537 92.668 106.837 95.467 105.438 98.137C104.038 100.773 102.052 102.954 99.48 104.68C96.909 106.372 94.077 107.561 90.984 108.244C87.924 108.928 84.686 109.27 81.268 109.27C75.994 109.27 69.337 108.505 61.297 106.975ZM116.717 108L118.084 84.465L118.865 66.057L118.963 58.146C122.544 58.212 125.701 58.244 128.436 58.244C131.528 58.244 134.539 58.212 137.469 58.146L137.127 64.641C138.136 63.339 138.982 62.346 139.666 61.662C140.382 60.946 141.245 60.279 142.254 59.66C143.263 59.009 144.305 58.505 145.379 58.146C146.453 57.756 147.658 57.447 148.992 57.219C150.327 56.991 151.727 56.877 153.191 56.877C154.852 56.877 156.382 57.023 157.781 57.316C159.181 57.577 160.385 57.919 161.395 58.342C162.404 58.765 163.283 59.253 164.031 59.807C164.78 60.36 165.431 60.995 165.984 61.711C166.57 62.395 167.238 63.404 167.986 64.738C169.419 62.655 170.932 61.076 172.527 60.002C174.122 58.928 175.929 58.146 177.947 57.658C179.998 57.137 182.098 56.877 184.246 56.877C187.078 56.877 189.747 57.284 192.254 58.098C194.76 58.911 196.811 60.327 198.406 62.346C200.034 64.331 200.848 66.919 200.848 70.109C200.848 71.607 200.734 73.869 200.506 76.896C200.311 79.924 200.018 85.132 199.627 92.521C199.269 99.878 199.074 105.038 199.041 108C196.046 107.935 193.149 107.902 190.35 107.902C186.932 107.902 183.351 107.935 179.607 108C179.933 103.866 180.258 98.69 180.584 92.473C180.942 86.223 181.121 81.893 181.121 79.484C181.121 77.401 180.877 75.855 180.389 74.846C179.9 73.804 179.266 73.104 178.484 72.746C177.736 72.355 176.906 72.16 175.994 72.16C175.018 72.16 174.171 72.339 173.455 72.697C172.674 73.088 171.99 73.69 171.404 74.504C170.623 75.578 169.988 76.929 169.5 78.557C169.109 79.826 168.8 81.763 168.572 84.367C168.344 87.036 168.165 90.552 168.035 94.914L167.645 108C164.161 107.935 161.02 107.902 158.221 107.902C155.356 107.902 151.987 107.935 148.113 108C148.406 105.103 148.748 100.236 149.139 93.4C149.529 86.564 149.725 81.991 149.725 79.68C149.725 77.727 149.529 76.262 149.139 75.285C148.748 74.309 148.195 73.527 147.479 72.941C146.795 72.355 145.867 72.062 144.695 72.062C143.426 72.062 142.319 72.437 141.375 73.186C140.431 73.934 139.617 75.008 138.934 76.408C138.283 77.808 137.811 79.745 137.518 82.219C137.257 84.66 137.013 88.404 136.785 93.449C136.557 98.495 136.411 103.345 136.346 108C132.407 107.935 129.217 107.902 126.775 107.902C124.074 107.902 120.721 107.935 116.717 108ZM214.422 72.355C215.04 69.133 215.431 66.919 215.594 65.715C215.757 64.478 216.017 62.557 216.375 59.953C225.75 57.902 233.807 56.877 240.545 56.877C244.386 56.877 247.902 57.316 251.092 58.195C254.282 59.042 256.772 60.425 258.562 62.346C260.353 64.266 261.248 67.017 261.248 70.598C261.248 72.421 261.004 76.522 260.516 82.902C260.027 89.283 259.653 97.648 259.393 108C256.202 107.935 253.029 107.902 249.871 107.902C246.811 107.902 243.556 107.935 240.105 108C240.561 104.419 241.066 97.03 241.619 85.832C240.382 86.418 239.406 86.841 238.689 87.102C238.006 87.362 236.785 87.753 235.027 88.273C233.27 88.794 231.886 89.234 230.877 89.592C229.9 89.95 229.038 90.406 228.289 90.959C227.573 91.512 227.052 92.082 226.727 92.668C226.434 93.254 226.287 93.905 226.287 94.621C226.287 95.728 226.727 96.672 227.605 97.453C228.484 98.234 229.884 98.625 231.805 98.625C232.488 98.625 233.221 98.576 234.002 98.479C234.783 98.348 235.857 98.055 237.225 97.6C236.281 100.106 235.158 103.768 233.855 108.586C231.056 109.042 228.403 109.27 225.896 109.27C221.86 109.27 218.491 108.716 215.789 107.609C213.12 106.47 211.053 104.647 209.588 102.141C208.156 99.634 207.439 97.128 207.439 94.621C207.439 93.091 207.7 91.594 208.221 90.129C208.774 88.664 209.62 87.232 210.76 85.832C211.899 84.432 213.234 83.244 214.764 82.268C216.294 81.258 218.377 80.314 221.014 79.436C223.683 78.557 227.052 77.727 231.121 76.945C232.814 76.62 234.36 76.278 235.76 75.92C237.192 75.529 238.201 75.204 238.787 74.943C239.406 74.65 239.894 74.325 240.252 73.967C240.643 73.576 240.919 73.186 241.082 72.795C241.245 72.372 241.326 71.932 241.326 71.477C241.326 70.24 240.805 69.296 239.764 68.645C238.722 67.961 237.192 67.619 235.174 67.619C229.575 67.619 222.658 69.198 214.422 72.355ZM270.281 107.951L271.16 97.453L273.064 60.979L273.602 41.35C278.126 41.415 281.528 41.447 283.807 41.447C286.769 41.447 290.04 41.415 293.621 41.35L292.498 56.34L290.691 93.254L290.301 108C286.818 107.935 283.676 107.902 280.877 107.902L270.281 107.951ZM301.238 107.951L302.117 97.453L304.021 60.979L304.559 41.35C309.083 41.415 312.485 41.447 314.764 41.447C317.726 41.447 320.997 41.415 324.578 41.35L323.455 56.34L321.648 93.254L321.258 108C317.775 107.935 314.633 107.902 311.834 107.902L301.238 107.951Z" fill="#0094FF"/>
<path d="M157.872 183.65C159.499 167.83 160.476 150.414 160.801 131.404L140 131.941L140.245 126.521C140.375 123.624 140.472 120.45 140.538 117C149.782 117.065 160.557 117.097 172.862 117.097L184.922 117.048H196.641L202.989 117L202.696 121.736C202.566 124.275 202.468 126.375 202.403 128.035C202.37 129.695 202.354 130.948 202.354 131.795C195.388 131.469 189.642 131.306 185.118 131.306H181.7C181.211 137.068 180.837 142.39 180.577 147.273C180.219 154.272 179.942 161.075 179.747 167.683C179.551 174.259 179.454 179.581 179.454 183.65C174.115 183.585 170.665 183.552 169.102 183.552C167.702 183.552 163.959 183.585 157.872 183.65ZM210.508 148.005C211.127 144.783 211.517 142.569 211.68 141.365C211.843 140.128 212.103 138.207 212.461 135.603C221.836 133.552 229.893 132.527 236.631 132.527C240.472 132.527 243.988 132.966 247.178 133.845C250.368 134.692 252.859 136.075 254.649 137.996C256.439 139.916 257.334 142.667 257.334 146.248C257.334 148.071 257.09 152.172 256.602 158.552C256.114 164.933 255.739 173.298 255.479 183.65C252.289 183.585 249.115 183.552 245.957 183.552C242.898 183.552 239.642 183.585 236.192 183.65C236.648 180.069 237.152 172.68 237.706 161.482C236.469 162.068 235.492 162.491 234.776 162.752C234.092 163.012 232.872 163.403 231.114 163.923C229.356 164.444 227.972 164.884 226.963 165.242C225.987 165.6 225.124 166.056 224.375 166.609C223.659 167.162 223.138 167.732 222.813 168.318C222.52 168.904 222.374 169.555 222.374 170.271C222.374 171.378 222.813 172.322 223.692 173.103C224.571 173.884 225.971 174.275 227.891 174.275C228.575 174.275 229.307 174.226 230.088 174.129C230.87 173.998 231.944 173.705 233.311 173.25C232.367 175.756 231.244 179.418 229.942 184.236C227.142 184.692 224.489 184.92 221.983 184.92C217.946 184.92 214.577 184.366 211.875 183.259C209.206 182.12 207.139 180.297 205.674 177.791C204.242 175.284 203.526 172.778 203.526 170.271C203.526 168.741 203.786 167.244 204.307 165.779C204.86 164.314 205.707 162.882 206.846 161.482C207.985 160.082 209.32 158.894 210.85 157.918C212.38 156.908 214.463 155.964 217.1 155.086C219.769 154.207 223.138 153.377 227.207 152.595C228.9 152.27 230.446 151.928 231.846 151.57C233.278 151.179 234.288 150.854 234.874 150.593C235.492 150.3 235.98 149.975 236.338 149.617C236.729 149.226 237.006 148.836 237.168 148.445C237.331 148.022 237.413 147.582 237.413 147.127C237.413 145.89 236.892 144.946 235.85 144.295C234.808 143.611 233.278 143.269 231.26 143.269C225.661 143.269 218.744 144.848 210.508 148.005ZM266.368 183.601L267.247 173.103L269.151 136.629L269.688 117C274.213 117.065 277.614 117.097 279.893 117.097C282.855 117.097 286.127 117.065 289.707 117L288.584 131.99L286.778 168.904L286.387 183.65C282.904 183.585 279.763 183.552 276.963 183.552L266.368 183.601ZM297.178 183.65C297.634 179.483 297.959 176.098 298.155 173.494C298.415 169.946 298.676 165.502 298.936 160.164L299.473 148.591C299.701 143.351 299.864 138.338 299.961 133.552C300.092 127.823 300.157 122.306 300.157 117C304.714 117.065 308.132 117.097 310.411 117.097C313.047 117.097 316.172 117.065 319.786 117C319.037 125.528 318.353 136.124 317.735 148.787C317.116 161.449 316.807 173.071 316.807 183.65C313.031 183.585 309.841 183.552 307.237 183.552C304.242 183.552 300.889 183.585 297.178 183.65ZM318.711 155.623L327.11 143.513L333.409 133.796C337.901 133.862 341.303 133.894 343.614 133.894C346.804 133.894 350.58 133.862 354.942 133.796L345.225 146.443C342.946 149.34 340.619 152.465 338.243 155.818C340.521 160.017 346.006 169.295 354.698 183.65C350.889 183.585 347.455 183.552 344.395 183.552C341.27 183.552 337.689 183.585 333.653 183.65L330.625 177.546C329.551 175.431 328.624 173.657 327.842 172.224C327.549 171.638 325.319 167.651 321.153 160.261L318.711 155.623Z" fill="#06A429"/>
</svg>
